G04 #@! TF.GenerationSoftware,KiCad,Pcbnew,8.0.0*
G04 #@! TF.CreationDate,2024-05-03T13:58:39-04:00*
G04 #@! TF.ProjectId,hdmi_trigger_interface,68646d69-5f74-4726-9967-6765725f696e,rev?*
G04 #@! TF.SameCoordinates,Original*
G04 #@! TF.FileFunction,Copper,L4,Bot*
G04 #@! TF.FilePolarity,Positive*
%FSLAX46Y46*%
G04 Gerber Fmt 4.6, Leading zero omitted, Abs format (unit mm)*
G04 Created by KiCad (PCBNEW 8.0.0) date 2024-05-03 13:58:39*
%MOMM*%
%LPD*%
G01*
G04 APERTURE LIST*
G04 #@! TA.AperFunction,ComponentPad*
%ADD10C,1.498600*%
G04 #@! TD*
G04 #@! TA.AperFunction,ComponentPad*
%ADD11C,3.810000*%
G04 #@! TD*
G04 #@! TA.AperFunction,ComponentPad*
%ADD12C,1.600000*%
G04 #@! TD*
G04 #@! TA.AperFunction,ComponentPad*
%ADD13O,1.600000X1.600000*%
G04 #@! TD*
G04 #@! TA.AperFunction,ComponentPad*
%ADD14R,1.700000X1.700000*%
G04 #@! TD*
G04 #@! TA.AperFunction,ComponentPad*
%ADD15O,1.700000X1.700000*%
G04 #@! TD*
G04 #@! TA.AperFunction,ComponentPad*
%ADD16C,1.508000*%
G04 #@! TD*
G04 #@! TA.AperFunction,ComponentPad*
%ADD17R,1.508000X1.508000*%
G04 #@! TD*
G04 #@! TA.AperFunction,ViaPad*
%ADD18C,1.000000*%
G04 #@! TD*
G04 APERTURE END LIST*
D10*
X205774801Y-57220001D03*
X203234801Y-58610001D03*
X205774801Y-60000000D03*
X203234801Y-61390000D03*
X205774801Y-62780000D03*
X203234801Y-64170000D03*
X205774801Y-65560000D03*
X203234801Y-66949999D03*
X205774801Y-68339999D03*
D11*
X204504801Y-50285001D03*
X204504801Y-75274999D03*
D12*
X231340000Y-65000000D03*
D13*
X241500000Y-65000000D03*
D14*
X218000000Y-38880000D03*
D15*
X218000000Y-41420000D03*
X218000000Y-43960000D03*
X218000000Y-46500000D03*
X218000000Y-49040000D03*
X218000000Y-51580000D03*
X218000000Y-54120000D03*
D12*
X217340000Y-72000000D03*
D13*
X227500000Y-72000000D03*
D12*
X217340000Y-68500000D03*
D13*
X227500000Y-68500000D03*
D12*
X217340000Y-65000000D03*
D13*
X227500000Y-65000000D03*
D12*
X217340000Y-61500000D03*
D13*
X227500000Y-61500000D03*
D12*
X231340000Y-72000000D03*
D13*
X241500000Y-72000000D03*
D12*
X231340000Y-68500000D03*
D13*
X241500000Y-68500000D03*
D12*
X231340000Y-61500000D03*
D13*
X241500000Y-61500000D03*
D12*
X253840000Y-77000000D03*
D13*
X264000000Y-77000000D03*
D12*
X253920000Y-73500000D03*
D13*
X264080000Y-73500000D03*
D12*
X253840000Y-70000000D03*
D13*
X264000000Y-70000000D03*
D12*
X253920000Y-66500000D03*
D13*
X264080000Y-66500000D03*
D12*
X253840000Y-63000000D03*
D13*
X264000000Y-63000000D03*
D12*
X253920000Y-59500000D03*
D13*
X264080000Y-59500000D03*
D12*
X253840000Y-56000000D03*
D13*
X264000000Y-56000000D03*
D12*
X253840000Y-52500000D03*
D13*
X264000000Y-52500000D03*
D16*
X242382500Y-33076600D03*
X242382500Y-30536600D03*
X239842500Y-33076600D03*
X239842500Y-30536600D03*
X237302500Y-33076600D03*
X237302500Y-30536600D03*
X234762500Y-33076600D03*
X234762500Y-30536600D03*
X232222500Y-33076600D03*
X232222500Y-30536600D03*
X229682500Y-33076600D03*
X229682500Y-30536600D03*
X227142500Y-33076600D03*
X227142500Y-30536600D03*
X224602500Y-33076600D03*
X224602500Y-30536600D03*
X222062500Y-33076600D03*
X222062500Y-30536600D03*
X219522500Y-33076600D03*
X219522500Y-30536600D03*
X216982500Y-33076600D03*
X216982500Y-30536600D03*
X214442500Y-33076600D03*
X214442500Y-30536600D03*
X211902500Y-33076600D03*
X211902500Y-30536600D03*
X209362500Y-33076600D03*
X209362500Y-30536600D03*
X206822500Y-33076600D03*
X206822500Y-30536600D03*
X209362500Y-86416600D03*
X209362500Y-83876600D03*
X211902500Y-86416600D03*
X211902500Y-83876600D03*
X214442500Y-86416600D03*
X214442500Y-83876600D03*
X216982500Y-86416600D03*
X216982500Y-83876600D03*
X219522500Y-86416600D03*
X219522500Y-83876600D03*
X222062500Y-86416600D03*
X222062500Y-83876600D03*
X224602500Y-86416600D03*
X224602500Y-83876600D03*
X227142500Y-86416600D03*
X227142500Y-83876600D03*
X229682500Y-86416600D03*
X229682500Y-83876600D03*
X232222500Y-86416600D03*
X232222500Y-83876600D03*
X234762500Y-86416600D03*
X234762500Y-83876600D03*
X237302500Y-86416600D03*
X237302500Y-83876600D03*
X239842500Y-86416600D03*
X239842500Y-83876600D03*
X242382500Y-86416600D03*
X242382500Y-83876600D03*
X244922500Y-86416600D03*
X244922500Y-83876600D03*
X247462500Y-86416600D03*
X247462500Y-83876600D03*
X250002500Y-86416600D03*
X250002500Y-83876600D03*
X252542500Y-86416600D03*
X252542500Y-83876600D03*
X255082500Y-86416600D03*
X255082500Y-83876600D03*
X262702500Y-33076600D03*
X262702500Y-30536600D03*
X260162500Y-33076600D03*
X260162500Y-30536600D03*
X257622500Y-33076600D03*
X257622500Y-30536600D03*
X255082500Y-33076600D03*
X255082500Y-30536600D03*
X252542500Y-33076600D03*
X252542500Y-30536600D03*
X250002500Y-33076600D03*
X250002500Y-30536600D03*
X247462500Y-33076600D03*
X247462500Y-30536600D03*
X244922500Y-33076600D03*
X244922500Y-30536600D03*
X206822500Y-86416600D03*
D17*
X201742500Y-30536600D03*
D16*
X204282500Y-30536600D03*
D17*
X201742500Y-83876600D03*
D16*
X204282500Y-83876600D03*
X262702500Y-86416600D03*
X201742500Y-33076600D03*
X201742500Y-86416600D03*
X262702500Y-83876600D03*
X206822500Y-83876600D03*
X260162500Y-86416600D03*
X260162500Y-83876600D03*
X257622500Y-86416600D03*
X257622500Y-83876600D03*
X204282500Y-33076600D03*
X204282500Y-86416600D03*
D18*
X244000000Y-60395200D03*
X239000000Y-66000000D03*
G04 #@! TA.AperFunction,Conductor*
G36*
X203816575Y-83683607D02*
G01*
X203782500Y-83810774D01*
X203782500Y-83942426D01*
X203816575Y-84069593D01*
X203849488Y-84126600D01*
X202175512Y-84126600D01*
X202208425Y-84069593D01*
X202242500Y-83942426D01*
X202242500Y-83810774D01*
X202208425Y-83683607D01*
X202175512Y-83626600D01*
X203849488Y-83626600D01*
X203816575Y-83683607D01*
G37*
G04 #@! TD.AperFunction*
G04 #@! TA.AperFunction,Conductor*
G36*
X203816575Y-30343607D02*
G01*
X203782500Y-30470774D01*
X203782500Y-30602426D01*
X203816575Y-30729593D01*
X203849488Y-30786600D01*
X202175512Y-30786600D01*
X202208425Y-30729593D01*
X202242500Y-30602426D01*
X202242500Y-30470774D01*
X202208425Y-30343607D01*
X202175512Y-30286600D01*
X203849488Y-30286600D01*
X203816575Y-30343607D01*
G37*
G04 #@! TD.AperFunction*
G04 #@! TA.AperFunction,Conductor*
G36*
X269152233Y-26771785D02*
G01*
X269173219Y-26788764D01*
X271087059Y-28717762D01*
X271291044Y-28923362D01*
X271324287Y-28984817D01*
X271327018Y-29010660D01*
X271344480Y-87942156D01*
X271324815Y-88009202D01*
X271308161Y-88029874D01*
X269173256Y-90164781D01*
X269111933Y-90198266D01*
X269085575Y-90201100D01*
X194914425Y-90201100D01*
X194847386Y-90181415D01*
X194826744Y-90164781D01*
X192691819Y-88029856D01*
X192658334Y-87968533D01*
X192655500Y-87942175D01*
X192655500Y-86537888D01*
X194812000Y-86537888D01*
X194843661Y-86778385D01*
X194906447Y-87012704D01*
X194999273Y-87236805D01*
X194999276Y-87236812D01*
X195120564Y-87446889D01*
X195120566Y-87446892D01*
X195120567Y-87446893D01*
X195268233Y-87639336D01*
X195268239Y-87639343D01*
X195439756Y-87810860D01*
X195439762Y-87810865D01*
X195632211Y-87958536D01*
X195842288Y-88079824D01*
X196066400Y-88172654D01*
X196300711Y-88235438D01*
X196481086Y-88259184D01*
X196541211Y-88267100D01*
X196541212Y-88267100D01*
X196783789Y-88267100D01*
X196831888Y-88260767D01*
X197024289Y-88235438D01*
X197258600Y-88172654D01*
X197482712Y-88079824D01*
X197692789Y-87958536D01*
X197885238Y-87810865D01*
X198056765Y-87639338D01*
X198204436Y-87446889D01*
X198325724Y-87236812D01*
X198418554Y-87012700D01*
X198481338Y-86778389D01*
X198513000Y-86537888D01*
X198513000Y-86416602D01*
X200483208Y-86416602D01*
X200499632Y-86604342D01*
X200502339Y-86635274D01*
X200559153Y-86847303D01*
X200559154Y-86847306D01*
X200559155Y-86847308D01*
X200651919Y-87046242D01*
X200651923Y-87046250D01*
X200777822Y-87226052D01*
X200777827Y-87226058D01*
X200933041Y-87381272D01*
X200933047Y-87381277D01*
X201112849Y-87507176D01*
X201112851Y-87507177D01*
X201112854Y-87507179D01*
X201311797Y-87599947D01*
X201523826Y-87656761D01*
X201680021Y-87670426D01*
X201742498Y-87675892D01*
X201742500Y-87675892D01*
X201742502Y-87675892D01*
X201797168Y-87671109D01*
X201961174Y-87656761D01*
X202173203Y-87599947D01*
X202372146Y-87507179D01*
X202551957Y-87381274D01*
X202707174Y-87226057D01*
X202833079Y-87046246D01*
X202900118Y-86902478D01*
X202946290Y-86850039D01*
X203013483Y-86830887D01*
X203080364Y-86851102D01*
X203124881Y-86902478D01*
X203147621Y-86951244D01*
X203191919Y-87046242D01*
X203191923Y-87046250D01*
X203317822Y-87226052D01*
X203317827Y-87226058D01*
X203473041Y-87381272D01*
X203473047Y-87381277D01*
X203652849Y-87507176D01*
X203652851Y-87507177D01*
X203652854Y-87507179D01*
X203851797Y-87599947D01*
X204063826Y-87656761D01*
X204220021Y-87670426D01*
X204282498Y-87675892D01*
X204282500Y-87675892D01*
X204282502Y-87675892D01*
X204337168Y-87671109D01*
X204501174Y-87656761D01*
X204713203Y-87599947D01*
X204912146Y-87507179D01*
X205091957Y-87381274D01*
X205247174Y-87226057D01*
X205373079Y-87046246D01*
X205440118Y-86902478D01*
X205486290Y-86850039D01*
X205553483Y-86830887D01*
X205620364Y-86851102D01*
X205664881Y-86902478D01*
X205687621Y-86951244D01*
X205731919Y-87046242D01*
X205731923Y-87046250D01*
X205857822Y-87226052D01*
X205857827Y-87226058D01*
X206013041Y-87381272D01*
X206013047Y-87381277D01*
X206192849Y-87507176D01*
X206192851Y-87507177D01*
X206192854Y-87507179D01*
X206391797Y-87599947D01*
X206603826Y-87656761D01*
X206760021Y-87670426D01*
X206822498Y-87675892D01*
X206822500Y-87675892D01*
X206822502Y-87675892D01*
X206877168Y-87671109D01*
X207041174Y-87656761D01*
X207253203Y-87599947D01*
X207452146Y-87507179D01*
X207631957Y-87381274D01*
X207787174Y-87226057D01*
X207913079Y-87046246D01*
X207980118Y-86902478D01*
X208026290Y-86850039D01*
X208093483Y-86830887D01*
X208160364Y-86851102D01*
X208204881Y-86902478D01*
X208227621Y-86951244D01*
X208271919Y-87046242D01*
X208271923Y-87046250D01*
X208397822Y-87226052D01*
X208397827Y-87226058D01*
X208553041Y-87381272D01*
X208553047Y-87381277D01*
X208732849Y-87507176D01*
X208732851Y-87507177D01*
X208732854Y-87507179D01*
X208931797Y-87599947D01*
X209143826Y-87656761D01*
X209300021Y-87670426D01*
X209362498Y-87675892D01*
X209362500Y-87675892D01*
X209362502Y-87675892D01*
X209417168Y-87671109D01*
X209581174Y-87656761D01*
X209793203Y-87599947D01*
X209992146Y-87507179D01*
X210171957Y-87381274D01*
X210327174Y-87226057D01*
X210453079Y-87046246D01*
X210520118Y-86902478D01*
X210566290Y-86850039D01*
X210633483Y-86830887D01*
X210700364Y-86851102D01*
X210744881Y-86902478D01*
X210767621Y-86951244D01*
X210811919Y-87046242D01*
X210811923Y-87046250D01*
X210937822Y-87226052D01*
X210937827Y-87226058D01*
X211093041Y-87381272D01*
X211093047Y-87381277D01*
X211272849Y-87507176D01*
X211272851Y-87507177D01*
X211272854Y-87507179D01*
X211471797Y-87599947D01*
X211683826Y-87656761D01*
X211840021Y-87670426D01*
X211902498Y-87675892D01*
X211902500Y-87675892D01*
X211902502Y-87675892D01*
X211957168Y-87671109D01*
X212121174Y-87656761D01*
X212333203Y-87599947D01*
X212532146Y-87507179D01*
X212711957Y-87381274D01*
X212867174Y-87226057D01*
X212993079Y-87046246D01*
X213060118Y-86902478D01*
X213106290Y-86850039D01*
X213173483Y-86830887D01*
X213240364Y-86851102D01*
X213284881Y-86902478D01*
X213307621Y-86951244D01*
X213351919Y-87046242D01*
X213351923Y-87046250D01*
X213477822Y-87226052D01*
X213477827Y-87226058D01*
X213633041Y-87381272D01*
X213633047Y-87381277D01*
X213812849Y-87507176D01*
X213812851Y-87507177D01*
X213812854Y-87507179D01*
X214011797Y-87599947D01*
X214223826Y-87656761D01*
X214380021Y-87670426D01*
X214442498Y-87675892D01*
X214442500Y-87675892D01*
X214442502Y-87675892D01*
X214497168Y-87671109D01*
X214661174Y-87656761D01*
X214873203Y-87599947D01*
X215072146Y-87507179D01*
X215251957Y-87381274D01*
X215407174Y-87226057D01*
X215533079Y-87046246D01*
X215600118Y-86902478D01*
X215646290Y-86850039D01*
X215713483Y-86830887D01*
X215780364Y-86851102D01*
X215824881Y-86902478D01*
X215847621Y-86951244D01*
X215891919Y-87046242D01*
X215891923Y-87046250D01*
X216017822Y-87226052D01*
X216017827Y-87226058D01*
X216173041Y-87381272D01*
X216173047Y-87381277D01*
X216352849Y-87507176D01*
X216352851Y-87507177D01*
X216352854Y-87507179D01*
X216551797Y-87599947D01*
X216763826Y-87656761D01*
X216920021Y-87670426D01*
X216982498Y-87675892D01*
X216982500Y-87675892D01*
X216982502Y-87675892D01*
X217037168Y-87671109D01*
X217201174Y-87656761D01*
X217413203Y-87599947D01*
X217612146Y-87507179D01*
X217791957Y-87381274D01*
X217947174Y-87226057D01*
X218073079Y-87046246D01*
X218140118Y-86902478D01*
X218186290Y-86850039D01*
X218253483Y-86830887D01*
X218320364Y-86851102D01*
X218364881Y-86902478D01*
X218387621Y-86951244D01*
X218431919Y-87046242D01*
X218431923Y-87046250D01*
X218557822Y-87226052D01*
X218557827Y-87226058D01*
X218713041Y-87381272D01*
X218713047Y-87381277D01*
X218892849Y-87507176D01*
X218892851Y-87507177D01*
X218892854Y-87507179D01*
X219091797Y-87599947D01*
X219303826Y-87656761D01*
X219460021Y-87670426D01*
X219522498Y-87675892D01*
X219522500Y-87675892D01*
X219522502Y-87675892D01*
X219577168Y-87671109D01*
X219741174Y-87656761D01*
X219953203Y-87599947D01*
X220152146Y-87507179D01*
X220331957Y-87381274D01*
X220487174Y-87226057D01*
X220613079Y-87046246D01*
X220680118Y-86902478D01*
X220726290Y-86850039D01*
X220793483Y-86830887D01*
X220860364Y-86851102D01*
X220904881Y-86902478D01*
X220927621Y-86951244D01*
X220971919Y-87046242D01*
X220971923Y-87046250D01*
X221097822Y-87226052D01*
X221097827Y-87226058D01*
X221253041Y-87381272D01*
X221253047Y-87381277D01*
X221432849Y-87507176D01*
X221432851Y-87507177D01*
X221432854Y-87507179D01*
X221631797Y-87599947D01*
X221843826Y-87656761D01*
X222000021Y-87670426D01*
X222062498Y-87675892D01*
X222062500Y-87675892D01*
X222062502Y-87675892D01*
X222117168Y-87671109D01*
X222281174Y-87656761D01*
X222493203Y-87599947D01*
X222692146Y-87507179D01*
X222871957Y-87381274D01*
X223027174Y-87226057D01*
X223153079Y-87046246D01*
X223220118Y-86902478D01*
X223266290Y-86850039D01*
X223333483Y-86830887D01*
X223400364Y-86851102D01*
X223444881Y-86902478D01*
X223467621Y-86951244D01*
X223511919Y-87046242D01*
X223511923Y-87046250D01*
X223637822Y-87226052D01*
X223637827Y-87226058D01*
X223793041Y-87381272D01*
X223793047Y-87381277D01*
X223972849Y-87507176D01*
X223972851Y-87507177D01*
X223972854Y-87507179D01*
X224171797Y-87599947D01*
X224383826Y-87656761D01*
X224540021Y-87670426D01*
X224602498Y-87675892D01*
X224602500Y-87675892D01*
X224602502Y-87675892D01*
X224657168Y-87671109D01*
X224821174Y-87656761D01*
X225033203Y-87599947D01*
X225232146Y-87507179D01*
X225411957Y-87381274D01*
X225567174Y-87226057D01*
X225693079Y-87046246D01*
X225760118Y-86902478D01*
X225806290Y-86850039D01*
X225873483Y-86830887D01*
X225940364Y-86851102D01*
X225984881Y-86902478D01*
X226007621Y-86951244D01*
X226051919Y-87046242D01*
X226051923Y-87046250D01*
X226177822Y-87226052D01*
X226177827Y-87226058D01*
X226333041Y-87381272D01*
X226333047Y-87381277D01*
X226512849Y-87507176D01*
X226512851Y-87507177D01*
X226512854Y-87507179D01*
X226711797Y-87599947D01*
X226923826Y-87656761D01*
X227080021Y-87670426D01*
X227142498Y-87675892D01*
X227142500Y-87675892D01*
X227142502Y-87675892D01*
X227197168Y-87671109D01*
X227361174Y-87656761D01*
X227573203Y-87599947D01*
X227772146Y-87507179D01*
X227951957Y-87381274D01*
X228107174Y-87226057D01*
X228233079Y-87046246D01*
X228300118Y-86902478D01*
X228346290Y-86850039D01*
X228413483Y-86830887D01*
X228480364Y-86851102D01*
X228524881Y-86902478D01*
X228547621Y-86951244D01*
X228591919Y-87046242D01*
X228591923Y-87046250D01*
X228717822Y-87226052D01*
X228717827Y-87226058D01*
X228873041Y-87381272D01*
X228873047Y-87381277D01*
X229052849Y-87507176D01*
X229052851Y-87507177D01*
X229052854Y-87507179D01*
X229251797Y-87599947D01*
X229463826Y-87656761D01*
X229620021Y-87670426D01*
X229682498Y-87675892D01*
X229682500Y-87675892D01*
X229682502Y-87675892D01*
X229737168Y-87671109D01*
X229901174Y-87656761D01*
X230113203Y-87599947D01*
X230312146Y-87507179D01*
X230491957Y-87381274D01*
X230647174Y-87226057D01*
X230773079Y-87046246D01*
X230840118Y-86902478D01*
X230886290Y-86850039D01*
X230953483Y-86830887D01*
X231020364Y-86851102D01*
X231064881Y-86902478D01*
X231087621Y-86951244D01*
X231131919Y-87046242D01*
X231131923Y-87046250D01*
X231257822Y-87226052D01*
X231257827Y-87226058D01*
X231413041Y-87381272D01*
X231413047Y-87381277D01*
X231592849Y-87507176D01*
X231592851Y-87507177D01*
X231592854Y-87507179D01*
X231791797Y-87599947D01*
X232003826Y-87656761D01*
X232160021Y-87670426D01*
X232222498Y-87675892D01*
X232222500Y-87675892D01*
X232222502Y-87675892D01*
X232277168Y-87671109D01*
X232441174Y-87656761D01*
X232653203Y-87599947D01*
X232852146Y-87507179D01*
X233031957Y-87381274D01*
X233187174Y-87226057D01*
X233313079Y-87046246D01*
X233380118Y-86902478D01*
X233426290Y-86850039D01*
X233493483Y-86830887D01*
X233560364Y-86851102D01*
X233604881Y-86902478D01*
X233627621Y-86951244D01*
X233671919Y-87046242D01*
X233671923Y-87046250D01*
X233797822Y-87226052D01*
X233797827Y-87226058D01*
X233953041Y-87381272D01*
X233953047Y-87381277D01*
X234132849Y-87507176D01*
X234132851Y-87507177D01*
X234132854Y-87507179D01*
X234331797Y-87599947D01*
X234543826Y-87656761D01*
X234700021Y-87670426D01*
X234762498Y-87675892D01*
X234762500Y-87675892D01*
X234762502Y-87675892D01*
X234817168Y-87671109D01*
X234981174Y-87656761D01*
X235193203Y-87599947D01*
X235392146Y-87507179D01*
X235571957Y-87381274D01*
X235727174Y-87226057D01*
X235853079Y-87046246D01*
X235920118Y-86902478D01*
X235966290Y-86850039D01*
X236033483Y-86830887D01*
X236100364Y-86851102D01*
X236144881Y-86902478D01*
X236167621Y-86951244D01*
X236211919Y-87046242D01*
X236211923Y-87046250D01*
X236337822Y-87226052D01*
X236337827Y-87226058D01*
X236493041Y-87381272D01*
X236493047Y-87381277D01*
X236672849Y-87507176D01*
X236672851Y-87507177D01*
X236672854Y-87507179D01*
X236871797Y-87599947D01*
X237083826Y-87656761D01*
X237240021Y-87670426D01*
X237302498Y-87675892D01*
X237302500Y-87675892D01*
X237302502Y-87675892D01*
X237357168Y-87671109D01*
X237521174Y-87656761D01*
X237733203Y-87599947D01*
X237932146Y-87507179D01*
X238111957Y-87381274D01*
X238267174Y-87226057D01*
X238393079Y-87046246D01*
X238460118Y-86902478D01*
X238506290Y-86850039D01*
X238573483Y-86830887D01*
X238640364Y-86851102D01*
X238684881Y-86902478D01*
X238707621Y-86951244D01*
X238751919Y-87046242D01*
X238751923Y-87046250D01*
X238877822Y-87226052D01*
X238877827Y-87226058D01*
X239033041Y-87381272D01*
X239033047Y-87381277D01*
X239212849Y-87507176D01*
X239212851Y-87507177D01*
X239212854Y-87507179D01*
X239411797Y-87599947D01*
X239623826Y-87656761D01*
X239780021Y-87670426D01*
X239842498Y-87675892D01*
X239842500Y-87675892D01*
X239842502Y-87675892D01*
X239897168Y-87671109D01*
X240061174Y-87656761D01*
X240273203Y-87599947D01*
X240472146Y-87507179D01*
X240651957Y-87381274D01*
X240807174Y-87226057D01*
X240933079Y-87046246D01*
X241000118Y-86902478D01*
X241046290Y-86850039D01*
X241113483Y-86830887D01*
X241180364Y-86851102D01*
X241224881Y-86902478D01*
X241247621Y-86951244D01*
X241291919Y-87046242D01*
X241291923Y-87046250D01*
X241417822Y-87226052D01*
X241417827Y-87226058D01*
X241573041Y-87381272D01*
X241573047Y-87381277D01*
X241752849Y-87507176D01*
X241752851Y-87507177D01*
X241752854Y-87507179D01*
X241951797Y-87599947D01*
X242163826Y-87656761D01*
X242320021Y-87670426D01*
X242382498Y-87675892D01*
X242382500Y-87675892D01*
X242382502Y-87675892D01*
X242437168Y-87671109D01*
X242601174Y-87656761D01*
X242813203Y-87599947D01*
X243012146Y-87507179D01*
X243191957Y-87381274D01*
X243347174Y-87226057D01*
X243473079Y-87046246D01*
X243540118Y-86902478D01*
X243586290Y-86850039D01*
X243653483Y-86830887D01*
X243720364Y-86851102D01*
X243764881Y-86902478D01*
X243787621Y-86951244D01*
X243831919Y-87046242D01*
X243831923Y-87046250D01*
X243957822Y-87226052D01*
X243957827Y-87226058D01*
X244113041Y-87381272D01*
X244113047Y-87381277D01*
X244292849Y-87507176D01*
X244292851Y-87507177D01*
X244292854Y-87507179D01*
X244491797Y-87599947D01*
X244703826Y-87656761D01*
X244860021Y-87670426D01*
X244922498Y-87675892D01*
X244922500Y-87675892D01*
X244922502Y-87675892D01*
X244977168Y-87671109D01*
X245141174Y-87656761D01*
X245353203Y-87599947D01*
X245552146Y-87507179D01*
X245731957Y-87381274D01*
X245887174Y-87226057D01*
X246013079Y-87046246D01*
X246105847Y-86847303D01*
X246162661Y-86635274D01*
X246181792Y-86416600D01*
X246500166Y-86416600D01*
X246518656Y-86604340D01*
X246528038Y-86635268D01*
X246573419Y-86784869D01*
X246662349Y-86951244D01*
X246662351Y-86951246D01*
X246782026Y-87097073D01*
X246870110Y-87169360D01*
X246927856Y-87216751D01*
X247094231Y-87305681D01*
X247274758Y-87360443D01*
X247462500Y-87378934D01*
X247650242Y-87360443D01*
X247830769Y-87305681D01*
X247997144Y-87216751D01*
X248142973Y-87097073D01*
X248262651Y-86951244D01*
X248351581Y-86784869D01*
X248406343Y-86604342D01*
X248424834Y-86416600D01*
X249040166Y-86416600D01*
X249058656Y-86604340D01*
X249068038Y-86635268D01*
X249113419Y-86784869D01*
X249202349Y-86951244D01*
X249202351Y-86951246D01*
X249322026Y-87097073D01*
X249410110Y-87169360D01*
X249467856Y-87216751D01*
X249634231Y-87305681D01*
X249814758Y-87360443D01*
X250002500Y-87378934D01*
X250190242Y-87360443D01*
X250370769Y-87305681D01*
X250537144Y-87216751D01*
X250682973Y-87097073D01*
X250802651Y-86951244D01*
X250891581Y-86784869D01*
X250946343Y-86604342D01*
X250964834Y-86416600D01*
X251580166Y-86416600D01*
X251598656Y-86604340D01*
X251608038Y-86635268D01*
X251653419Y-86784869D01*
X251742349Y-86951244D01*
X251742351Y-86951246D01*
X251862026Y-87097073D01*
X251950110Y-87169360D01*
X252007856Y-87216751D01*
X252174231Y-87305681D01*
X252354758Y-87360443D01*
X252542500Y-87378934D01*
X252730242Y-87360443D01*
X252910769Y-87305681D01*
X253077144Y-87216751D01*
X253222973Y-87097073D01*
X253342651Y-86951244D01*
X253431581Y-86784869D01*
X253486343Y-86604342D01*
X253504834Y-86416600D01*
X254120166Y-86416600D01*
X254138656Y-86604340D01*
X254148038Y-86635268D01*
X254193419Y-86784869D01*
X254282349Y-86951244D01*
X254282351Y-86951246D01*
X254402026Y-87097073D01*
X254490110Y-87169360D01*
X254547856Y-87216751D01*
X254714231Y-87305681D01*
X254894758Y-87360443D01*
X255082500Y-87378934D01*
X255270242Y-87360443D01*
X255450769Y-87305681D01*
X255617144Y-87216751D01*
X255762973Y-87097073D01*
X255882651Y-86951244D01*
X255971581Y-86784869D01*
X256026343Y-86604342D01*
X256044834Y-86416602D01*
X256363208Y-86416602D01*
X256379632Y-86604342D01*
X256382339Y-86635274D01*
X256439153Y-86847303D01*
X256439154Y-86847306D01*
X256439155Y-86847308D01*
X256531919Y-87046242D01*
X256531923Y-87046250D01*
X256657822Y-87226052D01*
X256657827Y-87226058D01*
X256813041Y-87381272D01*
X256813047Y-87381277D01*
X256992849Y-87507176D01*
X256992851Y-87507177D01*
X256992854Y-87507179D01*
X257191797Y-87599947D01*
X257403826Y-87656761D01*
X257560021Y-87670426D01*
X257622498Y-87675892D01*
X257622500Y-87675892D01*
X257622502Y-87675892D01*
X257677168Y-87671109D01*
X257841174Y-87656761D01*
X258053203Y-87599947D01*
X258252146Y-87507179D01*
X258431957Y-87381274D01*
X258587174Y-87226057D01*
X258713079Y-87046246D01*
X258780118Y-86902478D01*
X258826290Y-86850039D01*
X258893483Y-86830887D01*
X258960364Y-86851102D01*
X259004881Y-86902478D01*
X259027621Y-86951244D01*
X259071919Y-87046242D01*
X259071923Y-87046250D01*
X259197822Y-87226052D01*
X259197827Y-87226058D01*
X259353041Y-87381272D01*
X259353047Y-87381277D01*
X259532849Y-87507176D01*
X259532851Y-87507177D01*
X259532854Y-87507179D01*
X259731797Y-87599947D01*
X259943826Y-87656761D01*
X260100021Y-87670426D01*
X260162498Y-87675892D01*
X260162500Y-87675892D01*
X260162502Y-87675892D01*
X260217168Y-87671109D01*
X260381174Y-87656761D01*
X260593203Y-87599947D01*
X260792146Y-87507179D01*
X260971957Y-87381274D01*
X261127174Y-87226057D01*
X261253079Y-87046246D01*
X261320393Y-86901888D01*
X261366565Y-86849449D01*
X261433758Y-86830297D01*
X261500639Y-86850512D01*
X261545157Y-86901888D01*
X261612355Y-87045994D01*
X261612356Y-87045996D01*
X261738211Y-87225736D01*
X261893363Y-87380888D01*
X262073103Y-87506743D01*
X262073105Y-87506744D01*
X262271968Y-87599476D01*
X262271972Y-87599477D01*
X262452499Y-87647847D01*
X262452500Y-87647847D01*
X262452500Y-86849612D01*
X262509507Y-86882525D01*
X262636674Y-86916600D01*
X262768326Y-86916600D01*
X262895493Y-86882525D01*
X262952500Y-86849612D01*
X262952500Y-87647847D01*
X263133027Y-87599477D01*
X263133031Y-87599476D01*
X263331894Y-87506744D01*
X263331896Y-87506743D01*
X263511636Y-87380888D01*
X263666788Y-87225736D01*
X263792643Y-87045996D01*
X263792644Y-87045994D01*
X263885374Y-86847133D01*
X263885378Y-86847124D01*
X263933749Y-86666600D01*
X263135512Y-86666600D01*
X263168425Y-86609593D01*
X263187639Y-86537888D01*
X265932000Y-86537888D01*
X265963661Y-86778385D01*
X266026447Y-87012704D01*
X266119273Y-87236805D01*
X266119276Y-87236812D01*
X266240564Y-87446889D01*
X266240566Y-87446892D01*
X266240567Y-87446893D01*
X266388233Y-87639336D01*
X266388239Y-87639343D01*
X266559756Y-87810860D01*
X266559762Y-87810865D01*
X266752211Y-87958536D01*
X266962288Y-88079824D01*
X267186400Y-88172654D01*
X267420711Y-88235438D01*
X267601086Y-88259184D01*
X267661211Y-88267100D01*
X267661212Y-88267100D01*
X267903789Y-88267100D01*
X267951888Y-88260767D01*
X268144289Y-88235438D01*
X268378600Y-88172654D01*
X268602712Y-88079824D01*
X268812789Y-87958536D01*
X269005238Y-87810865D01*
X269176765Y-87639338D01*
X269324436Y-87446889D01*
X269445724Y-87236812D01*
X269538554Y-87012700D01*
X269601338Y-86778389D01*
X269633000Y-86537888D01*
X269633000Y-86295312D01*
X269601338Y-86054811D01*
X269538554Y-85820500D01*
X269445724Y-85596388D01*
X269324436Y-85386311D01*
X269226733Y-85258982D01*
X269176766Y-85193863D01*
X269176760Y-85193856D01*
X269005243Y-85022339D01*
X269005236Y-85022333D01*
X268812793Y-84874667D01*
X268812792Y-84874666D01*
X268812789Y-84874664D01*
X268624025Y-84765681D01*
X268602714Y-84753377D01*
X268602705Y-84753373D01*
X268378604Y-84660547D01*
X268144285Y-84597761D01*
X267903789Y-84566100D01*
X267903788Y-84566100D01*
X267661212Y-84566100D01*
X267661211Y-84566100D01*
X267420714Y-84597761D01*
X267186395Y-84660547D01*
X266962294Y-84753373D01*
X266962285Y-84753377D01*
X266752206Y-84874667D01*
X266559763Y-85022333D01*
X266559756Y-85022339D01*
X266388239Y-85193856D01*
X266388233Y-85193863D01*
X266240567Y-85386306D01*
X266119277Y-85596385D01*
X266119273Y-85596394D01*
X266026447Y-85820495D01*
X265963661Y-86054814D01*
X265932000Y-86295311D01*
X265932000Y-86537888D01*
X263187639Y-86537888D01*
X263202500Y-86482426D01*
X263202500Y-86350774D01*
X263168425Y-86223607D01*
X263135512Y-86166600D01*
X263933749Y-86166600D01*
X263933749Y-86166599D01*
X263885378Y-85986075D01*
X263885374Y-85986066D01*
X263792644Y-85787205D01*
X263792643Y-85787203D01*
X263666788Y-85607463D01*
X263511636Y-85452311D01*
X263331896Y-85326456D01*
X263331894Y-85326455D01*
X263187788Y-85259257D01*
X263135349Y-85213084D01*
X263116197Y-85145891D01*
X263136413Y-85079010D01*
X263187788Y-85034493D01*
X263332146Y-84967179D01*
X263511957Y-84841274D01*
X263667174Y-84686057D01*
X263793079Y-84506246D01*
X263885847Y-84307303D01*
X263942661Y-84095274D01*
X263961792Y-83876600D01*
X263942661Y-83657926D01*
X263885847Y-83445897D01*
X263793079Y-83246954D01*
X263793077Y-83246951D01*
X263793076Y-83246949D01*
X263667177Y-83067147D01*
X263667172Y-83067141D01*
X263511958Y-82911927D01*
X263511952Y-82911922D01*
X263332150Y-82786023D01*
X263332142Y-82786019D01*
X263133208Y-82693255D01*
X263133206Y-82693254D01*
X263133203Y-82693253D01*
X262982385Y-82652840D01*
X262921175Y-82636439D01*
X262921168Y-82636438D01*
X262702502Y-82617308D01*
X262702498Y-82617308D01*
X262483831Y-82636438D01*
X262483824Y-82636439D01*
X262361402Y-82669242D01*
X262271797Y-82693253D01*
X262271795Y-82693253D01*
X262271791Y-82693255D01*
X262072857Y-82786019D01*
X262072849Y-82786023D01*
X261893047Y-82911922D01*
X261893041Y-82911927D01*
X261737827Y-83067141D01*
X261737822Y-83067147D01*
X261611923Y-83246949D01*
X261611919Y-83246957D01*
X261544882Y-83390720D01*
X261498710Y-83443160D01*
X261431517Y-83462312D01*
X261364635Y-83442096D01*
X261320118Y-83390720D01*
X261257101Y-83255580D01*
X261253079Y-83246954D01*
X261253077Y-83246951D01*
X261253076Y-83246949D01*
X261127177Y-83067147D01*
X261127172Y-83067141D01*
X260971958Y-82911927D01*
X260971952Y-82911922D01*
X260792150Y-82786023D01*
X260792142Y-82786019D01*
X260593208Y-82693255D01*
X260593206Y-82693254D01*
X260593203Y-82693253D01*
X260442385Y-82652840D01*
X260381175Y-82636439D01*
X260381168Y-82636438D01*
X260162502Y-82617308D01*
X260162498Y-82617308D01*
X259943831Y-82636438D01*
X259943824Y-82636439D01*
X259821402Y-82669242D01*
X259731797Y-82693253D01*
X259731795Y-82693253D01*
X259731791Y-82693255D01*
X259532857Y-82786019D01*
X259532849Y-82786023D01*
X259353047Y-82911922D01*
X259353041Y-82911927D01*
X259197827Y-83067141D01*
X259197822Y-83067147D01*
X259071923Y-83246949D01*
X259071919Y-83246957D01*
X259004882Y-83390720D01*
X258958710Y-83443160D01*
X258891517Y-83462312D01*
X258824635Y-83442096D01*
X258780118Y-83390720D01*
X258717101Y-83255580D01*
X258713079Y-83246954D01*
X258713077Y-83246951D01*
X258713076Y-83246949D01*
X258587177Y-83067147D01*
X258587172Y-83067141D01*
X258431958Y-82911927D01*
X258431952Y-82911922D01*
X258252150Y-82786023D01*
X258252142Y-82786019D01*
X258053208Y-82693255D01*
X258053206Y-82693254D01*
X258053203Y-82693253D01*
X257902385Y-82652840D01*
X257841175Y-82636439D01*
X257841168Y-82636438D01*
X257622502Y-82617308D01*
X257622498Y-82617308D01*
X257403831Y-82636438D01*
X257403824Y-82636439D01*
X257281402Y-82669242D01*
X257191797Y-82693253D01*
X257191795Y-82693253D01*
X257191791Y-82693255D01*
X256992857Y-82786019D01*
X256992849Y-82786023D01*
X256813047Y-82911922D01*
X256813041Y-82911927D01*
X256657827Y-83067141D01*
X256657822Y-83067147D01*
X256531923Y-83246949D01*
X256531919Y-83246957D01*
X256439155Y-83445891D01*
X256439153Y-83445895D01*
X256439153Y-83445897D01*
X256430953Y-83476501D01*
X256382339Y-83657924D01*
X256382338Y-83657931D01*
X256363208Y-83876597D01*
X256363208Y-83876602D01*
X256379632Y-84064342D01*
X256382339Y-84095274D01*
X256439153Y-84307303D01*
X256439154Y-84307306D01*
X256439155Y-84307308D01*
X256531919Y-84506242D01*
X256531923Y-84506250D01*
X256657822Y-84686052D01*
X256657827Y-84686058D01*
X256813041Y-84841272D01*
X256813047Y-84841277D01*
X256992849Y-84967176D01*
X256992851Y-84967177D01*
X256992854Y-84967179D01*
X257037055Y-84987790D01*
X257136620Y-85034218D01*
X257189060Y-85080390D01*
X257208212Y-85147583D01*
X257187996Y-85214465D01*
X257136620Y-85258982D01*
X256992857Y-85326019D01*
X256992849Y-85326023D01*
X256813047Y-85451922D01*
X256813041Y-85451927D01*
X256657827Y-85607141D01*
X256657822Y-85607147D01*
X256531923Y-85786949D01*
X256531919Y-85786957D01*
X256439155Y-85985891D01*
X256439153Y-85985895D01*
X256439153Y-85985897D01*
X256415142Y-86075502D01*
X256382339Y-86197924D01*
X256382338Y-86197931D01*
X256363208Y-86416597D01*
X256363208Y-86416602D01*
X256044834Y-86416602D01*
X256044834Y-86416600D01*
X256026343Y-86228858D01*
X255971581Y-86048331D01*
X255882651Y-85881956D01*
X255832212Y-85820495D01*
X255762973Y-85736126D01*
X255617146Y-85616451D01*
X255617147Y-85616451D01*
X255617144Y-85616449D01*
X255450769Y-85527519D01*
X255360505Y-85500138D01*
X255270240Y-85472756D01*
X255082500Y-85454266D01*
X254894759Y-85472756D01*
X254714228Y-85527520D01*
X254613813Y-85581193D01*
X254547856Y-85616449D01*
X254547854Y-85616450D01*
X254547853Y-85616451D01*
X254402026Y-85736126D01*
X254282351Y-85881953D01*
X254193420Y-86048328D01*
X254138656Y-86228859D01*
X254120166Y-86416600D01*
X253504834Y-86416600D01*
X253486343Y-86228858D01*
X253431581Y-86048331D01*
X253342651Y-85881956D01*
X253292212Y-85820495D01*
X253222973Y-85736126D01*
X253077146Y-85616451D01*
X253077147Y-85616451D01*
X253077144Y-85616449D01*
X252910769Y-85527519D01*
X252820505Y-85500138D01*
X252730240Y-85472756D01*
X252542500Y-85454266D01*
X252354759Y-85472756D01*
X252174228Y-85527520D01*
X252073813Y-85581193D01*
X252007856Y-85616449D01*
X252007854Y-85616450D01*
X252007853Y-85616451D01*
X251862026Y-85736126D01*
X251742351Y-85881953D01*
X251653420Y-86048328D01*
X251598656Y-86228859D01*
X251580166Y-86416600D01*
X250964834Y-86416600D01*
X250946343Y-86228858D01*
X250891581Y-86048331D01*
X250802651Y-85881956D01*
X250752212Y-85820495D01*
X250682973Y-85736126D01*
X250537146Y-85616451D01*
X250537147Y-85616451D01*
X250537144Y-85616449D01*
X250370769Y-85527519D01*
X250280505Y-85500138D01*
X250190240Y-85472756D01*
X250002500Y-85454266D01*
X249814759Y-85472756D01*
X249634228Y-85527520D01*
X249533813Y-85581193D01*
X249467856Y-85616449D01*
X249467854Y-85616450D01*
X249467853Y-85616451D01*
X249322026Y-85736126D01*
X249202351Y-85881953D01*
X249113420Y-86048328D01*
X249058656Y-86228859D01*
X249040166Y-86416600D01*
X248424834Y-86416600D01*
X248406343Y-86228858D01*
X248351581Y-86048331D01*
X248262651Y-85881956D01*
X248212212Y-85820495D01*
X248142973Y-85736126D01*
X247997146Y-85616451D01*
X247997147Y-85616451D01*
X247997144Y-85616449D01*
X247830769Y-85527519D01*
X247740505Y-85500138D01*
X247650240Y-85472756D01*
X247462500Y-85454266D01*
X247274759Y-85472756D01*
X247094228Y-85527520D01*
X246993813Y-85581193D01*
X246927856Y-85616449D01*
X246927854Y-85616450D01*
X246927853Y-85616451D01*
X246782026Y-85736126D01*
X246662351Y-85881953D01*
X246573420Y-86048328D01*
X246518656Y-86228859D01*
X246500166Y-86416600D01*
X246181792Y-86416600D01*
X246162661Y-86197926D01*
X246105847Y-85985897D01*
X246013079Y-85786954D01*
X246013077Y-85786951D01*
X246013076Y-85786949D01*
X245887177Y-85607147D01*
X245887172Y-85607141D01*
X245731958Y-85451927D01*
X245731952Y-85451922D01*
X245552150Y-85326023D01*
X245552142Y-85326019D01*
X245408379Y-85258982D01*
X245355939Y-85212810D01*
X245336787Y-85145617D01*
X245357002Y-85078736D01*
X245408379Y-85034218D01*
X245433854Y-85022339D01*
X245552146Y-84967179D01*
X245731957Y-84841274D01*
X245887174Y-84686057D01*
X246013079Y-84506246D01*
X246105847Y-84307303D01*
X246162661Y-84095274D01*
X246181792Y-83876600D01*
X246500166Y-83876600D01*
X246518656Y-84064340D01*
X246528038Y-84095268D01*
X246573419Y-84244869D01*
X246662349Y-84411244D01*
X246662351Y-84411246D01*
X246782026Y-84557073D01*
X246831607Y-84597762D01*
X246927856Y-84676751D01*
X247094231Y-84765681D01*
X247274758Y-84820443D01*
X247462500Y-84838934D01*
X247650242Y-84820443D01*
X247830769Y-84765681D01*
X247997144Y-84676751D01*
X248142973Y-84557073D01*
X248262651Y-84411244D01*
X248351581Y-84244869D01*
X248406343Y-84064342D01*
X248424834Y-83876600D01*
X249040166Y-83876600D01*
X249058656Y-84064340D01*
X249068038Y-84095268D01*
X249113419Y-84244869D01*
X249202349Y-84411244D01*
X249202351Y-84411246D01*
X249322026Y-84557073D01*
X249371607Y-84597762D01*
X249467856Y-84676751D01*
X249634231Y-84765681D01*
X249814758Y-84820443D01*
X250002500Y-84838934D01*
X250190242Y-84820443D01*
X250370769Y-84765681D01*
X250537144Y-84676751D01*
X250682973Y-84557073D01*
X250802651Y-84411244D01*
X250891581Y-84244869D01*
X250946343Y-84064342D01*
X250964834Y-83876600D01*
X251580166Y-83876600D01*
X251598656Y-84064340D01*
X251608038Y-84095268D01*
X251653419Y-84244869D01*
X251742349Y-84411244D01*
X251742351Y-84411246D01*
X251862026Y-84557073D01*
X251911607Y-84597762D01*
X252007856Y-84676751D01*
X252174231Y-84765681D01*
X252354758Y-84820443D01*
X252542500Y-84838934D01*
X252730242Y-84820443D01*
X252910769Y-84765681D01*
X253077144Y-84676751D01*
X253222973Y-84557073D01*
X253342651Y-84411244D01*
X253431581Y-84244869D01*
X253486343Y-84064342D01*
X253504834Y-83876600D01*
X254120166Y-83876600D01*
X254138656Y-84064340D01*
X254148038Y-84095268D01*
X254193419Y-84244869D01*
X254282349Y-84411244D01*
X254282351Y-84411246D01*
X254402026Y-84557073D01*
X254451607Y-84597762D01*
X254547856Y-84676751D01*
X254714231Y-84765681D01*
X254894758Y-84820443D01*
X255082500Y-84838934D01*
X255270242Y-84820443D01*
X255450769Y-84765681D01*
X255617144Y-84676751D01*
X255762973Y-84557073D01*
X255882651Y-84411244D01*
X255971581Y-84244869D01*
X256026343Y-84064342D01*
X256044834Y-83876600D01*
X256026343Y-83688858D01*
X255971581Y-83508331D01*
X255882651Y-83341956D01*
X255805861Y-83248386D01*
X255762973Y-83196126D01*
X255617146Y-83076451D01*
X255617147Y-83076451D01*
X255617144Y-83076449D01*
X255450769Y-82987519D01*
X255360505Y-82960138D01*
X255270240Y-82932756D01*
X255082500Y-82914266D01*
X254894759Y-82932756D01*
X254714228Y-82987520D01*
X254662406Y-83015220D01*
X254547856Y-83076449D01*
X254547854Y-83076450D01*
X254547853Y-83076451D01*
X254402026Y-83196126D01*
X254282351Y-83341953D01*
X254193420Y-83508328D01*
X254138656Y-83688859D01*
X254120166Y-83876600D01*
X253504834Y-83876600D01*
X253486343Y-83688858D01*
X253431581Y-83508331D01*
X253342651Y-83341956D01*
X253265861Y-83248386D01*
X253222973Y-83196126D01*
X253077146Y-83076451D01*
X253077147Y-83076451D01*
X253077144Y-83076449D01*
X252910769Y-82987519D01*
X252820505Y-82960138D01*
X252730240Y-82932756D01*
X252542500Y-82914266D01*
X252354759Y-82932756D01*
X252174228Y-82987520D01*
X252122406Y-83015220D01*
X252007856Y-83076449D01*
X252007854Y-83076450D01*
X252007853Y-83076451D01*
X251862026Y-83196126D01*
X251742351Y-83341953D01*
X251653420Y-83508328D01*
X251598656Y-83688859D01*
X251580166Y-83876600D01*
X250964834Y-83876600D01*
X250946343Y-83688858D01*
X250891581Y-83508331D01*
X250802651Y-83341956D01*
X250725861Y-83248386D01*
X250682973Y-83196126D01*
X250537146Y-83076451D01*
X250537147Y-83076451D01*
X250537144Y-83076449D01*
X250370769Y-82987519D01*
X250280505Y-82960138D01*
X250190240Y-82932756D01*
X250002500Y-82914266D01*
X249814759Y-82932756D01*
X249634228Y-82987520D01*
X249582406Y-83015220D01*
X249467856Y-83076449D01*
X249467854Y-83076450D01*
X249467853Y-83076451D01*
X249322026Y-83196126D01*
X249202351Y-83341953D01*
X249113420Y-83508328D01*
X249058656Y-83688859D01*
X249040166Y-83876600D01*
X248424834Y-83876600D01*
X248406343Y-83688858D01*
X248351581Y-83508331D01*
X248262651Y-83341956D01*
X248185861Y-83248386D01*
X248142973Y-83196126D01*
X247997146Y-83076451D01*
X247997147Y-83076451D01*
X247997144Y-83076449D01*
X247830769Y-82987519D01*
X247740505Y-82960138D01*
X247650240Y-82932756D01*
X247462500Y-82914266D01*
X247274759Y-82932756D01*
X247094228Y-82987520D01*
X247042406Y-83015220D01*
X246927856Y-83076449D01*
X246927854Y-83076450D01*
X246927853Y-83076451D01*
X246782026Y-83196126D01*
X246662351Y-83341953D01*
X246573420Y-83508328D01*
X246518656Y-83688859D01*
X246500166Y-83876600D01*
X246181792Y-83876600D01*
X246162661Y-83657926D01*
X246105847Y-83445897D01*
X246013079Y-83246954D01*
X246013077Y-83246951D01*
X246013076Y-83246949D01*
X245887177Y-83067147D01*
X245887172Y-83067141D01*
X245731958Y-82911927D01*
X245731952Y-82911922D01*
X245552150Y-82786023D01*
X245552142Y-82786019D01*
X245353208Y-82693255D01*
X245353206Y-82693254D01*
X245353203Y-82693253D01*
X245202385Y-82652840D01*
X245141175Y-82636439D01*
X245141168Y-82636438D01*
X244922502Y-82617308D01*
X244922498Y-82617308D01*
X244703831Y-82636438D01*
X244703824Y-82636439D01*
X244581402Y-82669242D01*
X244491797Y-82693253D01*
X244491795Y-82693253D01*
X244491791Y-82693255D01*
X244292857Y-82786019D01*
X244292849Y-82786023D01*
X244113047Y-82911922D01*
X244113041Y-82911927D01*
X243957827Y-83067141D01*
X243957822Y-83067147D01*
X243831923Y-83246949D01*
X243831919Y-83246957D01*
X243764882Y-83390720D01*
X243718710Y-83443160D01*
X243651517Y-83462312D01*
X243584635Y-83442096D01*
X243540118Y-83390720D01*
X243477101Y-83255580D01*
X243473079Y-83246954D01*
X243473077Y-83246951D01*
X243473076Y-83246949D01*
X243347177Y-83067147D01*
X243347172Y-83067141D01*
X243191958Y-82911927D01*
X243191952Y-82911922D01*
X243012150Y-82786023D01*
X243012142Y-82786019D01*
X242813208Y-82693255D01*
X242813206Y-82693254D01*
X242813203Y-82693253D01*
X242662385Y-82652840D01*
X242601175Y-82636439D01*
X242601168Y-82636438D01*
X242382502Y-82617308D01*
X242382498Y-82617308D01*
X242163831Y-82636438D01*
X242163824Y-82636439D01*
X242041402Y-82669242D01*
X241951797Y-82693253D01*
X241951795Y-82693253D01*
X241951791Y-82693255D01*
X241752857Y-82786019D01*
X241752849Y-82786023D01*
X241573047Y-82911922D01*
X241573041Y-82911927D01*
X241417827Y-83067141D01*
X241417822Y-83067147D01*
X241291923Y-83246949D01*
X241291919Y-83246957D01*
X241224882Y-83390720D01*
X241178710Y-83443160D01*
X241111517Y-83462312D01*
X241044635Y-83442096D01*
X241000118Y-83390720D01*
X240937101Y-83255580D01*
X240933079Y-83246954D01*
X240933077Y-83246951D01*
X240933076Y-83246949D01*
X240807177Y-83067147D01*
X240807172Y-83067141D01*
X240651958Y-82911927D01*
X240651952Y-82911922D01*
X240472150Y-82786023D01*
X240472142Y-82786019D01*
X240273208Y-82693255D01*
X240273206Y-82693254D01*
X240273203Y-82693253D01*
X240122385Y-82652840D01*
X240061175Y-82636439D01*
X240061168Y-82636438D01*
X239842502Y-82617308D01*
X239842498Y-82617308D01*
X239623831Y-82636438D01*
X239623824Y-82636439D01*
X239501402Y-82669242D01*
X239411797Y-82693253D01*
X239411795Y-82693253D01*
X239411791Y-82693255D01*
X239212857Y-82786019D01*
X239212849Y-82786023D01*
X239033047Y-82911922D01*
X239033041Y-82911927D01*
X238877827Y-83067141D01*
X238877822Y-83067147D01*
X238751923Y-83246949D01*
X238751919Y-83246957D01*
X238684882Y-83390720D01*
X238638710Y-83443160D01*
X238571517Y-83462312D01*
X238504635Y-83442096D01*
X238460118Y-83390720D01*
X238397101Y-83255580D01*
X238393079Y-83246954D01*
X238393077Y-83246951D01*
X238393076Y-83246949D01*
X238267177Y-83067147D01*
X238267172Y-83067141D01*
X238111958Y-82911927D01*
X238111952Y-82911922D01*
X237932150Y-82786023D01*
X237932142Y-82786019D01*
X237733208Y-82693255D01*
X237733206Y-82693254D01*
X237733203Y-82693253D01*
X237582385Y-82652840D01*
X237521175Y-82636439D01*
X237521168Y-82636438D01*
X237302502Y-82617308D01*
X237302498Y-82617308D01*
X237083831Y-82636438D01*
X237083824Y-82636439D01*
X236961402Y-82669242D01*
X236871797Y-82693253D01*
X236871795Y-82693253D01*
X236871791Y-82693255D01*
X236672857Y-82786019D01*
X236672849Y-82786023D01*
X236493047Y-82911922D01*
X236493041Y-82911927D01*
X236337827Y-83067141D01*
X236337822Y-83067147D01*
X236211923Y-83246949D01*
X236211919Y-83246957D01*
X236144882Y-83390720D01*
X236098710Y-83443160D01*
X236031517Y-83462312D01*
X235964635Y-83442096D01*
X235920118Y-83390720D01*
X235857101Y-83255580D01*
X235853079Y-83246954D01*
X235853077Y-83246951D01*
X235853076Y-83246949D01*
X235727177Y-83067147D01*
X235727172Y-83067141D01*
X235571958Y-82911927D01*
X235571952Y-82911922D01*
X235392150Y-82786023D01*
X235392142Y-82786019D01*
X235193208Y-82693255D01*
X235193206Y-82693254D01*
X235193203Y-82693253D01*
X235042385Y-82652840D01*
X234981175Y-82636439D01*
X234981168Y-82636438D01*
X234762502Y-82617308D01*
X234762498Y-82617308D01*
X234543831Y-82636438D01*
X234543824Y-82636439D01*
X234421402Y-82669242D01*
X234331797Y-82693253D01*
X234331795Y-82693253D01*
X234331791Y-82693255D01*
X234132857Y-82786019D01*
X234132849Y-82786023D01*
X233953047Y-82911922D01*
X233953041Y-82911927D01*
X233797827Y-83067141D01*
X233797822Y-83067147D01*
X233671923Y-83246949D01*
X233671919Y-83246957D01*
X233604882Y-83390720D01*
X233558710Y-83443160D01*
X233491517Y-83462312D01*
X233424635Y-83442096D01*
X233380118Y-83390720D01*
X233317101Y-83255580D01*
X233313079Y-83246954D01*
X233313077Y-83246951D01*
X233313076Y-83246949D01*
X233187177Y-83067147D01*
X233187172Y-83067141D01*
X233031958Y-82911927D01*
X233031952Y-82911922D01*
X232852150Y-82786023D01*
X232852142Y-82786019D01*
X232653208Y-82693255D01*
X232653206Y-82693254D01*
X232653203Y-82693253D01*
X232502385Y-82652840D01*
X232441175Y-82636439D01*
X232441168Y-82636438D01*
X232222502Y-82617308D01*
X232222498Y-82617308D01*
X232003831Y-82636438D01*
X232003824Y-82636439D01*
X231881402Y-82669242D01*
X231791797Y-82693253D01*
X231791795Y-82693253D01*
X231791791Y-82693255D01*
X231592857Y-82786019D01*
X231592849Y-82786023D01*
X231413047Y-82911922D01*
X231413041Y-82911927D01*
X231257827Y-83067141D01*
X231257822Y-83067147D01*
X231131923Y-83246949D01*
X231131919Y-83246957D01*
X231064882Y-83390720D01*
X231018710Y-83443160D01*
X230951517Y-83462312D01*
X230884635Y-83442096D01*
X230840118Y-83390720D01*
X230777101Y-83255580D01*
X230773079Y-83246954D01*
X230773077Y-83246951D01*
X230773076Y-83246949D01*
X230647177Y-83067147D01*
X230647172Y-83067141D01*
X230491958Y-82911927D01*
X230491952Y-82911922D01*
X230312150Y-82786023D01*
X230312142Y-82786019D01*
X230113208Y-82693255D01*
X230113206Y-82693254D01*
X230113203Y-82693253D01*
X229962385Y-82652840D01*
X229901175Y-82636439D01*
X229901168Y-82636438D01*
X229682502Y-82617308D01*
X229682498Y-82617308D01*
X229463831Y-82636438D01*
X229463824Y-82636439D01*
X229341402Y-82669242D01*
X229251797Y-82693253D01*
X229251795Y-82693253D01*
X229251791Y-82693255D01*
X229052857Y-82786019D01*
X229052849Y-82786023D01*
X228873047Y-82911922D01*
X228873041Y-82911927D01*
X228717827Y-83067141D01*
X228717822Y-83067147D01*
X228591923Y-83246949D01*
X228591919Y-83246957D01*
X228524882Y-83390720D01*
X228478710Y-83443160D01*
X228411517Y-83462312D01*
X228344635Y-83442096D01*
X228300118Y-83390720D01*
X228237101Y-83255580D01*
X228233079Y-83246954D01*
X228233077Y-83246951D01*
X228233076Y-83246949D01*
X228107177Y-83067147D01*
X228107172Y-83067141D01*
X227951958Y-82911927D01*
X227951952Y-82911922D01*
X227772150Y-82786023D01*
X227772142Y-82786019D01*
X227573208Y-82693255D01*
X227573206Y-82693254D01*
X227573203Y-82693253D01*
X227422385Y-82652840D01*
X227361175Y-82636439D01*
X227361168Y-82636438D01*
X227142502Y-82617308D01*
X227142498Y-82617308D01*
X226923831Y-82636438D01*
X226923824Y-82636439D01*
X226801402Y-82669242D01*
X226711797Y-82693253D01*
X226711795Y-82693253D01*
X226711791Y-82693255D01*
X226512857Y-82786019D01*
X226512849Y-82786023D01*
X226333047Y-82911922D01*
X226333041Y-82911927D01*
X226177827Y-83067141D01*
X226177822Y-83067147D01*
X226051923Y-83246949D01*
X226051919Y-83246957D01*
X225984882Y-83390720D01*
X225938710Y-83443160D01*
X225871517Y-83462312D01*
X225804635Y-83442096D01*
X225760118Y-83390720D01*
X225697101Y-83255580D01*
X225693079Y-83246954D01*
X225693077Y-83246951D01*
X225693076Y-83246949D01*
X225567177Y-83067147D01*
X225567172Y-83067141D01*
X225411958Y-82911927D01*
X225411952Y-82911922D01*
X225232150Y-82786023D01*
X225232142Y-82786019D01*
X225033208Y-82693255D01*
X225033206Y-82693254D01*
X225033203Y-82693253D01*
X224882385Y-82652840D01*
X224821175Y-82636439D01*
X224821168Y-82636438D01*
X224602502Y-82617308D01*
X224602498Y-82617308D01*
X224383831Y-82636438D01*
X224383824Y-82636439D01*
X224261402Y-82669242D01*
X224171797Y-82693253D01*
X224171795Y-82693253D01*
X224171791Y-82693255D01*
X223972857Y-82786019D01*
X223972849Y-82786023D01*
X223793047Y-82911922D01*
X223793041Y-82911927D01*
X223637827Y-83067141D01*
X223637822Y-83067147D01*
X223511923Y-83246949D01*
X223511919Y-83246957D01*
X223444882Y-83390720D01*
X223398710Y-83443160D01*
X223331517Y-83462312D01*
X223264635Y-83442096D01*
X223220118Y-83390720D01*
X223157101Y-83255580D01*
X223153079Y-83246954D01*
X223153077Y-83246951D01*
X223153076Y-83246949D01*
X223027177Y-83067147D01*
X223027172Y-83067141D01*
X222871958Y-82911927D01*
X222871952Y-82911922D01*
X222692150Y-82786023D01*
X222692142Y-82786019D01*
X222493208Y-82693255D01*
X222493206Y-82693254D01*
X222493203Y-82693253D01*
X222342385Y-82652840D01*
X222281175Y-82636439D01*
X222281168Y-82636438D01*
X222062502Y-82617308D01*
X222062498Y-82617308D01*
X221843831Y-82636438D01*
X221843824Y-82636439D01*
X221721402Y-82669242D01*
X221631797Y-82693253D01*
X221631795Y-82693253D01*
X221631791Y-82693255D01*
X221432857Y-82786019D01*
X221432849Y-82786023D01*
X221253047Y-82911922D01*
X221253041Y-82911927D01*
X221097827Y-83067141D01*
X221097822Y-83067147D01*
X220971923Y-83246949D01*
X220971919Y-83246957D01*
X220904882Y-83390720D01*
X220858710Y-83443160D01*
X220791517Y-83462312D01*
X220724635Y-83442096D01*
X220680118Y-83390720D01*
X220617101Y-83255580D01*
X220613079Y-83246954D01*
X220613077Y-83246951D01*
X220613076Y-83246949D01*
X220487177Y-83067147D01*
X220487172Y-83067141D01*
X220331958Y-82911927D01*
X220331952Y-82911922D01*
X220152150Y-82786023D01*
X220152142Y-82786019D01*
X219953208Y-82693255D01*
X219953206Y-82693254D01*
X219953203Y-82693253D01*
X219802385Y-82652840D01*
X219741175Y-82636439D01*
X219741168Y-82636438D01*
X219522502Y-82617308D01*
X219522498Y-82617308D01*
X219303831Y-82636438D01*
X219303824Y-82636439D01*
X219181402Y-82669242D01*
X219091797Y-82693253D01*
X219091795Y-82693253D01*
X219091791Y-82693255D01*
X218892857Y-82786019D01*
X218892849Y-82786023D01*
X218713047Y-82911922D01*
X218713041Y-82911927D01*
X218557827Y-83067141D01*
X218557822Y-83067147D01*
X218431923Y-83246949D01*
X218431919Y-83246957D01*
X218364882Y-83390720D01*
X218318710Y-83443160D01*
X218251517Y-83462312D01*
X218184635Y-83442096D01*
X218140118Y-83390720D01*
X218077101Y-83255580D01*
X218073079Y-83246954D01*
X218073077Y-83246951D01*
X218073076Y-83246949D01*
X217947177Y-83067147D01*
X217947172Y-83067141D01*
X217791958Y-82911927D01*
X217791952Y-82911922D01*
X217612150Y-82786023D01*
X217612142Y-82786019D01*
X217413208Y-82693255D01*
X217413206Y-82693254D01*
X217413203Y-82693253D01*
X217262385Y-82652840D01*
X217201175Y-82636439D01*
X217201168Y-82636438D01*
X216982502Y-82617308D01*
X216982498Y-82617308D01*
X216763831Y-82636438D01*
X216763824Y-82636439D01*
X216641402Y-82669242D01*
X216551797Y-82693253D01*
X216551795Y-82693253D01*
X216551791Y-82693255D01*
X216352857Y-82786019D01*
X216352849Y-82786023D01*
X216173047Y-82911922D01*
X216173041Y-82911927D01*
X216017827Y-83067141D01*
X216017822Y-83067147D01*
X215891923Y-83246949D01*
X215891919Y-83246957D01*
X215824882Y-83390720D01*
X215778710Y-83443160D01*
X215711517Y-83462312D01*
X215644635Y-83442096D01*
X215600118Y-83390720D01*
X215537101Y-83255580D01*
X215533079Y-83246954D01*
X215533077Y-83246951D01*
X215533076Y-83246949D01*
X215407177Y-83067147D01*
X215407172Y-83067141D01*
X215251958Y-82911927D01*
X215251952Y-82911922D01*
X215072150Y-82786023D01*
X215072142Y-82786019D01*
X214873208Y-82693255D01*
X214873206Y-82693254D01*
X214873203Y-82693253D01*
X214722385Y-82652840D01*
X214661175Y-82636439D01*
X214661168Y-82636438D01*
X214442502Y-82617308D01*
X214442498Y-82617308D01*
X214223831Y-82636438D01*
X214223824Y-82636439D01*
X214101402Y-82669242D01*
X214011797Y-82693253D01*
X214011795Y-82693253D01*
X214011791Y-82693255D01*
X213812857Y-82786019D01*
X213812849Y-82786023D01*
X213633047Y-82911922D01*
X213633041Y-82911927D01*
X213477827Y-83067141D01*
X213477822Y-83067147D01*
X213351923Y-83246949D01*
X213351919Y-83246957D01*
X213284882Y-83390720D01*
X213238710Y-83443160D01*
X213171517Y-83462312D01*
X213104635Y-83442096D01*
X213060118Y-83390720D01*
X212997101Y-83255580D01*
X212993079Y-83246954D01*
X212993077Y-83246951D01*
X212993076Y-83246949D01*
X212867177Y-83067147D01*
X212867172Y-83067141D01*
X212711958Y-82911927D01*
X212711952Y-82911922D01*
X212532150Y-82786023D01*
X212532142Y-82786019D01*
X212333208Y-82693255D01*
X212333206Y-82693254D01*
X212333203Y-82693253D01*
X212182385Y-82652840D01*
X212121175Y-82636439D01*
X212121168Y-82636438D01*
X211902502Y-82617308D01*
X211902498Y-82617308D01*
X211683831Y-82636438D01*
X211683824Y-82636439D01*
X211561402Y-82669242D01*
X211471797Y-82693253D01*
X211471795Y-82693253D01*
X211471791Y-82693255D01*
X211272857Y-82786019D01*
X211272849Y-82786023D01*
X211093047Y-82911922D01*
X211093041Y-82911927D01*
X210937827Y-83067141D01*
X210937822Y-83067147D01*
X210811923Y-83246949D01*
X210811919Y-83246957D01*
X210744882Y-83390720D01*
X210698710Y-83443160D01*
X210631517Y-83462312D01*
X210564635Y-83442096D01*
X210520118Y-83390720D01*
X210457101Y-83255580D01*
X210453079Y-83246954D01*
X210453077Y-83246951D01*
X210453076Y-83246949D01*
X210327177Y-83067147D01*
X210327172Y-83067141D01*
X210171958Y-82911927D01*
X210171952Y-82911922D01*
X209992150Y-82786023D01*
X209992142Y-82786019D01*
X209793208Y-82693255D01*
X209793206Y-82693254D01*
X209793203Y-82693253D01*
X209642385Y-82652840D01*
X209581175Y-82636439D01*
X209581168Y-82636438D01*
X209362502Y-82617308D01*
X209362498Y-82617308D01*
X209143831Y-82636438D01*
X209143824Y-82636439D01*
X209021402Y-82669242D01*
X208931797Y-82693253D01*
X208931795Y-82693253D01*
X208931791Y-82693255D01*
X208732857Y-82786019D01*
X208732849Y-82786023D01*
X208553047Y-82911922D01*
X208553041Y-82911927D01*
X208397827Y-83067141D01*
X208397822Y-83067147D01*
X208271923Y-83246949D01*
X208271919Y-83246957D01*
X208204882Y-83390720D01*
X208158710Y-83443160D01*
X208091517Y-83462312D01*
X208024635Y-83442096D01*
X207980118Y-83390720D01*
X207917101Y-83255580D01*
X207913079Y-83246954D01*
X207913077Y-83246951D01*
X207913076Y-83246949D01*
X207787177Y-83067147D01*
X207787172Y-83067141D01*
X207631958Y-82911927D01*
X207631952Y-82911922D01*
X207452150Y-82786023D01*
X207452142Y-82786019D01*
X207253208Y-82693255D01*
X207253206Y-82693254D01*
X207253203Y-82693253D01*
X207102385Y-82652840D01*
X207041175Y-82636439D01*
X207041168Y-82636438D01*
X206822502Y-82617308D01*
X206822498Y-82617308D01*
X206603831Y-82636438D01*
X206603824Y-82636439D01*
X206481402Y-82669242D01*
X206391797Y-82693253D01*
X206391795Y-82693253D01*
X206391791Y-82693255D01*
X206192857Y-82786019D01*
X206192849Y-82786023D01*
X206013047Y-82911922D01*
X206013041Y-82911927D01*
X205857827Y-83067141D01*
X205857822Y-83067147D01*
X205731923Y-83246949D01*
X205731921Y-83246953D01*
X205664606Y-83391311D01*
X205618433Y-83443750D01*
X205551240Y-83462902D01*
X205484359Y-83442686D01*
X205439842Y-83391311D01*
X205372644Y-83247205D01*
X205372643Y-83247203D01*
X205246788Y-83067463D01*
X205091636Y-82912311D01*
X204911896Y-82786456D01*
X204911894Y-82786455D01*
X204713033Y-82693725D01*
X204713024Y-82693721D01*
X204532500Y-82645350D01*
X204532500Y-83443588D01*
X204475493Y-83410675D01*
X204348326Y-83376600D01*
X204216674Y-83376600D01*
X204089507Y-83410675D01*
X204032500Y-83443588D01*
X204032500Y-82645351D01*
X204032499Y-82645350D01*
X203851975Y-82693721D01*
X203851966Y-82693725D01*
X203653105Y-82786455D01*
X203653103Y-82786456D01*
X203473363Y-82912311D01*
X203318211Y-83067463D01*
X203222075Y-83204761D01*
X203167498Y-83248386D01*
X203098000Y-83255580D01*
X203035645Y-83224057D01*
X203000231Y-83163827D01*
X202996500Y-83133638D01*
X202996500Y-83074772D01*
X202996499Y-83074755D01*
X202990098Y-83015227D01*
X202990096Y-83015220D01*
X202939854Y-82880513D01*
X202939850Y-82880506D01*
X202853690Y-82765412D01*
X202853687Y-82765409D01*
X202738593Y-82679249D01*
X202738586Y-82679245D01*
X202603879Y-82629003D01*
X202603872Y-82629001D01*
X202544344Y-82622600D01*
X201992500Y-82622600D01*
X201992500Y-83443588D01*
X201935493Y-83410675D01*
X201808326Y-83376600D01*
X201676674Y-83376600D01*
X201549507Y-83410675D01*
X201492500Y-83443588D01*
X201492500Y-82622600D01*
X200940655Y-82622600D01*
X200881127Y-82629001D01*
X200881120Y-82629003D01*
X200746413Y-82679245D01*
X200746406Y-82679249D01*
X200631312Y-82765409D01*
X200631309Y-82765412D01*
X200545149Y-82880506D01*
X200545145Y-82880513D01*
X200494903Y-83015220D01*
X200494901Y-83015227D01*
X200488500Y-83074755D01*
X200488500Y-83626600D01*
X201309488Y-83626600D01*
X201276575Y-83683607D01*
X201242500Y-83810774D01*
X201242500Y-83942426D01*
X201276575Y-84069593D01*
X201309488Y-84126600D01*
X200488500Y-84126600D01*
X200488500Y-84678444D01*
X200494901Y-84737972D01*
X200494903Y-84737979D01*
X200545145Y-84872686D01*
X200545149Y-84872693D01*
X200631309Y-84987787D01*
X200631312Y-84987790D01*
X200746406Y-85073950D01*
X200746413Y-85073954D01*
X200881120Y-85124196D01*
X200881127Y-85124198D01*
X200940655Y-85130599D01*
X200940672Y-85130600D01*
X200998666Y-85130600D01*
X201065705Y-85150285D01*
X201111460Y-85203089D01*
X201121404Y-85272247D01*
X201092379Y-85335803D01*
X201069789Y-85356175D01*
X200933048Y-85451922D01*
X200933041Y-85451927D01*
X200777827Y-85607141D01*
X200777822Y-85607147D01*
X200651923Y-85786949D01*
X200651919Y-85786957D01*
X200559155Y-85985891D01*
X200559153Y-85985895D01*
X200559153Y-85985897D01*
X200535142Y-86075502D01*
X200502339Y-86197924D01*
X200502338Y-86197931D01*
X200483208Y-86416597D01*
X200483208Y-86416602D01*
X198513000Y-86416602D01*
X198513000Y-86295312D01*
X198481338Y-86054811D01*
X198418554Y-85820500D01*
X198325724Y-85596388D01*
X198204436Y-85386311D01*
X198106733Y-85258982D01*
X198056766Y-85193863D01*
X198056760Y-85193856D01*
X197885243Y-85022339D01*
X197885236Y-85022333D01*
X197692793Y-84874667D01*
X197692792Y-84874666D01*
X197692789Y-84874664D01*
X197504025Y-84765681D01*
X197482714Y-84753377D01*
X197482705Y-84753373D01*
X197258604Y-84660547D01*
X197024285Y-84597761D01*
X196783789Y-84566100D01*
X196783788Y-84566100D01*
X196541212Y-84566100D01*
X196541211Y-84566100D01*
X196300714Y-84597761D01*
X196066395Y-84660547D01*
X195842294Y-84753373D01*
X195842285Y-84753377D01*
X195632206Y-84874667D01*
X195439763Y-85022333D01*
X195439756Y-85022339D01*
X195268239Y-85193856D01*
X195268233Y-85193863D01*
X195120567Y-85386306D01*
X194999277Y-85596385D01*
X194999273Y-85596394D01*
X194906447Y-85820495D01*
X194843661Y-86054814D01*
X194812000Y-86295311D01*
X194812000Y-86537888D01*
X192655500Y-86537888D01*
X192655500Y-75275004D01*
X202094545Y-75275004D01*
X202113549Y-75577073D01*
X202113550Y-75577080D01*
X202113551Y-75577084D01*
X202170268Y-75874405D01*
X202263802Y-76162273D01*
X202392678Y-76436149D01*
X202392680Y-76436152D01*
X202392681Y-76436154D01*
X202554859Y-76691707D01*
X202554862Y-76691711D01*
X202554863Y-76691712D01*
X202747800Y-76924933D01*
X202968444Y-77132131D01*
X202968454Y-77132139D01*
X203213309Y-77310037D01*
X203213314Y-77310039D01*
X203213321Y-77310045D01*
X203478564Y-77455864D01*
X203478569Y-77455866D01*
X203478571Y-77455867D01*
X203478572Y-77455868D01*
X203759987Y-77567288D01*
X203759990Y-77567289D01*
X204053160Y-77642562D01*
X204053164Y-77642563D01*
X204116161Y-77650521D01*
X204353448Y-77680498D01*
X204353457Y-77680498D01*
X204353460Y-77680499D01*
X204353462Y-77680499D01*
X204656140Y-77680499D01*
X204656142Y-77680499D01*
X204656145Y-77680498D01*
X204656153Y-77680498D01*
X204835340Y-77657861D01*
X204956438Y-77642563D01*
X205249611Y-77567289D01*
X205249614Y-77567288D01*
X205531029Y-77455868D01*
X205531030Y-77455867D01*
X205531028Y-77455867D01*
X205531038Y-77455864D01*
X205796281Y-77310045D01*
X206041156Y-77132133D01*
X206181863Y-77000001D01*
X252534532Y-77000001D01*
X252554364Y-77226686D01*
X252554366Y-77226697D01*
X252613258Y-77446488D01*
X252613261Y-77446497D01*
X252709431Y-77652732D01*
X252709432Y-77652734D01*
X252839954Y-77839141D01*
X253000858Y-78000045D01*
X253000861Y-78000047D01*
X253187266Y-78130568D01*
X253393504Y-78226739D01*
X253613308Y-78285635D01*
X253775230Y-78299801D01*
X253839998Y-78305468D01*
X253840000Y-78305468D01*
X253840002Y-78305468D01*
X253896673Y-78300509D01*
X254066692Y-78285635D01*
X254286496Y-78226739D01*
X254492734Y-78130568D01*
X254679139Y-78000047D01*
X254840047Y-77839139D01*
X254970568Y-77652734D01*
X255066739Y-77446496D01*
X255125635Y-77226692D01*
X255145468Y-77000001D01*
X262694532Y-77000001D01*
X262714364Y-77226686D01*
X262714366Y-77226697D01*
X262773258Y-77446488D01*
X262773261Y-77446497D01*
X262869431Y-77652732D01*
X262869432Y-77652734D01*
X262999954Y-77839141D01*
X263160858Y-78000045D01*
X263160861Y-78000047D01*
X263347266Y-78130568D01*
X263553504Y-78226739D01*
X263773308Y-78285635D01*
X263935230Y-78299801D01*
X263999998Y-78305468D01*
X264000000Y-78305468D01*
X264000002Y-78305468D01*
X264056673Y-78300509D01*
X264226692Y-78285635D01*
X264446496Y-78226739D01*
X264652734Y-78130568D01*
X264839139Y-78000047D01*
X265000047Y-77839139D01*
X265130568Y-77652734D01*
X265226739Y-77446496D01*
X265285635Y-77226692D01*
X265305468Y-77000000D01*
X265285635Y-76773308D01*
X265226739Y-76553504D01*
X265130568Y-76347266D01*
X265000047Y-76160861D01*
X265000045Y-76160858D01*
X264839141Y-75999954D01*
X264652734Y-75869432D01*
X264652732Y-75869431D01*
X264446497Y-75773261D01*
X264446488Y-75773258D01*
X264226697Y-75714366D01*
X264226693Y-75714365D01*
X264226692Y-75714365D01*
X264226691Y-75714364D01*
X264226686Y-75714364D01*
X264000002Y-75694532D01*
X263999998Y-75694532D01*
X263773313Y-75714364D01*
X263773302Y-75714366D01*
X263553511Y-75773258D01*
X263553502Y-75773261D01*
X263347267Y-75869431D01*
X263347265Y-75869432D01*
X263160858Y-75999954D01*
X262999954Y-76160858D01*
X262869432Y-76347265D01*
X262869431Y-76347267D01*
X262773261Y-76553502D01*
X262773258Y-76553511D01*
X262714366Y-76773302D01*
X262714364Y-76773313D01*
X262694532Y-76999998D01*
X262694532Y-77000001D01*
X255145468Y-77000001D01*
X255145468Y-77000000D01*
X255125635Y-76773308D01*
X255066739Y-76553504D01*
X254970568Y-76347266D01*
X254840047Y-76160861D01*
X254840045Y-76160858D01*
X254679141Y-75999954D01*
X254492734Y-75869432D01*
X254492732Y-75869431D01*
X254286497Y-75773261D01*
X254286488Y-75773258D01*
X254066697Y-75714366D01*
X254066693Y-75714365D01*
X254066692Y-75714365D01*
X254066691Y-75714364D01*
X254066686Y-75714364D01*
X253840002Y-75694532D01*
X253839998Y-75694532D01*
X253613313Y-75714364D01*
X253613302Y-75714366D01*
X253393511Y-75773258D01*
X253393502Y-75773261D01*
X253187267Y-75869431D01*
X253187265Y-75869432D01*
X253000858Y-75999954D01*
X252839954Y-76160858D01*
X252709432Y-76347265D01*
X252709431Y-76347267D01*
X252613261Y-76553502D01*
X252613258Y-76553511D01*
X252554366Y-76773302D01*
X252554364Y-76773313D01*
X252534532Y-76999998D01*
X252534532Y-77000001D01*
X206181863Y-77000001D01*
X206261802Y-76924933D01*
X206454739Y-76691712D01*
X206616924Y-76436149D01*
X206745800Y-76162273D01*
X206839334Y-75874405D01*
X206896051Y-75577084D01*
X206915057Y-75274999D01*
X206896051Y-74972914D01*
X206839334Y-74675593D01*
X206745800Y-74387725D01*
X206616924Y-74113849D01*
X206569222Y-74038684D01*
X206454742Y-73858290D01*
X206454739Y-73858286D01*
X206261802Y-73625065D01*
X206128622Y-73500001D01*
X252614532Y-73500001D01*
X252634364Y-73726686D01*
X252634366Y-73726697D01*
X252693258Y-73946488D01*
X252693261Y-73946497D01*
X252789431Y-74152732D01*
X252789432Y-74152734D01*
X252919954Y-74339141D01*
X253080858Y-74500045D01*
X253080861Y-74500047D01*
X253267266Y-74630568D01*
X253473504Y-74726739D01*
X253693308Y-74785635D01*
X253855230Y-74799801D01*
X253919998Y-74805468D01*
X253920000Y-74805468D01*
X253920002Y-74805468D01*
X253976673Y-74800509D01*
X254146692Y-74785635D01*
X254366496Y-74726739D01*
X254572734Y-74630568D01*
X254759139Y-74500047D01*
X254920047Y-74339139D01*
X255050568Y-74152734D01*
X255146739Y-73946496D01*
X255205635Y-73726692D01*
X255225468Y-73500001D01*
X262774532Y-73500001D01*
X262794364Y-73726686D01*
X262794366Y-73726697D01*
X262853258Y-73946488D01*
X262853261Y-73946497D01*
X262949431Y-74152732D01*
X262949432Y-74152734D01*
X263079954Y-74339141D01*
X263240858Y-74500045D01*
X263240861Y-74500047D01*
X263427266Y-74630568D01*
X263633504Y-74726739D01*
X263853308Y-74785635D01*
X264015230Y-74799801D01*
X264079998Y-74805468D01*
X264080000Y-74805468D01*
X264080002Y-74805468D01*
X264136673Y-74800509D01*
X264306692Y-74785635D01*
X264526496Y-74726739D01*
X264732734Y-74630568D01*
X264919139Y-74500047D01*
X265080047Y-74339139D01*
X265210568Y-74152734D01*
X265306739Y-73946496D01*
X265365635Y-73726692D01*
X265385468Y-73500000D01*
X265365635Y-73273308D01*
X265306739Y-73053504D01*
X265210568Y-72847266D01*
X265080047Y-72660861D01*
X265080045Y-72660858D01*
X264919141Y-72499954D01*
X264732734Y-72369432D01*
X264732732Y-72369431D01*
X264526497Y-72273261D01*
X264526488Y-72273258D01*
X264306697Y-72214366D01*
X264306693Y-72214365D01*
X264306692Y-72214365D01*
X264306691Y-72214364D01*
X264306686Y-72214364D01*
X264080002Y-72194532D01*
X264079998Y-72194532D01*
X263853313Y-72214364D01*
X263853302Y-72214366D01*
X263633511Y-72273258D01*
X263633502Y-72273261D01*
X263427267Y-72369431D01*
X263427265Y-72369432D01*
X263240858Y-72499954D01*
X263079954Y-72660858D01*
X262949432Y-72847265D01*
X262949431Y-72847267D01*
X262853261Y-73053502D01*
X262853258Y-73053511D01*
X262794366Y-73273302D01*
X262794364Y-73273313D01*
X262774532Y-73499998D01*
X262774532Y-73500001D01*
X255225468Y-73500001D01*
X255225468Y-73500000D01*
X255205635Y-73273308D01*
X255146739Y-73053504D01*
X255050568Y-72847266D01*
X254920047Y-72660861D01*
X254920045Y-72660858D01*
X254759141Y-72499954D01*
X254572734Y-72369432D01*
X254572732Y-72369431D01*
X254366497Y-72273261D01*
X254366488Y-72273258D01*
X254146697Y-72214366D01*
X254146693Y-72214365D01*
X254146692Y-72214365D01*
X254146691Y-72214364D01*
X254146686Y-72214364D01*
X253920002Y-72194532D01*
X253919998Y-72194532D01*
X253693313Y-72214364D01*
X253693302Y-72214366D01*
X253473511Y-72273258D01*
X253473502Y-72273261D01*
X253267267Y-72369431D01*
X253267265Y-72369432D01*
X253080858Y-72499954D01*
X252919954Y-72660858D01*
X252789432Y-72847265D01*
X252789431Y-72847267D01*
X252693261Y-73053502D01*
X252693258Y-73053511D01*
X252634366Y-73273302D01*
X252634364Y-73273313D01*
X252614532Y-73499998D01*
X252614532Y-73500001D01*
X206128622Y-73500001D01*
X206041156Y-73417865D01*
X206041153Y-73417863D01*
X206041147Y-73417858D01*
X205796292Y-73239960D01*
X205796285Y-73239955D01*
X205796281Y-73239953D01*
X205531038Y-73094134D01*
X205531035Y-73094132D01*
X205531030Y-73094130D01*
X205531029Y-73094129D01*
X205249614Y-72982709D01*
X205249611Y-72982708D01*
X204956441Y-72907435D01*
X204956428Y-72907433D01*
X204656153Y-72869499D01*
X204656142Y-72869499D01*
X204353460Y-72869499D01*
X204353448Y-72869499D01*
X204053173Y-72907433D01*
X204053160Y-72907435D01*
X203759990Y-72982708D01*
X203759987Y-72982709D01*
X203478572Y-73094129D01*
X203478571Y-73094130D01*
X203213321Y-73239953D01*
X203213309Y-73239960D01*
X202968454Y-73417858D01*
X202968444Y-73417866D01*
X202747802Y-73625063D01*
X202554859Y-73858290D01*
X202392681Y-74113843D01*
X202263801Y-74387727D01*
X202170269Y-74675588D01*
X202113550Y-74972917D01*
X202113549Y-74972924D01*
X202094545Y-75274993D01*
X202094545Y-75275004D01*
X192655500Y-75275004D01*
X192655500Y-72000002D01*
X216035034Y-72000002D01*
X216054858Y-72226599D01*
X216054860Y-72226610D01*
X216113730Y-72446317D01*
X216113735Y-72446331D01*
X216209863Y-72652478D01*
X216260974Y-72725472D01*
X216940000Y-72046446D01*
X216940000Y-72052661D01*
X216967259Y-72154394D01*
X217019920Y-72245606D01*
X217094394Y-72320080D01*
X217185606Y-72372741D01*
X217287339Y-72400000D01*
X217293553Y-72400000D01*
X216614526Y-73079025D01*
X216687513Y-73130132D01*
X216687521Y-73130136D01*
X216893668Y-73226264D01*
X216893682Y-73226269D01*
X217113389Y-73285139D01*
X217113400Y-73285141D01*
X217339998Y-73304966D01*
X217340002Y-73304966D01*
X217566599Y-73285141D01*
X217566610Y-73285139D01*
X217786317Y-73226269D01*
X217786331Y-73226264D01*
X217992478Y-73130136D01*
X218065471Y-73079024D01*
X217386447Y-72400000D01*
X217392661Y-72400000D01*
X217494394Y-72372741D01*
X217585606Y-72320080D01*
X217660080Y-72245606D01*
X217712741Y-72154394D01*
X217740000Y-72052661D01*
X217740000Y-72046447D01*
X218419024Y-72725471D01*
X218470136Y-72652478D01*
X218566264Y-72446331D01*
X218566269Y-72446317D01*
X218625139Y-72226610D01*
X218625141Y-72226599D01*
X218644966Y-72000002D01*
X218644966Y-72000001D01*
X226194532Y-72000001D01*
X226214364Y-72226686D01*
X226214366Y-72226697D01*
X226273258Y-72446488D01*
X226273261Y-72446497D01*
X226369431Y-72652732D01*
X226369432Y-72652734D01*
X226499954Y-72839141D01*
X226660858Y-73000045D01*
X226660861Y-73000047D01*
X226847266Y-73130568D01*
X227053504Y-73226739D01*
X227273308Y-73285635D01*
X227435230Y-73299801D01*
X227499998Y-73305468D01*
X227500000Y-73305468D01*
X227500002Y-73305468D01*
X227556673Y-73300509D01*
X227726692Y-73285635D01*
X227946496Y-73226739D01*
X228152734Y-73130568D01*
X228339139Y-73000047D01*
X228500047Y-72839139D01*
X228630568Y-72652734D01*
X228726739Y-72446496D01*
X228785635Y-72226692D01*
X228805468Y-72000002D01*
X230035034Y-72000002D01*
X230054858Y-72226599D01*
X230054860Y-72226610D01*
X230113730Y-72446317D01*
X230113735Y-72446331D01*
X230209863Y-72652478D01*
X230260974Y-72725472D01*
X230940000Y-72046446D01*
X230940000Y-72052661D01*
X230967259Y-72154394D01*
X231019920Y-72245606D01*
X231094394Y-72320080D01*
X231185606Y-72372741D01*
X231287339Y-72400000D01*
X231293553Y-72400000D01*
X230614526Y-73079025D01*
X230687513Y-73130132D01*
X230687521Y-73130136D01*
X230893668Y-73226264D01*
X230893682Y-73226269D01*
X231113389Y-73285139D01*
X231113400Y-73285141D01*
X231339998Y-73304966D01*
X231340002Y-73304966D01*
X231566599Y-73285141D01*
X231566610Y-73285139D01*
X231786317Y-73226269D01*
X231786331Y-73226264D01*
X231992478Y-73130136D01*
X232065471Y-73079024D01*
X231386447Y-72400000D01*
X231392661Y-72400000D01*
X231494394Y-72372741D01*
X231585606Y-72320080D01*
X231660080Y-72245606D01*
X231712741Y-72154394D01*
X231740000Y-72052661D01*
X231740000Y-72046447D01*
X232419024Y-72725471D01*
X232470136Y-72652478D01*
X232566264Y-72446331D01*
X232566269Y-72446317D01*
X232625139Y-72226610D01*
X232625141Y-72226599D01*
X232644966Y-72000002D01*
X232644966Y-72000001D01*
X240194532Y-72000001D01*
X240214364Y-72226686D01*
X240214366Y-72226697D01*
X240273258Y-72446488D01*
X240273261Y-72446497D01*
X240369431Y-72652732D01*
X240369432Y-72652734D01*
X240499954Y-72839141D01*
X240660858Y-73000045D01*
X240660861Y-73000047D01*
X240847266Y-73130568D01*
X241053504Y-73226739D01*
X241273308Y-73285635D01*
X241435230Y-73299801D01*
X241499998Y-73305468D01*
X241500000Y-73305468D01*
X241500002Y-73305468D01*
X241556673Y-73300509D01*
X241726692Y-73285635D01*
X241946496Y-73226739D01*
X242152734Y-73130568D01*
X242339139Y-73000047D01*
X242500047Y-72839139D01*
X242630568Y-72652734D01*
X242726739Y-72446496D01*
X242785635Y-72226692D01*
X242805468Y-72000000D01*
X242785635Y-71773308D01*
X242726739Y-71553504D01*
X242630568Y-71347266D01*
X242500047Y-71160861D01*
X242500045Y-71160858D01*
X242339141Y-70999954D01*
X242152734Y-70869432D01*
X242152732Y-70869431D01*
X241946497Y-70773261D01*
X241946488Y-70773258D01*
X241726697Y-70714366D01*
X241726693Y-70714365D01*
X241726692Y-70714365D01*
X241726691Y-70714364D01*
X241726686Y-70714364D01*
X241500002Y-70694532D01*
X241499998Y-70694532D01*
X241273313Y-70714364D01*
X241273302Y-70714366D01*
X241053511Y-70773258D01*
X241053502Y-70773261D01*
X240847267Y-70869431D01*
X240847265Y-70869432D01*
X240660858Y-70999954D01*
X240499954Y-71160858D01*
X240369432Y-71347265D01*
X240369431Y-71347267D01*
X240273261Y-71553502D01*
X240273258Y-71553511D01*
X240214366Y-71773302D01*
X240214364Y-71773313D01*
X240194532Y-71999998D01*
X240194532Y-72000001D01*
X232644966Y-72000001D01*
X232644966Y-71999997D01*
X232625141Y-71773400D01*
X232625139Y-71773389D01*
X232566269Y-71553682D01*
X232566264Y-71553668D01*
X232470136Y-71347521D01*
X232470132Y-71347513D01*
X232419025Y-71274526D01*
X231740000Y-71953551D01*
X231740000Y-71947339D01*
X231712741Y-71845606D01*
X231660080Y-71754394D01*
X231585606Y-71679920D01*
X231494394Y-71627259D01*
X231392661Y-71600000D01*
X231386448Y-71600000D01*
X232065472Y-70920974D01*
X231992478Y-70869863D01*
X231786331Y-70773735D01*
X231786317Y-70773730D01*
X231566610Y-70714860D01*
X231566599Y-70714858D01*
X231340002Y-70695034D01*
X231339998Y-70695034D01*
X231113400Y-70714858D01*
X231113389Y-70714860D01*
X230893682Y-70773730D01*
X230893673Y-70773734D01*
X230687516Y-70869866D01*
X230687512Y-70869868D01*
X230614526Y-70920973D01*
X230614526Y-70920974D01*
X231293553Y-71600000D01*
X231287339Y-71600000D01*
X231185606Y-71627259D01*
X231094394Y-71679920D01*
X231019920Y-71754394D01*
X230967259Y-71845606D01*
X230940000Y-71947339D01*
X230940000Y-71953552D01*
X230260974Y-71274526D01*
X230260973Y-71274526D01*
X230209868Y-71347512D01*
X230209866Y-71347516D01*
X230113734Y-71553673D01*
X230113730Y-71553682D01*
X230054860Y-71773389D01*
X230054858Y-71773400D01*
X230035034Y-71999997D01*
X230035034Y-72000002D01*
X228805468Y-72000002D01*
X228805468Y-72000000D01*
X228785635Y-71773308D01*
X228726739Y-71553504D01*
X228630568Y-71347266D01*
X228500047Y-71160861D01*
X228500045Y-71160858D01*
X228339141Y-70999954D01*
X228152734Y-70869432D01*
X228152732Y-70869431D01*
X227946497Y-70773261D01*
X227946488Y-70773258D01*
X227726697Y-70714366D01*
X227726693Y-70714365D01*
X227726692Y-70714365D01*
X227726691Y-70714364D01*
X227726686Y-70714364D01*
X227500002Y-70694532D01*
X227499998Y-70694532D01*
X227273313Y-70714364D01*
X227273302Y-70714366D01*
X227053511Y-70773258D01*
X227053502Y-70773261D01*
X226847267Y-70869431D01*
X226847265Y-70869432D01*
X226660858Y-70999954D01*
X226499954Y-71160858D01*
X226369432Y-71347265D01*
X226369431Y-71347267D01*
X226273261Y-71553502D01*
X226273258Y-71553511D01*
X226214366Y-71773302D01*
X226214364Y-71773313D01*
X226194532Y-71999998D01*
X226194532Y-72000001D01*
X218644966Y-72000001D01*
X218644966Y-71999997D01*
X218625141Y-71773400D01*
X218625139Y-71773389D01*
X218566269Y-71553682D01*
X218566264Y-71553668D01*
X218470136Y-71347521D01*
X218470132Y-71347513D01*
X218419025Y-71274526D01*
X217740000Y-71953551D01*
X217740000Y-71947339D01*
X217712741Y-71845606D01*
X217660080Y-71754394D01*
X217585606Y-71679920D01*
X217494394Y-71627259D01*
X217392661Y-71600000D01*
X217386448Y-71600000D01*
X218065472Y-70920974D01*
X217992478Y-70869863D01*
X217786331Y-70773735D01*
X217786317Y-70773730D01*
X217566610Y-70714860D01*
X217566599Y-70714858D01*
X217340002Y-70695034D01*
X217339998Y-70695034D01*
X217113400Y-70714858D01*
X217113389Y-70714860D01*
X216893682Y-70773730D01*
X216893673Y-70773734D01*
X216687516Y-70869866D01*
X216687512Y-70869868D01*
X216614526Y-70920973D01*
X216614526Y-70920974D01*
X217293553Y-71600000D01*
X217287339Y-71600000D01*
X217185606Y-71627259D01*
X217094394Y-71679920D01*
X217019920Y-71754394D01*
X216967259Y-71845606D01*
X216940000Y-71947339D01*
X216940000Y-71953552D01*
X216260974Y-71274526D01*
X216260973Y-71274526D01*
X216209868Y-71347512D01*
X216209866Y-71347516D01*
X216113734Y-71553673D01*
X216113730Y-71553682D01*
X216054860Y-71773389D01*
X216054858Y-71773400D01*
X216035034Y-71999997D01*
X216035034Y-72000002D01*
X192655500Y-72000002D01*
X192655500Y-70000001D01*
X252534532Y-70000001D01*
X252554364Y-70226686D01*
X252554366Y-70226697D01*
X252613258Y-70446488D01*
X252613261Y-70446497D01*
X252709431Y-70652732D01*
X252709432Y-70652734D01*
X252839954Y-70839141D01*
X253000858Y-71000045D01*
X253000861Y-71000047D01*
X253187266Y-71130568D01*
X253393504Y-71226739D01*
X253613308Y-71285635D01*
X253775230Y-71299801D01*
X253839998Y-71305468D01*
X253840000Y-71305468D01*
X253840002Y-71305468D01*
X253896673Y-71300509D01*
X254066692Y-71285635D01*
X254286496Y-71226739D01*
X254492734Y-71130568D01*
X254679139Y-71000047D01*
X254840047Y-70839139D01*
X254970568Y-70652734D01*
X255066739Y-70446496D01*
X255125635Y-70226692D01*
X255145468Y-70000001D01*
X262694532Y-70000001D01*
X262714364Y-70226686D01*
X262714366Y-70226697D01*
X262773258Y-70446488D01*
X262773261Y-70446497D01*
X262869431Y-70652732D01*
X262869432Y-70652734D01*
X262999954Y-70839141D01*
X263160858Y-71000045D01*
X263160861Y-71000047D01*
X263347266Y-71130568D01*
X263553504Y-71226739D01*
X263773308Y-71285635D01*
X263935230Y-71299801D01*
X263999998Y-71305468D01*
X264000000Y-71305468D01*
X264000002Y-71305468D01*
X264056673Y-71300509D01*
X264226692Y-71285635D01*
X264446496Y-71226739D01*
X264652734Y-71130568D01*
X264839139Y-71000047D01*
X265000047Y-70839139D01*
X265130568Y-70652734D01*
X265226739Y-70446496D01*
X265285635Y-70226692D01*
X265305468Y-70000000D01*
X265285635Y-69773308D01*
X265226739Y-69553504D01*
X265130568Y-69347266D01*
X265000047Y-69160861D01*
X265000045Y-69160858D01*
X264839141Y-68999954D01*
X264652734Y-68869432D01*
X264652732Y-68869431D01*
X264446497Y-68773261D01*
X264446488Y-68773258D01*
X264226697Y-68714366D01*
X264226693Y-68714365D01*
X264226692Y-68714365D01*
X264226691Y-68714364D01*
X264226686Y-68714364D01*
X264000002Y-68694532D01*
X263999998Y-68694532D01*
X263773313Y-68714364D01*
X263773302Y-68714366D01*
X263553511Y-68773258D01*
X263553502Y-68773261D01*
X263347267Y-68869431D01*
X263347265Y-68869432D01*
X263160858Y-68999954D01*
X262999954Y-69160858D01*
X262869432Y-69347265D01*
X262869431Y-69347267D01*
X262773261Y-69553502D01*
X262773258Y-69553511D01*
X262714366Y-69773302D01*
X262714364Y-69773313D01*
X262694532Y-69999998D01*
X262694532Y-70000001D01*
X255145468Y-70000001D01*
X255145468Y-70000000D01*
X255125635Y-69773308D01*
X255066739Y-69553504D01*
X254970568Y-69347266D01*
X254840047Y-69160861D01*
X254840045Y-69160858D01*
X254679141Y-68999954D01*
X254492734Y-68869432D01*
X254492732Y-68869431D01*
X254286497Y-68773261D01*
X254286488Y-68773258D01*
X254066697Y-68714366D01*
X254066693Y-68714365D01*
X254066692Y-68714365D01*
X254066691Y-68714364D01*
X254066686Y-68714364D01*
X253840002Y-68694532D01*
X253839998Y-68694532D01*
X253613313Y-68714364D01*
X253613302Y-68714366D01*
X253393511Y-68773258D01*
X253393502Y-68773261D01*
X253187267Y-68869431D01*
X253187265Y-68869432D01*
X253000858Y-68999954D01*
X252839954Y-69160858D01*
X252709432Y-69347265D01*
X252709431Y-69347267D01*
X252613261Y-69553502D01*
X252613258Y-69553511D01*
X252554366Y-69773302D01*
X252554364Y-69773313D01*
X252534532Y-69999998D01*
X252534532Y-70000001D01*
X192655500Y-70000001D01*
X192655500Y-68339999D01*
X204520227Y-68339999D01*
X204539286Y-68557848D01*
X204539288Y-68557858D01*
X204595884Y-68769081D01*
X204595886Y-68769085D01*
X204595887Y-68769089D01*
X204619665Y-68820080D01*
X204688307Y-68967285D01*
X204688308Y-68967286D01*
X204813742Y-69146424D01*
X204968376Y-69301058D01*
X205147514Y-69426492D01*
X205345711Y-69518913D01*
X205556947Y-69575513D01*
X205731230Y-69590761D01*
X205774800Y-69594573D01*
X205774801Y-69594573D01*
X205774802Y-69594573D01*
X205811110Y-69591396D01*
X205992655Y-69575513D01*
X206203891Y-69518913D01*
X206402088Y-69426492D01*
X206581226Y-69301058D01*
X206735860Y-69146424D01*
X206861294Y-68967286D01*
X206953715Y-68769089D01*
X207010315Y-68557853D01*
X207015376Y-68500002D01*
X216035034Y-68500002D01*
X216054858Y-68726599D01*
X216054860Y-68726610D01*
X216113730Y-68946317D01*
X216113735Y-68946331D01*
X216209863Y-69152478D01*
X216260974Y-69225472D01*
X216940000Y-68546446D01*
X216940000Y-68552661D01*
X216967259Y-68654394D01*
X217019920Y-68745606D01*
X217094394Y-68820080D01*
X217185606Y-68872741D01*
X217287339Y-68900000D01*
X217293553Y-68900000D01*
X216614526Y-69579025D01*
X216687513Y-69630132D01*
X216687521Y-69630136D01*
X216893668Y-69726264D01*
X216893682Y-69726269D01*
X217113389Y-69785139D01*
X217113400Y-69785141D01*
X217339998Y-69804966D01*
X217340002Y-69804966D01*
X217566599Y-69785141D01*
X217566610Y-69785139D01*
X217786317Y-69726269D01*
X217786331Y-69726264D01*
X217992478Y-69630136D01*
X218065471Y-69579024D01*
X217386447Y-68900000D01*
X217392661Y-68900000D01*
X217494394Y-68872741D01*
X217585606Y-68820080D01*
X217660080Y-68745606D01*
X217712741Y-68654394D01*
X217740000Y-68552661D01*
X217740000Y-68546447D01*
X218419024Y-69225471D01*
X218470136Y-69152478D01*
X218566264Y-68946331D01*
X218566269Y-68946317D01*
X218625139Y-68726610D01*
X218625141Y-68726599D01*
X218644966Y-68500002D01*
X218644966Y-68500001D01*
X226194532Y-68500001D01*
X226214364Y-68726686D01*
X226214366Y-68726697D01*
X226273258Y-68946488D01*
X226273261Y-68946497D01*
X226369431Y-69152732D01*
X226369432Y-69152734D01*
X226499954Y-69339141D01*
X226660858Y-69500045D01*
X226707693Y-69532839D01*
X226847266Y-69630568D01*
X227053504Y-69726739D01*
X227273308Y-69785635D01*
X227435230Y-69799801D01*
X227499998Y-69805468D01*
X227500000Y-69805468D01*
X227500002Y-69805468D01*
X227556673Y-69800509D01*
X227726692Y-69785635D01*
X227946496Y-69726739D01*
X228152734Y-69630568D01*
X228339139Y-69500047D01*
X228500047Y-69339139D01*
X228630568Y-69152734D01*
X228726739Y-68946496D01*
X228785635Y-68726692D01*
X228805468Y-68500002D01*
X230035034Y-68500002D01*
X230054858Y-68726599D01*
X230054860Y-68726610D01*
X230113730Y-68946317D01*
X230113735Y-68946331D01*
X230209863Y-69152478D01*
X230260974Y-69225472D01*
X230940000Y-68546446D01*
X230940000Y-68552661D01*
X230967259Y-68654394D01*
X231019920Y-68745606D01*
X231094394Y-68820080D01*
X231185606Y-68872741D01*
X231287339Y-68900000D01*
X231293553Y-68900000D01*
X230614526Y-69579025D01*
X230687513Y-69630132D01*
X230687521Y-69630136D01*
X230893668Y-69726264D01*
X230893682Y-69726269D01*
X231113389Y-69785139D01*
X231113400Y-69785141D01*
X231339998Y-69804966D01*
X231340002Y-69804966D01*
X231566599Y-69785141D01*
X231566610Y-69785139D01*
X231786317Y-69726269D01*
X231786331Y-69726264D01*
X231992478Y-69630136D01*
X232065471Y-69579024D01*
X231386447Y-68900000D01*
X231392661Y-68900000D01*
X231494394Y-68872741D01*
X231585606Y-68820080D01*
X231660080Y-68745606D01*
X231712741Y-68654394D01*
X231740000Y-68552661D01*
X231740000Y-68546447D01*
X232419024Y-69225471D01*
X232470136Y-69152478D01*
X232566264Y-68946331D01*
X232566269Y-68946317D01*
X232625139Y-68726610D01*
X232625141Y-68726599D01*
X232644966Y-68500002D01*
X232644966Y-68500001D01*
X240194532Y-68500001D01*
X240214364Y-68726686D01*
X240214366Y-68726697D01*
X240273258Y-68946488D01*
X240273261Y-68946497D01*
X240369431Y-69152732D01*
X240369432Y-69152734D01*
X240499954Y-69339141D01*
X240660858Y-69500045D01*
X240707693Y-69532839D01*
X240847266Y-69630568D01*
X241053504Y-69726739D01*
X241273308Y-69785635D01*
X241435230Y-69799801D01*
X241499998Y-69805468D01*
X241500000Y-69805468D01*
X241500002Y-69805468D01*
X241556673Y-69800509D01*
X241726692Y-69785635D01*
X241946496Y-69726739D01*
X242152734Y-69630568D01*
X242339139Y-69500047D01*
X242500047Y-69339139D01*
X242630568Y-69152734D01*
X242726739Y-68946496D01*
X242785635Y-68726692D01*
X242805468Y-68500000D01*
X242785635Y-68273308D01*
X242726739Y-68053504D01*
X242630568Y-67847266D01*
X242500047Y-67660861D01*
X242500045Y-67660858D01*
X242339141Y-67499954D01*
X242152734Y-67369432D01*
X242152732Y-67369431D01*
X241946497Y-67273261D01*
X241946488Y-67273258D01*
X241726697Y-67214366D01*
X241726693Y-67214365D01*
X241726692Y-67214365D01*
X241726691Y-67214364D01*
X241726686Y-67214364D01*
X241500002Y-67194532D01*
X241499998Y-67194532D01*
X241273313Y-67214364D01*
X241273302Y-67214366D01*
X241053511Y-67273258D01*
X241053502Y-67273261D01*
X240847267Y-67369431D01*
X240847265Y-67369432D01*
X240660858Y-67499954D01*
X240499954Y-67660858D01*
X240369432Y-67847265D01*
X240369431Y-67847267D01*
X240273261Y-68053502D01*
X240273258Y-68053511D01*
X240214366Y-68273302D01*
X240214364Y-68273313D01*
X240194532Y-68499998D01*
X240194532Y-68500001D01*
X232644966Y-68500001D01*
X232644966Y-68499997D01*
X232625141Y-68273400D01*
X232625139Y-68273389D01*
X232566269Y-68053682D01*
X232566264Y-68053668D01*
X232470136Y-67847521D01*
X232470132Y-67847513D01*
X232419025Y-67774526D01*
X231740000Y-68453551D01*
X231740000Y-68447339D01*
X231712741Y-68345606D01*
X231660080Y-68254394D01*
X231585606Y-68179920D01*
X231494394Y-68127259D01*
X231392661Y-68100000D01*
X231386448Y-68100000D01*
X232065472Y-67420974D01*
X231992478Y-67369863D01*
X231786331Y-67273735D01*
X231786317Y-67273730D01*
X231566610Y-67214860D01*
X231566599Y-67214858D01*
X231340002Y-67195034D01*
X231339998Y-67195034D01*
X231113400Y-67214858D01*
X231113389Y-67214860D01*
X230893682Y-67273730D01*
X230893673Y-67273734D01*
X230687516Y-67369866D01*
X230687512Y-67369868D01*
X230614526Y-67420973D01*
X230614526Y-67420974D01*
X231293553Y-68100000D01*
X231287339Y-68100000D01*
X231185606Y-68127259D01*
X231094394Y-68179920D01*
X231019920Y-68254394D01*
X230967259Y-68345606D01*
X230940000Y-68447339D01*
X230940000Y-68453552D01*
X230260974Y-67774526D01*
X230260973Y-67774526D01*
X230209868Y-67847512D01*
X230209866Y-67847516D01*
X230113734Y-68053673D01*
X230113730Y-68053682D01*
X230054860Y-68273389D01*
X230054858Y-68273400D01*
X230035034Y-68499997D01*
X230035034Y-68500002D01*
X228805468Y-68500002D01*
X228805468Y-68500000D01*
X228785635Y-68273308D01*
X228726739Y-68053504D01*
X228630568Y-67847266D01*
X228500047Y-67660861D01*
X228500045Y-67660858D01*
X228339141Y-67499954D01*
X228152734Y-67369432D01*
X228152732Y-67369431D01*
X227946497Y-67273261D01*
X227946488Y-67273258D01*
X227726697Y-67214366D01*
X227726693Y-67214365D01*
X227726692Y-67214365D01*
X227726691Y-67214364D01*
X227726686Y-67214364D01*
X227500002Y-67194532D01*
X227499998Y-67194532D01*
X227273313Y-67214364D01*
X227273302Y-67214366D01*
X227053511Y-67273258D01*
X227053502Y-67273261D01*
X226847267Y-67369431D01*
X226847265Y-67369432D01*
X226660858Y-67499954D01*
X226499954Y-67660858D01*
X226369432Y-67847265D01*
X226369431Y-67847267D01*
X226273261Y-68053502D01*
X226273258Y-68053511D01*
X226214366Y-68273302D01*
X226214364Y-68273313D01*
X226194532Y-68499998D01*
X226194532Y-68500001D01*
X218644966Y-68500001D01*
X218644966Y-68499997D01*
X218625141Y-68273400D01*
X218625139Y-68273389D01*
X218566269Y-68053682D01*
X218566264Y-68053668D01*
X218470136Y-67847521D01*
X218470132Y-67847513D01*
X218419025Y-67774526D01*
X217740000Y-68453551D01*
X217740000Y-68447339D01*
X217712741Y-68345606D01*
X217660080Y-68254394D01*
X217585606Y-68179920D01*
X217494394Y-68127259D01*
X217392661Y-68100000D01*
X217386448Y-68100000D01*
X218065472Y-67420974D01*
X217992478Y-67369863D01*
X217786331Y-67273735D01*
X217786317Y-67273730D01*
X217566610Y-67214860D01*
X217566599Y-67214858D01*
X217340002Y-67195034D01*
X217339998Y-67195034D01*
X217113400Y-67214858D01*
X217113389Y-67214860D01*
X216893682Y-67273730D01*
X216893673Y-67273734D01*
X216687516Y-67369866D01*
X216687512Y-67369868D01*
X216614526Y-67420973D01*
X216614526Y-67420974D01*
X217293553Y-68100000D01*
X217287339Y-68100000D01*
X217185606Y-68127259D01*
X217094394Y-68179920D01*
X217019920Y-68254394D01*
X216967259Y-68345606D01*
X216940000Y-68447339D01*
X216940000Y-68453552D01*
X216260974Y-67774526D01*
X216260973Y-67774526D01*
X216209868Y-67847512D01*
X216209866Y-67847516D01*
X216113734Y-68053673D01*
X216113730Y-68053682D01*
X216054860Y-68273389D01*
X216054858Y-68273400D01*
X216035034Y-68499997D01*
X216035034Y-68500002D01*
X207015376Y-68500002D01*
X207029375Y-68339999D01*
X207010315Y-68122145D01*
X206953715Y-67910909D01*
X206861294Y-67712712D01*
X206735860Y-67533574D01*
X206581226Y-67378940D01*
X206402088Y-67253506D01*
X206402089Y-67253506D01*
X206402087Y-67253505D01*
X206302989Y-67207295D01*
X206203891Y-67161085D01*
X206203887Y-67161084D01*
X206203883Y-67161082D01*
X205992660Y-67104486D01*
X205992650Y-67104484D01*
X205774802Y-67085425D01*
X205774800Y-67085425D01*
X205556951Y-67104484D01*
X205556941Y-67104486D01*
X205345718Y-67161082D01*
X205345709Y-67161086D01*
X205147514Y-67253505D01*
X205028002Y-67337189D01*
X204968376Y-67378940D01*
X204968374Y-67378941D01*
X204968371Y-67378944D01*
X204813746Y-67533569D01*
X204813743Y-67533572D01*
X204813742Y-67533574D01*
X204771991Y-67593200D01*
X204688307Y-67712712D01*
X204595888Y-67910907D01*
X204595884Y-67910916D01*
X204539288Y-68122139D01*
X204539286Y-68122149D01*
X204520227Y-68339998D01*
X204520227Y-68339999D01*
X192655500Y-68339999D01*
X192655500Y-66949999D01*
X201980227Y-66949999D01*
X201999286Y-67167848D01*
X201999288Y-67167858D01*
X202055884Y-67379081D01*
X202055886Y-67379085D01*
X202055887Y-67379089D01*
X202102097Y-67478187D01*
X202148307Y-67577285D01*
X202148308Y-67577286D01*
X202273742Y-67756424D01*
X202428376Y-67911058D01*
X202607514Y-68036492D01*
X202805711Y-68128913D01*
X203016947Y-68185513D01*
X203191230Y-68200761D01*
X203234800Y-68204573D01*
X203234801Y-68204573D01*
X203234802Y-68204573D01*
X203271110Y-68201396D01*
X203452655Y-68185513D01*
X203663891Y-68128913D01*
X203862088Y-68036492D01*
X204041226Y-67911058D01*
X204195860Y-67756424D01*
X204321294Y-67577286D01*
X204413715Y-67379089D01*
X204470315Y-67167853D01*
X204489375Y-66949999D01*
X204470315Y-66732145D01*
X204413715Y-66520909D01*
X204321294Y-66322712D01*
X204195860Y-66143574D01*
X204041226Y-65988940D01*
X203862088Y-65863506D01*
X203862089Y-65863506D01*
X203862087Y-65863505D01*
X203734194Y-65803868D01*
X203663891Y-65771085D01*
X203663887Y-65771084D01*
X203663883Y-65771082D01*
X203452660Y-65714486D01*
X203452650Y-65714484D01*
X203234802Y-65695425D01*
X203234800Y-65695425D01*
X203016951Y-65714484D01*
X203016941Y-65714486D01*
X202805718Y-65771082D01*
X202805709Y-65771086D01*
X202607514Y-65863505D01*
X202488002Y-65947189D01*
X202428376Y-65988940D01*
X202428374Y-65988941D01*
X202428371Y-65988944D01*
X202273746Y-66143569D01*
X202273743Y-66143572D01*
X202273742Y-66143574D01*
X202243134Y-66187287D01*
X202148307Y-66322712D01*
X202055888Y-66520907D01*
X202055884Y-66520916D01*
X201999288Y-66732139D01*
X201999286Y-66732149D01*
X201980227Y-66949998D01*
X201980227Y-66949999D01*
X192655500Y-66949999D01*
X192655500Y-65560000D01*
X204520227Y-65560000D01*
X204539286Y-65777849D01*
X204539288Y-65777859D01*
X204595884Y-65989082D01*
X204595886Y-65989086D01*
X204595887Y-65989090D01*
X204642097Y-66088188D01*
X204688307Y-66187286D01*
X204688308Y-66187287D01*
X204813742Y-66366425D01*
X204968376Y-66521059D01*
X205147514Y-66646493D01*
X205345711Y-66738914D01*
X205556947Y-66795514D01*
X205731230Y-66810762D01*
X205774800Y-66814574D01*
X205774801Y-66814574D01*
X205774802Y-66814574D01*
X205811110Y-66811397D01*
X205992655Y-66795514D01*
X206203891Y-66738914D01*
X206402088Y-66646493D01*
X206581226Y-66521059D01*
X206735860Y-66366425D01*
X206861294Y-66187287D01*
X206953715Y-65989090D01*
X207010315Y-65777854D01*
X207029375Y-65560000D01*
X207010315Y-65342146D01*
X206967340Y-65181760D01*
X206953717Y-65130917D01*
X206953716Y-65130916D01*
X206953715Y-65130910D01*
X206892671Y-65000002D01*
X216035034Y-65000002D01*
X216054858Y-65226599D01*
X216054860Y-65226610D01*
X216113730Y-65446317D01*
X216113735Y-65446331D01*
X216209863Y-65652478D01*
X216260974Y-65725472D01*
X216940000Y-65046446D01*
X216940000Y-65052661D01*
X216967259Y-65154394D01*
X217019920Y-65245606D01*
X217094394Y-65320080D01*
X217185606Y-65372741D01*
X217287339Y-65400000D01*
X217293553Y-65400000D01*
X216614526Y-66079025D01*
X216687513Y-66130132D01*
X216687521Y-66130136D01*
X216893668Y-66226264D01*
X216893682Y-66226269D01*
X217113389Y-66285139D01*
X217113400Y-66285141D01*
X217339998Y-66304966D01*
X217340002Y-66304966D01*
X217566599Y-66285141D01*
X217566610Y-66285139D01*
X217786317Y-66226269D01*
X217786331Y-66226264D01*
X217992478Y-66130136D01*
X218065471Y-66079024D01*
X217386447Y-65400000D01*
X217392661Y-65400000D01*
X217494394Y-65372741D01*
X217585606Y-65320080D01*
X217660080Y-65245606D01*
X217712741Y-65154394D01*
X217740000Y-65052661D01*
X217740000Y-65046447D01*
X218419024Y-65725471D01*
X218470136Y-65652478D01*
X218566264Y-65446331D01*
X218566269Y-65446317D01*
X218625139Y-65226610D01*
X218625141Y-65226599D01*
X218644966Y-65000002D01*
X218644966Y-65000001D01*
X226194532Y-65000001D01*
X226214364Y-65226686D01*
X226214366Y-65226697D01*
X226273258Y-65446488D01*
X226273261Y-65446497D01*
X226369431Y-65652732D01*
X226369432Y-65652734D01*
X226499954Y-65839141D01*
X226660858Y-66000045D01*
X226660861Y-66000047D01*
X226847266Y-66130568D01*
X227053504Y-66226739D01*
X227273308Y-66285635D01*
X227435230Y-66299801D01*
X227499998Y-66305468D01*
X227500000Y-66305468D01*
X227500002Y-66305468D01*
X227556673Y-66300509D01*
X227726692Y-66285635D01*
X227946496Y-66226739D01*
X228152734Y-66130568D01*
X228339139Y-66000047D01*
X228500047Y-65839139D01*
X228630568Y-65652734D01*
X228726739Y-65446496D01*
X228785635Y-65226692D01*
X228805468Y-65000002D01*
X230035034Y-65000002D01*
X230054858Y-65226599D01*
X230054860Y-65226610D01*
X230113730Y-65446317D01*
X230113735Y-65446331D01*
X230209863Y-65652478D01*
X230260974Y-65725472D01*
X230940000Y-65046446D01*
X230940000Y-65052661D01*
X230967259Y-65154394D01*
X231019920Y-65245606D01*
X231094394Y-65320080D01*
X231185606Y-65372741D01*
X231287339Y-65400000D01*
X231293553Y-65400000D01*
X230614526Y-66079025D01*
X230687513Y-66130132D01*
X230687521Y-66130136D01*
X230893668Y-66226264D01*
X230893682Y-66226269D01*
X231113389Y-66285139D01*
X231113400Y-66285141D01*
X231339998Y-66304966D01*
X231340002Y-66304966D01*
X231566599Y-66285141D01*
X231566610Y-66285139D01*
X231786317Y-66226269D01*
X231786331Y-66226264D01*
X231992478Y-66130136D01*
X232065471Y-66079024D01*
X231986447Y-66000000D01*
X237994659Y-66000000D01*
X238013975Y-66196129D01*
X238071188Y-66384733D01*
X238164086Y-66558532D01*
X238164090Y-66558539D01*
X238289116Y-66710883D01*
X238441460Y-66835909D01*
X238441467Y-66835913D01*
X238615266Y-66928811D01*
X238615269Y-66928811D01*
X238615273Y-66928814D01*
X238803868Y-66986024D01*
X239000000Y-67005341D01*
X239196132Y-66986024D01*
X239384727Y-66928814D01*
X239558538Y-66835910D01*
X239710883Y-66710883D01*
X239835910Y-66558538D01*
X239867199Y-66500001D01*
X252614532Y-66500001D01*
X252634364Y-66726686D01*
X252634366Y-66726697D01*
X252693258Y-66946488D01*
X252693261Y-66946497D01*
X252789431Y-67152732D01*
X252789432Y-67152734D01*
X252919954Y-67339141D01*
X253080858Y-67500045D01*
X253080861Y-67500047D01*
X253267266Y-67630568D01*
X253473504Y-67726739D01*
X253693308Y-67785635D01*
X253855230Y-67799801D01*
X253919998Y-67805468D01*
X253920000Y-67805468D01*
X253920002Y-67805468D01*
X253976673Y-67800509D01*
X254146692Y-67785635D01*
X254366496Y-67726739D01*
X254572734Y-67630568D01*
X254759139Y-67500047D01*
X254920047Y-67339139D01*
X255050568Y-67152734D01*
X255146739Y-66946496D01*
X255205635Y-66726692D01*
X255225468Y-66500001D01*
X262774532Y-66500001D01*
X262794364Y-66726686D01*
X262794366Y-66726697D01*
X262853258Y-66946488D01*
X262853261Y-66946497D01*
X262949431Y-67152732D01*
X262949432Y-67152734D01*
X263079954Y-67339141D01*
X263240858Y-67500045D01*
X263240861Y-67500047D01*
X263427266Y-67630568D01*
X263633504Y-67726739D01*
X263853308Y-67785635D01*
X264015230Y-67799801D01*
X264079998Y-67805468D01*
X264080000Y-67805468D01*
X264080002Y-67805468D01*
X264136673Y-67800509D01*
X264306692Y-67785635D01*
X264526496Y-67726739D01*
X264732734Y-67630568D01*
X264919139Y-67500047D01*
X265080047Y-67339139D01*
X265210568Y-67152734D01*
X265306739Y-66946496D01*
X265365635Y-66726692D01*
X265385468Y-66500000D01*
X265365635Y-66273308D01*
X265306739Y-66053504D01*
X265210568Y-65847266D01*
X265080047Y-65660861D01*
X265080045Y-65660858D01*
X264919141Y-65499954D01*
X264732734Y-65369432D01*
X264732732Y-65369431D01*
X264526497Y-65273261D01*
X264526488Y-65273258D01*
X264306697Y-65214366D01*
X264306693Y-65214365D01*
X264306692Y-65214365D01*
X264306691Y-65214364D01*
X264306686Y-65214364D01*
X264080002Y-65194532D01*
X264079998Y-65194532D01*
X263853313Y-65214364D01*
X263853302Y-65214366D01*
X263633511Y-65273258D01*
X263633502Y-65273261D01*
X263427267Y-65369431D01*
X263427265Y-65369432D01*
X263240858Y-65499954D01*
X263079954Y-65660858D01*
X262949432Y-65847265D01*
X262949431Y-65847267D01*
X262853261Y-66053502D01*
X262853258Y-66053511D01*
X262794366Y-66273302D01*
X262794364Y-66273313D01*
X262774532Y-66499998D01*
X262774532Y-66500001D01*
X255225468Y-66500001D01*
X255225468Y-66500000D01*
X255205635Y-66273308D01*
X255146739Y-66053504D01*
X255050568Y-65847266D01*
X254920047Y-65660861D01*
X254920045Y-65660858D01*
X254759141Y-65499954D01*
X254572734Y-65369432D01*
X254572732Y-65369431D01*
X254366497Y-65273261D01*
X254366488Y-65273258D01*
X254146697Y-65214366D01*
X254146693Y-65214365D01*
X254146692Y-65214365D01*
X254146691Y-65214364D01*
X254146686Y-65214364D01*
X253920002Y-65194532D01*
X253919998Y-65194532D01*
X253693313Y-65214364D01*
X253693302Y-65214366D01*
X253473511Y-65273258D01*
X253473502Y-65273261D01*
X253267267Y-65369431D01*
X253267265Y-65369432D01*
X253080858Y-65499954D01*
X252919954Y-65660858D01*
X252789432Y-65847265D01*
X252789431Y-65847267D01*
X252693261Y-66053502D01*
X252693258Y-66053511D01*
X252634366Y-66273302D01*
X252634364Y-66273313D01*
X252614532Y-66499998D01*
X252614532Y-66500001D01*
X239867199Y-66500001D01*
X239928814Y-66384727D01*
X239986024Y-66196132D01*
X240005341Y-66000000D01*
X239986024Y-65803868D01*
X239928814Y-65615273D01*
X239928811Y-65615269D01*
X239928811Y-65615266D01*
X239835913Y-65441467D01*
X239835909Y-65441460D01*
X239710883Y-65289116D01*
X239558539Y-65164090D01*
X239558532Y-65164086D01*
X239384733Y-65071188D01*
X239384727Y-65071186D01*
X239196132Y-65013976D01*
X239196129Y-65013975D01*
X239054241Y-65000001D01*
X240194532Y-65000001D01*
X240214364Y-65226686D01*
X240214366Y-65226697D01*
X240273258Y-65446488D01*
X240273261Y-65446497D01*
X240369431Y-65652732D01*
X240369432Y-65652734D01*
X240499954Y-65839141D01*
X240660858Y-66000045D01*
X240660861Y-66000047D01*
X240847266Y-66130568D01*
X241053504Y-66226739D01*
X241273308Y-66285635D01*
X241435230Y-66299801D01*
X241499998Y-66305468D01*
X241500000Y-66305468D01*
X241500002Y-66305468D01*
X241556673Y-66300509D01*
X241726692Y-66285635D01*
X241946496Y-66226739D01*
X242152734Y-66130568D01*
X242339139Y-66000047D01*
X242500047Y-65839139D01*
X242630568Y-65652734D01*
X242726739Y-65446496D01*
X242785635Y-65226692D01*
X242805468Y-65000000D01*
X242803405Y-64976425D01*
X242787733Y-64797287D01*
X242785635Y-64773308D01*
X242726739Y-64553504D01*
X242630568Y-64347266D01*
X242506446Y-64170000D01*
X242500045Y-64160858D01*
X242339141Y-63999954D01*
X242152734Y-63869432D01*
X242152732Y-63869431D01*
X241946497Y-63773261D01*
X241946488Y-63773258D01*
X241726697Y-63714366D01*
X241726693Y-63714365D01*
X241726692Y-63714365D01*
X241726691Y-63714364D01*
X241726686Y-63714364D01*
X241500002Y-63694532D01*
X241499998Y-63694532D01*
X241273313Y-63714364D01*
X241273302Y-63714366D01*
X241053511Y-63773258D01*
X241053502Y-63773261D01*
X240847267Y-63869431D01*
X240847265Y-63869432D01*
X240660858Y-63999954D01*
X240499954Y-64160858D01*
X240369432Y-64347265D01*
X240369431Y-64347267D01*
X240273261Y-64553502D01*
X240273258Y-64553511D01*
X240214366Y-64773302D01*
X240214364Y-64773313D01*
X240194532Y-64999998D01*
X240194532Y-65000001D01*
X239054241Y-65000001D01*
X239000000Y-64994659D01*
X238803870Y-65013975D01*
X238615266Y-65071188D01*
X238441467Y-65164086D01*
X238441460Y-65164090D01*
X238289116Y-65289116D01*
X238164090Y-65441460D01*
X238164086Y-65441467D01*
X238071188Y-65615266D01*
X238013975Y-65803870D01*
X237994659Y-66000000D01*
X231986447Y-66000000D01*
X231386447Y-65400000D01*
X231392661Y-65400000D01*
X231494394Y-65372741D01*
X231585606Y-65320080D01*
X231660080Y-65245606D01*
X231712741Y-65154394D01*
X231740000Y-65052661D01*
X231740000Y-65046447D01*
X232419024Y-65725471D01*
X232470136Y-65652478D01*
X232566264Y-65446331D01*
X232566269Y-65446317D01*
X232625139Y-65226610D01*
X232625141Y-65226599D01*
X232644966Y-65000002D01*
X232644966Y-64999997D01*
X232625141Y-64773400D01*
X232625139Y-64773389D01*
X232566269Y-64553682D01*
X232566264Y-64553668D01*
X232470136Y-64347521D01*
X232470132Y-64347513D01*
X232419025Y-64274526D01*
X231740000Y-64953551D01*
X231740000Y-64947339D01*
X231712741Y-64845606D01*
X231660080Y-64754394D01*
X231585606Y-64679920D01*
X231494394Y-64627259D01*
X231392661Y-64600000D01*
X231386448Y-64600000D01*
X232065472Y-63920974D01*
X231992478Y-63869863D01*
X231786331Y-63773735D01*
X231786317Y-63773730D01*
X231566610Y-63714860D01*
X231566599Y-63714858D01*
X231340002Y-63695034D01*
X231339998Y-63695034D01*
X231113400Y-63714858D01*
X231113389Y-63714860D01*
X230893682Y-63773730D01*
X230893673Y-63773734D01*
X230687516Y-63869866D01*
X230687512Y-63869868D01*
X230614526Y-63920973D01*
X230614526Y-63920974D01*
X231293553Y-64600000D01*
X231287339Y-64600000D01*
X231185606Y-64627259D01*
X231094394Y-64679920D01*
X231019920Y-64754394D01*
X230967259Y-64845606D01*
X230940000Y-64947339D01*
X230940000Y-64953552D01*
X230260974Y-64274526D01*
X230260973Y-64274526D01*
X230209868Y-64347512D01*
X230209866Y-64347516D01*
X230113734Y-64553673D01*
X230113730Y-64553682D01*
X230054860Y-64773389D01*
X230054858Y-64773400D01*
X230035034Y-64999997D01*
X230035034Y-65000002D01*
X228805468Y-65000002D01*
X228805468Y-65000000D01*
X228803405Y-64976425D01*
X228787733Y-64797287D01*
X228785635Y-64773308D01*
X228726739Y-64553504D01*
X228630568Y-64347266D01*
X228506446Y-64170000D01*
X228500045Y-64160858D01*
X228339141Y-63999954D01*
X228152734Y-63869432D01*
X228152732Y-63869431D01*
X227946497Y-63773261D01*
X227946488Y-63773258D01*
X227726697Y-63714366D01*
X227726693Y-63714365D01*
X227726692Y-63714365D01*
X227726691Y-63714364D01*
X227726686Y-63714364D01*
X227500002Y-63694532D01*
X227499998Y-63694532D01*
X227273313Y-63714364D01*
X227273302Y-63714366D01*
X227053511Y-63773258D01*
X227053502Y-63773261D01*
X226847267Y-63869431D01*
X226847265Y-63869432D01*
X226660858Y-63999954D01*
X226499954Y-64160858D01*
X226369432Y-64347265D01*
X226369431Y-64347267D01*
X226273261Y-64553502D01*
X226273258Y-64553511D01*
X226214366Y-64773302D01*
X226214364Y-64773313D01*
X226194532Y-64999998D01*
X226194532Y-65000001D01*
X218644966Y-65000001D01*
X218644966Y-64999997D01*
X218625141Y-64773400D01*
X218625139Y-64773389D01*
X218566269Y-64553682D01*
X218566264Y-64553668D01*
X218470136Y-64347521D01*
X218470132Y-64347513D01*
X218419025Y-64274526D01*
X217740000Y-64953551D01*
X217740000Y-64947339D01*
X217712741Y-64845606D01*
X217660080Y-64754394D01*
X217585606Y-64679920D01*
X217494394Y-64627259D01*
X217392661Y-64600000D01*
X217386448Y-64600000D01*
X218065472Y-63920974D01*
X217992478Y-63869863D01*
X217786331Y-63773735D01*
X217786317Y-63773730D01*
X217566610Y-63714860D01*
X217566599Y-63714858D01*
X217340002Y-63695034D01*
X217339998Y-63695034D01*
X217113400Y-63714858D01*
X217113389Y-63714860D01*
X216893682Y-63773730D01*
X216893673Y-63773734D01*
X216687516Y-63869866D01*
X216687512Y-63869868D01*
X216614526Y-63920973D01*
X216614526Y-63920974D01*
X217293553Y-64600000D01*
X217287339Y-64600000D01*
X217185606Y-64627259D01*
X217094394Y-64679920D01*
X217019920Y-64754394D01*
X216967259Y-64845606D01*
X216940000Y-64947339D01*
X216940000Y-64953552D01*
X216260974Y-64274526D01*
X216260973Y-64274526D01*
X216209868Y-64347512D01*
X216209866Y-64347516D01*
X216113734Y-64553673D01*
X216113730Y-64553682D01*
X216054860Y-64773389D01*
X216054858Y-64773400D01*
X216035034Y-64999997D01*
X216035034Y-65000002D01*
X206892671Y-65000002D01*
X206861294Y-64932713D01*
X206735860Y-64753575D01*
X206581226Y-64598941D01*
X206402088Y-64473507D01*
X206402089Y-64473507D01*
X206402087Y-64473506D01*
X206302989Y-64427296D01*
X206203891Y-64381086D01*
X206203887Y-64381085D01*
X206203883Y-64381083D01*
X205992660Y-64324487D01*
X205992650Y-64324485D01*
X205774802Y-64305426D01*
X205774800Y-64305426D01*
X205556951Y-64324485D01*
X205556941Y-64324487D01*
X205345718Y-64381083D01*
X205345709Y-64381087D01*
X205147514Y-64473506D01*
X205033267Y-64553504D01*
X204968376Y-64598941D01*
X204968374Y-64598942D01*
X204968371Y-64598945D01*
X204813746Y-64753570D01*
X204813743Y-64753573D01*
X204813742Y-64753575D01*
X204771991Y-64813201D01*
X204688307Y-64932713D01*
X204595888Y-65130908D01*
X204595884Y-65130917D01*
X204539288Y-65342140D01*
X204539286Y-65342150D01*
X204520227Y-65559999D01*
X204520227Y-65560000D01*
X192655500Y-65560000D01*
X192655500Y-64170000D01*
X201980227Y-64170000D01*
X201999286Y-64387849D01*
X201999288Y-64387859D01*
X202055884Y-64599082D01*
X202055886Y-64599086D01*
X202055887Y-64599090D01*
X202077970Y-64646447D01*
X202148307Y-64797286D01*
X202148308Y-64797287D01*
X202273742Y-64976425D01*
X202428376Y-65131059D01*
X202607514Y-65256493D01*
X202805711Y-65348914D01*
X203016947Y-65405514D01*
X203191230Y-65420762D01*
X203234800Y-65424574D01*
X203234801Y-65424574D01*
X203234802Y-65424574D01*
X203271110Y-65421397D01*
X203452655Y-65405514D01*
X203663891Y-65348914D01*
X203862088Y-65256493D01*
X204041226Y-65131059D01*
X204195860Y-64976425D01*
X204321294Y-64797287D01*
X204413715Y-64599090D01*
X204470315Y-64387854D01*
X204489375Y-64170000D01*
X204470315Y-63952146D01*
X204413715Y-63740910D01*
X204321294Y-63542713D01*
X204195860Y-63363575D01*
X204041226Y-63208941D01*
X203862088Y-63083507D01*
X203862089Y-63083507D01*
X203862087Y-63083506D01*
X203762989Y-63037296D01*
X203663891Y-62991086D01*
X203663887Y-62991085D01*
X203663883Y-62991083D01*
X203452660Y-62934487D01*
X203452650Y-62934485D01*
X203234802Y-62915426D01*
X203234800Y-62915426D01*
X203016951Y-62934485D01*
X203016941Y-62934487D01*
X202805718Y-62991083D01*
X202805709Y-62991087D01*
X202607514Y-63083506D01*
X202488002Y-63167190D01*
X202428376Y-63208941D01*
X202428374Y-63208942D01*
X202428371Y-63208945D01*
X202273746Y-63363570D01*
X202273743Y-63363573D01*
X202273742Y-63363575D01*
X202231991Y-63423201D01*
X202148307Y-63542713D01*
X202055888Y-63740908D01*
X202055884Y-63740917D01*
X201999288Y-63952140D01*
X201999286Y-63952150D01*
X201980227Y-64169999D01*
X201980227Y-64170000D01*
X192655500Y-64170000D01*
X192655500Y-62780000D01*
X204520227Y-62780000D01*
X204539286Y-62997849D01*
X204539288Y-62997859D01*
X204595884Y-63209082D01*
X204595886Y-63209086D01*
X204595887Y-63209090D01*
X204642097Y-63308188D01*
X204688307Y-63407286D01*
X204688308Y-63407287D01*
X204813742Y-63586425D01*
X204968376Y-63741059D01*
X205147514Y-63866493D01*
X205345711Y-63958914D01*
X205556947Y-64015514D01*
X205731230Y-64030762D01*
X205774800Y-64034574D01*
X205774801Y-64034574D01*
X205774802Y-64034574D01*
X205811110Y-64031397D01*
X205992655Y-64015514D01*
X206203891Y-63958914D01*
X206402088Y-63866493D01*
X206581226Y-63741059D01*
X206735860Y-63586425D01*
X206861294Y-63407287D01*
X206953715Y-63209090D01*
X207009740Y-63000001D01*
X252534532Y-63000001D01*
X252554364Y-63226686D01*
X252554366Y-63226697D01*
X252613258Y-63446488D01*
X252613261Y-63446497D01*
X252709431Y-63652732D01*
X252709432Y-63652734D01*
X252839954Y-63839141D01*
X253000858Y-64000045D01*
X253022950Y-64015514D01*
X253187266Y-64130568D01*
X253393504Y-64226739D01*
X253613308Y-64285635D01*
X253775230Y-64299801D01*
X253839998Y-64305468D01*
X253840000Y-64305468D01*
X253840002Y-64305468D01*
X253896673Y-64300509D01*
X254066692Y-64285635D01*
X254286496Y-64226739D01*
X254492734Y-64130568D01*
X254679139Y-64000047D01*
X254840047Y-63839139D01*
X254970568Y-63652734D01*
X255066739Y-63446496D01*
X255125635Y-63226692D01*
X255145468Y-63000001D01*
X262694532Y-63000001D01*
X262714364Y-63226686D01*
X262714366Y-63226697D01*
X262773258Y-63446488D01*
X262773261Y-63446497D01*
X262869431Y-63652732D01*
X262869432Y-63652734D01*
X262999954Y-63839141D01*
X263160858Y-64000045D01*
X263182950Y-64015514D01*
X263347266Y-64130568D01*
X263553504Y-64226739D01*
X263773308Y-64285635D01*
X263935230Y-64299801D01*
X263999998Y-64305468D01*
X264000000Y-64305468D01*
X264000002Y-64305468D01*
X264056673Y-64300509D01*
X264226692Y-64285635D01*
X264446496Y-64226739D01*
X264652734Y-64130568D01*
X264839139Y-64000047D01*
X265000047Y-63839139D01*
X265130568Y-63652734D01*
X265226739Y-63446496D01*
X265285635Y-63226692D01*
X265305468Y-63000000D01*
X265285635Y-62773308D01*
X265226739Y-62553504D01*
X265130568Y-62347266D01*
X265000047Y-62160861D01*
X265000045Y-62160858D01*
X264839141Y-61999954D01*
X264652734Y-61869432D01*
X264652732Y-61869431D01*
X264446497Y-61773261D01*
X264446488Y-61773258D01*
X264226697Y-61714366D01*
X264226693Y-61714365D01*
X264226692Y-61714365D01*
X264226691Y-61714364D01*
X264226686Y-61714364D01*
X264000002Y-61694532D01*
X263999998Y-61694532D01*
X263773313Y-61714364D01*
X263773302Y-61714366D01*
X263553511Y-61773258D01*
X263553502Y-61773261D01*
X263347267Y-61869431D01*
X263347265Y-61869432D01*
X263160858Y-61999954D01*
X262999954Y-62160858D01*
X262869432Y-62347265D01*
X262869431Y-62347267D01*
X262773261Y-62553502D01*
X262773258Y-62553511D01*
X262714366Y-62773302D01*
X262714364Y-62773313D01*
X262694532Y-62999998D01*
X262694532Y-63000001D01*
X255145468Y-63000001D01*
X255145468Y-63000000D01*
X255125635Y-62773308D01*
X255066739Y-62553504D01*
X254970568Y-62347266D01*
X254840047Y-62160861D01*
X254840045Y-62160858D01*
X254679141Y-61999954D01*
X254492734Y-61869432D01*
X254492732Y-61869431D01*
X254286497Y-61773261D01*
X254286488Y-61773258D01*
X254066697Y-61714366D01*
X254066693Y-61714365D01*
X254066692Y-61714365D01*
X254066691Y-61714364D01*
X254066686Y-61714364D01*
X253840002Y-61694532D01*
X253839998Y-61694532D01*
X253613313Y-61714364D01*
X253613302Y-61714366D01*
X253393511Y-61773258D01*
X253393502Y-61773261D01*
X253187267Y-61869431D01*
X253187265Y-61869432D01*
X253000858Y-61999954D01*
X252839954Y-62160858D01*
X252709432Y-62347265D01*
X252709431Y-62347267D01*
X252613261Y-62553502D01*
X252613258Y-62553511D01*
X252554366Y-62773302D01*
X252554364Y-62773313D01*
X252534532Y-62999998D01*
X252534532Y-63000001D01*
X207009740Y-63000001D01*
X207010315Y-62997854D01*
X207029375Y-62780000D01*
X207010315Y-62562146D01*
X206953715Y-62350910D01*
X206861294Y-62152713D01*
X206735860Y-61973575D01*
X206581226Y-61818941D01*
X206402088Y-61693507D01*
X206402089Y-61693507D01*
X206402087Y-61693506D01*
X206302989Y-61647296D01*
X206203891Y-61601086D01*
X206203887Y-61601085D01*
X206203883Y-61601083D01*
X205992660Y-61544487D01*
X205992650Y-61544485D01*
X205774802Y-61525426D01*
X205774800Y-61525426D01*
X205556951Y-61544485D01*
X205556941Y-61544487D01*
X205345718Y-61601083D01*
X205345709Y-61601087D01*
X205147514Y-61693506D01*
X205073109Y-61745606D01*
X204968376Y-61818941D01*
X204968374Y-61818942D01*
X204968371Y-61818945D01*
X204813746Y-61973570D01*
X204813743Y-61973573D01*
X204813742Y-61973575D01*
X204771991Y-62033201D01*
X204688307Y-62152713D01*
X204595888Y-62350908D01*
X204595884Y-62350917D01*
X204539288Y-62562140D01*
X204539286Y-62562150D01*
X204520227Y-62779999D01*
X204520227Y-62780000D01*
X192655500Y-62780000D01*
X192655500Y-61390000D01*
X201980227Y-61390000D01*
X201999286Y-61607849D01*
X201999288Y-61607859D01*
X202055884Y-61819082D01*
X202055886Y-61819086D01*
X202055887Y-61819090D01*
X202079362Y-61869432D01*
X202148307Y-62017286D01*
X202148308Y-62017287D01*
X202273742Y-62196425D01*
X202428376Y-62351059D01*
X202607514Y-62476493D01*
X202805711Y-62568914D01*
X203016947Y-62625514D01*
X203191230Y-62640762D01*
X203234800Y-62644574D01*
X203234801Y-62644574D01*
X203234802Y-62644574D01*
X203271110Y-62641397D01*
X203452655Y-62625514D01*
X203663891Y-62568914D01*
X203862088Y-62476493D01*
X204041226Y-62351059D01*
X204195860Y-62196425D01*
X204321294Y-62017287D01*
X204413715Y-61819090D01*
X204470315Y-61607854D01*
X204479751Y-61500002D01*
X216035034Y-61500002D01*
X216054858Y-61726599D01*
X216054860Y-61726610D01*
X216113730Y-61946317D01*
X216113735Y-61946331D01*
X216209863Y-62152478D01*
X216260974Y-62225472D01*
X216940000Y-61546446D01*
X216940000Y-61552661D01*
X216967259Y-61654394D01*
X217019920Y-61745606D01*
X217094394Y-61820080D01*
X217185606Y-61872741D01*
X217287339Y-61900000D01*
X217293553Y-61900000D01*
X216614526Y-62579025D01*
X216687513Y-62630132D01*
X216687521Y-62630136D01*
X216893668Y-62726264D01*
X216893682Y-62726269D01*
X217113389Y-62785139D01*
X217113400Y-62785141D01*
X217339998Y-62804966D01*
X217340002Y-62804966D01*
X217566599Y-62785141D01*
X217566610Y-62785139D01*
X217786317Y-62726269D01*
X217786331Y-62726264D01*
X217992478Y-62630136D01*
X218065471Y-62579024D01*
X217386447Y-61900000D01*
X217392661Y-61900000D01*
X217494394Y-61872741D01*
X217585606Y-61820080D01*
X217660080Y-61745606D01*
X217712741Y-61654394D01*
X217740000Y-61552661D01*
X217740000Y-61546447D01*
X218419024Y-62225471D01*
X218470136Y-62152478D01*
X218566264Y-61946331D01*
X218566269Y-61946317D01*
X218625139Y-61726610D01*
X218625141Y-61726599D01*
X218644966Y-61500002D01*
X218644966Y-61500001D01*
X226194532Y-61500001D01*
X226214364Y-61726686D01*
X226214366Y-61726697D01*
X226273258Y-61946488D01*
X226273261Y-61946497D01*
X226369431Y-62152732D01*
X226369432Y-62152734D01*
X226499954Y-62339141D01*
X226660858Y-62500045D01*
X226660861Y-62500047D01*
X226847266Y-62630568D01*
X227053504Y-62726739D01*
X227273308Y-62785635D01*
X227435230Y-62799801D01*
X227499998Y-62805468D01*
X227500000Y-62805468D01*
X227500002Y-62805468D01*
X227556673Y-62800509D01*
X227726692Y-62785635D01*
X227946496Y-62726739D01*
X228152734Y-62630568D01*
X228339139Y-62500047D01*
X228500047Y-62339139D01*
X228630568Y-62152734D01*
X228726739Y-61946496D01*
X228785635Y-61726692D01*
X228805468Y-61500002D01*
X230035034Y-61500002D01*
X230054858Y-61726599D01*
X230054860Y-61726610D01*
X230113730Y-61946317D01*
X230113735Y-61946331D01*
X230209863Y-62152478D01*
X230260974Y-62225472D01*
X230940000Y-61546446D01*
X230940000Y-61552661D01*
X230967259Y-61654394D01*
X231019920Y-61745606D01*
X231094394Y-61820080D01*
X231185606Y-61872741D01*
X231287339Y-61900000D01*
X231293553Y-61900000D01*
X230614526Y-62579025D01*
X230687513Y-62630132D01*
X230687521Y-62630136D01*
X230893668Y-62726264D01*
X230893682Y-62726269D01*
X231113389Y-62785139D01*
X231113400Y-62785141D01*
X231339998Y-62804966D01*
X231340002Y-62804966D01*
X231566599Y-62785141D01*
X231566610Y-62785139D01*
X231786317Y-62726269D01*
X231786331Y-62726264D01*
X231992478Y-62630136D01*
X232065471Y-62579024D01*
X231386447Y-61900000D01*
X231392661Y-61900000D01*
X231494394Y-61872741D01*
X231585606Y-61820080D01*
X231660080Y-61745606D01*
X231712741Y-61654394D01*
X231740000Y-61552661D01*
X231740000Y-61546447D01*
X232419024Y-62225471D01*
X232470136Y-62152478D01*
X232566264Y-61946331D01*
X232566269Y-61946317D01*
X232625139Y-61726610D01*
X232625141Y-61726599D01*
X232644966Y-61500002D01*
X232644966Y-61500001D01*
X240194532Y-61500001D01*
X240214364Y-61726686D01*
X240214366Y-61726697D01*
X240273258Y-61946488D01*
X240273261Y-61946497D01*
X240369431Y-62152732D01*
X240369432Y-62152734D01*
X240499954Y-62339141D01*
X240660858Y-62500045D01*
X240660861Y-62500047D01*
X240847266Y-62630568D01*
X241053504Y-62726739D01*
X241273308Y-62785635D01*
X241435230Y-62799801D01*
X241499998Y-62805468D01*
X241500000Y-62805468D01*
X241500002Y-62805468D01*
X241556673Y-62800509D01*
X241726692Y-62785635D01*
X241946496Y-62726739D01*
X242152734Y-62630568D01*
X242339139Y-62500047D01*
X242500047Y-62339139D01*
X242630568Y-62152734D01*
X242726739Y-61946496D01*
X242785635Y-61726692D01*
X242805468Y-61500000D01*
X242785635Y-61273308D01*
X242726739Y-61053504D01*
X242630568Y-60847266D01*
X242500047Y-60660861D01*
X242500045Y-60660858D01*
X242339141Y-60499954D01*
X242189535Y-60395200D01*
X242994659Y-60395200D01*
X243013975Y-60591329D01*
X243071188Y-60779933D01*
X243164086Y-60953732D01*
X243164090Y-60953739D01*
X243289116Y-61106083D01*
X243441460Y-61231109D01*
X243441467Y-61231113D01*
X243615266Y-61324011D01*
X243615269Y-61324011D01*
X243615273Y-61324014D01*
X243803868Y-61381224D01*
X244000000Y-61400541D01*
X244196132Y-61381224D01*
X244384727Y-61324014D01*
X244558538Y-61231110D01*
X244710883Y-61106083D01*
X244835910Y-60953738D01*
X244892687Y-60847516D01*
X244928811Y-60779933D01*
X244928811Y-60779932D01*
X244928814Y-60779927D01*
X244986024Y-60591332D01*
X245005341Y-60395200D01*
X244986024Y-60199068D01*
X244928814Y-60010473D01*
X244928811Y-60010469D01*
X244928811Y-60010466D01*
X244835913Y-59836667D01*
X244835909Y-59836660D01*
X244710883Y-59684316D01*
X244558539Y-59559290D01*
X244558532Y-59559286D01*
X244447618Y-59500001D01*
X252614532Y-59500001D01*
X252634364Y-59726686D01*
X252634366Y-59726697D01*
X252693258Y-59946488D01*
X252693261Y-59946497D01*
X252789431Y-60152732D01*
X252789432Y-60152734D01*
X252919954Y-60339141D01*
X253080858Y-60500045D01*
X253080861Y-60500047D01*
X253267266Y-60630568D01*
X253473504Y-60726739D01*
X253693308Y-60785635D01*
X253855230Y-60799801D01*
X253919998Y-60805468D01*
X253920000Y-60805468D01*
X253920002Y-60805468D01*
X253976673Y-60800509D01*
X254146692Y-60785635D01*
X254366496Y-60726739D01*
X254572734Y-60630568D01*
X254759139Y-60500047D01*
X254920047Y-60339139D01*
X255050568Y-60152734D01*
X255146739Y-59946496D01*
X255205635Y-59726692D01*
X255225468Y-59500001D01*
X262774532Y-59500001D01*
X262794364Y-59726686D01*
X262794366Y-59726697D01*
X262853258Y-59946488D01*
X262853261Y-59946497D01*
X262949431Y-60152732D01*
X262949432Y-60152734D01*
X263079954Y-60339141D01*
X263240858Y-60500045D01*
X263240861Y-60500047D01*
X263427266Y-60630568D01*
X263633504Y-60726739D01*
X263853308Y-60785635D01*
X264015230Y-60799801D01*
X264079998Y-60805468D01*
X264080000Y-60805468D01*
X264080002Y-60805468D01*
X264136673Y-60800509D01*
X264306692Y-60785635D01*
X264526496Y-60726739D01*
X264732734Y-60630568D01*
X264919139Y-60500047D01*
X265080047Y-60339139D01*
X265210568Y-60152734D01*
X265306739Y-59946496D01*
X265365635Y-59726692D01*
X265385468Y-59500000D01*
X265365635Y-59273308D01*
X265306739Y-59053504D01*
X265210568Y-58847266D01*
X265080047Y-58660861D01*
X265080045Y-58660858D01*
X264919141Y-58499954D01*
X264732734Y-58369432D01*
X264732732Y-58369431D01*
X264526497Y-58273261D01*
X264526488Y-58273258D01*
X264306697Y-58214366D01*
X264306693Y-58214365D01*
X264306692Y-58214365D01*
X264306691Y-58214364D01*
X264306686Y-58214364D01*
X264080002Y-58194532D01*
X264079998Y-58194532D01*
X263853313Y-58214364D01*
X263853302Y-58214366D01*
X263633511Y-58273258D01*
X263633502Y-58273261D01*
X263427267Y-58369431D01*
X263427265Y-58369432D01*
X263240858Y-58499954D01*
X263079954Y-58660858D01*
X262949432Y-58847265D01*
X262949431Y-58847267D01*
X262853261Y-59053502D01*
X262853258Y-59053511D01*
X262794366Y-59273302D01*
X262794364Y-59273313D01*
X262774532Y-59499998D01*
X262774532Y-59500001D01*
X255225468Y-59500001D01*
X255225468Y-59500000D01*
X255205635Y-59273308D01*
X255146739Y-59053504D01*
X255050568Y-58847266D01*
X254920047Y-58660861D01*
X254920045Y-58660858D01*
X254759141Y-58499954D01*
X254572734Y-58369432D01*
X254572732Y-58369431D01*
X254366497Y-58273261D01*
X254366488Y-58273258D01*
X254146697Y-58214366D01*
X254146693Y-58214365D01*
X254146692Y-58214365D01*
X254146691Y-58214364D01*
X254146686Y-58214364D01*
X253920002Y-58194532D01*
X253919998Y-58194532D01*
X253693313Y-58214364D01*
X253693302Y-58214366D01*
X253473511Y-58273258D01*
X253473502Y-58273261D01*
X253267267Y-58369431D01*
X253267265Y-58369432D01*
X253080858Y-58499954D01*
X252919954Y-58660858D01*
X252789432Y-58847265D01*
X252789431Y-58847267D01*
X252693261Y-59053502D01*
X252693258Y-59053511D01*
X252634366Y-59273302D01*
X252634364Y-59273313D01*
X252614532Y-59499998D01*
X252614532Y-59500001D01*
X244447618Y-59500001D01*
X244384733Y-59466388D01*
X244384727Y-59466386D01*
X244196132Y-59409176D01*
X244196129Y-59409175D01*
X244000000Y-59389859D01*
X243803870Y-59409175D01*
X243615266Y-59466388D01*
X243441467Y-59559286D01*
X243441460Y-59559290D01*
X243289116Y-59684316D01*
X243164090Y-59836660D01*
X243164086Y-59836667D01*
X243071188Y-60010466D01*
X243013975Y-60199070D01*
X242994659Y-60395200D01*
X242189535Y-60395200D01*
X242152734Y-60369432D01*
X242152732Y-60369431D01*
X241946497Y-60273261D01*
X241946488Y-60273258D01*
X241726697Y-60214366D01*
X241726693Y-60214365D01*
X241726692Y-60214365D01*
X241726691Y-60214364D01*
X241726686Y-60214364D01*
X241500002Y-60194532D01*
X241499998Y-60194532D01*
X241273313Y-60214364D01*
X241273302Y-60214366D01*
X241053511Y-60273258D01*
X241053502Y-60273261D01*
X240847267Y-60369431D01*
X240847265Y-60369432D01*
X240660858Y-60499954D01*
X240499954Y-60660858D01*
X240369432Y-60847265D01*
X240369431Y-60847267D01*
X240273261Y-61053502D01*
X240273258Y-61053511D01*
X240214366Y-61273302D01*
X240214364Y-61273313D01*
X240194532Y-61499998D01*
X240194532Y-61500001D01*
X232644966Y-61500001D01*
X232644966Y-61499997D01*
X232625141Y-61273400D01*
X232625139Y-61273389D01*
X232566269Y-61053682D01*
X232566264Y-61053668D01*
X232470136Y-60847521D01*
X232470132Y-60847513D01*
X232419025Y-60774526D01*
X231740000Y-61453551D01*
X231740000Y-61447339D01*
X231712741Y-61345606D01*
X231660080Y-61254394D01*
X231585606Y-61179920D01*
X231494394Y-61127259D01*
X231392661Y-61100000D01*
X231386448Y-61100000D01*
X232065472Y-60420974D01*
X231992478Y-60369863D01*
X231786331Y-60273735D01*
X231786317Y-60273730D01*
X231566610Y-60214860D01*
X231566599Y-60214858D01*
X231340002Y-60195034D01*
X231339998Y-60195034D01*
X231113400Y-60214858D01*
X231113389Y-60214860D01*
X230893682Y-60273730D01*
X230893673Y-60273734D01*
X230687516Y-60369866D01*
X230687512Y-60369868D01*
X230614526Y-60420973D01*
X230614526Y-60420974D01*
X231293553Y-61100000D01*
X231287339Y-61100000D01*
X231185606Y-61127259D01*
X231094394Y-61179920D01*
X231019920Y-61254394D01*
X230967259Y-61345606D01*
X230940000Y-61447339D01*
X230940000Y-61453552D01*
X230260974Y-60774526D01*
X230260973Y-60774526D01*
X230209868Y-60847512D01*
X230209866Y-60847516D01*
X230113734Y-61053673D01*
X230113730Y-61053682D01*
X230054860Y-61273389D01*
X230054858Y-61273400D01*
X230035034Y-61499997D01*
X230035034Y-61500002D01*
X228805468Y-61500002D01*
X228805468Y-61500000D01*
X228785635Y-61273308D01*
X228726739Y-61053504D01*
X228630568Y-60847266D01*
X228500047Y-60660861D01*
X228500045Y-60660858D01*
X228339141Y-60499954D01*
X228152734Y-60369432D01*
X228152732Y-60369431D01*
X227946497Y-60273261D01*
X227946488Y-60273258D01*
X227726697Y-60214366D01*
X227726693Y-60214365D01*
X227726692Y-60214365D01*
X227726691Y-60214364D01*
X227726686Y-60214364D01*
X227500002Y-60194532D01*
X227499998Y-60194532D01*
X227273313Y-60214364D01*
X227273302Y-60214366D01*
X227053511Y-60273258D01*
X227053502Y-60273261D01*
X226847267Y-60369431D01*
X226847265Y-60369432D01*
X226660858Y-60499954D01*
X226499954Y-60660858D01*
X226369432Y-60847265D01*
X226369431Y-60847267D01*
X226273261Y-61053502D01*
X226273258Y-61053511D01*
X226214366Y-61273302D01*
X226214364Y-61273313D01*
X226194532Y-61499998D01*
X226194532Y-61500001D01*
X218644966Y-61500001D01*
X218644966Y-61499997D01*
X218625141Y-61273400D01*
X218625139Y-61273389D01*
X218566269Y-61053682D01*
X218566264Y-61053668D01*
X218470136Y-60847521D01*
X218470132Y-60847513D01*
X218419025Y-60774526D01*
X217740000Y-61453551D01*
X217740000Y-61447339D01*
X217712741Y-61345606D01*
X217660080Y-61254394D01*
X217585606Y-61179920D01*
X217494394Y-61127259D01*
X217392661Y-61100000D01*
X217386448Y-61100000D01*
X218065472Y-60420974D01*
X217992478Y-60369863D01*
X217786331Y-60273735D01*
X217786317Y-60273730D01*
X217566610Y-60214860D01*
X217566599Y-60214858D01*
X217340002Y-60195034D01*
X217339998Y-60195034D01*
X217113400Y-60214858D01*
X217113389Y-60214860D01*
X216893682Y-60273730D01*
X216893673Y-60273734D01*
X216687516Y-60369866D01*
X216687512Y-60369868D01*
X216614526Y-60420973D01*
X216614526Y-60420974D01*
X217293553Y-61100000D01*
X217287339Y-61100000D01*
X217185606Y-61127259D01*
X217094394Y-61179920D01*
X217019920Y-61254394D01*
X216967259Y-61345606D01*
X216940000Y-61447339D01*
X216940000Y-61453552D01*
X216260974Y-60774526D01*
X216260973Y-60774526D01*
X216209868Y-60847512D01*
X216209866Y-60847516D01*
X216113734Y-61053673D01*
X216113730Y-61053682D01*
X216054860Y-61273389D01*
X216054858Y-61273400D01*
X216035034Y-61499997D01*
X216035034Y-61500002D01*
X204479751Y-61500002D01*
X204489375Y-61390000D01*
X204470315Y-61172146D01*
X204413715Y-60960910D01*
X204321294Y-60762713D01*
X204195860Y-60583575D01*
X204041226Y-60428941D01*
X203862088Y-60303507D01*
X203862089Y-60303507D01*
X203862087Y-60303506D01*
X203762989Y-60257296D01*
X203663891Y-60211086D01*
X203663887Y-60211085D01*
X203663883Y-60211083D01*
X203452660Y-60154487D01*
X203452650Y-60154485D01*
X203234802Y-60135426D01*
X203234800Y-60135426D01*
X203016951Y-60154485D01*
X203016941Y-60154487D01*
X202805718Y-60211083D01*
X202805709Y-60211087D01*
X202607514Y-60303506D01*
X202512741Y-60369868D01*
X202428376Y-60428941D01*
X202428374Y-60428942D01*
X202428371Y-60428945D01*
X202273746Y-60583570D01*
X202273743Y-60583573D01*
X202273742Y-60583575D01*
X202240838Y-60630567D01*
X202148307Y-60762713D01*
X202055888Y-60960908D01*
X202055884Y-60960917D01*
X201999288Y-61172140D01*
X201999286Y-61172150D01*
X201980227Y-61389999D01*
X201980227Y-61390000D01*
X192655500Y-61390000D01*
X192655500Y-60000000D01*
X204520227Y-60000000D01*
X204539286Y-60217849D01*
X204539288Y-60217859D01*
X204595884Y-60429082D01*
X204595886Y-60429086D01*
X204595887Y-60429090D01*
X204628931Y-60499953D01*
X204688307Y-60627286D01*
X204690605Y-60630568D01*
X204813742Y-60806425D01*
X204968376Y-60961059D01*
X205147514Y-61086493D01*
X205345711Y-61178914D01*
X205556947Y-61235514D01*
X205731230Y-61250762D01*
X205774800Y-61254574D01*
X205774801Y-61254574D01*
X205774802Y-61254574D01*
X205811110Y-61251397D01*
X205992655Y-61235514D01*
X206203891Y-61178914D01*
X206402088Y-61086493D01*
X206581226Y-60961059D01*
X206735860Y-60806425D01*
X206861294Y-60627287D01*
X206953715Y-60429090D01*
X207010315Y-60217854D01*
X207029375Y-60000000D01*
X207010315Y-59782146D01*
X206953715Y-59570910D01*
X206861294Y-59372713D01*
X206735860Y-59193575D01*
X206581226Y-59038941D01*
X206402088Y-58913507D01*
X206402089Y-58913507D01*
X206402087Y-58913506D01*
X206260034Y-58847266D01*
X206203891Y-58821086D01*
X206203887Y-58821085D01*
X206203883Y-58821083D01*
X205992660Y-58764487D01*
X205992650Y-58764485D01*
X205774802Y-58745426D01*
X205774800Y-58745426D01*
X205556951Y-58764485D01*
X205556941Y-58764487D01*
X205345718Y-58821083D01*
X205345709Y-58821087D01*
X205147514Y-58913506D01*
X205028002Y-58997190D01*
X204968376Y-59038941D01*
X204968374Y-59038942D01*
X204968371Y-59038945D01*
X204813746Y-59193570D01*
X204813743Y-59193573D01*
X204813742Y-59193575D01*
X204783134Y-59237288D01*
X204688307Y-59372713D01*
X204595888Y-59570908D01*
X204595884Y-59570917D01*
X204539288Y-59782140D01*
X204539286Y-59782150D01*
X204520227Y-59999999D01*
X204520227Y-60000000D01*
X192655500Y-60000000D01*
X192655500Y-58610001D01*
X201980227Y-58610001D01*
X201999286Y-58827850D01*
X201999288Y-58827860D01*
X202055884Y-59039083D01*
X202055886Y-59039087D01*
X202055887Y-59039091D01*
X202102097Y-59138189D01*
X202148307Y-59237287D01*
X202148308Y-59237288D01*
X202273742Y-59416426D01*
X202428376Y-59571060D01*
X202607514Y-59696494D01*
X202805711Y-59788915D01*
X203016947Y-59845515D01*
X203191230Y-59860763D01*
X203234800Y-59864575D01*
X203234801Y-59864575D01*
X203234802Y-59864575D01*
X203271110Y-59861398D01*
X203452655Y-59845515D01*
X203663891Y-59788915D01*
X203862088Y-59696494D01*
X204041226Y-59571060D01*
X204195860Y-59416426D01*
X204321294Y-59237288D01*
X204413715Y-59039091D01*
X204470315Y-58827855D01*
X204489375Y-58610001D01*
X204470315Y-58392147D01*
X204413715Y-58180911D01*
X204321294Y-57982714D01*
X204195860Y-57803576D01*
X204041226Y-57648942D01*
X203862088Y-57523508D01*
X203862089Y-57523508D01*
X203862087Y-57523507D01*
X203762989Y-57477297D01*
X203663891Y-57431087D01*
X203663887Y-57431086D01*
X203663883Y-57431084D01*
X203452660Y-57374488D01*
X203452650Y-57374486D01*
X203234802Y-57355427D01*
X203234800Y-57355427D01*
X203016951Y-57374486D01*
X203016941Y-57374488D01*
X202805718Y-57431084D01*
X202805709Y-57431088D01*
X202607514Y-57523507D01*
X202488002Y-57607191D01*
X202428376Y-57648942D01*
X202428374Y-57648943D01*
X202428371Y-57648946D01*
X202273746Y-57803571D01*
X202148307Y-57982714D01*
X202055888Y-58180909D01*
X202055884Y-58180918D01*
X201999288Y-58392141D01*
X201999286Y-58392151D01*
X201980227Y-58610000D01*
X201980227Y-58610001D01*
X192655500Y-58610001D01*
X192655500Y-57220002D01*
X204520729Y-57220002D01*
X204539780Y-57437762D01*
X204539782Y-57437772D01*
X204596356Y-57648911D01*
X204596360Y-57648920D01*
X204688742Y-57847035D01*
X204688743Y-57847037D01*
X204732178Y-57909068D01*
X204732179Y-57909069D01*
X205295675Y-57345572D01*
X205313255Y-57411180D01*
X205378462Y-57524122D01*
X205470680Y-57616340D01*
X205583622Y-57681547D01*
X205649228Y-57699126D01*
X205085731Y-58262622D01*
X205147765Y-58306058D01*
X205345881Y-58398441D01*
X205345890Y-58398445D01*
X205557029Y-58455019D01*
X205557039Y-58455021D01*
X205774799Y-58474073D01*
X205774803Y-58474073D01*
X205992562Y-58455021D01*
X205992572Y-58455019D01*
X206203711Y-58398445D01*
X206203720Y-58398441D01*
X206401836Y-58306059D01*
X206401840Y-58306057D01*
X206463869Y-58262623D01*
X206463869Y-58262622D01*
X205900373Y-57699126D01*
X205965980Y-57681547D01*
X206078922Y-57616340D01*
X206171140Y-57524122D01*
X206236347Y-57411180D01*
X206253926Y-57345573D01*
X206817422Y-57909069D01*
X206817423Y-57909069D01*
X206860857Y-57847040D01*
X206860859Y-57847036D01*
X206953241Y-57648920D01*
X206953245Y-57648911D01*
X207009819Y-57437772D01*
X207009821Y-57437762D01*
X207028873Y-57220002D01*
X207028873Y-57219999D01*
X207009821Y-57002239D01*
X207009819Y-57002229D01*
X206953245Y-56791090D01*
X206953241Y-56791081D01*
X206860858Y-56592965D01*
X206817422Y-56530931D01*
X206253925Y-57094427D01*
X206236347Y-57028822D01*
X206171140Y-56915880D01*
X206078922Y-56823662D01*
X205965980Y-56758455D01*
X205900373Y-56740875D01*
X206463869Y-56177379D01*
X206463868Y-56177378D01*
X206401837Y-56133943D01*
X206401835Y-56133942D01*
X206203720Y-56041560D01*
X206203711Y-56041556D01*
X206048624Y-56000001D01*
X252534532Y-56000001D01*
X252554364Y-56226686D01*
X252554366Y-56226697D01*
X252613258Y-56446488D01*
X252613261Y-56446497D01*
X252709431Y-56652732D01*
X252709432Y-56652734D01*
X252839954Y-56839141D01*
X253000858Y-57000045D01*
X253041956Y-57028822D01*
X253187266Y-57130568D01*
X253393504Y-57226739D01*
X253613308Y-57285635D01*
X253775230Y-57299801D01*
X253839998Y-57305468D01*
X253840000Y-57305468D01*
X253840002Y-57305468D01*
X253896673Y-57300509D01*
X254066692Y-57285635D01*
X254286496Y-57226739D01*
X254492734Y-57130568D01*
X254679139Y-57000047D01*
X254840047Y-56839139D01*
X254970568Y-56652734D01*
X255066739Y-56446496D01*
X255125635Y-56226692D01*
X255145468Y-56000001D01*
X262694532Y-56000001D01*
X262714364Y-56226686D01*
X262714366Y-56226697D01*
X262773258Y-56446488D01*
X262773261Y-56446497D01*
X262869431Y-56652732D01*
X262869432Y-56652734D01*
X262999954Y-56839141D01*
X263160858Y-57000045D01*
X263201956Y-57028822D01*
X263347266Y-57130568D01*
X263553504Y-57226739D01*
X263773308Y-57285635D01*
X263935230Y-57299801D01*
X263999998Y-57305468D01*
X264000000Y-57305468D01*
X264000002Y-57305468D01*
X264056673Y-57300509D01*
X264226692Y-57285635D01*
X264446496Y-57226739D01*
X264652734Y-57130568D01*
X264839139Y-57000047D01*
X265000047Y-56839139D01*
X265130568Y-56652734D01*
X265226739Y-56446496D01*
X265285635Y-56226692D01*
X265305468Y-56000000D01*
X265285635Y-55773308D01*
X265226739Y-55553504D01*
X265130568Y-55347266D01*
X265000047Y-55160861D01*
X265000045Y-55160858D01*
X264839141Y-54999954D01*
X264652734Y-54869432D01*
X264652732Y-54869431D01*
X264446497Y-54773261D01*
X264446488Y-54773258D01*
X264226697Y-54714366D01*
X264226693Y-54714365D01*
X264226692Y-54714365D01*
X264226691Y-54714364D01*
X264226686Y-54714364D01*
X264000002Y-54694532D01*
X263999998Y-54694532D01*
X263773313Y-54714364D01*
X263773302Y-54714366D01*
X263553511Y-54773258D01*
X263553502Y-54773261D01*
X263347267Y-54869431D01*
X263347265Y-54869432D01*
X263160858Y-54999954D01*
X262999954Y-55160858D01*
X262869432Y-55347265D01*
X262869431Y-55347267D01*
X262773261Y-55553502D01*
X262773258Y-55553511D01*
X262714366Y-55773302D01*
X262714364Y-55773313D01*
X262694532Y-55999998D01*
X262694532Y-56000001D01*
X255145468Y-56000001D01*
X255145468Y-56000000D01*
X255125635Y-55773308D01*
X255066739Y-55553504D01*
X254970568Y-55347266D01*
X254840047Y-55160861D01*
X254840045Y-55160858D01*
X254679141Y-54999954D01*
X254492734Y-54869432D01*
X254492732Y-54869431D01*
X254286497Y-54773261D01*
X254286488Y-54773258D01*
X254066697Y-54714366D01*
X254066693Y-54714365D01*
X254066692Y-54714365D01*
X254066691Y-54714364D01*
X254066686Y-54714364D01*
X253840002Y-54694532D01*
X253839998Y-54694532D01*
X253613313Y-54714364D01*
X253613302Y-54714366D01*
X253393511Y-54773258D01*
X253393502Y-54773261D01*
X253187267Y-54869431D01*
X253187265Y-54869432D01*
X253000858Y-54999954D01*
X252839954Y-55160858D01*
X252709432Y-55347265D01*
X252709431Y-55347267D01*
X252613261Y-55553502D01*
X252613258Y-55553511D01*
X252554366Y-55773302D01*
X252554364Y-55773313D01*
X252534532Y-55999998D01*
X252534532Y-56000001D01*
X206048624Y-56000001D01*
X205992572Y-55984982D01*
X205992562Y-55984980D01*
X205774803Y-55965929D01*
X205774799Y-55965929D01*
X205557039Y-55984980D01*
X205557029Y-55984982D01*
X205345890Y-56041556D01*
X205345881Y-56041560D01*
X205147761Y-56133945D01*
X205085732Y-56177377D01*
X205085731Y-56177378D01*
X205649229Y-56740875D01*
X205583622Y-56758455D01*
X205470680Y-56823662D01*
X205378462Y-56915880D01*
X205313255Y-57028822D01*
X205295675Y-57094428D01*
X204732178Y-56530931D01*
X204732177Y-56530932D01*
X204688745Y-56592961D01*
X204596360Y-56791081D01*
X204596356Y-56791090D01*
X204539782Y-57002229D01*
X204539780Y-57002239D01*
X204520729Y-57219999D01*
X204520729Y-57220002D01*
X192655500Y-57220002D01*
X192655500Y-54120000D01*
X216644341Y-54120000D01*
X216664936Y-54355403D01*
X216664938Y-54355413D01*
X216726094Y-54583655D01*
X216726096Y-54583659D01*
X216726097Y-54583663D01*
X216777796Y-54694532D01*
X216825965Y-54797830D01*
X216825967Y-54797834D01*
X216876101Y-54869432D01*
X216961505Y-54991401D01*
X217128599Y-55158495D01*
X217225384Y-55226265D01*
X217322165Y-55294032D01*
X217322167Y-55294033D01*
X217322170Y-55294035D01*
X217536337Y-55393903D01*
X217764592Y-55455063D01*
X217952918Y-55471539D01*
X217999999Y-55475659D01*
X218000000Y-55475659D01*
X218000001Y-55475659D01*
X218039234Y-55472226D01*
X218235408Y-55455063D01*
X218463663Y-55393903D01*
X218677830Y-55294035D01*
X218871401Y-55158495D01*
X219038495Y-54991401D01*
X219174035Y-54797830D01*
X219273903Y-54583663D01*
X219335063Y-54355408D01*
X219355659Y-54120000D01*
X219335063Y-53884592D01*
X219273903Y-53656337D01*
X219174035Y-53442171D01*
X219038495Y-53248599D01*
X219038494Y-53248597D01*
X218871402Y-53081506D01*
X218871401Y-53081505D01*
X218685405Y-52951269D01*
X218641781Y-52896692D01*
X218634588Y-52827193D01*
X218666110Y-52764839D01*
X218685405Y-52748119D01*
X218871082Y-52618105D01*
X218989186Y-52500001D01*
X252534532Y-52500001D01*
X252554364Y-52726686D01*
X252554366Y-52726697D01*
X252613258Y-52946488D01*
X252613261Y-52946497D01*
X252709431Y-53152732D01*
X252709432Y-53152734D01*
X252839954Y-53339141D01*
X253000858Y-53500045D01*
X253000861Y-53500047D01*
X253187266Y-53630568D01*
X253393504Y-53726739D01*
X253613308Y-53785635D01*
X253775230Y-53799801D01*
X253839998Y-53805468D01*
X253840000Y-53805468D01*
X253840002Y-53805468D01*
X253896673Y-53800509D01*
X254066692Y-53785635D01*
X254286496Y-53726739D01*
X254492734Y-53630568D01*
X254679139Y-53500047D01*
X254840047Y-53339139D01*
X254970568Y-53152734D01*
X255066739Y-52946496D01*
X255125635Y-52726692D01*
X255145468Y-52500001D01*
X262694532Y-52500001D01*
X262714364Y-52726686D01*
X262714366Y-52726697D01*
X262773258Y-52946488D01*
X262773261Y-52946497D01*
X262869431Y-53152732D01*
X262869432Y-53152734D01*
X262999954Y-53339141D01*
X263160858Y-53500045D01*
X263160861Y-53500047D01*
X263347266Y-53630568D01*
X263553504Y-53726739D01*
X263773308Y-53785635D01*
X263935230Y-53799801D01*
X263999998Y-53805468D01*
X264000000Y-53805468D01*
X264000002Y-53805468D01*
X264056673Y-53800509D01*
X264226692Y-53785635D01*
X264446496Y-53726739D01*
X264652734Y-53630568D01*
X264839139Y-53500047D01*
X265000047Y-53339139D01*
X265130568Y-53152734D01*
X265226739Y-52946496D01*
X265285635Y-52726692D01*
X265305468Y-52500000D01*
X265285635Y-52273308D01*
X265226739Y-52053504D01*
X265130568Y-51847266D01*
X265000047Y-51660861D01*
X265000045Y-51660858D01*
X264839141Y-51499954D01*
X264652734Y-51369432D01*
X264652732Y-51369431D01*
X264446497Y-51273261D01*
X264446488Y-51273258D01*
X264226697Y-51214366D01*
X264226693Y-51214365D01*
X264226692Y-51214365D01*
X264226691Y-51214364D01*
X264226686Y-51214364D01*
X264000002Y-51194532D01*
X263999998Y-51194532D01*
X263773313Y-51214364D01*
X263773302Y-51214366D01*
X263553511Y-51273258D01*
X263553502Y-51273261D01*
X263347267Y-51369431D01*
X263347265Y-51369432D01*
X263160858Y-51499954D01*
X262999954Y-51660858D01*
X262869432Y-51847265D01*
X262869431Y-51847267D01*
X262773261Y-52053502D01*
X262773258Y-52053511D01*
X262714366Y-52273302D01*
X262714364Y-52273313D01*
X262694532Y-52499998D01*
X262694532Y-52500001D01*
X255145468Y-52500001D01*
X255145468Y-52500000D01*
X255125635Y-52273308D01*
X255066739Y-52053504D01*
X254970568Y-51847266D01*
X254840047Y-51660861D01*
X254840045Y-51660858D01*
X254679141Y-51499954D01*
X254492734Y-51369432D01*
X254492732Y-51369431D01*
X254286497Y-51273261D01*
X254286488Y-51273258D01*
X254066697Y-51214366D01*
X254066693Y-51214365D01*
X254066692Y-51214365D01*
X254066691Y-51214364D01*
X254066686Y-51214364D01*
X253840002Y-51194532D01*
X253839998Y-51194532D01*
X253613313Y-51214364D01*
X253613302Y-51214366D01*
X253393511Y-51273258D01*
X253393502Y-51273261D01*
X253187267Y-51369431D01*
X253187265Y-51369432D01*
X253000858Y-51499954D01*
X252839954Y-51660858D01*
X252709432Y-51847265D01*
X252709431Y-51847267D01*
X252613261Y-52053502D01*
X252613258Y-52053511D01*
X252554366Y-52273302D01*
X252554364Y-52273313D01*
X252534532Y-52499998D01*
X252534532Y-52500001D01*
X218989186Y-52500001D01*
X219038105Y-52451082D01*
X219173600Y-52257578D01*
X219273429Y-52043492D01*
X219273432Y-52043486D01*
X219330636Y-51830000D01*
X218433012Y-51830000D01*
X218465925Y-51772993D01*
X218500000Y-51645826D01*
X218500000Y-51514174D01*
X218465925Y-51387007D01*
X218433012Y-51330000D01*
X219330636Y-51330000D01*
X219330635Y-51329999D01*
X219273432Y-51116513D01*
X219273429Y-51116507D01*
X219173600Y-50902422D01*
X219173599Y-50902420D01*
X219038113Y-50708926D01*
X219038108Y-50708920D01*
X218871078Y-50541890D01*
X218685405Y-50411879D01*
X218641780Y-50357302D01*
X218634588Y-50287804D01*
X218666110Y-50225449D01*
X218685406Y-50208730D01*
X218871401Y-50078495D01*
X219038495Y-49911401D01*
X219174035Y-49717830D01*
X219273903Y-49503663D01*
X219335063Y-49275408D01*
X219355659Y-49040000D01*
X219335063Y-48804592D01*
X219273903Y-48576337D01*
X219174035Y-48362171D01*
X219038495Y-48168599D01*
X219038494Y-48168597D01*
X218871402Y-48001506D01*
X218871396Y-48001501D01*
X218685842Y-47871575D01*
X218642217Y-47816998D01*
X218635023Y-47747500D01*
X218666546Y-47685145D01*
X218685842Y-47668425D01*
X218708026Y-47652891D01*
X218871401Y-47538495D01*
X219038495Y-47371401D01*
X219174035Y-47177830D01*
X219273903Y-46963663D01*
X219335063Y-46735408D01*
X219355659Y-46500000D01*
X219335063Y-46264592D01*
X219273903Y-46036337D01*
X219174035Y-45822171D01*
X219038495Y-45628599D01*
X219038494Y-45628597D01*
X218871402Y-45461506D01*
X218871396Y-45461501D01*
X218685842Y-45331575D01*
X218642217Y-45276998D01*
X218635023Y-45207500D01*
X218666546Y-45145145D01*
X218685842Y-45128425D01*
X218708026Y-45112891D01*
X218871401Y-44998495D01*
X219038495Y-44831401D01*
X219174035Y-44637830D01*
X219273903Y-44423663D01*
X219335063Y-44195408D01*
X219355659Y-43960000D01*
X219335063Y-43724592D01*
X219273903Y-43496337D01*
X219174035Y-43282171D01*
X219038495Y-43088599D01*
X219038494Y-43088597D01*
X218871402Y-42921506D01*
X218871396Y-42921501D01*
X218685842Y-42791575D01*
X218642217Y-42736998D01*
X218635023Y-42667500D01*
X218666546Y-42605145D01*
X218685842Y-42588425D01*
X218708026Y-42572891D01*
X218871401Y-42458495D01*
X219038495Y-42291401D01*
X219174035Y-42097830D01*
X219273903Y-41883663D01*
X219335063Y-41655408D01*
X219355659Y-41420000D01*
X219335063Y-41184592D01*
X219273903Y-40956337D01*
X219174035Y-40742171D01*
X219038495Y-40548599D01*
X218916567Y-40426671D01*
X218883084Y-40365351D01*
X218888068Y-40295659D01*
X218929939Y-40239725D01*
X218960915Y-40222810D01*
X219092331Y-40173796D01*
X219207546Y-40087546D01*
X219293796Y-39972331D01*
X219344091Y-39837483D01*
X219350500Y-39777873D01*
X219350499Y-37982128D01*
X219344091Y-37922517D01*
X219293796Y-37787669D01*
X219293795Y-37787668D01*
X219293793Y-37787664D01*
X219207547Y-37672455D01*
X219207544Y-37672452D01*
X219092335Y-37586206D01*
X219092328Y-37586202D01*
X218957482Y-37535908D01*
X218957483Y-37535908D01*
X218897883Y-37529501D01*
X218897881Y-37529500D01*
X218897873Y-37529500D01*
X218897864Y-37529500D01*
X217102129Y-37529500D01*
X217102123Y-37529501D01*
X217042516Y-37535908D01*
X216907671Y-37586202D01*
X216907664Y-37586206D01*
X216792455Y-37672452D01*
X216792452Y-37672455D01*
X216706206Y-37787664D01*
X216706202Y-37787671D01*
X216655908Y-37922517D01*
X216649501Y-37982116D01*
X216649501Y-37982123D01*
X216649500Y-37982135D01*
X216649500Y-39777870D01*
X216649501Y-39777876D01*
X216655908Y-39837483D01*
X216706202Y-39972328D01*
X216706206Y-39972335D01*
X216792452Y-40087544D01*
X216792455Y-40087547D01*
X216907664Y-40173793D01*
X216907671Y-40173797D01*
X217039081Y-40222810D01*
X217095015Y-40264681D01*
X217119432Y-40330145D01*
X217104580Y-40398418D01*
X217083430Y-40426673D01*
X216961503Y-40548600D01*
X216825965Y-40742169D01*
X216825964Y-40742171D01*
X216726098Y-40956335D01*
X216726094Y-40956344D01*
X216664938Y-41184586D01*
X216664936Y-41184596D01*
X216644341Y-41419999D01*
X216644341Y-41420000D01*
X216664936Y-41655403D01*
X216664938Y-41655413D01*
X216726094Y-41883655D01*
X216726096Y-41883659D01*
X216726097Y-41883663D01*
X216825965Y-42097830D01*
X216825967Y-42097834D01*
X216961501Y-42291395D01*
X216961506Y-42291402D01*
X217128597Y-42458493D01*
X217128603Y-42458498D01*
X217314158Y-42588425D01*
X217357783Y-42643002D01*
X217364977Y-42712500D01*
X217333454Y-42774855D01*
X217314158Y-42791575D01*
X217128597Y-42921505D01*
X216961505Y-43088597D01*
X216825965Y-43282169D01*
X216825964Y-43282171D01*
X216726098Y-43496335D01*
X216726094Y-43496344D01*
X216664938Y-43724586D01*
X216664936Y-43724596D01*
X216644341Y-43959999D01*
X216644341Y-43960000D01*
X216664936Y-44195403D01*
X216664938Y-44195413D01*
X216726094Y-44423655D01*
X216726096Y-44423659D01*
X216726097Y-44423663D01*
X216825965Y-44637830D01*
X216825967Y-44637834D01*
X216961501Y-44831395D01*
X216961506Y-44831402D01*
X217128597Y-44998493D01*
X217128603Y-44998498D01*
X217314158Y-45128425D01*
X217357783Y-45183002D01*
X217364977Y-45252500D01*
X217333454Y-45314855D01*
X217314158Y-45331575D01*
X217128597Y-45461505D01*
X216961505Y-45628597D01*
X216825965Y-45822169D01*
X216825964Y-45822171D01*
X216726098Y-46036335D01*
X216726094Y-46036344D01*
X216664938Y-46264586D01*
X216664936Y-46264596D01*
X216644341Y-46499999D01*
X216644341Y-46500000D01*
X216664936Y-46735403D01*
X216664938Y-46735413D01*
X216726094Y-46963655D01*
X216726096Y-46963659D01*
X216726097Y-46963663D01*
X216825965Y-47177830D01*
X216825967Y-47177834D01*
X216961501Y-47371395D01*
X216961506Y-47371402D01*
X217128597Y-47538493D01*
X217128603Y-47538498D01*
X217314158Y-47668425D01*
X217357783Y-47723002D01*
X217364977Y-47792500D01*
X217333454Y-47854855D01*
X217314158Y-47871575D01*
X217128597Y-48001505D01*
X216961505Y-48168597D01*
X216825965Y-48362169D01*
X216825964Y-48362171D01*
X216726098Y-48576335D01*
X216726094Y-48576344D01*
X216664938Y-48804586D01*
X216664936Y-48804596D01*
X216644341Y-49039999D01*
X216644341Y-49040000D01*
X216664936Y-49275403D01*
X216664938Y-49275413D01*
X216726094Y-49503655D01*
X216726096Y-49503659D01*
X216726097Y-49503663D01*
X216810931Y-49685590D01*
X216825965Y-49717830D01*
X216825967Y-49717834D01*
X216961501Y-49911395D01*
X216961506Y-49911402D01*
X217128597Y-50078493D01*
X217128603Y-50078498D01*
X217314594Y-50208730D01*
X217358219Y-50263307D01*
X217365413Y-50332805D01*
X217333890Y-50395160D01*
X217314595Y-50411880D01*
X217128922Y-50541890D01*
X217128920Y-50541891D01*
X216961891Y-50708920D01*
X216961886Y-50708926D01*
X216826400Y-50902420D01*
X216826399Y-50902422D01*
X216726570Y-51116507D01*
X216726567Y-51116513D01*
X216669364Y-51329999D01*
X216669364Y-51330000D01*
X217566988Y-51330000D01*
X217534075Y-51387007D01*
X217500000Y-51514174D01*
X217500000Y-51645826D01*
X217534075Y-51772993D01*
X217566988Y-51830000D01*
X216669364Y-51830000D01*
X216726567Y-52043486D01*
X216726570Y-52043492D01*
X216826399Y-52257578D01*
X216961894Y-52451082D01*
X217128917Y-52618105D01*
X217314595Y-52748119D01*
X217358219Y-52802696D01*
X217365412Y-52872195D01*
X217333890Y-52934549D01*
X217314595Y-52951269D01*
X217128594Y-53081508D01*
X216961505Y-53248597D01*
X216825965Y-53442169D01*
X216825964Y-53442171D01*
X216726098Y-53656335D01*
X216726094Y-53656344D01*
X216664938Y-53884586D01*
X216664936Y-53884596D01*
X216644341Y-54119999D01*
X216644341Y-54120000D01*
X192655500Y-54120000D01*
X192655500Y-50285006D01*
X202094545Y-50285006D01*
X202113549Y-50587075D01*
X202113550Y-50587082D01*
X202170269Y-50884411D01*
X202176121Y-50902422D01*
X202263802Y-51172275D01*
X202392678Y-51446151D01*
X202392680Y-51446154D01*
X202392681Y-51446156D01*
X202554859Y-51701709D01*
X202554862Y-51701713D01*
X202554863Y-51701714D01*
X202747800Y-51934935D01*
X202874071Y-52053511D01*
X202968444Y-52142133D01*
X202968454Y-52142141D01*
X203213309Y-52320039D01*
X203213314Y-52320041D01*
X203213321Y-52320047D01*
X203478564Y-52465866D01*
X203478569Y-52465868D01*
X203478571Y-52465869D01*
X203478572Y-52465870D01*
X203759987Y-52577290D01*
X203759990Y-52577291D01*
X203918951Y-52618105D01*
X204053164Y-52652565D01*
X204116161Y-52660523D01*
X204353448Y-52690500D01*
X204353457Y-52690500D01*
X204353460Y-52690501D01*
X204353462Y-52690501D01*
X204656140Y-52690501D01*
X204656142Y-52690501D01*
X204656145Y-52690500D01*
X204656153Y-52690500D01*
X204835340Y-52667863D01*
X204956438Y-52652565D01*
X205249611Y-52577291D01*
X205249614Y-52577290D01*
X205531029Y-52465870D01*
X205531030Y-52465869D01*
X205531028Y-52465869D01*
X205531038Y-52465866D01*
X205796281Y-52320047D01*
X206041156Y-52142135D01*
X206261802Y-51934935D01*
X206454739Y-51701714D01*
X206616924Y-51446151D01*
X206745800Y-51172275D01*
X206839334Y-50884407D01*
X206896051Y-50587086D01*
X206896052Y-50587075D01*
X206915057Y-50285006D01*
X206915057Y-50284995D01*
X206896052Y-49982926D01*
X206896051Y-49982919D01*
X206896051Y-49982916D01*
X206839334Y-49685595D01*
X206745800Y-49397727D01*
X206616924Y-49123851D01*
X206454739Y-48868288D01*
X206261802Y-48635067D01*
X206041156Y-48427867D01*
X206041153Y-48427865D01*
X206041147Y-48427860D01*
X205796292Y-48249962D01*
X205796285Y-48249957D01*
X205796281Y-48249955D01*
X205531038Y-48104136D01*
X205531035Y-48104134D01*
X205531030Y-48104132D01*
X205531029Y-48104131D01*
X205249614Y-47992711D01*
X205249611Y-47992710D01*
X204956441Y-47917437D01*
X204956428Y-47917435D01*
X204656153Y-47879501D01*
X204656142Y-47879501D01*
X204353460Y-47879501D01*
X204353448Y-47879501D01*
X204053173Y-47917435D01*
X204053160Y-47917437D01*
X203759990Y-47992710D01*
X203759987Y-47992711D01*
X203478572Y-48104131D01*
X203478571Y-48104132D01*
X203213321Y-48249955D01*
X203213309Y-48249962D01*
X202968454Y-48427860D01*
X202968444Y-48427868D01*
X202747802Y-48635065D01*
X202554859Y-48868292D01*
X202392681Y-49123845D01*
X202392678Y-49123849D01*
X202392678Y-49123851D01*
X202296021Y-49329258D01*
X202263801Y-49397729D01*
X202170269Y-49685590D01*
X202113550Y-49982919D01*
X202113549Y-49982926D01*
X202094545Y-50284995D01*
X202094545Y-50285006D01*
X192655500Y-50285006D01*
X192655500Y-33076602D01*
X200483208Y-33076602D01*
X200499632Y-33264342D01*
X200502339Y-33295274D01*
X200559153Y-33507303D01*
X200559154Y-33507306D01*
X200559155Y-33507308D01*
X200651919Y-33706242D01*
X200651923Y-33706250D01*
X200777822Y-33886052D01*
X200777827Y-33886058D01*
X200933041Y-34041272D01*
X200933047Y-34041277D01*
X201112849Y-34167176D01*
X201112851Y-34167177D01*
X201112854Y-34167179D01*
X201311797Y-34259947D01*
X201523826Y-34316761D01*
X201680021Y-34330426D01*
X201742498Y-34335892D01*
X201742500Y-34335892D01*
X201742502Y-34335892D01*
X201797168Y-34331109D01*
X201961174Y-34316761D01*
X202173203Y-34259947D01*
X202372146Y-34167179D01*
X202551957Y-34041274D01*
X202707174Y-33886057D01*
X202833079Y-33706246D01*
X202900118Y-33562478D01*
X202946290Y-33510039D01*
X203013483Y-33490887D01*
X203080364Y-33511102D01*
X203124882Y-33562479D01*
X203191919Y-33706242D01*
X203191923Y-33706250D01*
X203317822Y-33886052D01*
X203317827Y-33886058D01*
X203473041Y-34041272D01*
X203473047Y-34041277D01*
X203652849Y-34167176D01*
X203652851Y-34167177D01*
X203652854Y-34167179D01*
X203851797Y-34259947D01*
X204063826Y-34316761D01*
X204220021Y-34330426D01*
X204282498Y-34335892D01*
X204282500Y-34335892D01*
X204282502Y-34335892D01*
X204337168Y-34331109D01*
X204501174Y-34316761D01*
X204713203Y-34259947D01*
X204912146Y-34167179D01*
X205091957Y-34041274D01*
X205247174Y-33886057D01*
X205373079Y-33706246D01*
X205440118Y-33562478D01*
X205486290Y-33510039D01*
X205553483Y-33490887D01*
X205620364Y-33511102D01*
X205664882Y-33562479D01*
X205731919Y-33706242D01*
X205731923Y-33706250D01*
X205857822Y-33886052D01*
X205857827Y-33886058D01*
X206013041Y-34041272D01*
X206013047Y-34041277D01*
X206192849Y-34167176D01*
X206192851Y-34167177D01*
X206192854Y-34167179D01*
X206391797Y-34259947D01*
X206603826Y-34316761D01*
X206760021Y-34330426D01*
X206822498Y-34335892D01*
X206822500Y-34335892D01*
X206822502Y-34335892D01*
X206877168Y-34331109D01*
X207041174Y-34316761D01*
X207253203Y-34259947D01*
X207452146Y-34167179D01*
X207631957Y-34041274D01*
X207787174Y-33886057D01*
X207913079Y-33706246D01*
X207980118Y-33562478D01*
X208026290Y-33510039D01*
X208093483Y-33490887D01*
X208160364Y-33511102D01*
X208204882Y-33562479D01*
X208271919Y-33706242D01*
X208271923Y-33706250D01*
X208397822Y-33886052D01*
X208397827Y-33886058D01*
X208553041Y-34041272D01*
X208553047Y-34041277D01*
X208732849Y-34167176D01*
X208732851Y-34167177D01*
X208732854Y-34167179D01*
X208931797Y-34259947D01*
X209143826Y-34316761D01*
X209300021Y-34330426D01*
X209362498Y-34335892D01*
X209362500Y-34335892D01*
X209362502Y-34335892D01*
X209417168Y-34331109D01*
X209581174Y-34316761D01*
X209793203Y-34259947D01*
X209992146Y-34167179D01*
X210171957Y-34041274D01*
X210327174Y-33886057D01*
X210453079Y-33706246D01*
X210520118Y-33562478D01*
X210566290Y-33510039D01*
X210633483Y-33490887D01*
X210700364Y-33511102D01*
X210744882Y-33562479D01*
X210811919Y-33706242D01*
X210811923Y-33706250D01*
X210937822Y-33886052D01*
X210937827Y-33886058D01*
X211093041Y-34041272D01*
X211093047Y-34041277D01*
X211272849Y-34167176D01*
X211272851Y-34167177D01*
X211272854Y-34167179D01*
X211471797Y-34259947D01*
X211683826Y-34316761D01*
X211840021Y-34330426D01*
X211902498Y-34335892D01*
X211902500Y-34335892D01*
X211902502Y-34335892D01*
X211957168Y-34331109D01*
X212121174Y-34316761D01*
X212333203Y-34259947D01*
X212532146Y-34167179D01*
X212711957Y-34041274D01*
X212867174Y-33886057D01*
X212993079Y-33706246D01*
X213060118Y-33562478D01*
X213106290Y-33510039D01*
X213173483Y-33490887D01*
X213240364Y-33511102D01*
X213284882Y-33562479D01*
X213351919Y-33706242D01*
X213351923Y-33706250D01*
X213477822Y-33886052D01*
X213477827Y-33886058D01*
X213633041Y-34041272D01*
X213633047Y-34041277D01*
X213812849Y-34167176D01*
X213812851Y-34167177D01*
X213812854Y-34167179D01*
X214011797Y-34259947D01*
X214223826Y-34316761D01*
X214380021Y-34330426D01*
X214442498Y-34335892D01*
X214442500Y-34335892D01*
X214442502Y-34335892D01*
X214497168Y-34331109D01*
X214661174Y-34316761D01*
X214873203Y-34259947D01*
X215072146Y-34167179D01*
X215251957Y-34041274D01*
X215407174Y-33886057D01*
X215533079Y-33706246D01*
X215600118Y-33562478D01*
X215646290Y-33510039D01*
X215713483Y-33490887D01*
X215780364Y-33511102D01*
X215824882Y-33562479D01*
X215891919Y-33706242D01*
X215891923Y-33706250D01*
X216017822Y-33886052D01*
X216017827Y-33886058D01*
X216173041Y-34041272D01*
X216173047Y-34041277D01*
X216352849Y-34167176D01*
X216352851Y-34167177D01*
X216352854Y-34167179D01*
X216551797Y-34259947D01*
X216763826Y-34316761D01*
X216920021Y-34330426D01*
X216982498Y-34335892D01*
X216982500Y-34335892D01*
X216982502Y-34335892D01*
X217037168Y-34331109D01*
X217201174Y-34316761D01*
X217413203Y-34259947D01*
X217612146Y-34167179D01*
X217791957Y-34041274D01*
X217947174Y-33886057D01*
X218073079Y-33706246D01*
X218140118Y-33562478D01*
X218186290Y-33510039D01*
X218253483Y-33490887D01*
X218320364Y-33511102D01*
X218364882Y-33562479D01*
X218431919Y-33706242D01*
X218431923Y-33706250D01*
X218557822Y-33886052D01*
X218557827Y-33886058D01*
X218713041Y-34041272D01*
X218713047Y-34041277D01*
X218892849Y-34167176D01*
X218892851Y-34167177D01*
X218892854Y-34167179D01*
X219091797Y-34259947D01*
X219303826Y-34316761D01*
X219460021Y-34330426D01*
X219522498Y-34335892D01*
X219522500Y-34335892D01*
X219522502Y-34335892D01*
X219577168Y-34331109D01*
X219741174Y-34316761D01*
X219953203Y-34259947D01*
X220152146Y-34167179D01*
X220331957Y-34041274D01*
X220487174Y-33886057D01*
X220613079Y-33706246D01*
X220680118Y-33562478D01*
X220726290Y-33510039D01*
X220793483Y-33490887D01*
X220860364Y-33511102D01*
X220904882Y-33562479D01*
X220971919Y-33706242D01*
X220971923Y-33706250D01*
X221097822Y-33886052D01*
X221097827Y-33886058D01*
X221253041Y-34041272D01*
X221253047Y-34041277D01*
X221432849Y-34167176D01*
X221432851Y-34167177D01*
X221432854Y-34167179D01*
X221631797Y-34259947D01*
X221843826Y-34316761D01*
X222000021Y-34330426D01*
X222062498Y-34335892D01*
X222062500Y-34335892D01*
X222062502Y-34335892D01*
X222117168Y-34331109D01*
X222281174Y-34316761D01*
X222493203Y-34259947D01*
X222692146Y-34167179D01*
X222871957Y-34041274D01*
X223027174Y-33886057D01*
X223153079Y-33706246D01*
X223220118Y-33562478D01*
X223266290Y-33510039D01*
X223333483Y-33490887D01*
X223400364Y-33511102D01*
X223444882Y-33562479D01*
X223511919Y-33706242D01*
X223511923Y-33706250D01*
X223637822Y-33886052D01*
X223637827Y-33886058D01*
X223793041Y-34041272D01*
X223793047Y-34041277D01*
X223972849Y-34167176D01*
X223972851Y-34167177D01*
X223972854Y-34167179D01*
X224171797Y-34259947D01*
X224383826Y-34316761D01*
X224540021Y-34330426D01*
X224602498Y-34335892D01*
X224602500Y-34335892D01*
X224602502Y-34335892D01*
X224657168Y-34331109D01*
X224821174Y-34316761D01*
X225033203Y-34259947D01*
X225232146Y-34167179D01*
X225411957Y-34041274D01*
X225567174Y-33886057D01*
X225693079Y-33706246D01*
X225760118Y-33562478D01*
X225806290Y-33510039D01*
X225873483Y-33490887D01*
X225940364Y-33511102D01*
X225984882Y-33562479D01*
X226051919Y-33706242D01*
X226051923Y-33706250D01*
X226177822Y-33886052D01*
X226177827Y-33886058D01*
X226333041Y-34041272D01*
X226333047Y-34041277D01*
X226512849Y-34167176D01*
X226512851Y-34167177D01*
X226512854Y-34167179D01*
X226711797Y-34259947D01*
X226923826Y-34316761D01*
X227080021Y-34330426D01*
X227142498Y-34335892D01*
X227142500Y-34335892D01*
X227142502Y-34335892D01*
X227197168Y-34331109D01*
X227361174Y-34316761D01*
X227573203Y-34259947D01*
X227772146Y-34167179D01*
X227951957Y-34041274D01*
X228107174Y-33886057D01*
X228233079Y-33706246D01*
X228300118Y-33562478D01*
X228346290Y-33510039D01*
X228413483Y-33490887D01*
X228480364Y-33511102D01*
X228524882Y-33562479D01*
X228591919Y-33706242D01*
X228591923Y-33706250D01*
X228717822Y-33886052D01*
X228717827Y-33886058D01*
X228873041Y-34041272D01*
X228873047Y-34041277D01*
X229052849Y-34167176D01*
X229052851Y-34167177D01*
X229052854Y-34167179D01*
X229251797Y-34259947D01*
X229463826Y-34316761D01*
X229620021Y-34330426D01*
X229682498Y-34335892D01*
X229682500Y-34335892D01*
X229682502Y-34335892D01*
X229737168Y-34331109D01*
X229901174Y-34316761D01*
X230113203Y-34259947D01*
X230312146Y-34167179D01*
X230491957Y-34041274D01*
X230647174Y-33886057D01*
X230773079Y-33706246D01*
X230840118Y-33562478D01*
X230886290Y-33510039D01*
X230953483Y-33490887D01*
X231020364Y-33511102D01*
X231064882Y-33562479D01*
X231131919Y-33706242D01*
X231131923Y-33706250D01*
X231257822Y-33886052D01*
X231257827Y-33886058D01*
X231413041Y-34041272D01*
X231413047Y-34041277D01*
X231592849Y-34167176D01*
X231592851Y-34167177D01*
X231592854Y-34167179D01*
X231791797Y-34259947D01*
X232003826Y-34316761D01*
X232160021Y-34330426D01*
X232222498Y-34335892D01*
X232222500Y-34335892D01*
X232222502Y-34335892D01*
X232277168Y-34331109D01*
X232441174Y-34316761D01*
X232653203Y-34259947D01*
X232852146Y-34167179D01*
X233031957Y-34041274D01*
X233187174Y-33886057D01*
X233313079Y-33706246D01*
X233380118Y-33562478D01*
X233426290Y-33510039D01*
X233493483Y-33490887D01*
X233560364Y-33511102D01*
X233604882Y-33562479D01*
X233671919Y-33706242D01*
X233671923Y-33706250D01*
X233797822Y-33886052D01*
X233797827Y-33886058D01*
X233953041Y-34041272D01*
X233953047Y-34041277D01*
X234132849Y-34167176D01*
X234132851Y-34167177D01*
X234132854Y-34167179D01*
X234331797Y-34259947D01*
X234543826Y-34316761D01*
X234700021Y-34330426D01*
X234762498Y-34335892D01*
X234762500Y-34335892D01*
X234762502Y-34335892D01*
X234817168Y-34331109D01*
X234981174Y-34316761D01*
X235193203Y-34259947D01*
X235392146Y-34167179D01*
X235571957Y-34041274D01*
X235727174Y-33886057D01*
X235853079Y-33706246D01*
X235920118Y-33562478D01*
X235966290Y-33510039D01*
X236033483Y-33490887D01*
X236100364Y-33511102D01*
X236144882Y-33562479D01*
X236211919Y-33706242D01*
X236211923Y-33706250D01*
X236337822Y-33886052D01*
X236337827Y-33886058D01*
X236493041Y-34041272D01*
X236493047Y-34041277D01*
X236672849Y-34167176D01*
X236672851Y-34167177D01*
X236672854Y-34167179D01*
X236871797Y-34259947D01*
X237083826Y-34316761D01*
X237240021Y-34330426D01*
X237302498Y-34335892D01*
X237302500Y-34335892D01*
X237302502Y-34335892D01*
X237357168Y-34331109D01*
X237521174Y-34316761D01*
X237733203Y-34259947D01*
X237932146Y-34167179D01*
X238111957Y-34041274D01*
X238267174Y-33886057D01*
X238393079Y-33706246D01*
X238460118Y-33562478D01*
X238506290Y-33510039D01*
X238573483Y-33490887D01*
X238640364Y-33511102D01*
X238684882Y-33562479D01*
X238751919Y-33706242D01*
X238751923Y-33706250D01*
X238877822Y-33886052D01*
X238877827Y-33886058D01*
X239033041Y-34041272D01*
X239033047Y-34041277D01*
X239212849Y-34167176D01*
X239212851Y-34167177D01*
X239212854Y-34167179D01*
X239411797Y-34259947D01*
X239623826Y-34316761D01*
X239780021Y-34330426D01*
X239842498Y-34335892D01*
X239842500Y-34335892D01*
X239842502Y-34335892D01*
X239897168Y-34331109D01*
X240061174Y-34316761D01*
X240273203Y-34259947D01*
X240472146Y-34167179D01*
X240651957Y-34041274D01*
X240807174Y-33886057D01*
X240933079Y-33706246D01*
X241000118Y-33562478D01*
X241046290Y-33510039D01*
X241113483Y-33490887D01*
X241180364Y-33511102D01*
X241224882Y-33562479D01*
X241291919Y-33706242D01*
X241291923Y-33706250D01*
X241417822Y-33886052D01*
X241417827Y-33886058D01*
X241573041Y-34041272D01*
X241573047Y-34041277D01*
X241752849Y-34167176D01*
X241752851Y-34167177D01*
X241752854Y-34167179D01*
X241951797Y-34259947D01*
X242163826Y-34316761D01*
X242320021Y-34330426D01*
X242382498Y-34335892D01*
X242382500Y-34335892D01*
X242382502Y-34335892D01*
X242437168Y-34331109D01*
X242601174Y-34316761D01*
X242813203Y-34259947D01*
X243012146Y-34167179D01*
X243191957Y-34041274D01*
X243347174Y-33886057D01*
X243473079Y-33706246D01*
X243565847Y-33507303D01*
X243622661Y-33295274D01*
X243641792Y-33076600D01*
X243960166Y-33076600D01*
X243978656Y-33264340D01*
X243978657Y-33264342D01*
X244033419Y-33444869D01*
X244122349Y-33611244D01*
X244122351Y-33611246D01*
X244242026Y-33757073D01*
X244330110Y-33829360D01*
X244387856Y-33876751D01*
X244554231Y-33965681D01*
X244734758Y-34020443D01*
X244922500Y-34038934D01*
X245110242Y-34020443D01*
X245290769Y-33965681D01*
X245457144Y-33876751D01*
X245602973Y-33757073D01*
X245722651Y-33611244D01*
X245811581Y-33444869D01*
X245866343Y-33264342D01*
X245884834Y-33076600D01*
X246500166Y-33076600D01*
X246518656Y-33264340D01*
X246518657Y-33264342D01*
X246573419Y-33444869D01*
X246662349Y-33611244D01*
X246662351Y-33611246D01*
X246782026Y-33757073D01*
X246870110Y-33829360D01*
X246927856Y-33876751D01*
X247094231Y-33965681D01*
X247274758Y-34020443D01*
X247462500Y-34038934D01*
X247650242Y-34020443D01*
X247830769Y-33965681D01*
X247997144Y-33876751D01*
X248142973Y-33757073D01*
X248262651Y-33611244D01*
X248351581Y-33444869D01*
X248406343Y-33264342D01*
X248424834Y-33076600D01*
X249040166Y-33076600D01*
X249058656Y-33264340D01*
X249058657Y-33264342D01*
X249113419Y-33444869D01*
X249202349Y-33611244D01*
X249202351Y-33611246D01*
X249322026Y-33757073D01*
X249410110Y-33829360D01*
X249467856Y-33876751D01*
X249634231Y-33965681D01*
X249814758Y-34020443D01*
X250002500Y-34038934D01*
X250190242Y-34020443D01*
X250370769Y-33965681D01*
X250537144Y-33876751D01*
X250682973Y-33757073D01*
X250802651Y-33611244D01*
X250891581Y-33444869D01*
X250946343Y-33264342D01*
X250964834Y-33076600D01*
X251580166Y-33076600D01*
X251598656Y-33264340D01*
X251598657Y-33264342D01*
X251653419Y-33444869D01*
X251742349Y-33611244D01*
X251742351Y-33611246D01*
X251862026Y-33757073D01*
X251950110Y-33829360D01*
X252007856Y-33876751D01*
X252174231Y-33965681D01*
X252354758Y-34020443D01*
X252542500Y-34038934D01*
X252730242Y-34020443D01*
X252910769Y-33965681D01*
X253077144Y-33876751D01*
X253222973Y-33757073D01*
X253342651Y-33611244D01*
X253431581Y-33444869D01*
X253486343Y-33264342D01*
X253504834Y-33076602D01*
X253823208Y-33076602D01*
X253839632Y-33264342D01*
X253842339Y-33295274D01*
X253899153Y-33507303D01*
X253899154Y-33507306D01*
X253899155Y-33507308D01*
X253991919Y-33706242D01*
X253991923Y-33706250D01*
X254117822Y-33886052D01*
X254117827Y-33886058D01*
X254273041Y-34041272D01*
X254273047Y-34041277D01*
X254452849Y-34167176D01*
X254452851Y-34167177D01*
X254452854Y-34167179D01*
X254651797Y-34259947D01*
X254863826Y-34316761D01*
X255020021Y-34330426D01*
X255082498Y-34335892D01*
X255082500Y-34335892D01*
X255082502Y-34335892D01*
X255137168Y-34331109D01*
X255301174Y-34316761D01*
X255513203Y-34259947D01*
X255712146Y-34167179D01*
X255891957Y-34041274D01*
X256047174Y-33886057D01*
X256173079Y-33706246D01*
X256240118Y-33562478D01*
X256286290Y-33510039D01*
X256353483Y-33490887D01*
X256420364Y-33511102D01*
X256464882Y-33562479D01*
X256531919Y-33706242D01*
X256531923Y-33706250D01*
X256657822Y-33886052D01*
X256657827Y-33886058D01*
X256813041Y-34041272D01*
X256813047Y-34041277D01*
X256992849Y-34167176D01*
X256992851Y-34167177D01*
X256992854Y-34167179D01*
X257191797Y-34259947D01*
X257403826Y-34316761D01*
X257560021Y-34330426D01*
X257622498Y-34335892D01*
X257622500Y-34335892D01*
X257622502Y-34335892D01*
X257677168Y-34331109D01*
X257841174Y-34316761D01*
X258053203Y-34259947D01*
X258252146Y-34167179D01*
X258431957Y-34041274D01*
X258587174Y-33886057D01*
X258713079Y-33706246D01*
X258780118Y-33562478D01*
X258826290Y-33510039D01*
X258893483Y-33490887D01*
X258960364Y-33511102D01*
X259004882Y-33562479D01*
X259071919Y-33706242D01*
X259071923Y-33706250D01*
X259197822Y-33886052D01*
X259197827Y-33886058D01*
X259353041Y-34041272D01*
X259353047Y-34041277D01*
X259532849Y-34167176D01*
X259532851Y-34167177D01*
X259532854Y-34167179D01*
X259731797Y-34259947D01*
X259943826Y-34316761D01*
X260100021Y-34330426D01*
X260162498Y-34335892D01*
X260162500Y-34335892D01*
X260162502Y-34335892D01*
X260217168Y-34331109D01*
X260381174Y-34316761D01*
X260593203Y-34259947D01*
X260792146Y-34167179D01*
X260971957Y-34041274D01*
X261127174Y-33886057D01*
X261253079Y-33706246D01*
X261320118Y-33562478D01*
X261366290Y-33510039D01*
X261433483Y-33490887D01*
X261500364Y-33511102D01*
X261544882Y-33562479D01*
X261611919Y-33706242D01*
X261611923Y-33706250D01*
X261737822Y-33886052D01*
X261737827Y-33886058D01*
X261893041Y-34041272D01*
X261893047Y-34041277D01*
X262072849Y-34167176D01*
X262072851Y-34167177D01*
X262072854Y-34167179D01*
X262271797Y-34259947D01*
X262483826Y-34316761D01*
X262640021Y-34330426D01*
X262702498Y-34335892D01*
X262702500Y-34335892D01*
X262702502Y-34335892D01*
X262757168Y-34331109D01*
X262921174Y-34316761D01*
X263133203Y-34259947D01*
X263332146Y-34167179D01*
X263511957Y-34041274D01*
X263667174Y-33886057D01*
X263793079Y-33706246D01*
X263885847Y-33507303D01*
X263942661Y-33295274D01*
X263961792Y-33076600D01*
X263942661Y-32857926D01*
X263885847Y-32645897D01*
X263793079Y-32446954D01*
X263793077Y-32446951D01*
X263793076Y-32446949D01*
X263667177Y-32267147D01*
X263667172Y-32267141D01*
X263511958Y-32111927D01*
X263511952Y-32111922D01*
X263332150Y-31986023D01*
X263332142Y-31986019D01*
X263213865Y-31930866D01*
X263188378Y-31918981D01*
X263135939Y-31872810D01*
X263116787Y-31805617D01*
X263137002Y-31738736D01*
X263188379Y-31694218D01*
X263188971Y-31693942D01*
X263332146Y-31627179D01*
X263511957Y-31501274D01*
X263667174Y-31346057D01*
X263793079Y-31166246D01*
X263885847Y-30967303D01*
X263942661Y-30755274D01*
X263951181Y-30657888D01*
X265932000Y-30657888D01*
X265963661Y-30898385D01*
X266026447Y-31132704D01*
X266119273Y-31356805D01*
X266119276Y-31356812D01*
X266240564Y-31566889D01*
X266240566Y-31566892D01*
X266240567Y-31566893D01*
X266388233Y-31759336D01*
X266388239Y-31759343D01*
X266559756Y-31930860D01*
X266559762Y-31930865D01*
X266752211Y-32078536D01*
X266962288Y-32199824D01*
X267186400Y-32292654D01*
X267420711Y-32355438D01*
X267601086Y-32379184D01*
X267661211Y-32387100D01*
X267661212Y-32387100D01*
X267903789Y-32387100D01*
X267951888Y-32380767D01*
X268144289Y-32355438D01*
X268378600Y-32292654D01*
X268602712Y-32199824D01*
X268812789Y-32078536D01*
X269005238Y-31930865D01*
X269176765Y-31759338D01*
X269324436Y-31566889D01*
X269445724Y-31356812D01*
X269538554Y-31132700D01*
X269601338Y-30898389D01*
X269633000Y-30657888D01*
X269633000Y-30415312D01*
X269601338Y-30174811D01*
X269538554Y-29940500D01*
X269445724Y-29716388D01*
X269324436Y-29506311D01*
X269176765Y-29313862D01*
X269176760Y-29313856D01*
X269005243Y-29142339D01*
X269005236Y-29142333D01*
X268812793Y-28994667D01*
X268812792Y-28994666D01*
X268812789Y-28994664D01*
X268602712Y-28873376D01*
X268602705Y-28873373D01*
X268378604Y-28780547D01*
X268144285Y-28717761D01*
X267903789Y-28686100D01*
X267903788Y-28686100D01*
X267661212Y-28686100D01*
X267661211Y-28686100D01*
X267420714Y-28717761D01*
X267186395Y-28780547D01*
X266962294Y-28873373D01*
X266962285Y-28873377D01*
X266752206Y-28994667D01*
X266559763Y-29142333D01*
X266559756Y-29142339D01*
X266388239Y-29313856D01*
X266388233Y-29313863D01*
X266240567Y-29506306D01*
X266119277Y-29716385D01*
X266119273Y-29716394D01*
X266026447Y-29940495D01*
X265963661Y-30174814D01*
X265932000Y-30415311D01*
X265932000Y-30657888D01*
X263951181Y-30657888D01*
X263961792Y-30536600D01*
X263942661Y-30317926D01*
X263885847Y-30105897D01*
X263793079Y-29906954D01*
X263793077Y-29906951D01*
X263793076Y-29906949D01*
X263667177Y-29727147D01*
X263667172Y-29727141D01*
X263511958Y-29571927D01*
X263511952Y-29571922D01*
X263332150Y-29446023D01*
X263332142Y-29446019D01*
X263133208Y-29353255D01*
X263133206Y-29353254D01*
X263133203Y-29353253D01*
X262982385Y-29312840D01*
X262921175Y-29296439D01*
X262921168Y-29296438D01*
X262702502Y-29277308D01*
X262702498Y-29277308D01*
X262483831Y-29296438D01*
X262483824Y-29296439D01*
X262361402Y-29329242D01*
X262271797Y-29353253D01*
X262271795Y-29353253D01*
X262271791Y-29353255D01*
X262072857Y-29446019D01*
X262072849Y-29446023D01*
X261893047Y-29571922D01*
X261893041Y-29571927D01*
X261737827Y-29727141D01*
X261737822Y-29727147D01*
X261611923Y-29906949D01*
X261611919Y-29906957D01*
X261544882Y-30050720D01*
X261498710Y-30103160D01*
X261431517Y-30122312D01*
X261364635Y-30102096D01*
X261320118Y-30050720D01*
X261292532Y-29991563D01*
X261253079Y-29906954D01*
X261253077Y-29906951D01*
X261253076Y-29906949D01*
X261127177Y-29727147D01*
X261127172Y-29727141D01*
X260971958Y-29571927D01*
X260971952Y-29571922D01*
X260792150Y-29446023D01*
X260792142Y-29446019D01*
X260593208Y-29353255D01*
X260593206Y-29353254D01*
X260593203Y-29353253D01*
X260442385Y-29312840D01*
X260381175Y-29296439D01*
X260381168Y-29296438D01*
X260162502Y-29277308D01*
X260162498Y-29277308D01*
X259943831Y-29296438D01*
X259943824Y-29296439D01*
X259821402Y-29329242D01*
X259731797Y-29353253D01*
X259731795Y-29353253D01*
X259731791Y-29353255D01*
X259532857Y-29446019D01*
X259532849Y-29446023D01*
X259353047Y-29571922D01*
X259353041Y-29571927D01*
X259197827Y-29727141D01*
X259197822Y-29727147D01*
X259071923Y-29906949D01*
X259071919Y-29906957D01*
X259004882Y-30050720D01*
X258958710Y-30103160D01*
X258891517Y-30122312D01*
X258824635Y-30102096D01*
X258780118Y-30050720D01*
X258752532Y-29991563D01*
X258713079Y-29906954D01*
X258713077Y-29906951D01*
X258713076Y-29906949D01*
X258587177Y-29727147D01*
X258587172Y-29727141D01*
X258431958Y-29571927D01*
X258431952Y-29571922D01*
X258252150Y-29446023D01*
X258252142Y-29446019D01*
X258053208Y-29353255D01*
X258053206Y-29353254D01*
X258053203Y-29353253D01*
X257902385Y-29312840D01*
X257841175Y-29296439D01*
X257841168Y-29296438D01*
X257622502Y-29277308D01*
X257622498Y-29277308D01*
X257403831Y-29296438D01*
X257403824Y-29296439D01*
X257281402Y-29329242D01*
X257191797Y-29353253D01*
X257191795Y-29353253D01*
X257191791Y-29353255D01*
X256992857Y-29446019D01*
X256992849Y-29446023D01*
X256813047Y-29571922D01*
X256813041Y-29571927D01*
X256657827Y-29727141D01*
X256657822Y-29727147D01*
X256531923Y-29906949D01*
X256531919Y-29906957D01*
X256464882Y-30050720D01*
X256418710Y-30103160D01*
X256351517Y-30122312D01*
X256284635Y-30102096D01*
X256240118Y-30050720D01*
X256212532Y-29991563D01*
X256173079Y-29906954D01*
X256173077Y-29906951D01*
X256173076Y-29906949D01*
X256047177Y-29727147D01*
X256047172Y-29727141D01*
X255891958Y-29571927D01*
X255891952Y-29571922D01*
X255712150Y-29446023D01*
X255712142Y-29446019D01*
X255513208Y-29353255D01*
X255513206Y-29353254D01*
X255513203Y-29353253D01*
X255362385Y-29312840D01*
X255301175Y-29296439D01*
X255301168Y-29296438D01*
X255082502Y-29277308D01*
X255082498Y-29277308D01*
X254863831Y-29296438D01*
X254863824Y-29296439D01*
X254741402Y-29329242D01*
X254651797Y-29353253D01*
X254651795Y-29353253D01*
X254651791Y-29353255D01*
X254452857Y-29446019D01*
X254452849Y-29446023D01*
X254273047Y-29571922D01*
X254273041Y-29571927D01*
X254117827Y-29727141D01*
X254117822Y-29727147D01*
X253991923Y-29906949D01*
X253991919Y-29906957D01*
X253899155Y-30105891D01*
X253899153Y-30105895D01*
X253899153Y-30105897D01*
X253875142Y-30195502D01*
X253842339Y-30317924D01*
X253842338Y-30317931D01*
X253823208Y-30536597D01*
X253823208Y-30536602D01*
X253839632Y-30724342D01*
X253842339Y-30755274D01*
X253899153Y-30967303D01*
X253899154Y-30967306D01*
X253899155Y-30967308D01*
X253991919Y-31166242D01*
X253991923Y-31166250D01*
X254117822Y-31346052D01*
X254117827Y-31346058D01*
X254273041Y-31501272D01*
X254273047Y-31501277D01*
X254452849Y-31627176D01*
X254452851Y-31627177D01*
X254452854Y-31627179D01*
X254497055Y-31647790D01*
X254596620Y-31694218D01*
X254649060Y-31740390D01*
X254668212Y-31807583D01*
X254647996Y-31874465D01*
X254596620Y-31918982D01*
X254452857Y-31986019D01*
X254452849Y-31986023D01*
X254273047Y-32111922D01*
X254273041Y-32111927D01*
X254117827Y-32267141D01*
X254117822Y-32267147D01*
X253991923Y-32446949D01*
X253991919Y-32446957D01*
X253899155Y-32645891D01*
X253842339Y-32857924D01*
X253842338Y-32857931D01*
X253823208Y-33076597D01*
X253823208Y-33076602D01*
X253504834Y-33076602D01*
X253504834Y-33076600D01*
X253486343Y-32888858D01*
X253431581Y-32708331D01*
X253342651Y-32541956D01*
X253264688Y-32446957D01*
X253222973Y-32396126D01*
X253096890Y-32292654D01*
X253077144Y-32276449D01*
X252910769Y-32187519D01*
X252820505Y-32160138D01*
X252730240Y-32132756D01*
X252542500Y-32114266D01*
X252354759Y-32132756D01*
X252174228Y-32187520D01*
X252151206Y-32199826D01*
X252007856Y-32276449D01*
X252007854Y-32276450D01*
X252007853Y-32276451D01*
X251862026Y-32396126D01*
X251742351Y-32541953D01*
X251653420Y-32708328D01*
X251598656Y-32888859D01*
X251580166Y-33076600D01*
X250964834Y-33076600D01*
X250946343Y-32888858D01*
X250891581Y-32708331D01*
X250802651Y-32541956D01*
X250724688Y-32446957D01*
X250682973Y-32396126D01*
X250556890Y-32292654D01*
X250537144Y-32276449D01*
X250370769Y-32187519D01*
X250280505Y-32160138D01*
X250190240Y-32132756D01*
X250002500Y-32114266D01*
X249814759Y-32132756D01*
X249634228Y-32187520D01*
X249611206Y-32199826D01*
X249467856Y-32276449D01*
X249467854Y-32276450D01*
X249467853Y-32276451D01*
X249322026Y-32396126D01*
X249202351Y-32541953D01*
X249113420Y-32708328D01*
X249058656Y-32888859D01*
X249040166Y-33076600D01*
X248424834Y-33076600D01*
X248406343Y-32888858D01*
X248351581Y-32708331D01*
X248262651Y-32541956D01*
X248184688Y-32446957D01*
X248142973Y-32396126D01*
X248016890Y-32292654D01*
X247997144Y-32276449D01*
X247830769Y-32187519D01*
X247740505Y-32160138D01*
X247650240Y-32132756D01*
X247462500Y-32114266D01*
X247274759Y-32132756D01*
X247094228Y-32187520D01*
X247071206Y-32199826D01*
X246927856Y-32276449D01*
X246927854Y-32276450D01*
X246927853Y-32276451D01*
X246782026Y-32396126D01*
X246662351Y-32541953D01*
X246573420Y-32708328D01*
X246518656Y-32888859D01*
X246500166Y-33076600D01*
X245884834Y-33076600D01*
X245866343Y-32888858D01*
X245811581Y-32708331D01*
X245722651Y-32541956D01*
X245644688Y-32446957D01*
X245602973Y-32396126D01*
X245476890Y-32292654D01*
X245457144Y-32276449D01*
X245290769Y-32187519D01*
X245200505Y-32160138D01*
X245110240Y-32132756D01*
X244922500Y-32114266D01*
X244734759Y-32132756D01*
X244554228Y-32187520D01*
X244531206Y-32199826D01*
X244387856Y-32276449D01*
X244387854Y-32276450D01*
X244387853Y-32276451D01*
X244242026Y-32396126D01*
X244122351Y-32541953D01*
X244033420Y-32708328D01*
X243978656Y-32888859D01*
X243960166Y-33076600D01*
X243641792Y-33076600D01*
X243622661Y-32857926D01*
X243565847Y-32645897D01*
X243473079Y-32446954D01*
X243473077Y-32446951D01*
X243473076Y-32446949D01*
X243347177Y-32267147D01*
X243347172Y-32267141D01*
X243191958Y-32111927D01*
X243191952Y-32111922D01*
X243012150Y-31986023D01*
X243012142Y-31986019D01*
X242893865Y-31930866D01*
X242868378Y-31918981D01*
X242815939Y-31872810D01*
X242796787Y-31805617D01*
X242817002Y-31738736D01*
X242868379Y-31694218D01*
X242868971Y-31693942D01*
X243012146Y-31627179D01*
X243191957Y-31501274D01*
X243347174Y-31346057D01*
X243473079Y-31166246D01*
X243565847Y-30967303D01*
X243622661Y-30755274D01*
X243641792Y-30536600D01*
X243960166Y-30536600D01*
X243978656Y-30724340D01*
X243988038Y-30755268D01*
X244033419Y-30904869D01*
X244122349Y-31071244D01*
X244122351Y-31071246D01*
X244242026Y-31217073D01*
X244318169Y-31279561D01*
X244387856Y-31336751D01*
X244554231Y-31425681D01*
X244734758Y-31480443D01*
X244922500Y-31498934D01*
X245110242Y-31480443D01*
X245290769Y-31425681D01*
X245457144Y-31336751D01*
X245602973Y-31217073D01*
X245722651Y-31071244D01*
X245811581Y-30904869D01*
X245866343Y-30724342D01*
X245884834Y-30536600D01*
X246500166Y-30536600D01*
X246518656Y-30724340D01*
X246528038Y-30755268D01*
X246573419Y-30904869D01*
X246662349Y-31071244D01*
X246662351Y-31071246D01*
X246782026Y-31217073D01*
X246858169Y-31279561D01*
X246927856Y-31336751D01*
X247094231Y-31425681D01*
X247274758Y-31480443D01*
X247462500Y-31498934D01*
X247650242Y-31480443D01*
X247830769Y-31425681D01*
X247997144Y-31336751D01*
X248142973Y-31217073D01*
X248262651Y-31071244D01*
X248351581Y-30904869D01*
X248406343Y-30724342D01*
X248424834Y-30536600D01*
X249040166Y-30536600D01*
X249058656Y-30724340D01*
X249068038Y-30755268D01*
X249113419Y-30904869D01*
X249202349Y-31071244D01*
X249202351Y-31071246D01*
X249322026Y-31217073D01*
X249398169Y-31279561D01*
X249467856Y-31336751D01*
X249634231Y-31425681D01*
X249814758Y-31480443D01*
X250002500Y-31498934D01*
X250190242Y-31480443D01*
X250370769Y-31425681D01*
X250537144Y-31336751D01*
X250682973Y-31217073D01*
X250802651Y-31071244D01*
X250891581Y-30904869D01*
X250946343Y-30724342D01*
X250964834Y-30536600D01*
X251580166Y-30536600D01*
X251598656Y-30724340D01*
X251608038Y-30755268D01*
X251653419Y-30904869D01*
X251742349Y-31071244D01*
X251742351Y-31071246D01*
X251862026Y-31217073D01*
X251938169Y-31279561D01*
X252007856Y-31336751D01*
X252174231Y-31425681D01*
X252354758Y-31480443D01*
X252542500Y-31498934D01*
X252730242Y-31480443D01*
X252910769Y-31425681D01*
X253077144Y-31336751D01*
X253222973Y-31217073D01*
X253342651Y-31071244D01*
X253431581Y-30904869D01*
X253486343Y-30724342D01*
X253504834Y-30536600D01*
X253486343Y-30348858D01*
X253431581Y-30168331D01*
X253342651Y-30001956D01*
X253265861Y-29908386D01*
X253222973Y-29856126D01*
X253077146Y-29736451D01*
X253077147Y-29736451D01*
X253077144Y-29736449D01*
X252910769Y-29647519D01*
X252820505Y-29620138D01*
X252730240Y-29592756D01*
X252542500Y-29574266D01*
X252354759Y-29592756D01*
X252174228Y-29647520D01*
X252122406Y-29675220D01*
X252007856Y-29736449D01*
X252007854Y-29736450D01*
X252007853Y-29736451D01*
X251862026Y-29856126D01*
X251742351Y-30001953D01*
X251653420Y-30168328D01*
X251598656Y-30348859D01*
X251580166Y-30536600D01*
X250964834Y-30536600D01*
X250946343Y-30348858D01*
X250891581Y-30168331D01*
X250802651Y-30001956D01*
X250725861Y-29908386D01*
X250682973Y-29856126D01*
X250537146Y-29736451D01*
X250537147Y-29736451D01*
X250537144Y-29736449D01*
X250370769Y-29647519D01*
X250280505Y-29620138D01*
X250190240Y-29592756D01*
X250002500Y-29574266D01*
X249814759Y-29592756D01*
X249634228Y-29647520D01*
X249582406Y-29675220D01*
X249467856Y-29736449D01*
X249467854Y-29736450D01*
X249467853Y-29736451D01*
X249322026Y-29856126D01*
X249202351Y-30001953D01*
X249113420Y-30168328D01*
X249058656Y-30348859D01*
X249040166Y-30536600D01*
X248424834Y-30536600D01*
X248406343Y-30348858D01*
X248351581Y-30168331D01*
X248262651Y-30001956D01*
X248185861Y-29908386D01*
X248142973Y-29856126D01*
X247997146Y-29736451D01*
X247997147Y-29736451D01*
X247997144Y-29736449D01*
X247830769Y-29647519D01*
X247740505Y-29620138D01*
X247650240Y-29592756D01*
X247462500Y-29574266D01*
X247274759Y-29592756D01*
X247094228Y-29647520D01*
X247042406Y-29675220D01*
X246927856Y-29736449D01*
X246927854Y-29736450D01*
X246927853Y-29736451D01*
X246782026Y-29856126D01*
X246662351Y-30001953D01*
X246573420Y-30168328D01*
X246518656Y-30348859D01*
X246500166Y-30536600D01*
X245884834Y-30536600D01*
X245866343Y-30348858D01*
X245811581Y-30168331D01*
X245722651Y-30001956D01*
X245645861Y-29908386D01*
X245602973Y-29856126D01*
X245457146Y-29736451D01*
X245457147Y-29736451D01*
X245457144Y-29736449D01*
X245290769Y-29647519D01*
X245200505Y-29620138D01*
X245110240Y-29592756D01*
X244922500Y-29574266D01*
X244734759Y-29592756D01*
X244554228Y-29647520D01*
X244502406Y-29675220D01*
X244387856Y-29736449D01*
X244387854Y-29736450D01*
X244387853Y-29736451D01*
X244242026Y-29856126D01*
X244122351Y-30001953D01*
X244033420Y-30168328D01*
X243978656Y-30348859D01*
X243960166Y-30536600D01*
X243641792Y-30536600D01*
X243622661Y-30317926D01*
X243565847Y-30105897D01*
X243473079Y-29906954D01*
X243473077Y-29906951D01*
X243473076Y-29906949D01*
X243347177Y-29727147D01*
X243347172Y-29727141D01*
X243191958Y-29571927D01*
X243191952Y-29571922D01*
X243012150Y-29446023D01*
X243012142Y-29446019D01*
X242813208Y-29353255D01*
X242813206Y-29353254D01*
X242813203Y-29353253D01*
X242662385Y-29312840D01*
X242601175Y-29296439D01*
X242601168Y-29296438D01*
X242382502Y-29277308D01*
X242382498Y-29277308D01*
X242163831Y-29296438D01*
X242163824Y-29296439D01*
X242041402Y-29329242D01*
X241951797Y-29353253D01*
X241951795Y-29353253D01*
X241951791Y-29353255D01*
X241752857Y-29446019D01*
X241752849Y-29446023D01*
X241573047Y-29571922D01*
X241573041Y-29571927D01*
X241417827Y-29727141D01*
X241417822Y-29727147D01*
X241291923Y-29906949D01*
X241291919Y-29906957D01*
X241224882Y-30050720D01*
X241178710Y-30103160D01*
X241111517Y-30122312D01*
X241044635Y-30102096D01*
X241000118Y-30050720D01*
X240972532Y-29991563D01*
X240933079Y-29906954D01*
X240933077Y-29906951D01*
X240933076Y-29906949D01*
X240807177Y-29727147D01*
X240807172Y-29727141D01*
X240651958Y-29571927D01*
X240651952Y-29571922D01*
X240472150Y-29446023D01*
X240472142Y-29446019D01*
X240273208Y-29353255D01*
X240273206Y-29353254D01*
X240273203Y-29353253D01*
X240122385Y-29312840D01*
X240061175Y-29296439D01*
X240061168Y-29296438D01*
X239842502Y-29277308D01*
X239842498Y-29277308D01*
X239623831Y-29296438D01*
X239623824Y-29296439D01*
X239501402Y-29329242D01*
X239411797Y-29353253D01*
X239411795Y-29353253D01*
X239411791Y-29353255D01*
X239212857Y-29446019D01*
X239212849Y-29446023D01*
X239033047Y-29571922D01*
X239033041Y-29571927D01*
X238877827Y-29727141D01*
X238877822Y-29727147D01*
X238751923Y-29906949D01*
X238751919Y-29906957D01*
X238684882Y-30050720D01*
X238638710Y-30103160D01*
X238571517Y-30122312D01*
X238504635Y-30102096D01*
X238460118Y-30050720D01*
X238432532Y-29991563D01*
X238393079Y-29906954D01*
X238393077Y-29906951D01*
X238393076Y-29906949D01*
X238267177Y-29727147D01*
X238267172Y-29727141D01*
X238111958Y-29571927D01*
X238111952Y-29571922D01*
X237932150Y-29446023D01*
X237932142Y-29446019D01*
X237733208Y-29353255D01*
X237733206Y-29353254D01*
X237733203Y-29353253D01*
X237582385Y-29312840D01*
X237521175Y-29296439D01*
X237521168Y-29296438D01*
X237302502Y-29277308D01*
X237302498Y-29277308D01*
X237083831Y-29296438D01*
X237083824Y-29296439D01*
X236961402Y-29329242D01*
X236871797Y-29353253D01*
X236871795Y-29353253D01*
X236871791Y-29353255D01*
X236672857Y-29446019D01*
X236672849Y-29446023D01*
X236493047Y-29571922D01*
X236493041Y-29571927D01*
X236337827Y-29727141D01*
X236337822Y-29727147D01*
X236211923Y-29906949D01*
X236211919Y-29906957D01*
X236144882Y-30050720D01*
X236098710Y-30103160D01*
X236031517Y-30122312D01*
X235964635Y-30102096D01*
X235920118Y-30050720D01*
X235892532Y-29991563D01*
X235853079Y-29906954D01*
X235853077Y-29906951D01*
X235853076Y-29906949D01*
X235727177Y-29727147D01*
X235727172Y-29727141D01*
X235571958Y-29571927D01*
X235571952Y-29571922D01*
X235392150Y-29446023D01*
X235392142Y-29446019D01*
X235193208Y-29353255D01*
X235193206Y-29353254D01*
X235193203Y-29353253D01*
X235042385Y-29312840D01*
X234981175Y-29296439D01*
X234981168Y-29296438D01*
X234762502Y-29277308D01*
X234762498Y-29277308D01*
X234543831Y-29296438D01*
X234543824Y-29296439D01*
X234421402Y-29329242D01*
X234331797Y-29353253D01*
X234331795Y-29353253D01*
X234331791Y-29353255D01*
X234132857Y-29446019D01*
X234132849Y-29446023D01*
X233953047Y-29571922D01*
X233953041Y-29571927D01*
X233797827Y-29727141D01*
X233797822Y-29727147D01*
X233671923Y-29906949D01*
X233671919Y-29906957D01*
X233604882Y-30050720D01*
X233558710Y-30103160D01*
X233491517Y-30122312D01*
X233424635Y-30102096D01*
X233380118Y-30050720D01*
X233352532Y-29991563D01*
X233313079Y-29906954D01*
X233313077Y-29906951D01*
X233313076Y-29906949D01*
X233187177Y-29727147D01*
X233187172Y-29727141D01*
X233031958Y-29571927D01*
X233031952Y-29571922D01*
X232852150Y-29446023D01*
X232852142Y-29446019D01*
X232653208Y-29353255D01*
X232653206Y-29353254D01*
X232653203Y-29353253D01*
X232502385Y-29312840D01*
X232441175Y-29296439D01*
X232441168Y-29296438D01*
X232222502Y-29277308D01*
X232222498Y-29277308D01*
X232003831Y-29296438D01*
X232003824Y-29296439D01*
X231881402Y-29329242D01*
X231791797Y-29353253D01*
X231791795Y-29353253D01*
X231791791Y-29353255D01*
X231592857Y-29446019D01*
X231592849Y-29446023D01*
X231413047Y-29571922D01*
X231413041Y-29571927D01*
X231257827Y-29727141D01*
X231257822Y-29727147D01*
X231131923Y-29906949D01*
X231131919Y-29906957D01*
X231064882Y-30050720D01*
X231018710Y-30103160D01*
X230951517Y-30122312D01*
X230884635Y-30102096D01*
X230840118Y-30050720D01*
X230812532Y-29991563D01*
X230773079Y-29906954D01*
X230773077Y-29906951D01*
X230773076Y-29906949D01*
X230647177Y-29727147D01*
X230647172Y-29727141D01*
X230491958Y-29571927D01*
X230491952Y-29571922D01*
X230312150Y-29446023D01*
X230312142Y-29446019D01*
X230113208Y-29353255D01*
X230113206Y-29353254D01*
X230113203Y-29353253D01*
X229962385Y-29312840D01*
X229901175Y-29296439D01*
X229901168Y-29296438D01*
X229682502Y-29277308D01*
X229682498Y-29277308D01*
X229463831Y-29296438D01*
X229463824Y-29296439D01*
X229341402Y-29329242D01*
X229251797Y-29353253D01*
X229251795Y-29353253D01*
X229251791Y-29353255D01*
X229052857Y-29446019D01*
X229052849Y-29446023D01*
X228873047Y-29571922D01*
X228873041Y-29571927D01*
X228717827Y-29727141D01*
X228717822Y-29727147D01*
X228591923Y-29906949D01*
X228591919Y-29906957D01*
X228524882Y-30050720D01*
X228478710Y-30103160D01*
X228411517Y-30122312D01*
X228344635Y-30102096D01*
X228300118Y-30050720D01*
X228272532Y-29991563D01*
X228233079Y-29906954D01*
X228233077Y-29906951D01*
X228233076Y-29906949D01*
X228107177Y-29727147D01*
X228107172Y-29727141D01*
X227951958Y-29571927D01*
X227951952Y-29571922D01*
X227772150Y-29446023D01*
X227772142Y-29446019D01*
X227573208Y-29353255D01*
X227573206Y-29353254D01*
X227573203Y-29353253D01*
X227422385Y-29312840D01*
X227361175Y-29296439D01*
X227361168Y-29296438D01*
X227142502Y-29277308D01*
X227142498Y-29277308D01*
X226923831Y-29296438D01*
X226923824Y-29296439D01*
X226801402Y-29329242D01*
X226711797Y-29353253D01*
X226711795Y-29353253D01*
X226711791Y-29353255D01*
X226512857Y-29446019D01*
X226512849Y-29446023D01*
X226333047Y-29571922D01*
X226333041Y-29571927D01*
X226177827Y-29727141D01*
X226177822Y-29727147D01*
X226051923Y-29906949D01*
X226051919Y-29906957D01*
X225984882Y-30050720D01*
X225938710Y-30103160D01*
X225871517Y-30122312D01*
X225804635Y-30102096D01*
X225760118Y-30050720D01*
X225732532Y-29991563D01*
X225693079Y-29906954D01*
X225693077Y-29906951D01*
X225693076Y-29906949D01*
X225567177Y-29727147D01*
X225567172Y-29727141D01*
X225411958Y-29571927D01*
X225411952Y-29571922D01*
X225232150Y-29446023D01*
X225232142Y-29446019D01*
X225033208Y-29353255D01*
X225033206Y-29353254D01*
X225033203Y-29353253D01*
X224882385Y-29312840D01*
X224821175Y-29296439D01*
X224821168Y-29296438D01*
X224602502Y-29277308D01*
X224602498Y-29277308D01*
X224383831Y-29296438D01*
X224383824Y-29296439D01*
X224261402Y-29329242D01*
X224171797Y-29353253D01*
X224171795Y-29353253D01*
X224171791Y-29353255D01*
X223972857Y-29446019D01*
X223972849Y-29446023D01*
X223793047Y-29571922D01*
X223793041Y-29571927D01*
X223637827Y-29727141D01*
X223637822Y-29727147D01*
X223511923Y-29906949D01*
X223511919Y-29906957D01*
X223444882Y-30050720D01*
X223398710Y-30103160D01*
X223331517Y-30122312D01*
X223264635Y-30102096D01*
X223220118Y-30050720D01*
X223192532Y-29991563D01*
X223153079Y-29906954D01*
X223153077Y-29906951D01*
X223153076Y-29906949D01*
X223027177Y-29727147D01*
X223027172Y-29727141D01*
X222871958Y-29571927D01*
X222871952Y-29571922D01*
X222692150Y-29446023D01*
X222692142Y-29446019D01*
X222493208Y-29353255D01*
X222493206Y-29353254D01*
X222493203Y-29353253D01*
X222342385Y-29312840D01*
X222281175Y-29296439D01*
X222281168Y-29296438D01*
X222062502Y-29277308D01*
X222062498Y-29277308D01*
X221843831Y-29296438D01*
X221843824Y-29296439D01*
X221721402Y-29329242D01*
X221631797Y-29353253D01*
X221631795Y-29353253D01*
X221631791Y-29353255D01*
X221432857Y-29446019D01*
X221432849Y-29446023D01*
X221253047Y-29571922D01*
X221253041Y-29571927D01*
X221097827Y-29727141D01*
X221097822Y-29727147D01*
X220971923Y-29906949D01*
X220971919Y-29906957D01*
X220904882Y-30050720D01*
X220858710Y-30103160D01*
X220791517Y-30122312D01*
X220724635Y-30102096D01*
X220680118Y-30050720D01*
X220652532Y-29991563D01*
X220613079Y-29906954D01*
X220613077Y-29906951D01*
X220613076Y-29906949D01*
X220487177Y-29727147D01*
X220487172Y-29727141D01*
X220331958Y-29571927D01*
X220331952Y-29571922D01*
X220152150Y-29446023D01*
X220152142Y-29446019D01*
X219953208Y-29353255D01*
X219953206Y-29353254D01*
X219953203Y-29353253D01*
X219802385Y-29312840D01*
X219741175Y-29296439D01*
X219741168Y-29296438D01*
X219522502Y-29277308D01*
X219522498Y-29277308D01*
X219303831Y-29296438D01*
X219303824Y-29296439D01*
X219181402Y-29329242D01*
X219091797Y-29353253D01*
X219091795Y-29353253D01*
X219091791Y-29353255D01*
X218892857Y-29446019D01*
X218892849Y-29446023D01*
X218713047Y-29571922D01*
X218713041Y-29571927D01*
X218557827Y-29727141D01*
X218557822Y-29727147D01*
X218431923Y-29906949D01*
X218431919Y-29906957D01*
X218364882Y-30050720D01*
X218318710Y-30103160D01*
X218251517Y-30122312D01*
X218184635Y-30102096D01*
X218140118Y-30050720D01*
X218112532Y-29991563D01*
X218073079Y-29906954D01*
X218073077Y-29906951D01*
X218073076Y-29906949D01*
X217947177Y-29727147D01*
X217947172Y-29727141D01*
X217791958Y-29571927D01*
X217791952Y-29571922D01*
X217612150Y-29446023D01*
X217612142Y-29446019D01*
X217413208Y-29353255D01*
X217413206Y-29353254D01*
X217413203Y-29353253D01*
X217262385Y-29312840D01*
X217201175Y-29296439D01*
X217201168Y-29296438D01*
X216982502Y-29277308D01*
X216982498Y-29277308D01*
X216763831Y-29296438D01*
X216763824Y-29296439D01*
X216641402Y-29329242D01*
X216551797Y-29353253D01*
X216551795Y-29353253D01*
X216551791Y-29353255D01*
X216352857Y-29446019D01*
X216352849Y-29446023D01*
X216173047Y-29571922D01*
X216173041Y-29571927D01*
X216017827Y-29727141D01*
X216017822Y-29727147D01*
X215891923Y-29906949D01*
X215891919Y-29906957D01*
X215824882Y-30050720D01*
X215778710Y-30103160D01*
X215711517Y-30122312D01*
X215644635Y-30102096D01*
X215600118Y-30050720D01*
X215572532Y-29991563D01*
X215533079Y-29906954D01*
X215533077Y-29906951D01*
X215533076Y-29906949D01*
X215407177Y-29727147D01*
X215407172Y-29727141D01*
X215251958Y-29571927D01*
X215251952Y-29571922D01*
X215072150Y-29446023D01*
X215072142Y-29446019D01*
X214873208Y-29353255D01*
X214873206Y-29353254D01*
X214873203Y-29353253D01*
X214722385Y-29312840D01*
X214661175Y-29296439D01*
X214661168Y-29296438D01*
X214442502Y-29277308D01*
X214442498Y-29277308D01*
X214223831Y-29296438D01*
X214223824Y-29296439D01*
X214101402Y-29329242D01*
X214011797Y-29353253D01*
X214011795Y-29353253D01*
X214011791Y-29353255D01*
X213812857Y-29446019D01*
X213812849Y-29446023D01*
X213633047Y-29571922D01*
X213633041Y-29571927D01*
X213477827Y-29727141D01*
X213477822Y-29727147D01*
X213351923Y-29906949D01*
X213351919Y-29906957D01*
X213284882Y-30050720D01*
X213238710Y-30103160D01*
X213171517Y-30122312D01*
X213104635Y-30102096D01*
X213060118Y-30050720D01*
X213032532Y-29991563D01*
X212993079Y-29906954D01*
X212993077Y-29906951D01*
X212993076Y-29906949D01*
X212867177Y-29727147D01*
X212867172Y-29727141D01*
X212711958Y-29571927D01*
X212711952Y-29571922D01*
X212532150Y-29446023D01*
X212532142Y-29446019D01*
X212333208Y-29353255D01*
X212333206Y-29353254D01*
X212333203Y-29353253D01*
X212182385Y-29312840D01*
X212121175Y-29296439D01*
X212121168Y-29296438D01*
X211902502Y-29277308D01*
X211902498Y-29277308D01*
X211683831Y-29296438D01*
X211683824Y-29296439D01*
X211561402Y-29329242D01*
X211471797Y-29353253D01*
X211471795Y-29353253D01*
X211471791Y-29353255D01*
X211272857Y-29446019D01*
X211272849Y-29446023D01*
X211093047Y-29571922D01*
X211093041Y-29571927D01*
X210937827Y-29727141D01*
X210937822Y-29727147D01*
X210811923Y-29906949D01*
X210811919Y-29906957D01*
X210744882Y-30050720D01*
X210698710Y-30103160D01*
X210631517Y-30122312D01*
X210564635Y-30102096D01*
X210520118Y-30050720D01*
X210492532Y-29991563D01*
X210453079Y-29906954D01*
X210453077Y-29906951D01*
X210453076Y-29906949D01*
X210327177Y-29727147D01*
X210327172Y-29727141D01*
X210171958Y-29571927D01*
X210171952Y-29571922D01*
X209992150Y-29446023D01*
X209992142Y-29446019D01*
X209793208Y-29353255D01*
X209793206Y-29353254D01*
X209793203Y-29353253D01*
X209642385Y-29312840D01*
X209581175Y-29296439D01*
X209581168Y-29296438D01*
X209362502Y-29277308D01*
X209362498Y-29277308D01*
X209143831Y-29296438D01*
X209143824Y-29296439D01*
X209021402Y-29329242D01*
X208931797Y-29353253D01*
X208931795Y-29353253D01*
X208931791Y-29353255D01*
X208732857Y-29446019D01*
X208732849Y-29446023D01*
X208553047Y-29571922D01*
X208553041Y-29571927D01*
X208397827Y-29727141D01*
X208397822Y-29727147D01*
X208271923Y-29906949D01*
X208271919Y-29906957D01*
X208204882Y-30050720D01*
X208158710Y-30103160D01*
X208091517Y-30122312D01*
X208024635Y-30102096D01*
X207980118Y-30050720D01*
X207952532Y-29991563D01*
X207913079Y-29906954D01*
X207913077Y-29906951D01*
X207913076Y-29906949D01*
X207787177Y-29727147D01*
X207787172Y-29727141D01*
X207631958Y-29571927D01*
X207631952Y-29571922D01*
X207452150Y-29446023D01*
X207452142Y-29446019D01*
X207253208Y-29353255D01*
X207253206Y-29353254D01*
X207253203Y-29353253D01*
X207102385Y-29312840D01*
X207041175Y-29296439D01*
X207041168Y-29296438D01*
X206822502Y-29277308D01*
X206822498Y-29277308D01*
X206603831Y-29296438D01*
X206603824Y-29296439D01*
X206481402Y-29329242D01*
X206391797Y-29353253D01*
X206391795Y-29353253D01*
X206391791Y-29353255D01*
X206192857Y-29446019D01*
X206192849Y-29446023D01*
X206013047Y-29571922D01*
X206013041Y-29571927D01*
X205857827Y-29727141D01*
X205857822Y-29727147D01*
X205731923Y-29906949D01*
X205731921Y-29906953D01*
X205664606Y-30051311D01*
X205618433Y-30103750D01*
X205551240Y-30122902D01*
X205484359Y-30102686D01*
X205439842Y-30051311D01*
X205372644Y-29907205D01*
X205372643Y-29907203D01*
X205246788Y-29727463D01*
X205091636Y-29572311D01*
X204911896Y-29446456D01*
X204911894Y-29446455D01*
X204713033Y-29353725D01*
X204713024Y-29353721D01*
X204532500Y-29305350D01*
X204532500Y-30103588D01*
X204475493Y-30070675D01*
X204348326Y-30036600D01*
X204216674Y-30036600D01*
X204089507Y-30070675D01*
X204032500Y-30103588D01*
X204032500Y-29305351D01*
X204032499Y-29305350D01*
X203851975Y-29353721D01*
X203851966Y-29353725D01*
X203653105Y-29446455D01*
X203653103Y-29446456D01*
X203473363Y-29572311D01*
X203318211Y-29727463D01*
X203222075Y-29864761D01*
X203167498Y-29908386D01*
X203098000Y-29915580D01*
X203035645Y-29884057D01*
X203000231Y-29823827D01*
X202996500Y-29793638D01*
X202996500Y-29734772D01*
X202996499Y-29734755D01*
X202990098Y-29675227D01*
X202990096Y-29675220D01*
X202939854Y-29540513D01*
X202939850Y-29540506D01*
X202853690Y-29425412D01*
X202853687Y-29425409D01*
X202738593Y-29339249D01*
X202738586Y-29339245D01*
X202603879Y-29289003D01*
X202603872Y-29289001D01*
X202544344Y-29282600D01*
X201992500Y-29282600D01*
X201992500Y-30103588D01*
X201935493Y-30070675D01*
X201808326Y-30036600D01*
X201676674Y-30036600D01*
X201549507Y-30070675D01*
X201492500Y-30103588D01*
X201492500Y-29282600D01*
X200940655Y-29282600D01*
X200881127Y-29289001D01*
X200881120Y-29289003D01*
X200746413Y-29339245D01*
X200746406Y-29339249D01*
X200631312Y-29425409D01*
X200631309Y-29425412D01*
X200545149Y-29540506D01*
X200545145Y-29540513D01*
X200494903Y-29675220D01*
X200494901Y-29675227D01*
X200488500Y-29734755D01*
X200488500Y-30286600D01*
X201309488Y-30286600D01*
X201276575Y-30343607D01*
X201242500Y-30470774D01*
X201242500Y-30602426D01*
X201276575Y-30729593D01*
X201309488Y-30786600D01*
X200488500Y-30786600D01*
X200488500Y-31338444D01*
X200494901Y-31397972D01*
X200494903Y-31397979D01*
X200545145Y-31532686D01*
X200545149Y-31532693D01*
X200631309Y-31647787D01*
X200631312Y-31647790D01*
X200746406Y-31733950D01*
X200746413Y-31733954D01*
X200881120Y-31784196D01*
X200881127Y-31784198D01*
X200940655Y-31790599D01*
X200940672Y-31790600D01*
X200998666Y-31790600D01*
X201065705Y-31810285D01*
X201111460Y-31863089D01*
X201121404Y-31932247D01*
X201092379Y-31995803D01*
X201069789Y-32016175D01*
X200933048Y-32111922D01*
X200933041Y-32111927D01*
X200777827Y-32267141D01*
X200777822Y-32267147D01*
X200651923Y-32446949D01*
X200651919Y-32446957D01*
X200559155Y-32645891D01*
X200502339Y-32857924D01*
X200502338Y-32857931D01*
X200483208Y-33076597D01*
X200483208Y-33076602D01*
X192655500Y-33076602D01*
X192655500Y-30657888D01*
X194812000Y-30657888D01*
X194843661Y-30898385D01*
X194906447Y-31132704D01*
X194999273Y-31356805D01*
X194999276Y-31356812D01*
X195120564Y-31566889D01*
X195120566Y-31566892D01*
X195120567Y-31566893D01*
X195268233Y-31759336D01*
X195268239Y-31759343D01*
X195439756Y-31930860D01*
X195439762Y-31930865D01*
X195632211Y-32078536D01*
X195842288Y-32199824D01*
X196066400Y-32292654D01*
X196300711Y-32355438D01*
X196481086Y-32379184D01*
X196541211Y-32387100D01*
X196541212Y-32387100D01*
X196783789Y-32387100D01*
X196831888Y-32380767D01*
X197024289Y-32355438D01*
X197258600Y-32292654D01*
X197482712Y-32199824D01*
X197692789Y-32078536D01*
X197885238Y-31930865D01*
X198056765Y-31759338D01*
X198204436Y-31566889D01*
X198325724Y-31356812D01*
X198418554Y-31132700D01*
X198481338Y-30898389D01*
X198513000Y-30657888D01*
X198513000Y-30415312D01*
X198481338Y-30174811D01*
X198418554Y-29940500D01*
X198325724Y-29716388D01*
X198204436Y-29506311D01*
X198056765Y-29313862D01*
X198056760Y-29313856D01*
X197885243Y-29142339D01*
X197885236Y-29142333D01*
X197692793Y-28994667D01*
X197692792Y-28994666D01*
X197692789Y-28994664D01*
X197482712Y-28873376D01*
X197482705Y-28873373D01*
X197258604Y-28780547D01*
X197024285Y-28717761D01*
X196783789Y-28686100D01*
X196783788Y-28686100D01*
X196541212Y-28686100D01*
X196541211Y-28686100D01*
X196300714Y-28717761D01*
X196066395Y-28780547D01*
X195842294Y-28873373D01*
X195842285Y-28873377D01*
X195632206Y-28994667D01*
X195439763Y-29142333D01*
X195439756Y-29142339D01*
X195268239Y-29313856D01*
X195268233Y-29313863D01*
X195120567Y-29506306D01*
X194999277Y-29716385D01*
X194999273Y-29716394D01*
X194906447Y-29940495D01*
X194843661Y-30174814D01*
X194812000Y-30415311D01*
X194812000Y-30657888D01*
X192655500Y-30657888D01*
X192655500Y-29011025D01*
X192675185Y-28943986D01*
X192691819Y-28923344D01*
X194826744Y-26788419D01*
X194888067Y-26754934D01*
X194914425Y-26752100D01*
X269085194Y-26752100D01*
X269152233Y-26771785D01*
G37*
G04 #@! TD.AperFunction*
M02*
