G04 #@! TF.GenerationSoftware,KiCad,Pcbnew,8.0.0*
G04 #@! TF.CreationDate,2024-05-03T13:58:39-04:00*
G04 #@! TF.ProjectId,hdmi_trigger_interface,68646d69-5f74-4726-9967-6765725f696e,rev?*
G04 #@! TF.SameCoordinates,Original*
G04 #@! TF.FileFunction,Legend,Top*
G04 #@! TF.FilePolarity,Positive*
%FSLAX46Y46*%
G04 Gerber Fmt 4.6, Leading zero omitted, Abs format (unit mm)*
G04 Created by KiCad (PCBNEW 8.0.0) date 2024-05-03 13:58:39*
%MOMM*%
%LPD*%
G01*
G04 APERTURE LIST*
%ADD10C,0.300000*%
%ADD11C,0.150000*%
%ADD12C,0.152400*%
%ADD13C,0.508000*%
%ADD14C,0.120000*%
%ADD15C,0.406400*%
G04 APERTURE END LIST*
D10*
X223554510Y-58900828D02*
X223554510Y-57400828D01*
X223554510Y-57400828D02*
X224125939Y-57400828D01*
X224125939Y-57400828D02*
X224268796Y-57472257D01*
X224268796Y-57472257D02*
X224340225Y-57543685D01*
X224340225Y-57543685D02*
X224411653Y-57686542D01*
X224411653Y-57686542D02*
X224411653Y-57900828D01*
X224411653Y-57900828D02*
X224340225Y-58043685D01*
X224340225Y-58043685D02*
X224268796Y-58115114D01*
X224268796Y-58115114D02*
X224125939Y-58186542D01*
X224125939Y-58186542D02*
X223554510Y-58186542D01*
X225697368Y-57900828D02*
X225697368Y-58900828D01*
X225054510Y-57900828D02*
X225054510Y-58686542D01*
X225054510Y-58686542D02*
X225125939Y-58829400D01*
X225125939Y-58829400D02*
X225268796Y-58900828D01*
X225268796Y-58900828D02*
X225483082Y-58900828D01*
X225483082Y-58900828D02*
X225625939Y-58829400D01*
X225625939Y-58829400D02*
X225697368Y-58757971D01*
X226625939Y-58900828D02*
X226483082Y-58829400D01*
X226483082Y-58829400D02*
X226411653Y-58686542D01*
X226411653Y-58686542D02*
X226411653Y-57400828D01*
X227411653Y-58900828D02*
X227268796Y-58829400D01*
X227268796Y-58829400D02*
X227197367Y-58686542D01*
X227197367Y-58686542D02*
X227197367Y-57400828D01*
X227983081Y-58329400D02*
X229125939Y-58329400D01*
X230483082Y-58900828D02*
X230483082Y-57400828D01*
X230483082Y-58829400D02*
X230340224Y-58900828D01*
X230340224Y-58900828D02*
X230054510Y-58900828D01*
X230054510Y-58900828D02*
X229911653Y-58829400D01*
X229911653Y-58829400D02*
X229840224Y-58757971D01*
X229840224Y-58757971D02*
X229768796Y-58615114D01*
X229768796Y-58615114D02*
X229768796Y-58186542D01*
X229768796Y-58186542D02*
X229840224Y-58043685D01*
X229840224Y-58043685D02*
X229911653Y-57972257D01*
X229911653Y-57972257D02*
X230054510Y-57900828D01*
X230054510Y-57900828D02*
X230340224Y-57900828D01*
X230340224Y-57900828D02*
X230483082Y-57972257D01*
X231411653Y-58900828D02*
X231268796Y-58829400D01*
X231268796Y-58829400D02*
X231197367Y-58757971D01*
X231197367Y-58757971D02*
X231125939Y-58615114D01*
X231125939Y-58615114D02*
X231125939Y-58186542D01*
X231125939Y-58186542D02*
X231197367Y-58043685D01*
X231197367Y-58043685D02*
X231268796Y-57972257D01*
X231268796Y-57972257D02*
X231411653Y-57900828D01*
X231411653Y-57900828D02*
X231625939Y-57900828D01*
X231625939Y-57900828D02*
X231768796Y-57972257D01*
X231768796Y-57972257D02*
X231840225Y-58043685D01*
X231840225Y-58043685D02*
X231911653Y-58186542D01*
X231911653Y-58186542D02*
X231911653Y-58615114D01*
X231911653Y-58615114D02*
X231840225Y-58757971D01*
X231840225Y-58757971D02*
X231768796Y-58829400D01*
X231768796Y-58829400D02*
X231625939Y-58900828D01*
X231625939Y-58900828D02*
X231411653Y-58900828D01*
X232411653Y-57900828D02*
X232697368Y-58900828D01*
X232697368Y-58900828D02*
X232983082Y-58186542D01*
X232983082Y-58186542D02*
X233268796Y-58900828D01*
X233268796Y-58900828D02*
X233554510Y-57900828D01*
X234125939Y-57900828D02*
X234125939Y-58900828D01*
X234125939Y-58043685D02*
X234197368Y-57972257D01*
X234197368Y-57972257D02*
X234340225Y-57900828D01*
X234340225Y-57900828D02*
X234554511Y-57900828D01*
X234554511Y-57900828D02*
X234697368Y-57972257D01*
X234697368Y-57972257D02*
X234768797Y-58115114D01*
X234768797Y-58115114D02*
X234768797Y-58900828D01*
X235411654Y-58829400D02*
X235554511Y-58900828D01*
X235554511Y-58900828D02*
X235840225Y-58900828D01*
X235840225Y-58900828D02*
X235983082Y-58829400D01*
X235983082Y-58829400D02*
X236054511Y-58686542D01*
X236054511Y-58686542D02*
X236054511Y-58615114D01*
X236054511Y-58615114D02*
X235983082Y-58472257D01*
X235983082Y-58472257D02*
X235840225Y-58400828D01*
X235840225Y-58400828D02*
X235625940Y-58400828D01*
X235625940Y-58400828D02*
X235483082Y-58329400D01*
X235483082Y-58329400D02*
X235411654Y-58186542D01*
X235411654Y-58186542D02*
X235411654Y-58115114D01*
X235411654Y-58115114D02*
X235483082Y-57972257D01*
X235483082Y-57972257D02*
X235625940Y-57900828D01*
X235625940Y-57900828D02*
X235840225Y-57900828D01*
X235840225Y-57900828D02*
X235983082Y-57972257D01*
X256954510Y-49200828D02*
X256954510Y-47700828D01*
X256954510Y-47700828D02*
X257525939Y-47700828D01*
X257525939Y-47700828D02*
X257668796Y-47772257D01*
X257668796Y-47772257D02*
X257740225Y-47843685D01*
X257740225Y-47843685D02*
X257811653Y-47986542D01*
X257811653Y-47986542D02*
X257811653Y-48200828D01*
X257811653Y-48200828D02*
X257740225Y-48343685D01*
X257740225Y-48343685D02*
X257668796Y-48415114D01*
X257668796Y-48415114D02*
X257525939Y-48486542D01*
X257525939Y-48486542D02*
X256954510Y-48486542D01*
X259097368Y-48200828D02*
X259097368Y-49200828D01*
X258454510Y-48200828D02*
X258454510Y-48986542D01*
X258454510Y-48986542D02*
X258525939Y-49129400D01*
X258525939Y-49129400D02*
X258668796Y-49200828D01*
X258668796Y-49200828D02*
X258883082Y-49200828D01*
X258883082Y-49200828D02*
X259025939Y-49129400D01*
X259025939Y-49129400D02*
X259097368Y-49057971D01*
X260025939Y-49200828D02*
X259883082Y-49129400D01*
X259883082Y-49129400D02*
X259811653Y-48986542D01*
X259811653Y-48986542D02*
X259811653Y-47700828D01*
X260811653Y-49200828D02*
X260668796Y-49129400D01*
X260668796Y-49129400D02*
X260597367Y-48986542D01*
X260597367Y-48986542D02*
X260597367Y-47700828D01*
X261383081Y-48629400D02*
X262525939Y-48629400D01*
X263883082Y-48200828D02*
X263883082Y-49200828D01*
X263240224Y-48200828D02*
X263240224Y-48986542D01*
X263240224Y-48986542D02*
X263311653Y-49129400D01*
X263311653Y-49129400D02*
X263454510Y-49200828D01*
X263454510Y-49200828D02*
X263668796Y-49200828D01*
X263668796Y-49200828D02*
X263811653Y-49129400D01*
X263811653Y-49129400D02*
X263883082Y-49057971D01*
X264597367Y-48200828D02*
X264597367Y-49700828D01*
X264597367Y-48272257D02*
X264740225Y-48200828D01*
X264740225Y-48200828D02*
X265025939Y-48200828D01*
X265025939Y-48200828D02*
X265168796Y-48272257D01*
X265168796Y-48272257D02*
X265240225Y-48343685D01*
X265240225Y-48343685D02*
X265311653Y-48486542D01*
X265311653Y-48486542D02*
X265311653Y-48915114D01*
X265311653Y-48915114D02*
X265240225Y-49057971D01*
X265240225Y-49057971D02*
X265168796Y-49129400D01*
X265168796Y-49129400D02*
X265025939Y-49200828D01*
X265025939Y-49200828D02*
X264740225Y-49200828D01*
X264740225Y-49200828D02*
X264597367Y-49129400D01*
X265883082Y-49129400D02*
X266025939Y-49200828D01*
X266025939Y-49200828D02*
X266311653Y-49200828D01*
X266311653Y-49200828D02*
X266454510Y-49129400D01*
X266454510Y-49129400D02*
X266525939Y-48986542D01*
X266525939Y-48986542D02*
X266525939Y-48915114D01*
X266525939Y-48915114D02*
X266454510Y-48772257D01*
X266454510Y-48772257D02*
X266311653Y-48700828D01*
X266311653Y-48700828D02*
X266097368Y-48700828D01*
X266097368Y-48700828D02*
X265954510Y-48629400D01*
X265954510Y-48629400D02*
X265883082Y-48486542D01*
X265883082Y-48486542D02*
X265883082Y-48415114D01*
X265883082Y-48415114D02*
X265954510Y-48272257D01*
X265954510Y-48272257D02*
X266097368Y-48200828D01*
X266097368Y-48200828D02*
X266311653Y-48200828D01*
X266311653Y-48200828D02*
X266454510Y-48272257D01*
X245125939Y-62489530D02*
X245125939Y-60289530D01*
X245125939Y-60289530D02*
X245811653Y-60289530D01*
X245811653Y-60289530D02*
X245983082Y-60394292D01*
X245983082Y-60394292D02*
X246068796Y-60499054D01*
X246068796Y-60499054D02*
X246154510Y-60708578D01*
X246154510Y-60708578D02*
X246154510Y-61022864D01*
X246154510Y-61022864D02*
X246068796Y-61232388D01*
X246068796Y-61232388D02*
X245983082Y-61337149D01*
X245983082Y-61337149D02*
X245811653Y-61441911D01*
X245811653Y-61441911D02*
X245125939Y-61441911D01*
X247697368Y-60289530D02*
X247354510Y-60289530D01*
X247354510Y-60289530D02*
X247183082Y-60394292D01*
X247183082Y-60394292D02*
X247097368Y-60499054D01*
X247097368Y-60499054D02*
X246925939Y-60813340D01*
X246925939Y-60813340D02*
X246840225Y-61232388D01*
X246840225Y-61232388D02*
X246840225Y-62070483D01*
X246840225Y-62070483D02*
X246925939Y-62280007D01*
X246925939Y-62280007D02*
X247011653Y-62384769D01*
X247011653Y-62384769D02*
X247183082Y-62489530D01*
X247183082Y-62489530D02*
X247525939Y-62489530D01*
X247525939Y-62489530D02*
X247697368Y-62384769D01*
X247697368Y-62384769D02*
X247783082Y-62280007D01*
X247783082Y-62280007D02*
X247868796Y-62070483D01*
X247868796Y-62070483D02*
X247868796Y-61546673D01*
X247868796Y-61546673D02*
X247783082Y-61337149D01*
X247783082Y-61337149D02*
X247697368Y-61232388D01*
X247697368Y-61232388D02*
X247525939Y-61127626D01*
X247525939Y-61127626D02*
X247183082Y-61127626D01*
X247183082Y-61127626D02*
X247011653Y-61232388D01*
X247011653Y-61232388D02*
X246925939Y-61337149D01*
X246925939Y-61337149D02*
X246840225Y-61546673D01*
X245125939Y-66031407D02*
X245125939Y-63831407D01*
X245125939Y-63831407D02*
X245811653Y-63831407D01*
X245811653Y-63831407D02*
X245983082Y-63936169D01*
X245983082Y-63936169D02*
X246068796Y-64040931D01*
X246068796Y-64040931D02*
X246154510Y-64250455D01*
X246154510Y-64250455D02*
X246154510Y-64564741D01*
X246154510Y-64564741D02*
X246068796Y-64774265D01*
X246068796Y-64774265D02*
X245983082Y-64879026D01*
X245983082Y-64879026D02*
X245811653Y-64983788D01*
X245811653Y-64983788D02*
X245125939Y-64983788D01*
X246754510Y-63831407D02*
X247954510Y-63831407D01*
X247954510Y-63831407D02*
X247183082Y-66031407D01*
X245125939Y-69573284D02*
X245125939Y-67373284D01*
X245125939Y-67373284D02*
X245811653Y-67373284D01*
X245811653Y-67373284D02*
X245983082Y-67478046D01*
X245983082Y-67478046D02*
X246068796Y-67582808D01*
X246068796Y-67582808D02*
X246154510Y-67792332D01*
X246154510Y-67792332D02*
X246154510Y-68106618D01*
X246154510Y-68106618D02*
X246068796Y-68316142D01*
X246068796Y-68316142D02*
X245983082Y-68420903D01*
X245983082Y-68420903D02*
X245811653Y-68525665D01*
X245811653Y-68525665D02*
X245125939Y-68525665D01*
X247183082Y-68316142D02*
X247011653Y-68211380D01*
X247011653Y-68211380D02*
X246925939Y-68106618D01*
X246925939Y-68106618D02*
X246840225Y-67897094D01*
X246840225Y-67897094D02*
X246840225Y-67792332D01*
X246840225Y-67792332D02*
X246925939Y-67582808D01*
X246925939Y-67582808D02*
X247011653Y-67478046D01*
X247011653Y-67478046D02*
X247183082Y-67373284D01*
X247183082Y-67373284D02*
X247525939Y-67373284D01*
X247525939Y-67373284D02*
X247697368Y-67478046D01*
X247697368Y-67478046D02*
X247783082Y-67582808D01*
X247783082Y-67582808D02*
X247868796Y-67792332D01*
X247868796Y-67792332D02*
X247868796Y-67897094D01*
X247868796Y-67897094D02*
X247783082Y-68106618D01*
X247783082Y-68106618D02*
X247697368Y-68211380D01*
X247697368Y-68211380D02*
X247525939Y-68316142D01*
X247525939Y-68316142D02*
X247183082Y-68316142D01*
X247183082Y-68316142D02*
X247011653Y-68420903D01*
X247011653Y-68420903D02*
X246925939Y-68525665D01*
X246925939Y-68525665D02*
X246840225Y-68735189D01*
X246840225Y-68735189D02*
X246840225Y-69154237D01*
X246840225Y-69154237D02*
X246925939Y-69363761D01*
X246925939Y-69363761D02*
X247011653Y-69468523D01*
X247011653Y-69468523D02*
X247183082Y-69573284D01*
X247183082Y-69573284D02*
X247525939Y-69573284D01*
X247525939Y-69573284D02*
X247697368Y-69468523D01*
X247697368Y-69468523D02*
X247783082Y-69363761D01*
X247783082Y-69363761D02*
X247868796Y-69154237D01*
X247868796Y-69154237D02*
X247868796Y-68735189D01*
X247868796Y-68735189D02*
X247783082Y-68525665D01*
X247783082Y-68525665D02*
X247697368Y-68420903D01*
X247697368Y-68420903D02*
X247525939Y-68316142D01*
X245125939Y-73115161D02*
X245125939Y-70915161D01*
X245125939Y-70915161D02*
X245811653Y-70915161D01*
X245811653Y-70915161D02*
X245983082Y-71019923D01*
X245983082Y-71019923D02*
X246068796Y-71124685D01*
X246068796Y-71124685D02*
X246154510Y-71334209D01*
X246154510Y-71334209D02*
X246154510Y-71648495D01*
X246154510Y-71648495D02*
X246068796Y-71858019D01*
X246068796Y-71858019D02*
X245983082Y-71962780D01*
X245983082Y-71962780D02*
X245811653Y-72067542D01*
X245811653Y-72067542D02*
X245125939Y-72067542D01*
X247011653Y-73115161D02*
X247354510Y-73115161D01*
X247354510Y-73115161D02*
X247525939Y-73010400D01*
X247525939Y-73010400D02*
X247611653Y-72905638D01*
X247611653Y-72905638D02*
X247783082Y-72591352D01*
X247783082Y-72591352D02*
X247868796Y-72172304D01*
X247868796Y-72172304D02*
X247868796Y-71334209D01*
X247868796Y-71334209D02*
X247783082Y-71124685D01*
X247783082Y-71124685D02*
X247697368Y-71019923D01*
X247697368Y-71019923D02*
X247525939Y-70915161D01*
X247525939Y-70915161D02*
X247183082Y-70915161D01*
X247183082Y-70915161D02*
X247011653Y-71019923D01*
X247011653Y-71019923D02*
X246925939Y-71124685D01*
X246925939Y-71124685D02*
X246840225Y-71334209D01*
X246840225Y-71334209D02*
X246840225Y-71858019D01*
X246840225Y-71858019D02*
X246925939Y-72067542D01*
X246925939Y-72067542D02*
X247011653Y-72172304D01*
X247011653Y-72172304D02*
X247183082Y-72277066D01*
X247183082Y-72277066D02*
X247525939Y-72277066D01*
X247525939Y-72277066D02*
X247697368Y-72172304D01*
X247697368Y-72172304D02*
X247783082Y-72067542D01*
X247783082Y-72067542D02*
X247868796Y-71858019D01*
X212202129Y-62389530D02*
X212202129Y-60189530D01*
X212202129Y-60189530D02*
X212849748Y-60189530D01*
X212849748Y-60189530D02*
X213011653Y-60294292D01*
X213011653Y-60294292D02*
X213092606Y-60399054D01*
X213092606Y-60399054D02*
X213173558Y-60608578D01*
X213173558Y-60608578D02*
X213173558Y-60922864D01*
X213173558Y-60922864D02*
X213092606Y-61132388D01*
X213092606Y-61132388D02*
X213011653Y-61237149D01*
X213011653Y-61237149D02*
X212849748Y-61341911D01*
X212849748Y-61341911D02*
X212202129Y-61341911D01*
X214711653Y-60189530D02*
X213902129Y-60189530D01*
X213902129Y-60189530D02*
X213821177Y-61237149D01*
X213821177Y-61237149D02*
X213902129Y-61132388D01*
X213902129Y-61132388D02*
X214064034Y-61027626D01*
X214064034Y-61027626D02*
X214468796Y-61027626D01*
X214468796Y-61027626D02*
X214630701Y-61132388D01*
X214630701Y-61132388D02*
X214711653Y-61237149D01*
X214711653Y-61237149D02*
X214792606Y-61446673D01*
X214792606Y-61446673D02*
X214792606Y-61970483D01*
X214792606Y-61970483D02*
X214711653Y-62180007D01*
X214711653Y-62180007D02*
X214630701Y-62284769D01*
X214630701Y-62284769D02*
X214468796Y-62389530D01*
X214468796Y-62389530D02*
X214064034Y-62389530D01*
X214064034Y-62389530D02*
X213902129Y-62284769D01*
X213902129Y-62284769D02*
X213821177Y-62180007D01*
X212202129Y-65931407D02*
X212202129Y-63731407D01*
X212202129Y-63731407D02*
X212849748Y-63731407D01*
X212849748Y-63731407D02*
X213011653Y-63836169D01*
X213011653Y-63836169D02*
X213092606Y-63940931D01*
X213092606Y-63940931D02*
X213173558Y-64150455D01*
X213173558Y-64150455D02*
X213173558Y-64464741D01*
X213173558Y-64464741D02*
X213092606Y-64674265D01*
X213092606Y-64674265D02*
X213011653Y-64779026D01*
X213011653Y-64779026D02*
X212849748Y-64883788D01*
X212849748Y-64883788D02*
X212202129Y-64883788D01*
X214630701Y-64464741D02*
X214630701Y-65931407D01*
X214225939Y-63626646D02*
X213821177Y-65198074D01*
X213821177Y-65198074D02*
X214873558Y-65198074D01*
X212202129Y-69473284D02*
X212202129Y-67273284D01*
X212202129Y-67273284D02*
X212849748Y-67273284D01*
X212849748Y-67273284D02*
X213011653Y-67378046D01*
X213011653Y-67378046D02*
X213092606Y-67482808D01*
X213092606Y-67482808D02*
X213173558Y-67692332D01*
X213173558Y-67692332D02*
X213173558Y-68006618D01*
X213173558Y-68006618D02*
X213092606Y-68216142D01*
X213092606Y-68216142D02*
X213011653Y-68320903D01*
X213011653Y-68320903D02*
X212849748Y-68425665D01*
X212849748Y-68425665D02*
X212202129Y-68425665D01*
X213740225Y-67273284D02*
X214792606Y-67273284D01*
X214792606Y-67273284D02*
X214225939Y-68111380D01*
X214225939Y-68111380D02*
X214468796Y-68111380D01*
X214468796Y-68111380D02*
X214630701Y-68216142D01*
X214630701Y-68216142D02*
X214711653Y-68320903D01*
X214711653Y-68320903D02*
X214792606Y-68530427D01*
X214792606Y-68530427D02*
X214792606Y-69054237D01*
X214792606Y-69054237D02*
X214711653Y-69263761D01*
X214711653Y-69263761D02*
X214630701Y-69368523D01*
X214630701Y-69368523D02*
X214468796Y-69473284D01*
X214468796Y-69473284D02*
X213983082Y-69473284D01*
X213983082Y-69473284D02*
X213821177Y-69368523D01*
X213821177Y-69368523D02*
X213740225Y-69263761D01*
X212202129Y-73015161D02*
X212202129Y-70815161D01*
X212202129Y-70815161D02*
X212849748Y-70815161D01*
X212849748Y-70815161D02*
X213011653Y-70919923D01*
X213011653Y-70919923D02*
X213092606Y-71024685D01*
X213092606Y-71024685D02*
X213173558Y-71234209D01*
X213173558Y-71234209D02*
X213173558Y-71548495D01*
X213173558Y-71548495D02*
X213092606Y-71758019D01*
X213092606Y-71758019D02*
X213011653Y-71862780D01*
X213011653Y-71862780D02*
X212849748Y-71967542D01*
X212849748Y-71967542D02*
X212202129Y-71967542D01*
X213821177Y-71024685D02*
X213902129Y-70919923D01*
X213902129Y-70919923D02*
X214064034Y-70815161D01*
X214064034Y-70815161D02*
X214468796Y-70815161D01*
X214468796Y-70815161D02*
X214630701Y-70919923D01*
X214630701Y-70919923D02*
X214711653Y-71024685D01*
X214711653Y-71024685D02*
X214792606Y-71234209D01*
X214792606Y-71234209D02*
X214792606Y-71443733D01*
X214792606Y-71443733D02*
X214711653Y-71758019D01*
X214711653Y-71758019D02*
X213740225Y-73015161D01*
X213740225Y-73015161D02*
X214792606Y-73015161D01*
X266654510Y-53622022D02*
X266654510Y-51422022D01*
X266654510Y-51422022D02*
X267225939Y-51422022D01*
X267225939Y-51422022D02*
X267368796Y-51526784D01*
X267368796Y-51526784D02*
X267440225Y-51631546D01*
X267440225Y-51631546D02*
X267511653Y-51841070D01*
X267511653Y-51841070D02*
X267511653Y-52155356D01*
X267511653Y-52155356D02*
X267440225Y-52364880D01*
X267440225Y-52364880D02*
X267368796Y-52469641D01*
X267368796Y-52469641D02*
X267225939Y-52574403D01*
X267225939Y-52574403D02*
X266654510Y-52574403D01*
X268083082Y-51631546D02*
X268154510Y-51526784D01*
X268154510Y-51526784D02*
X268297368Y-51422022D01*
X268297368Y-51422022D02*
X268654510Y-51422022D01*
X268654510Y-51422022D02*
X268797368Y-51526784D01*
X268797368Y-51526784D02*
X268868796Y-51631546D01*
X268868796Y-51631546D02*
X268940225Y-51841070D01*
X268940225Y-51841070D02*
X268940225Y-52050594D01*
X268940225Y-52050594D02*
X268868796Y-52364880D01*
X268868796Y-52364880D02*
X268011653Y-53622022D01*
X268011653Y-53622022D02*
X268940225Y-53622022D01*
X266654510Y-57163899D02*
X266654510Y-54963899D01*
X266654510Y-54963899D02*
X267225939Y-54963899D01*
X267225939Y-54963899D02*
X267368796Y-55068661D01*
X267368796Y-55068661D02*
X267440225Y-55173423D01*
X267440225Y-55173423D02*
X267511653Y-55382947D01*
X267511653Y-55382947D02*
X267511653Y-55697233D01*
X267511653Y-55697233D02*
X267440225Y-55906757D01*
X267440225Y-55906757D02*
X267368796Y-56011518D01*
X267368796Y-56011518D02*
X267225939Y-56116280D01*
X267225939Y-56116280D02*
X266654510Y-56116280D01*
X268011653Y-54963899D02*
X268940225Y-54963899D01*
X268940225Y-54963899D02*
X268440225Y-55801995D01*
X268440225Y-55801995D02*
X268654510Y-55801995D01*
X268654510Y-55801995D02*
X268797368Y-55906757D01*
X268797368Y-55906757D02*
X268868796Y-56011518D01*
X268868796Y-56011518D02*
X268940225Y-56221042D01*
X268940225Y-56221042D02*
X268940225Y-56744852D01*
X268940225Y-56744852D02*
X268868796Y-56954376D01*
X268868796Y-56954376D02*
X268797368Y-57059138D01*
X268797368Y-57059138D02*
X268654510Y-57163899D01*
X268654510Y-57163899D02*
X268225939Y-57163899D01*
X268225939Y-57163899D02*
X268083082Y-57059138D01*
X268083082Y-57059138D02*
X268011653Y-56954376D01*
X266654510Y-60705776D02*
X266654510Y-58505776D01*
X266654510Y-58505776D02*
X267225939Y-58505776D01*
X267225939Y-58505776D02*
X267368796Y-58610538D01*
X267368796Y-58610538D02*
X267440225Y-58715300D01*
X267440225Y-58715300D02*
X267511653Y-58924824D01*
X267511653Y-58924824D02*
X267511653Y-59239110D01*
X267511653Y-59239110D02*
X267440225Y-59448634D01*
X267440225Y-59448634D02*
X267368796Y-59553395D01*
X267368796Y-59553395D02*
X267225939Y-59658157D01*
X267225939Y-59658157D02*
X266654510Y-59658157D01*
X268797368Y-59239110D02*
X268797368Y-60705776D01*
X268440225Y-58401015D02*
X268083082Y-59972443D01*
X268083082Y-59972443D02*
X269011653Y-59972443D01*
X266654510Y-64247653D02*
X266654510Y-62047653D01*
X266654510Y-62047653D02*
X267225939Y-62047653D01*
X267225939Y-62047653D02*
X267368796Y-62152415D01*
X267368796Y-62152415D02*
X267440225Y-62257177D01*
X267440225Y-62257177D02*
X267511653Y-62466701D01*
X267511653Y-62466701D02*
X267511653Y-62780987D01*
X267511653Y-62780987D02*
X267440225Y-62990511D01*
X267440225Y-62990511D02*
X267368796Y-63095272D01*
X267368796Y-63095272D02*
X267225939Y-63200034D01*
X267225939Y-63200034D02*
X266654510Y-63200034D01*
X268868796Y-62047653D02*
X268154510Y-62047653D01*
X268154510Y-62047653D02*
X268083082Y-63095272D01*
X268083082Y-63095272D02*
X268154510Y-62990511D01*
X268154510Y-62990511D02*
X268297368Y-62885749D01*
X268297368Y-62885749D02*
X268654510Y-62885749D01*
X268654510Y-62885749D02*
X268797368Y-62990511D01*
X268797368Y-62990511D02*
X268868796Y-63095272D01*
X268868796Y-63095272D02*
X268940225Y-63304796D01*
X268940225Y-63304796D02*
X268940225Y-63828606D01*
X268940225Y-63828606D02*
X268868796Y-64038130D01*
X268868796Y-64038130D02*
X268797368Y-64142892D01*
X268797368Y-64142892D02*
X268654510Y-64247653D01*
X268654510Y-64247653D02*
X268297368Y-64247653D01*
X268297368Y-64247653D02*
X268154510Y-64142892D01*
X268154510Y-64142892D02*
X268083082Y-64038130D01*
X266654510Y-67789530D02*
X266654510Y-65589530D01*
X266654510Y-65589530D02*
X267225939Y-65589530D01*
X267225939Y-65589530D02*
X267368796Y-65694292D01*
X267368796Y-65694292D02*
X267440225Y-65799054D01*
X267440225Y-65799054D02*
X267511653Y-66008578D01*
X267511653Y-66008578D02*
X267511653Y-66322864D01*
X267511653Y-66322864D02*
X267440225Y-66532388D01*
X267440225Y-66532388D02*
X267368796Y-66637149D01*
X267368796Y-66637149D02*
X267225939Y-66741911D01*
X267225939Y-66741911D02*
X266654510Y-66741911D01*
X268797368Y-65589530D02*
X268511653Y-65589530D01*
X268511653Y-65589530D02*
X268368796Y-65694292D01*
X268368796Y-65694292D02*
X268297368Y-65799054D01*
X268297368Y-65799054D02*
X268154510Y-66113340D01*
X268154510Y-66113340D02*
X268083082Y-66532388D01*
X268083082Y-66532388D02*
X268083082Y-67370483D01*
X268083082Y-67370483D02*
X268154510Y-67580007D01*
X268154510Y-67580007D02*
X268225939Y-67684769D01*
X268225939Y-67684769D02*
X268368796Y-67789530D01*
X268368796Y-67789530D02*
X268654510Y-67789530D01*
X268654510Y-67789530D02*
X268797368Y-67684769D01*
X268797368Y-67684769D02*
X268868796Y-67580007D01*
X268868796Y-67580007D02*
X268940225Y-67370483D01*
X268940225Y-67370483D02*
X268940225Y-66846673D01*
X268940225Y-66846673D02*
X268868796Y-66637149D01*
X268868796Y-66637149D02*
X268797368Y-66532388D01*
X268797368Y-66532388D02*
X268654510Y-66427626D01*
X268654510Y-66427626D02*
X268368796Y-66427626D01*
X268368796Y-66427626D02*
X268225939Y-66532388D01*
X268225939Y-66532388D02*
X268154510Y-66637149D01*
X268154510Y-66637149D02*
X268083082Y-66846673D01*
X266654510Y-71331407D02*
X266654510Y-69131407D01*
X266654510Y-69131407D02*
X267225939Y-69131407D01*
X267225939Y-69131407D02*
X267368796Y-69236169D01*
X267368796Y-69236169D02*
X267440225Y-69340931D01*
X267440225Y-69340931D02*
X267511653Y-69550455D01*
X267511653Y-69550455D02*
X267511653Y-69864741D01*
X267511653Y-69864741D02*
X267440225Y-70074265D01*
X267440225Y-70074265D02*
X267368796Y-70179026D01*
X267368796Y-70179026D02*
X267225939Y-70283788D01*
X267225939Y-70283788D02*
X266654510Y-70283788D01*
X268011653Y-69131407D02*
X269011653Y-69131407D01*
X269011653Y-69131407D02*
X268368796Y-71331407D01*
X266654510Y-74873284D02*
X266654510Y-72673284D01*
X266654510Y-72673284D02*
X267225939Y-72673284D01*
X267225939Y-72673284D02*
X267368796Y-72778046D01*
X267368796Y-72778046D02*
X267440225Y-72882808D01*
X267440225Y-72882808D02*
X267511653Y-73092332D01*
X267511653Y-73092332D02*
X267511653Y-73406618D01*
X267511653Y-73406618D02*
X267440225Y-73616142D01*
X267440225Y-73616142D02*
X267368796Y-73720903D01*
X267368796Y-73720903D02*
X267225939Y-73825665D01*
X267225939Y-73825665D02*
X266654510Y-73825665D01*
X268368796Y-73616142D02*
X268225939Y-73511380D01*
X268225939Y-73511380D02*
X268154510Y-73406618D01*
X268154510Y-73406618D02*
X268083082Y-73197094D01*
X268083082Y-73197094D02*
X268083082Y-73092332D01*
X268083082Y-73092332D02*
X268154510Y-72882808D01*
X268154510Y-72882808D02*
X268225939Y-72778046D01*
X268225939Y-72778046D02*
X268368796Y-72673284D01*
X268368796Y-72673284D02*
X268654510Y-72673284D01*
X268654510Y-72673284D02*
X268797368Y-72778046D01*
X268797368Y-72778046D02*
X268868796Y-72882808D01*
X268868796Y-72882808D02*
X268940225Y-73092332D01*
X268940225Y-73092332D02*
X268940225Y-73197094D01*
X268940225Y-73197094D02*
X268868796Y-73406618D01*
X268868796Y-73406618D02*
X268797368Y-73511380D01*
X268797368Y-73511380D02*
X268654510Y-73616142D01*
X268654510Y-73616142D02*
X268368796Y-73616142D01*
X268368796Y-73616142D02*
X268225939Y-73720903D01*
X268225939Y-73720903D02*
X268154510Y-73825665D01*
X268154510Y-73825665D02*
X268083082Y-74035189D01*
X268083082Y-74035189D02*
X268083082Y-74454237D01*
X268083082Y-74454237D02*
X268154510Y-74663761D01*
X268154510Y-74663761D02*
X268225939Y-74768523D01*
X268225939Y-74768523D02*
X268368796Y-74873284D01*
X268368796Y-74873284D02*
X268654510Y-74873284D01*
X268654510Y-74873284D02*
X268797368Y-74768523D01*
X268797368Y-74768523D02*
X268868796Y-74663761D01*
X268868796Y-74663761D02*
X268940225Y-74454237D01*
X268940225Y-74454237D02*
X268940225Y-74035189D01*
X268940225Y-74035189D02*
X268868796Y-73825665D01*
X268868796Y-73825665D02*
X268797368Y-73720903D01*
X268797368Y-73720903D02*
X268654510Y-73616142D01*
X266654510Y-78415161D02*
X266654510Y-76215161D01*
X266654510Y-76215161D02*
X267225939Y-76215161D01*
X267225939Y-76215161D02*
X267368796Y-76319923D01*
X267368796Y-76319923D02*
X267440225Y-76424685D01*
X267440225Y-76424685D02*
X267511653Y-76634209D01*
X267511653Y-76634209D02*
X267511653Y-76948495D01*
X267511653Y-76948495D02*
X267440225Y-77158019D01*
X267440225Y-77158019D02*
X267368796Y-77262780D01*
X267368796Y-77262780D02*
X267225939Y-77367542D01*
X267225939Y-77367542D02*
X266654510Y-77367542D01*
X268225939Y-78415161D02*
X268511653Y-78415161D01*
X268511653Y-78415161D02*
X268654510Y-78310400D01*
X268654510Y-78310400D02*
X268725939Y-78205638D01*
X268725939Y-78205638D02*
X268868796Y-77891352D01*
X268868796Y-77891352D02*
X268940225Y-77472304D01*
X268940225Y-77472304D02*
X268940225Y-76634209D01*
X268940225Y-76634209D02*
X268868796Y-76424685D01*
X268868796Y-76424685D02*
X268797368Y-76319923D01*
X268797368Y-76319923D02*
X268654510Y-76215161D01*
X268654510Y-76215161D02*
X268368796Y-76215161D01*
X268368796Y-76215161D02*
X268225939Y-76319923D01*
X268225939Y-76319923D02*
X268154510Y-76424685D01*
X268154510Y-76424685D02*
X268083082Y-76634209D01*
X268083082Y-76634209D02*
X268083082Y-77158019D01*
X268083082Y-77158019D02*
X268154510Y-77367542D01*
X268154510Y-77367542D02*
X268225939Y-77472304D01*
X268225939Y-77472304D02*
X268368796Y-77577066D01*
X268368796Y-77577066D02*
X268654510Y-77577066D01*
X268654510Y-77577066D02*
X268797368Y-77472304D01*
X268797368Y-77472304D02*
X268868796Y-77367542D01*
X268868796Y-77367542D02*
X268940225Y-77158019D01*
X235054510Y-36626248D02*
X235054510Y-35126248D01*
X235054510Y-35126248D02*
X235554510Y-36197677D01*
X235554510Y-36197677D02*
X236054510Y-35126248D01*
X236054510Y-35126248D02*
X236054510Y-36626248D01*
X236983082Y-36626248D02*
X236840225Y-36554820D01*
X236840225Y-36554820D02*
X236768796Y-36483391D01*
X236768796Y-36483391D02*
X236697368Y-36340534D01*
X236697368Y-36340534D02*
X236697368Y-35911962D01*
X236697368Y-35911962D02*
X236768796Y-35769105D01*
X236768796Y-35769105D02*
X236840225Y-35697677D01*
X236840225Y-35697677D02*
X236983082Y-35626248D01*
X236983082Y-35626248D02*
X237197368Y-35626248D01*
X237197368Y-35626248D02*
X237340225Y-35697677D01*
X237340225Y-35697677D02*
X237411654Y-35769105D01*
X237411654Y-35769105D02*
X237483082Y-35911962D01*
X237483082Y-35911962D02*
X237483082Y-36340534D01*
X237483082Y-36340534D02*
X237411654Y-36483391D01*
X237411654Y-36483391D02*
X237340225Y-36554820D01*
X237340225Y-36554820D02*
X237197368Y-36626248D01*
X237197368Y-36626248D02*
X236983082Y-36626248D01*
X238125939Y-35626248D02*
X238125939Y-36911962D01*
X238125939Y-36911962D02*
X238054511Y-37054820D01*
X238054511Y-37054820D02*
X237911654Y-37126248D01*
X237911654Y-37126248D02*
X237840225Y-37126248D01*
X238125939Y-35126248D02*
X238054511Y-35197677D01*
X238054511Y-35197677D02*
X238125939Y-35269105D01*
X238125939Y-35269105D02*
X238197368Y-35197677D01*
X238197368Y-35197677D02*
X238125939Y-35126248D01*
X238125939Y-35126248D02*
X238125939Y-35269105D01*
X239054511Y-36626248D02*
X238911654Y-36554820D01*
X238911654Y-36554820D02*
X238840225Y-36483391D01*
X238840225Y-36483391D02*
X238768797Y-36340534D01*
X238768797Y-36340534D02*
X238768797Y-35911962D01*
X238768797Y-35911962D02*
X238840225Y-35769105D01*
X238840225Y-35769105D02*
X238911654Y-35697677D01*
X238911654Y-35697677D02*
X239054511Y-35626248D01*
X239054511Y-35626248D02*
X239268797Y-35626248D01*
X239268797Y-35626248D02*
X239411654Y-35697677D01*
X239411654Y-35697677D02*
X239483083Y-35769105D01*
X239483083Y-35769105D02*
X239554511Y-35911962D01*
X239554511Y-35911962D02*
X239554511Y-36340534D01*
X239554511Y-36340534D02*
X239483083Y-36483391D01*
X239483083Y-36483391D02*
X239411654Y-36554820D01*
X239411654Y-36554820D02*
X239268797Y-36626248D01*
X239268797Y-36626248D02*
X239054511Y-36626248D01*
X239983083Y-35126248D02*
X240483083Y-36626248D01*
X240483083Y-36626248D02*
X240983083Y-35126248D01*
X241340225Y-35126248D02*
X242268797Y-35126248D01*
X242268797Y-35126248D02*
X241768797Y-35697677D01*
X241768797Y-35697677D02*
X241983082Y-35697677D01*
X241983082Y-35697677D02*
X242125940Y-35769105D01*
X242125940Y-35769105D02*
X242197368Y-35840534D01*
X242197368Y-35840534D02*
X242268797Y-35983391D01*
X242268797Y-35983391D02*
X242268797Y-36340534D01*
X242268797Y-36340534D02*
X242197368Y-36483391D01*
X242197368Y-36483391D02*
X242125940Y-36554820D01*
X242125940Y-36554820D02*
X241983082Y-36626248D01*
X241983082Y-36626248D02*
X241554511Y-36626248D01*
X241554511Y-36626248D02*
X241411654Y-36554820D01*
X241411654Y-36554820D02*
X241340225Y-36483391D01*
X244054510Y-36626248D02*
X244054510Y-35126248D01*
X244054510Y-35840534D02*
X244911653Y-35840534D01*
X244911653Y-36626248D02*
X244911653Y-35126248D01*
X245625939Y-36626248D02*
X245625939Y-35126248D01*
X245625939Y-35126248D02*
X245983082Y-35126248D01*
X245983082Y-35126248D02*
X246197368Y-35197677D01*
X246197368Y-35197677D02*
X246340225Y-35340534D01*
X246340225Y-35340534D02*
X246411654Y-35483391D01*
X246411654Y-35483391D02*
X246483082Y-35769105D01*
X246483082Y-35769105D02*
X246483082Y-35983391D01*
X246483082Y-35983391D02*
X246411654Y-36269105D01*
X246411654Y-36269105D02*
X246340225Y-36411962D01*
X246340225Y-36411962D02*
X246197368Y-36554820D01*
X246197368Y-36554820D02*
X245983082Y-36626248D01*
X245983082Y-36626248D02*
X245625939Y-36626248D01*
X247125939Y-36626248D02*
X247125939Y-35126248D01*
X247125939Y-35126248D02*
X247625939Y-36197677D01*
X247625939Y-36197677D02*
X248125939Y-35126248D01*
X248125939Y-35126248D02*
X248125939Y-36626248D01*
X248840225Y-36626248D02*
X248840225Y-35126248D01*
X251340226Y-36554820D02*
X251197368Y-36626248D01*
X251197368Y-36626248D02*
X250911654Y-36626248D01*
X250911654Y-36626248D02*
X250768797Y-36554820D01*
X250768797Y-36554820D02*
X250697368Y-36483391D01*
X250697368Y-36483391D02*
X250625940Y-36340534D01*
X250625940Y-36340534D02*
X250625940Y-35911962D01*
X250625940Y-35911962D02*
X250697368Y-35769105D01*
X250697368Y-35769105D02*
X250768797Y-35697677D01*
X250768797Y-35697677D02*
X250911654Y-35626248D01*
X250911654Y-35626248D02*
X251197368Y-35626248D01*
X251197368Y-35626248D02*
X251340226Y-35697677D01*
X252197368Y-36626248D02*
X252054511Y-36554820D01*
X252054511Y-36554820D02*
X251983082Y-36411962D01*
X251983082Y-36411962D02*
X251983082Y-35126248D01*
X252983082Y-36626248D02*
X252840225Y-36554820D01*
X252840225Y-36554820D02*
X252768796Y-36483391D01*
X252768796Y-36483391D02*
X252697368Y-36340534D01*
X252697368Y-36340534D02*
X252697368Y-35911962D01*
X252697368Y-35911962D02*
X252768796Y-35769105D01*
X252768796Y-35769105D02*
X252840225Y-35697677D01*
X252840225Y-35697677D02*
X252983082Y-35626248D01*
X252983082Y-35626248D02*
X253197368Y-35626248D01*
X253197368Y-35626248D02*
X253340225Y-35697677D01*
X253340225Y-35697677D02*
X253411654Y-35769105D01*
X253411654Y-35769105D02*
X253483082Y-35911962D01*
X253483082Y-35911962D02*
X253483082Y-36340534D01*
X253483082Y-36340534D02*
X253411654Y-36483391D01*
X253411654Y-36483391D02*
X253340225Y-36554820D01*
X253340225Y-36554820D02*
X253197368Y-36626248D01*
X253197368Y-36626248D02*
X252983082Y-36626248D01*
X254768797Y-36554820D02*
X254625939Y-36626248D01*
X254625939Y-36626248D02*
X254340225Y-36626248D01*
X254340225Y-36626248D02*
X254197368Y-36554820D01*
X254197368Y-36554820D02*
X254125939Y-36483391D01*
X254125939Y-36483391D02*
X254054511Y-36340534D01*
X254054511Y-36340534D02*
X254054511Y-35911962D01*
X254054511Y-35911962D02*
X254125939Y-35769105D01*
X254125939Y-35769105D02*
X254197368Y-35697677D01*
X254197368Y-35697677D02*
X254340225Y-35626248D01*
X254340225Y-35626248D02*
X254625939Y-35626248D01*
X254625939Y-35626248D02*
X254768797Y-35697677D01*
X255411653Y-36626248D02*
X255411653Y-35126248D01*
X255554511Y-36054820D02*
X255983082Y-36626248D01*
X255983082Y-35626248D02*
X255411653Y-36197677D01*
X258411654Y-36626248D02*
X258411654Y-35840534D01*
X258411654Y-35840534D02*
X258340225Y-35697677D01*
X258340225Y-35697677D02*
X258197368Y-35626248D01*
X258197368Y-35626248D02*
X257911654Y-35626248D01*
X257911654Y-35626248D02*
X257768796Y-35697677D01*
X258411654Y-36554820D02*
X258268796Y-36626248D01*
X258268796Y-36626248D02*
X257911654Y-36626248D01*
X257911654Y-36626248D02*
X257768796Y-36554820D01*
X257768796Y-36554820D02*
X257697368Y-36411962D01*
X257697368Y-36411962D02*
X257697368Y-36269105D01*
X257697368Y-36269105D02*
X257768796Y-36126248D01*
X257768796Y-36126248D02*
X257911654Y-36054820D01*
X257911654Y-36054820D02*
X258268796Y-36054820D01*
X258268796Y-36054820D02*
X258411654Y-35983391D01*
X259125939Y-35626248D02*
X259125939Y-36626248D01*
X259125939Y-35769105D02*
X259197368Y-35697677D01*
X259197368Y-35697677D02*
X259340225Y-35626248D01*
X259340225Y-35626248D02*
X259554511Y-35626248D01*
X259554511Y-35626248D02*
X259697368Y-35697677D01*
X259697368Y-35697677D02*
X259768797Y-35840534D01*
X259768797Y-35840534D02*
X259768797Y-36626248D01*
X261125940Y-36626248D02*
X261125940Y-35126248D01*
X261125940Y-36554820D02*
X260983082Y-36626248D01*
X260983082Y-36626248D02*
X260697368Y-36626248D01*
X260697368Y-36626248D02*
X260554511Y-36554820D01*
X260554511Y-36554820D02*
X260483082Y-36483391D01*
X260483082Y-36483391D02*
X260411654Y-36340534D01*
X260411654Y-36340534D02*
X260411654Y-35911962D01*
X260411654Y-35911962D02*
X260483082Y-35769105D01*
X260483082Y-35769105D02*
X260554511Y-35697677D01*
X260554511Y-35697677D02*
X260697368Y-35626248D01*
X260697368Y-35626248D02*
X260983082Y-35626248D01*
X260983082Y-35626248D02*
X261125940Y-35697677D01*
X235911653Y-38898307D02*
X235840225Y-38969736D01*
X235840225Y-38969736D02*
X235625939Y-39041164D01*
X235625939Y-39041164D02*
X235483082Y-39041164D01*
X235483082Y-39041164D02*
X235268796Y-38969736D01*
X235268796Y-38969736D02*
X235125939Y-38826878D01*
X235125939Y-38826878D02*
X235054510Y-38684021D01*
X235054510Y-38684021D02*
X234983082Y-38398307D01*
X234983082Y-38398307D02*
X234983082Y-38184021D01*
X234983082Y-38184021D02*
X235054510Y-37898307D01*
X235054510Y-37898307D02*
X235125939Y-37755450D01*
X235125939Y-37755450D02*
X235268796Y-37612593D01*
X235268796Y-37612593D02*
X235483082Y-37541164D01*
X235483082Y-37541164D02*
X235625939Y-37541164D01*
X235625939Y-37541164D02*
X235840225Y-37612593D01*
X235840225Y-37612593D02*
X235911653Y-37684021D01*
X237197368Y-39041164D02*
X237197368Y-38255450D01*
X237197368Y-38255450D02*
X237125939Y-38112593D01*
X237125939Y-38112593D02*
X236983082Y-38041164D01*
X236983082Y-38041164D02*
X236697368Y-38041164D01*
X236697368Y-38041164D02*
X236554510Y-38112593D01*
X237197368Y-38969736D02*
X237054510Y-39041164D01*
X237054510Y-39041164D02*
X236697368Y-39041164D01*
X236697368Y-39041164D02*
X236554510Y-38969736D01*
X236554510Y-38969736D02*
X236483082Y-38826878D01*
X236483082Y-38826878D02*
X236483082Y-38684021D01*
X236483082Y-38684021D02*
X236554510Y-38541164D01*
X236554510Y-38541164D02*
X236697368Y-38469736D01*
X236697368Y-38469736D02*
X237054510Y-38469736D01*
X237054510Y-38469736D02*
X237197368Y-38398307D01*
X237911653Y-39041164D02*
X237911653Y-38041164D01*
X237911653Y-38184021D02*
X237983082Y-38112593D01*
X237983082Y-38112593D02*
X238125939Y-38041164D01*
X238125939Y-38041164D02*
X238340225Y-38041164D01*
X238340225Y-38041164D02*
X238483082Y-38112593D01*
X238483082Y-38112593D02*
X238554511Y-38255450D01*
X238554511Y-38255450D02*
X238554511Y-39041164D01*
X238554511Y-38255450D02*
X238625939Y-38112593D01*
X238625939Y-38112593D02*
X238768796Y-38041164D01*
X238768796Y-38041164D02*
X238983082Y-38041164D01*
X238983082Y-38041164D02*
X239125939Y-38112593D01*
X239125939Y-38112593D02*
X239197368Y-38255450D01*
X239197368Y-38255450D02*
X239197368Y-39041164D01*
X240483082Y-38969736D02*
X240340225Y-39041164D01*
X240340225Y-39041164D02*
X240054511Y-39041164D01*
X240054511Y-39041164D02*
X239911653Y-38969736D01*
X239911653Y-38969736D02*
X239840225Y-38826878D01*
X239840225Y-38826878D02*
X239840225Y-38255450D01*
X239840225Y-38255450D02*
X239911653Y-38112593D01*
X239911653Y-38112593D02*
X240054511Y-38041164D01*
X240054511Y-38041164D02*
X240340225Y-38041164D01*
X240340225Y-38041164D02*
X240483082Y-38112593D01*
X240483082Y-38112593D02*
X240554511Y-38255450D01*
X240554511Y-38255450D02*
X240554511Y-38398307D01*
X240554511Y-38398307D02*
X239840225Y-38541164D01*
X241197367Y-39041164D02*
X241197367Y-38041164D01*
X241197367Y-38326878D02*
X241268796Y-38184021D01*
X241268796Y-38184021D02*
X241340225Y-38112593D01*
X241340225Y-38112593D02*
X241483082Y-38041164D01*
X241483082Y-38041164D02*
X241625939Y-38041164D01*
X242768796Y-39041164D02*
X242768796Y-38255450D01*
X242768796Y-38255450D02*
X242697367Y-38112593D01*
X242697367Y-38112593D02*
X242554510Y-38041164D01*
X242554510Y-38041164D02*
X242268796Y-38041164D01*
X242268796Y-38041164D02*
X242125938Y-38112593D01*
X242768796Y-38969736D02*
X242625938Y-39041164D01*
X242625938Y-39041164D02*
X242268796Y-39041164D01*
X242268796Y-39041164D02*
X242125938Y-38969736D01*
X242125938Y-38969736D02*
X242054510Y-38826878D01*
X242054510Y-38826878D02*
X242054510Y-38684021D01*
X242054510Y-38684021D02*
X242125938Y-38541164D01*
X242125938Y-38541164D02*
X242268796Y-38469736D01*
X242268796Y-38469736D02*
X242625938Y-38469736D01*
X242625938Y-38469736D02*
X242768796Y-38398307D01*
X244411653Y-38041164D02*
X244983081Y-38041164D01*
X244625938Y-37541164D02*
X244625938Y-38826878D01*
X244625938Y-38826878D02*
X244697367Y-38969736D01*
X244697367Y-38969736D02*
X244840224Y-39041164D01*
X244840224Y-39041164D02*
X244983081Y-39041164D01*
X245483081Y-39041164D02*
X245483081Y-38041164D01*
X245483081Y-38326878D02*
X245554510Y-38184021D01*
X245554510Y-38184021D02*
X245625939Y-38112593D01*
X245625939Y-38112593D02*
X245768796Y-38041164D01*
X245768796Y-38041164D02*
X245911653Y-38041164D01*
X246411652Y-39041164D02*
X246411652Y-38041164D01*
X246411652Y-37541164D02*
X246340224Y-37612593D01*
X246340224Y-37612593D02*
X246411652Y-37684021D01*
X246411652Y-37684021D02*
X246483081Y-37612593D01*
X246483081Y-37612593D02*
X246411652Y-37541164D01*
X246411652Y-37541164D02*
X246411652Y-37684021D01*
X247768796Y-38041164D02*
X247768796Y-39255450D01*
X247768796Y-39255450D02*
X247697367Y-39398307D01*
X247697367Y-39398307D02*
X247625938Y-39469736D01*
X247625938Y-39469736D02*
X247483081Y-39541164D01*
X247483081Y-39541164D02*
X247268796Y-39541164D01*
X247268796Y-39541164D02*
X247125938Y-39469736D01*
X247768796Y-38969736D02*
X247625938Y-39041164D01*
X247625938Y-39041164D02*
X247340224Y-39041164D01*
X247340224Y-39041164D02*
X247197367Y-38969736D01*
X247197367Y-38969736D02*
X247125938Y-38898307D01*
X247125938Y-38898307D02*
X247054510Y-38755450D01*
X247054510Y-38755450D02*
X247054510Y-38326878D01*
X247054510Y-38326878D02*
X247125938Y-38184021D01*
X247125938Y-38184021D02*
X247197367Y-38112593D01*
X247197367Y-38112593D02*
X247340224Y-38041164D01*
X247340224Y-38041164D02*
X247625938Y-38041164D01*
X247625938Y-38041164D02*
X247768796Y-38112593D01*
X249125939Y-38041164D02*
X249125939Y-39255450D01*
X249125939Y-39255450D02*
X249054510Y-39398307D01*
X249054510Y-39398307D02*
X248983081Y-39469736D01*
X248983081Y-39469736D02*
X248840224Y-39541164D01*
X248840224Y-39541164D02*
X248625939Y-39541164D01*
X248625939Y-39541164D02*
X248483081Y-39469736D01*
X249125939Y-38969736D02*
X248983081Y-39041164D01*
X248983081Y-39041164D02*
X248697367Y-39041164D01*
X248697367Y-39041164D02*
X248554510Y-38969736D01*
X248554510Y-38969736D02*
X248483081Y-38898307D01*
X248483081Y-38898307D02*
X248411653Y-38755450D01*
X248411653Y-38755450D02*
X248411653Y-38326878D01*
X248411653Y-38326878D02*
X248483081Y-38184021D01*
X248483081Y-38184021D02*
X248554510Y-38112593D01*
X248554510Y-38112593D02*
X248697367Y-38041164D01*
X248697367Y-38041164D02*
X248983081Y-38041164D01*
X248983081Y-38041164D02*
X249125939Y-38112593D01*
X250411653Y-38969736D02*
X250268796Y-39041164D01*
X250268796Y-39041164D02*
X249983082Y-39041164D01*
X249983082Y-39041164D02*
X249840224Y-38969736D01*
X249840224Y-38969736D02*
X249768796Y-38826878D01*
X249768796Y-38826878D02*
X249768796Y-38255450D01*
X249768796Y-38255450D02*
X249840224Y-38112593D01*
X249840224Y-38112593D02*
X249983082Y-38041164D01*
X249983082Y-38041164D02*
X250268796Y-38041164D01*
X250268796Y-38041164D02*
X250411653Y-38112593D01*
X250411653Y-38112593D02*
X250483082Y-38255450D01*
X250483082Y-38255450D02*
X250483082Y-38398307D01*
X250483082Y-38398307D02*
X249768796Y-38541164D01*
X251125938Y-39041164D02*
X251125938Y-38041164D01*
X251125938Y-38326878D02*
X251197367Y-38184021D01*
X251197367Y-38184021D02*
X251268796Y-38112593D01*
X251268796Y-38112593D02*
X251411653Y-38041164D01*
X251411653Y-38041164D02*
X251554510Y-38041164D01*
X253197366Y-39041164D02*
X253197366Y-38041164D01*
X253197366Y-37541164D02*
X253125938Y-37612593D01*
X253125938Y-37612593D02*
X253197366Y-37684021D01*
X253197366Y-37684021D02*
X253268795Y-37612593D01*
X253268795Y-37612593D02*
X253197366Y-37541164D01*
X253197366Y-37541164D02*
X253197366Y-37684021D01*
X253911652Y-38041164D02*
X253911652Y-39041164D01*
X253911652Y-38184021D02*
X253983081Y-38112593D01*
X253983081Y-38112593D02*
X254125938Y-38041164D01*
X254125938Y-38041164D02*
X254340224Y-38041164D01*
X254340224Y-38041164D02*
X254483081Y-38112593D01*
X254483081Y-38112593D02*
X254554510Y-38255450D01*
X254554510Y-38255450D02*
X254554510Y-39041164D01*
X255054510Y-38041164D02*
X255625938Y-38041164D01*
X255268795Y-37541164D02*
X255268795Y-38826878D01*
X255268795Y-38826878D02*
X255340224Y-38969736D01*
X255340224Y-38969736D02*
X255483081Y-39041164D01*
X255483081Y-39041164D02*
X255625938Y-39041164D01*
X256697367Y-38969736D02*
X256554510Y-39041164D01*
X256554510Y-39041164D02*
X256268796Y-39041164D01*
X256268796Y-39041164D02*
X256125938Y-38969736D01*
X256125938Y-38969736D02*
X256054510Y-38826878D01*
X256054510Y-38826878D02*
X256054510Y-38255450D01*
X256054510Y-38255450D02*
X256125938Y-38112593D01*
X256125938Y-38112593D02*
X256268796Y-38041164D01*
X256268796Y-38041164D02*
X256554510Y-38041164D01*
X256554510Y-38041164D02*
X256697367Y-38112593D01*
X256697367Y-38112593D02*
X256768796Y-38255450D01*
X256768796Y-38255450D02*
X256768796Y-38398307D01*
X256768796Y-38398307D02*
X256054510Y-38541164D01*
X257411652Y-39041164D02*
X257411652Y-38041164D01*
X257411652Y-38326878D02*
X257483081Y-38184021D01*
X257483081Y-38184021D02*
X257554510Y-38112593D01*
X257554510Y-38112593D02*
X257697367Y-38041164D01*
X257697367Y-38041164D02*
X257840224Y-38041164D01*
X258125938Y-38041164D02*
X258697366Y-38041164D01*
X258340223Y-39041164D02*
X258340223Y-37755450D01*
X258340223Y-37755450D02*
X258411652Y-37612593D01*
X258411652Y-37612593D02*
X258554509Y-37541164D01*
X258554509Y-37541164D02*
X258697366Y-37541164D01*
X259840224Y-39041164D02*
X259840224Y-38255450D01*
X259840224Y-38255450D02*
X259768795Y-38112593D01*
X259768795Y-38112593D02*
X259625938Y-38041164D01*
X259625938Y-38041164D02*
X259340224Y-38041164D01*
X259340224Y-38041164D02*
X259197366Y-38112593D01*
X259840224Y-38969736D02*
X259697366Y-39041164D01*
X259697366Y-39041164D02*
X259340224Y-39041164D01*
X259340224Y-39041164D02*
X259197366Y-38969736D01*
X259197366Y-38969736D02*
X259125938Y-38826878D01*
X259125938Y-38826878D02*
X259125938Y-38684021D01*
X259125938Y-38684021D02*
X259197366Y-38541164D01*
X259197366Y-38541164D02*
X259340224Y-38469736D01*
X259340224Y-38469736D02*
X259697366Y-38469736D01*
X259697366Y-38469736D02*
X259840224Y-38398307D01*
X261197367Y-38969736D02*
X261054509Y-39041164D01*
X261054509Y-39041164D02*
X260768795Y-39041164D01*
X260768795Y-39041164D02*
X260625938Y-38969736D01*
X260625938Y-38969736D02*
X260554509Y-38898307D01*
X260554509Y-38898307D02*
X260483081Y-38755450D01*
X260483081Y-38755450D02*
X260483081Y-38326878D01*
X260483081Y-38326878D02*
X260554509Y-38184021D01*
X260554509Y-38184021D02*
X260625938Y-38112593D01*
X260625938Y-38112593D02*
X260768795Y-38041164D01*
X260768795Y-38041164D02*
X261054509Y-38041164D01*
X261054509Y-38041164D02*
X261197367Y-38112593D01*
X262411652Y-38969736D02*
X262268795Y-39041164D01*
X262268795Y-39041164D02*
X261983081Y-39041164D01*
X261983081Y-39041164D02*
X261840223Y-38969736D01*
X261840223Y-38969736D02*
X261768795Y-38826878D01*
X261768795Y-38826878D02*
X261768795Y-38255450D01*
X261768795Y-38255450D02*
X261840223Y-38112593D01*
X261840223Y-38112593D02*
X261983081Y-38041164D01*
X261983081Y-38041164D02*
X262268795Y-38041164D01*
X262268795Y-38041164D02*
X262411652Y-38112593D01*
X262411652Y-38112593D02*
X262483081Y-38255450D01*
X262483081Y-38255450D02*
X262483081Y-38398307D01*
X262483081Y-38398307D02*
X261768795Y-38541164D01*
X264268794Y-39041164D02*
X264268794Y-37541164D01*
X264268794Y-37541164D02*
X264840223Y-37541164D01*
X264840223Y-37541164D02*
X264983080Y-37612593D01*
X264983080Y-37612593D02*
X265054509Y-37684021D01*
X265054509Y-37684021D02*
X265125937Y-37826878D01*
X265125937Y-37826878D02*
X265125937Y-38041164D01*
X265125937Y-38041164D02*
X265054509Y-38184021D01*
X265054509Y-38184021D02*
X264983080Y-38255450D01*
X264983080Y-38255450D02*
X264840223Y-38326878D01*
X264840223Y-38326878D02*
X264268794Y-38326878D01*
X266625937Y-38898307D02*
X266554509Y-38969736D01*
X266554509Y-38969736D02*
X266340223Y-39041164D01*
X266340223Y-39041164D02*
X266197366Y-39041164D01*
X266197366Y-39041164D02*
X265983080Y-38969736D01*
X265983080Y-38969736D02*
X265840223Y-38826878D01*
X265840223Y-38826878D02*
X265768794Y-38684021D01*
X265768794Y-38684021D02*
X265697366Y-38398307D01*
X265697366Y-38398307D02*
X265697366Y-38184021D01*
X265697366Y-38184021D02*
X265768794Y-37898307D01*
X265768794Y-37898307D02*
X265840223Y-37755450D01*
X265840223Y-37755450D02*
X265983080Y-37612593D01*
X265983080Y-37612593D02*
X266197366Y-37541164D01*
X266197366Y-37541164D02*
X266340223Y-37541164D01*
X266340223Y-37541164D02*
X266554509Y-37612593D01*
X266554509Y-37612593D02*
X266625937Y-37684021D01*
X267768794Y-38255450D02*
X267983080Y-38326878D01*
X267983080Y-38326878D02*
X268054509Y-38398307D01*
X268054509Y-38398307D02*
X268125937Y-38541164D01*
X268125937Y-38541164D02*
X268125937Y-38755450D01*
X268125937Y-38755450D02*
X268054509Y-38898307D01*
X268054509Y-38898307D02*
X267983080Y-38969736D01*
X267983080Y-38969736D02*
X267840223Y-39041164D01*
X267840223Y-39041164D02*
X267268794Y-39041164D01*
X267268794Y-39041164D02*
X267268794Y-37541164D01*
X267268794Y-37541164D02*
X267768794Y-37541164D01*
X267768794Y-37541164D02*
X267911652Y-37612593D01*
X267911652Y-37612593D02*
X267983080Y-37684021D01*
X267983080Y-37684021D02*
X268054509Y-37826878D01*
X268054509Y-37826878D02*
X268054509Y-37969736D01*
X268054509Y-37969736D02*
X267983080Y-38112593D01*
X267983080Y-38112593D02*
X267911652Y-38184021D01*
X267911652Y-38184021D02*
X267768794Y-38255450D01*
X267768794Y-38255450D02*
X267268794Y-38255450D01*
X235054510Y-41456080D02*
X235054510Y-39956080D01*
X235054510Y-39956080D02*
X235554510Y-41027509D01*
X235554510Y-41027509D02*
X236054510Y-39956080D01*
X236054510Y-39956080D02*
X236054510Y-41456080D01*
X237411654Y-41456080D02*
X237411654Y-40670366D01*
X237411654Y-40670366D02*
X237340225Y-40527509D01*
X237340225Y-40527509D02*
X237197368Y-40456080D01*
X237197368Y-40456080D02*
X236911654Y-40456080D01*
X236911654Y-40456080D02*
X236768796Y-40527509D01*
X237411654Y-41384652D02*
X237268796Y-41456080D01*
X237268796Y-41456080D02*
X236911654Y-41456080D01*
X236911654Y-41456080D02*
X236768796Y-41384652D01*
X236768796Y-41384652D02*
X236697368Y-41241794D01*
X236697368Y-41241794D02*
X236697368Y-41098937D01*
X236697368Y-41098937D02*
X236768796Y-40956080D01*
X236768796Y-40956080D02*
X236911654Y-40884652D01*
X236911654Y-40884652D02*
X237268796Y-40884652D01*
X237268796Y-40884652D02*
X237411654Y-40813223D01*
X237983082Y-40456080D02*
X238340225Y-41456080D01*
X238697368Y-40456080D02*
X238340225Y-41456080D01*
X238340225Y-41456080D02*
X238197368Y-41813223D01*
X238197368Y-41813223D02*
X238125939Y-41884652D01*
X238125939Y-41884652D02*
X237983082Y-41956080D01*
X240340225Y-40098937D02*
X240411653Y-40027509D01*
X240411653Y-40027509D02*
X240554511Y-39956080D01*
X240554511Y-39956080D02*
X240911653Y-39956080D01*
X240911653Y-39956080D02*
X241054511Y-40027509D01*
X241054511Y-40027509D02*
X241125939Y-40098937D01*
X241125939Y-40098937D02*
X241197368Y-40241794D01*
X241197368Y-40241794D02*
X241197368Y-40384652D01*
X241197368Y-40384652D02*
X241125939Y-40598937D01*
X241125939Y-40598937D02*
X240268796Y-41456080D01*
X240268796Y-41456080D02*
X241197368Y-41456080D01*
X242125939Y-39956080D02*
X242268796Y-39956080D01*
X242268796Y-39956080D02*
X242411653Y-40027509D01*
X242411653Y-40027509D02*
X242483082Y-40098937D01*
X242483082Y-40098937D02*
X242554510Y-40241794D01*
X242554510Y-40241794D02*
X242625939Y-40527509D01*
X242625939Y-40527509D02*
X242625939Y-40884652D01*
X242625939Y-40884652D02*
X242554510Y-41170366D01*
X242554510Y-41170366D02*
X242483082Y-41313223D01*
X242483082Y-41313223D02*
X242411653Y-41384652D01*
X242411653Y-41384652D02*
X242268796Y-41456080D01*
X242268796Y-41456080D02*
X242125939Y-41456080D01*
X242125939Y-41456080D02*
X241983082Y-41384652D01*
X241983082Y-41384652D02*
X241911653Y-41313223D01*
X241911653Y-41313223D02*
X241840224Y-41170366D01*
X241840224Y-41170366D02*
X241768796Y-40884652D01*
X241768796Y-40884652D02*
X241768796Y-40527509D01*
X241768796Y-40527509D02*
X241840224Y-40241794D01*
X241840224Y-40241794D02*
X241911653Y-40098937D01*
X241911653Y-40098937D02*
X241983082Y-40027509D01*
X241983082Y-40027509D02*
X242125939Y-39956080D01*
X243197367Y-40098937D02*
X243268795Y-40027509D01*
X243268795Y-40027509D02*
X243411653Y-39956080D01*
X243411653Y-39956080D02*
X243768795Y-39956080D01*
X243768795Y-39956080D02*
X243911653Y-40027509D01*
X243911653Y-40027509D02*
X243983081Y-40098937D01*
X243983081Y-40098937D02*
X244054510Y-40241794D01*
X244054510Y-40241794D02*
X244054510Y-40384652D01*
X244054510Y-40384652D02*
X243983081Y-40598937D01*
X243983081Y-40598937D02*
X243125938Y-41456080D01*
X243125938Y-41456080D02*
X244054510Y-41456080D01*
X245340224Y-40456080D02*
X245340224Y-41456080D01*
X244983081Y-39884652D02*
X244625938Y-40956080D01*
X244625938Y-40956080D02*
X245554509Y-40956080D01*
X235054510Y-43870996D02*
X235054510Y-42370996D01*
X235054510Y-42370996D02*
X235411653Y-42370996D01*
X235411653Y-42370996D02*
X235625939Y-42442425D01*
X235625939Y-42442425D02*
X235768796Y-42585282D01*
X235768796Y-42585282D02*
X235840225Y-42728139D01*
X235840225Y-42728139D02*
X235911653Y-43013853D01*
X235911653Y-43013853D02*
X235911653Y-43228139D01*
X235911653Y-43228139D02*
X235840225Y-43513853D01*
X235840225Y-43513853D02*
X235768796Y-43656710D01*
X235768796Y-43656710D02*
X235625939Y-43799568D01*
X235625939Y-43799568D02*
X235411653Y-43870996D01*
X235411653Y-43870996D02*
X235054510Y-43870996D01*
X237197368Y-43870996D02*
X237197368Y-43085282D01*
X237197368Y-43085282D02*
X237125939Y-42942425D01*
X237125939Y-42942425D02*
X236983082Y-42870996D01*
X236983082Y-42870996D02*
X236697368Y-42870996D01*
X236697368Y-42870996D02*
X236554510Y-42942425D01*
X237197368Y-43799568D02*
X237054510Y-43870996D01*
X237054510Y-43870996D02*
X236697368Y-43870996D01*
X236697368Y-43870996D02*
X236554510Y-43799568D01*
X236554510Y-43799568D02*
X236483082Y-43656710D01*
X236483082Y-43656710D02*
X236483082Y-43513853D01*
X236483082Y-43513853D02*
X236554510Y-43370996D01*
X236554510Y-43370996D02*
X236697368Y-43299568D01*
X236697368Y-43299568D02*
X237054510Y-43299568D01*
X237054510Y-43299568D02*
X237197368Y-43228139D01*
X237911653Y-42870996D02*
X237911653Y-43870996D01*
X237911653Y-43013853D02*
X237983082Y-42942425D01*
X237983082Y-42942425D02*
X238125939Y-42870996D01*
X238125939Y-42870996D02*
X238340225Y-42870996D01*
X238340225Y-42870996D02*
X238483082Y-42942425D01*
X238483082Y-42942425D02*
X238554511Y-43085282D01*
X238554511Y-43085282D02*
X238554511Y-43870996D01*
X241125939Y-43870996D02*
X240411653Y-43870996D01*
X240411653Y-43870996D02*
X240411653Y-42370996D01*
X242268797Y-43870996D02*
X242268797Y-43085282D01*
X242268797Y-43085282D02*
X242197368Y-42942425D01*
X242197368Y-42942425D02*
X242054511Y-42870996D01*
X242054511Y-42870996D02*
X241768797Y-42870996D01*
X241768797Y-42870996D02*
X241625939Y-42942425D01*
X242268797Y-43799568D02*
X242125939Y-43870996D01*
X242125939Y-43870996D02*
X241768797Y-43870996D01*
X241768797Y-43870996D02*
X241625939Y-43799568D01*
X241625939Y-43799568D02*
X241554511Y-43656710D01*
X241554511Y-43656710D02*
X241554511Y-43513853D01*
X241554511Y-43513853D02*
X241625939Y-43370996D01*
X241625939Y-43370996D02*
X241768797Y-43299568D01*
X241768797Y-43299568D02*
X242125939Y-43299568D01*
X242125939Y-43299568D02*
X242268797Y-43228139D01*
X243625940Y-42870996D02*
X243625940Y-43870996D01*
X242983082Y-42870996D02*
X242983082Y-43656710D01*
X242983082Y-43656710D02*
X243054511Y-43799568D01*
X243054511Y-43799568D02*
X243197368Y-43870996D01*
X243197368Y-43870996D02*
X243411654Y-43870996D01*
X243411654Y-43870996D02*
X243554511Y-43799568D01*
X243554511Y-43799568D02*
X243625940Y-43728139D01*
X235340225Y-45571626D02*
X235340225Y-46285912D01*
X234840225Y-44785912D02*
X235340225Y-45571626D01*
X235340225Y-45571626D02*
X235840225Y-44785912D01*
X236340224Y-46285912D02*
X236340224Y-45285912D01*
X236340224Y-44785912D02*
X236268796Y-44857341D01*
X236268796Y-44857341D02*
X236340224Y-44928769D01*
X236340224Y-44928769D02*
X236411653Y-44857341D01*
X236411653Y-44857341D02*
X236340224Y-44785912D01*
X236340224Y-44785912D02*
X236340224Y-44928769D01*
X237054510Y-45285912D02*
X237054510Y-46285912D01*
X237054510Y-45428769D02*
X237125939Y-45357341D01*
X237125939Y-45357341D02*
X237268796Y-45285912D01*
X237268796Y-45285912D02*
X237483082Y-45285912D01*
X237483082Y-45285912D02*
X237625939Y-45357341D01*
X237625939Y-45357341D02*
X237697368Y-45500198D01*
X237697368Y-45500198D02*
X237697368Y-46285912D01*
X239054511Y-45285912D02*
X239054511Y-46500198D01*
X239054511Y-46500198D02*
X238983082Y-46643055D01*
X238983082Y-46643055D02*
X238911653Y-46714484D01*
X238911653Y-46714484D02*
X238768796Y-46785912D01*
X238768796Y-46785912D02*
X238554511Y-46785912D01*
X238554511Y-46785912D02*
X238411653Y-46714484D01*
X239054511Y-46214484D02*
X238911653Y-46285912D01*
X238911653Y-46285912D02*
X238625939Y-46285912D01*
X238625939Y-46285912D02*
X238483082Y-46214484D01*
X238483082Y-46214484D02*
X238411653Y-46143055D01*
X238411653Y-46143055D02*
X238340225Y-46000198D01*
X238340225Y-46000198D02*
X238340225Y-45571626D01*
X238340225Y-45571626D02*
X238411653Y-45428769D01*
X238411653Y-45428769D02*
X238483082Y-45357341D01*
X238483082Y-45357341D02*
X238625939Y-45285912D01*
X238625939Y-45285912D02*
X238911653Y-45285912D01*
X238911653Y-45285912D02*
X239054511Y-45357341D01*
X241197368Y-45571626D02*
X241197368Y-46285912D01*
X240697368Y-44785912D02*
X241197368Y-45571626D01*
X241197368Y-45571626D02*
X241697368Y-44785912D01*
X242840225Y-45285912D02*
X242840225Y-46285912D01*
X242197367Y-45285912D02*
X242197367Y-46071626D01*
X242197367Y-46071626D02*
X242268796Y-46214484D01*
X242268796Y-46214484D02*
X242411653Y-46285912D01*
X242411653Y-46285912D02*
X242625939Y-46285912D01*
X242625939Y-46285912D02*
X242768796Y-46214484D01*
X242768796Y-46214484D02*
X242840225Y-46143055D01*
X235054510Y-48700828D02*
X235054510Y-47200828D01*
X235054510Y-47200828D02*
X235554510Y-48272257D01*
X235554510Y-48272257D02*
X236054510Y-47200828D01*
X236054510Y-47200828D02*
X236054510Y-48700828D01*
X237411654Y-48700828D02*
X237411654Y-47915114D01*
X237411654Y-47915114D02*
X237340225Y-47772257D01*
X237340225Y-47772257D02*
X237197368Y-47700828D01*
X237197368Y-47700828D02*
X236911654Y-47700828D01*
X236911654Y-47700828D02*
X236768796Y-47772257D01*
X237411654Y-48629400D02*
X237268796Y-48700828D01*
X237268796Y-48700828D02*
X236911654Y-48700828D01*
X236911654Y-48700828D02*
X236768796Y-48629400D01*
X236768796Y-48629400D02*
X236697368Y-48486542D01*
X236697368Y-48486542D02*
X236697368Y-48343685D01*
X236697368Y-48343685D02*
X236768796Y-48200828D01*
X236768796Y-48200828D02*
X236911654Y-48129400D01*
X236911654Y-48129400D02*
X237268796Y-48129400D01*
X237268796Y-48129400D02*
X237411654Y-48057971D01*
X237911654Y-47700828D02*
X238483082Y-47700828D01*
X238125939Y-47200828D02*
X238125939Y-48486542D01*
X238125939Y-48486542D02*
X238197368Y-48629400D01*
X238197368Y-48629400D02*
X238340225Y-48700828D01*
X238340225Y-48700828D02*
X238483082Y-48700828D01*
X238768797Y-47700828D02*
X239340225Y-47700828D01*
X238983082Y-47200828D02*
X238983082Y-48486542D01*
X238983082Y-48486542D02*
X239054511Y-48629400D01*
X239054511Y-48629400D02*
X239197368Y-48700828D01*
X239197368Y-48700828D02*
X239340225Y-48700828D01*
X241840225Y-48700828D02*
X241340225Y-47986542D01*
X240983082Y-48700828D02*
X240983082Y-47200828D01*
X240983082Y-47200828D02*
X241554511Y-47200828D01*
X241554511Y-47200828D02*
X241697368Y-47272257D01*
X241697368Y-47272257D02*
X241768797Y-47343685D01*
X241768797Y-47343685D02*
X241840225Y-47486542D01*
X241840225Y-47486542D02*
X241840225Y-47700828D01*
X241840225Y-47700828D02*
X241768797Y-47843685D01*
X241768797Y-47843685D02*
X241697368Y-47915114D01*
X241697368Y-47915114D02*
X241554511Y-47986542D01*
X241554511Y-47986542D02*
X240983082Y-47986542D01*
X243125940Y-47700828D02*
X243125940Y-48700828D01*
X242483082Y-47700828D02*
X242483082Y-48486542D01*
X242483082Y-48486542D02*
X242554511Y-48629400D01*
X242554511Y-48629400D02*
X242697368Y-48700828D01*
X242697368Y-48700828D02*
X242911654Y-48700828D01*
X242911654Y-48700828D02*
X243054511Y-48629400D01*
X243054511Y-48629400D02*
X243125940Y-48557971D01*
X243625940Y-47700828D02*
X244197368Y-47700828D01*
X243840225Y-48700828D02*
X243840225Y-47415114D01*
X243840225Y-47415114D02*
X243911654Y-47272257D01*
X243911654Y-47272257D02*
X244054511Y-47200828D01*
X244054511Y-47200828D02*
X244197368Y-47200828D01*
X244483083Y-47700828D02*
X245054511Y-47700828D01*
X244697368Y-48700828D02*
X244697368Y-47415114D01*
X244697368Y-47415114D02*
X244768797Y-47272257D01*
X244768797Y-47272257D02*
X244911654Y-47200828D01*
X244911654Y-47200828D02*
X245054511Y-47200828D01*
X245554511Y-47700828D02*
X245554511Y-48700828D01*
X245554511Y-47843685D02*
X245625940Y-47772257D01*
X245625940Y-47772257D02*
X245768797Y-47700828D01*
X245768797Y-47700828D02*
X245983083Y-47700828D01*
X245983083Y-47700828D02*
X246125940Y-47772257D01*
X246125940Y-47772257D02*
X246197369Y-47915114D01*
X246197369Y-47915114D02*
X246197369Y-48700828D01*
X247483083Y-48629400D02*
X247340226Y-48700828D01*
X247340226Y-48700828D02*
X247054512Y-48700828D01*
X247054512Y-48700828D02*
X246911654Y-48629400D01*
X246911654Y-48629400D02*
X246840226Y-48486542D01*
X246840226Y-48486542D02*
X246840226Y-47915114D01*
X246840226Y-47915114D02*
X246911654Y-47772257D01*
X246911654Y-47772257D02*
X247054512Y-47700828D01*
X247054512Y-47700828D02*
X247340226Y-47700828D01*
X247340226Y-47700828D02*
X247483083Y-47772257D01*
X247483083Y-47772257D02*
X247554512Y-47915114D01*
X247554512Y-47915114D02*
X247554512Y-48057971D01*
X247554512Y-48057971D02*
X246840226Y-48200828D01*
X248197368Y-48700828D02*
X248197368Y-47700828D01*
X248197368Y-47986542D02*
X248268797Y-47843685D01*
X248268797Y-47843685D02*
X248340226Y-47772257D01*
X248340226Y-47772257D02*
X248483083Y-47700828D01*
X248483083Y-47700828D02*
X248625940Y-47700828D01*
D11*
X203779981Y-62446666D02*
X203065696Y-62446666D01*
X203065696Y-62446666D02*
X202922839Y-62399047D01*
X202922839Y-62399047D02*
X202827601Y-62303809D01*
X202827601Y-62303809D02*
X202779981Y-62160952D01*
X202779981Y-62160952D02*
X202779981Y-62065714D01*
X202779981Y-63446666D02*
X202779981Y-62875238D01*
X202779981Y-63160952D02*
X203779981Y-63160952D01*
X203779981Y-63160952D02*
X203637124Y-63065714D01*
X203637124Y-63065714D02*
X203541886Y-62970476D01*
X203541886Y-62970476D02*
X203494267Y-62875238D01*
X217666666Y-36004819D02*
X217666666Y-36719104D01*
X217666666Y-36719104D02*
X217619047Y-36861961D01*
X217619047Y-36861961D02*
X217523809Y-36957200D01*
X217523809Y-36957200D02*
X217380952Y-37004819D01*
X217380952Y-37004819D02*
X217285714Y-37004819D01*
X218095238Y-36100057D02*
X218142857Y-36052438D01*
X218142857Y-36052438D02*
X218238095Y-36004819D01*
X218238095Y-36004819D02*
X218476190Y-36004819D01*
X218476190Y-36004819D02*
X218571428Y-36052438D01*
X218571428Y-36052438D02*
X218619047Y-36100057D01*
X218619047Y-36100057D02*
X218666666Y-36195295D01*
X218666666Y-36195295D02*
X218666666Y-36290533D01*
X218666666Y-36290533D02*
X218619047Y-36433390D01*
X218619047Y-36433390D02*
X218047619Y-37004819D01*
X218047619Y-37004819D02*
X218666666Y-37004819D01*
D12*
X207381801Y-47146300D02*
X186274401Y-47146300D01*
X186274401Y-47146300D02*
X186274401Y-78413700D01*
X207381801Y-78413700D02*
X207381801Y-47146300D01*
X186274401Y-78413700D02*
X207381801Y-78413700D01*
D13*
X206155801Y-46511300D02*
G75*
G02*
X205393801Y-46511300I-381000J0D01*
G01*
X205393801Y-46511300D02*
G75*
G02*
X206155801Y-46511300I381000J0D01*
G01*
D14*
X232380000Y-65000000D02*
X233150000Y-65000000D01*
X233150000Y-63630000D02*
X233150000Y-66370000D01*
X233150000Y-66370000D02*
X239690000Y-66370000D01*
X239690000Y-63630000D02*
X233150000Y-63630000D01*
X239690000Y-66370000D02*
X239690000Y-63630000D01*
X240460000Y-65000000D02*
X239690000Y-65000000D01*
X216670000Y-37550000D02*
X218000000Y-37550000D01*
X216670000Y-38880000D02*
X216670000Y-37550000D01*
X216670000Y-40150000D02*
X216670000Y-55450000D01*
X216670000Y-40150000D02*
X219330000Y-40150000D01*
X216670000Y-55450000D02*
X219330000Y-55450000D01*
X219330000Y-40150000D02*
X219330000Y-55450000D01*
X218380000Y-72000000D02*
X219150000Y-72000000D01*
X219150000Y-70630000D02*
X219150000Y-73370000D01*
X219150000Y-73370000D02*
X225690000Y-73370000D01*
X225690000Y-70630000D02*
X219150000Y-70630000D01*
X225690000Y-73370000D02*
X225690000Y-70630000D01*
X226460000Y-72000000D02*
X225690000Y-72000000D01*
X218380000Y-68500000D02*
X219150000Y-68500000D01*
X219150000Y-67130000D02*
X219150000Y-69870000D01*
X219150000Y-69870000D02*
X225690000Y-69870000D01*
X225690000Y-67130000D02*
X219150000Y-67130000D01*
X225690000Y-69870000D02*
X225690000Y-67130000D01*
X226460000Y-68500000D02*
X225690000Y-68500000D01*
X218380000Y-65000000D02*
X219150000Y-65000000D01*
X219150000Y-63630000D02*
X219150000Y-66370000D01*
X219150000Y-66370000D02*
X225690000Y-66370000D01*
X225690000Y-63630000D02*
X219150000Y-63630000D01*
X225690000Y-66370000D02*
X225690000Y-63630000D01*
X226460000Y-65000000D02*
X225690000Y-65000000D01*
X218380000Y-61500000D02*
X219150000Y-61500000D01*
X219150000Y-60130000D02*
X219150000Y-62870000D01*
X219150000Y-62870000D02*
X225690000Y-62870000D01*
X225690000Y-60130000D02*
X219150000Y-60130000D01*
X225690000Y-62870000D02*
X225690000Y-60130000D01*
X226460000Y-61500000D02*
X225690000Y-61500000D01*
X232380000Y-72000000D02*
X233150000Y-72000000D01*
X233150000Y-70630000D02*
X233150000Y-73370000D01*
X233150000Y-73370000D02*
X239690000Y-73370000D01*
X239690000Y-70630000D02*
X233150000Y-70630000D01*
X239690000Y-73370000D02*
X239690000Y-70630000D01*
X240460000Y-72000000D02*
X239690000Y-72000000D01*
X232380000Y-68500000D02*
X233150000Y-68500000D01*
X233150000Y-67130000D02*
X233150000Y-69870000D01*
X233150000Y-69870000D02*
X239690000Y-69870000D01*
X239690000Y-67130000D02*
X233150000Y-67130000D01*
X239690000Y-69870000D02*
X239690000Y-67130000D01*
X240460000Y-68500000D02*
X239690000Y-68500000D01*
X232380000Y-61500000D02*
X233150000Y-61500000D01*
X233150000Y-60130000D02*
X233150000Y-62870000D01*
X233150000Y-62870000D02*
X239690000Y-62870000D01*
X239690000Y-60130000D02*
X233150000Y-60130000D01*
X239690000Y-62870000D02*
X239690000Y-60130000D01*
X240460000Y-61500000D02*
X239690000Y-61500000D01*
X254880000Y-77000000D02*
X255650000Y-77000000D01*
X255650000Y-75630000D02*
X255650000Y-78370000D01*
X255650000Y-78370000D02*
X262190000Y-78370000D01*
X262190000Y-75630000D02*
X255650000Y-75630000D01*
X262190000Y-78370000D02*
X262190000Y-75630000D01*
X262960000Y-77000000D02*
X262190000Y-77000000D01*
X254960000Y-73500000D02*
X255730000Y-73500000D01*
X255730000Y-72130000D02*
X255730000Y-74870000D01*
X255730000Y-74870000D02*
X262270000Y-74870000D01*
X262270000Y-72130000D02*
X255730000Y-72130000D01*
X262270000Y-74870000D02*
X262270000Y-72130000D01*
X263040000Y-73500000D02*
X262270000Y-73500000D01*
X254880000Y-70000000D02*
X255650000Y-70000000D01*
X255650000Y-68630000D02*
X255650000Y-71370000D01*
X255650000Y-71370000D02*
X262190000Y-71370000D01*
X262190000Y-68630000D02*
X255650000Y-68630000D01*
X262190000Y-71370000D02*
X262190000Y-68630000D01*
X262960000Y-70000000D02*
X262190000Y-70000000D01*
X254960000Y-66500000D02*
X255730000Y-66500000D01*
X255730000Y-65130000D02*
X255730000Y-67870000D01*
X255730000Y-67870000D02*
X262270000Y-67870000D01*
X262270000Y-65130000D02*
X255730000Y-65130000D01*
X262270000Y-67870000D02*
X262270000Y-65130000D01*
X263040000Y-66500000D02*
X262270000Y-66500000D01*
X254880000Y-63000000D02*
X255650000Y-63000000D01*
X255650000Y-61630000D02*
X255650000Y-64370000D01*
X255650000Y-64370000D02*
X262190000Y-64370000D01*
X262190000Y-61630000D02*
X255650000Y-61630000D01*
X262190000Y-64370000D02*
X262190000Y-61630000D01*
X262960000Y-63000000D02*
X262190000Y-63000000D01*
X254960000Y-59500000D02*
X255730000Y-59500000D01*
X255730000Y-58130000D02*
X255730000Y-60870000D01*
X255730000Y-60870000D02*
X262270000Y-60870000D01*
X262270000Y-58130000D02*
X255730000Y-58130000D01*
X262270000Y-60870000D02*
X262270000Y-58130000D01*
X263040000Y-59500000D02*
X262270000Y-59500000D01*
X254880000Y-56000000D02*
X255650000Y-56000000D01*
X255650000Y-54630000D02*
X255650000Y-57370000D01*
X255650000Y-57370000D02*
X262190000Y-57370000D01*
X262190000Y-54630000D02*
X255650000Y-54630000D01*
X262190000Y-57370000D02*
X262190000Y-54630000D01*
X262960000Y-56000000D02*
X262190000Y-56000000D01*
X254880000Y-52500000D02*
X255650000Y-52500000D01*
X255650000Y-51130000D02*
X255650000Y-53870000D01*
X255650000Y-53870000D02*
X262190000Y-53870000D01*
X262190000Y-51130000D02*
X255650000Y-51130000D01*
X262190000Y-53870000D02*
X262190000Y-51130000D01*
X262960000Y-52500000D02*
X262190000Y-52500000D01*
D15*
X269017500Y-26726600D02*
X194852500Y-26726600D01*
M02*
