G04 #@! TF.GenerationSoftware,KiCad,Pcbnew,8.0.7*
G04 #@! TF.CreationDate,2024-12-31T17:31:26-05:00*
G04 #@! TF.ProjectId,LauCameraTrigger_MimasA7,4c617543-616d-4657-9261-547269676765,rev?*
G04 #@! TF.SameCoordinates,Original*
G04 #@! TF.FileFunction,Copper,L1,Top*
G04 #@! TF.FilePolarity,Positive*
%FSLAX46Y46*%
G04 Gerber Fmt 4.6, Leading zero omitted, Abs format (unit mm)*
G04 Created by KiCad (PCBNEW 8.0.7) date 2024-12-31 17:31:26*
%MOMM*%
%LPD*%
G01*
G04 APERTURE LIST*
G04 #@! TA.AperFunction,ComponentPad*
%ADD10C,2.600000*%
G04 #@! TD*
G04 #@! TA.AperFunction,ComponentPad*
%ADD11C,1.600000*%
G04 #@! TD*
G04 #@! TA.AperFunction,ComponentPad*
%ADD12O,1.600000X1.600000*%
G04 #@! TD*
G04 #@! TA.AperFunction,ComponentPad*
%ADD13R,1.700000X1.700000*%
G04 #@! TD*
G04 #@! TA.AperFunction,ComponentPad*
%ADD14O,1.700000X1.700000*%
G04 #@! TD*
G04 #@! TA.AperFunction,ComponentPad*
%ADD15R,1.600000X1.600000*%
G04 #@! TD*
G04 #@! TA.AperFunction,ComponentPad*
%ADD16C,4.000000*%
G04 #@! TD*
G04 #@! TA.AperFunction,ViaPad*
%ADD17C,0.600000*%
G04 #@! TD*
G04 #@! TA.AperFunction,Conductor*
%ADD18C,0.400000*%
G04 #@! TD*
G04 APERTURE END LIST*
D10*
X54000000Y-100250000D03*
D11*
X53920000Y-123000000D03*
D12*
X64080000Y-123000000D03*
X64080000Y-107500000D03*
D11*
X53920000Y-107500000D03*
X86080000Y-73000000D03*
D12*
X75920000Y-73000000D03*
D11*
X86080000Y-83000000D03*
D12*
X75920000Y-83000000D03*
D11*
X64080000Y-112750000D03*
D12*
X53920000Y-112750000D03*
D11*
X75920000Y-68250000D03*
D12*
X86080000Y-68250000D03*
D11*
X75920000Y-78000000D03*
D12*
X86080000Y-78000000D03*
D11*
X64080000Y-118000000D03*
D12*
X53920000Y-118000000D03*
D13*
X52540000Y-136190000D03*
D14*
X52540000Y-138730000D03*
X55080000Y-136190000D03*
X55080000Y-138730000D03*
X57620000Y-136190000D03*
X57620000Y-138730000D03*
X60160000Y-136190000D03*
X60160000Y-138730000D03*
X62700000Y-136190000D03*
X62700000Y-138730000D03*
X65240000Y-136190000D03*
X65240000Y-138730000D03*
X67780000Y-136190000D03*
X67780000Y-138730000D03*
X70320000Y-136190000D03*
X70320000Y-138730000D03*
X72860000Y-136190000D03*
X72860000Y-138730000D03*
X75400000Y-136190000D03*
X75400000Y-138730000D03*
X77940000Y-136190000D03*
X77940000Y-138730000D03*
X80480000Y-136190000D03*
X80480000Y-138730000D03*
X83020000Y-136190000D03*
X83020000Y-138730000D03*
X85560000Y-136190000D03*
X85560000Y-138730000D03*
X88100000Y-136190000D03*
X88100000Y-138730000D03*
X90640000Y-136190000D03*
X90640000Y-138730000D03*
D13*
X52540000Y-51270000D03*
D14*
X52540000Y-53810000D03*
X55080000Y-51270000D03*
X55080000Y-53810000D03*
X57620000Y-51270000D03*
X57620000Y-53810000D03*
X60160000Y-51270000D03*
X60160000Y-53810000D03*
X62700000Y-51270000D03*
X62700000Y-53810000D03*
X65240000Y-51270000D03*
X65240000Y-53810000D03*
X67780000Y-51270000D03*
X67780000Y-53810000D03*
X70320000Y-51270000D03*
X70320000Y-53810000D03*
X72860000Y-51270000D03*
X72860000Y-53810000D03*
X75400000Y-51270000D03*
X75400000Y-53810000D03*
X77940000Y-51270000D03*
X77940000Y-53810000D03*
X80480000Y-51270000D03*
X80480000Y-53810000D03*
X83020000Y-51270000D03*
X83020000Y-53810000D03*
X85560000Y-51270000D03*
X85560000Y-53810000D03*
X88100000Y-51270000D03*
X88100000Y-53810000D03*
X90640000Y-51270000D03*
X90640000Y-53810000D03*
D11*
X87640000Y-108785000D03*
X87640000Y-111555000D03*
X87640000Y-114325000D03*
X87640000Y-117095000D03*
X84800000Y-107400000D03*
X84800000Y-110170000D03*
X84800000Y-112940000D03*
X84800000Y-115710000D03*
D15*
X84800000Y-118480000D03*
D16*
X87640000Y-100440000D03*
X87640000Y-125440000D03*
D17*
X67780000Y-92780000D03*
X80250000Y-101250000D03*
X76000000Y-105250000D03*
X81250000Y-122750000D03*
X77500000Y-124250000D03*
X76250000Y-116750000D03*
D18*
X86080000Y-73000000D02*
X88000000Y-74920000D01*
X88000000Y-74920000D02*
X88000000Y-81080000D01*
X88000000Y-81080000D02*
X86080000Y-83000000D01*
X75920000Y-68250000D02*
X75920000Y-73000000D01*
X75920000Y-83000000D02*
X75920000Y-78000000D01*
X60160000Y-129590000D02*
X65375000Y-124375000D01*
X65375000Y-124295000D02*
X65375000Y-124375000D01*
X65375000Y-124375000D02*
X74040000Y-115710000D01*
X64080000Y-123000000D02*
X65375000Y-124295000D01*
X64080000Y-118000000D02*
X64080000Y-123000000D01*
X64080000Y-107500000D02*
X64080000Y-112750000D01*
X53920000Y-107500000D02*
X51750000Y-109670000D01*
X51750000Y-109670000D02*
X51750000Y-120830000D01*
X51750000Y-120830000D02*
X53920000Y-123000000D01*
X54000000Y-100250000D02*
X54000000Y-107420000D01*
X54000000Y-107420000D02*
X53920000Y-107500000D01*
X76000000Y-97000000D02*
X80250000Y-101250000D01*
X67780000Y-53810000D02*
X67780000Y-92780000D01*
X82400000Y-107400000D02*
X84800000Y-107400000D01*
X67780000Y-92780000D02*
X82400000Y-107400000D01*
X62700000Y-53810000D02*
X62700000Y-91950000D01*
X62700000Y-91950000D02*
X76000000Y-105250000D01*
X76250000Y-108750000D02*
X76500000Y-108750000D01*
X76500000Y-108750000D02*
X76535000Y-108785000D01*
X76535000Y-108785000D02*
X87640000Y-108785000D01*
X67780000Y-136190000D02*
X67780000Y-133970000D01*
X67780000Y-133970000D02*
X77500000Y-124250000D01*
X62700000Y-130300000D02*
X76250000Y-116750000D01*
X62700000Y-136190000D02*
X62700000Y-130300000D01*
X60160000Y-136190000D02*
X60160000Y-129590000D01*
X74040000Y-115710000D02*
X84800000Y-115710000D01*
X76850000Y-127150000D02*
X81250000Y-122750000D01*
X76850000Y-129660000D02*
X76850000Y-127150000D01*
X70320000Y-136190000D02*
X76850000Y-129660000D01*
X70320000Y-91320000D02*
X76000000Y-97000000D01*
X70320000Y-53810000D02*
X70320000Y-91320000D01*
X60160000Y-92660000D02*
X76250000Y-108750000D01*
X60160000Y-53810000D02*
X60160000Y-92660000D01*
G04 #@! TA.AperFunction,Conductor*
G36*
X51132539Y-50520185D02*
G01*
X51178294Y-50572989D01*
X51189500Y-50624500D01*
X51189500Y-52167870D01*
X51189501Y-52167876D01*
X51195908Y-52227483D01*
X51246202Y-52362328D01*
X51246206Y-52362335D01*
X51332452Y-52477544D01*
X51332455Y-52477547D01*
X51447664Y-52563793D01*
X51447671Y-52563797D01*
X51579081Y-52612810D01*
X51635015Y-52654681D01*
X51659432Y-52720145D01*
X51644580Y-52788418D01*
X51623430Y-52816673D01*
X51501503Y-52938600D01*
X51365965Y-53132169D01*
X51365964Y-53132171D01*
X51266098Y-53346335D01*
X51266094Y-53346344D01*
X51204938Y-53574586D01*
X51204936Y-53574596D01*
X51184341Y-53809999D01*
X51184341Y-53810000D01*
X51204936Y-54045403D01*
X51204938Y-54045413D01*
X51266094Y-54273655D01*
X51266096Y-54273659D01*
X51266097Y-54273663D01*
X51346004Y-54445023D01*
X51365965Y-54487830D01*
X51365967Y-54487834D01*
X51474281Y-54642521D01*
X51501505Y-54681401D01*
X51668599Y-54848495D01*
X51765384Y-54916265D01*
X51862165Y-54984032D01*
X51862167Y-54984033D01*
X51862170Y-54984035D01*
X52076337Y-55083903D01*
X52304592Y-55145063D01*
X52492918Y-55161539D01*
X52539999Y-55165659D01*
X52540000Y-55165659D01*
X52540001Y-55165659D01*
X52579234Y-55162226D01*
X52775408Y-55145063D01*
X53003663Y-55083903D01*
X53217830Y-54984035D01*
X53411401Y-54848495D01*
X53578495Y-54681401D01*
X53708425Y-54495842D01*
X53763002Y-54452217D01*
X53832500Y-54445023D01*
X53894855Y-54476546D01*
X53911575Y-54495842D01*
X54041500Y-54681395D01*
X54041505Y-54681401D01*
X54208599Y-54848495D01*
X54305384Y-54916265D01*
X54402165Y-54984032D01*
X54402167Y-54984033D01*
X54402170Y-54984035D01*
X54616337Y-55083903D01*
X54844592Y-55145063D01*
X55032918Y-55161539D01*
X55079999Y-55165659D01*
X55080000Y-55165659D01*
X55080001Y-55165659D01*
X55119234Y-55162226D01*
X55315408Y-55145063D01*
X55543663Y-55083903D01*
X55757830Y-54984035D01*
X55951401Y-54848495D01*
X56118495Y-54681401D01*
X56248425Y-54495842D01*
X56303002Y-54452217D01*
X56372500Y-54445023D01*
X56434855Y-54476546D01*
X56451575Y-54495842D01*
X56581500Y-54681395D01*
X56581505Y-54681401D01*
X56748599Y-54848495D01*
X56845384Y-54916265D01*
X56942165Y-54984032D01*
X56942167Y-54984033D01*
X56942170Y-54984035D01*
X57156337Y-55083903D01*
X57384592Y-55145063D01*
X57572918Y-55161539D01*
X57619999Y-55165659D01*
X57620000Y-55165659D01*
X57620001Y-55165659D01*
X57659234Y-55162226D01*
X57855408Y-55145063D01*
X58083663Y-55083903D01*
X58297830Y-54984035D01*
X58491401Y-54848495D01*
X58658495Y-54681401D01*
X58788425Y-54495842D01*
X58843002Y-54452217D01*
X58912500Y-54445023D01*
X58974855Y-54476546D01*
X58991575Y-54495842D01*
X59121501Y-54681396D01*
X59121506Y-54681402D01*
X59288597Y-54848494D01*
X59406623Y-54931136D01*
X59450248Y-54985713D01*
X59459500Y-55032711D01*
X59459500Y-92591006D01*
X59459500Y-92728994D01*
X59459500Y-92728996D01*
X59459499Y-92728996D01*
X59486418Y-92864322D01*
X59486421Y-92864332D01*
X59539222Y-92991807D01*
X59615887Y-93106545D01*
X75803454Y-109294112D01*
X75918190Y-109370776D01*
X76016790Y-109411617D01*
X76045671Y-109423580D01*
X76045672Y-109423580D01*
X76045677Y-109423582D01*
X76072545Y-109428925D01*
X76072551Y-109428926D01*
X76072591Y-109428934D01*
X76162937Y-109446905D01*
X76181006Y-109450500D01*
X76181007Y-109450500D01*
X76286498Y-109450500D01*
X76324462Y-109458051D01*
X76324839Y-109456811D01*
X76330666Y-109458578D01*
X76330671Y-109458580D01*
X76357591Y-109463934D01*
X76447937Y-109481905D01*
X76466006Y-109485500D01*
X76466007Y-109485500D01*
X83489603Y-109485500D01*
X83556642Y-109505185D01*
X83602397Y-109557989D01*
X83612341Y-109627147D01*
X83601985Y-109661904D01*
X83573263Y-109723497D01*
X83573258Y-109723511D01*
X83514366Y-109943302D01*
X83514364Y-109943313D01*
X83494532Y-110169998D01*
X83494532Y-110170001D01*
X83514364Y-110396686D01*
X83514366Y-110396697D01*
X83573258Y-110616488D01*
X83573261Y-110616497D01*
X83669431Y-110822732D01*
X83669432Y-110822734D01*
X83799954Y-111009141D01*
X83960858Y-111170045D01*
X83960861Y-111170047D01*
X84147266Y-111300568D01*
X84353504Y-111396739D01*
X84353509Y-111396740D01*
X84353511Y-111396741D01*
X84497136Y-111435225D01*
X84556797Y-111471590D01*
X84587326Y-111534437D01*
X84579031Y-111603812D01*
X84534546Y-111657690D01*
X84497136Y-111674775D01*
X84353511Y-111713258D01*
X84353502Y-111713261D01*
X84147267Y-111809431D01*
X84147265Y-111809432D01*
X83960858Y-111939954D01*
X83799954Y-112100858D01*
X83669432Y-112287265D01*
X83669431Y-112287267D01*
X83573261Y-112493502D01*
X83573258Y-112493511D01*
X83514366Y-112713302D01*
X83514364Y-112713313D01*
X83494532Y-112939998D01*
X83494532Y-112940001D01*
X83514364Y-113166686D01*
X83514366Y-113166697D01*
X83573258Y-113386488D01*
X83573261Y-113386497D01*
X83669431Y-113592732D01*
X83669432Y-113592734D01*
X83799954Y-113779141D01*
X83960858Y-113940045D01*
X83960861Y-113940047D01*
X84147266Y-114070568D01*
X84353504Y-114166739D01*
X84353509Y-114166740D01*
X84353511Y-114166741D01*
X84497136Y-114205225D01*
X84556797Y-114241590D01*
X84587326Y-114304437D01*
X84579031Y-114373812D01*
X84534546Y-114427690D01*
X84497136Y-114444775D01*
X84353511Y-114483258D01*
X84353502Y-114483261D01*
X84147267Y-114579431D01*
X84147265Y-114579432D01*
X83960858Y-114709954D01*
X83799954Y-114870858D01*
X83739902Y-114956623D01*
X83685325Y-115000248D01*
X83638327Y-115009500D01*
X73971005Y-115009500D01*
X73835677Y-115036418D01*
X73835667Y-115036421D01*
X73708192Y-115089222D01*
X73593454Y-115165887D01*
X73593453Y-115165888D01*
X65590523Y-123168819D01*
X65529200Y-123202304D01*
X65459508Y-123197320D01*
X65403575Y-123155448D01*
X65379158Y-123089984D01*
X65379313Y-123070341D01*
X65385468Y-123000000D01*
X65365635Y-122773308D01*
X65306739Y-122553504D01*
X65210568Y-122347266D01*
X65080047Y-122160861D01*
X64919139Y-121999953D01*
X64868694Y-121964631D01*
X64833376Y-121939901D01*
X64789751Y-121885324D01*
X64780500Y-121838326D01*
X64780500Y-119161672D01*
X64800185Y-119094633D01*
X64833375Y-119060098D01*
X64919139Y-119000047D01*
X65080047Y-118839139D01*
X65210568Y-118652734D01*
X65306739Y-118446496D01*
X65365635Y-118226692D01*
X65385468Y-118000000D01*
X65365635Y-117773308D01*
X65306739Y-117553504D01*
X65210568Y-117347266D01*
X65080047Y-117160861D01*
X65080045Y-117160858D01*
X64919141Y-116999954D01*
X64732734Y-116869432D01*
X64732732Y-116869431D01*
X64526497Y-116773261D01*
X64526488Y-116773258D01*
X64306697Y-116714366D01*
X64306693Y-116714365D01*
X64306692Y-116714365D01*
X64306691Y-116714364D01*
X64306686Y-116714364D01*
X64080002Y-116694532D01*
X64079998Y-116694532D01*
X63853313Y-116714364D01*
X63853302Y-116714366D01*
X63633511Y-116773258D01*
X63633502Y-116773261D01*
X63427267Y-116869431D01*
X63427265Y-116869432D01*
X63240858Y-116999954D01*
X63079954Y-117160858D01*
X62949432Y-117347265D01*
X62949431Y-117347267D01*
X62853261Y-117553502D01*
X62853258Y-117553511D01*
X62794366Y-117773302D01*
X62794364Y-117773313D01*
X62774532Y-117999998D01*
X62774532Y-118000001D01*
X62794364Y-118226686D01*
X62794366Y-118226697D01*
X62853258Y-118446488D01*
X62853261Y-118446497D01*
X62949431Y-118652732D01*
X62949432Y-118652734D01*
X63079954Y-118839141D01*
X63240857Y-119000044D01*
X63240860Y-119000046D01*
X63240861Y-119000047D01*
X63326623Y-119060097D01*
X63370248Y-119114673D01*
X63379500Y-119161672D01*
X63379500Y-121838326D01*
X63359815Y-121905365D01*
X63326624Y-121939901D01*
X63240863Y-121999951D01*
X63079951Y-122160862D01*
X62949432Y-122347265D01*
X62949431Y-122347267D01*
X62853261Y-122553502D01*
X62853258Y-122553511D01*
X62794366Y-122773302D01*
X62794364Y-122773313D01*
X62774532Y-122999998D01*
X62774532Y-123000001D01*
X62794364Y-123226686D01*
X62794366Y-123226697D01*
X62853258Y-123446488D01*
X62853261Y-123446497D01*
X62949431Y-123652732D01*
X62949432Y-123652734D01*
X63079954Y-123839141D01*
X63240858Y-124000045D01*
X63240861Y-124000047D01*
X63427266Y-124130568D01*
X63633504Y-124226739D01*
X63633509Y-124226740D01*
X63633511Y-124226741D01*
X63686415Y-124240916D01*
X63853308Y-124285635D01*
X64009660Y-124299314D01*
X64079998Y-124305468D01*
X64079999Y-124305468D01*
X64079999Y-124305467D01*
X64080000Y-124305468D01*
X64150332Y-124299314D01*
X64218829Y-124313080D01*
X64269013Y-124361694D01*
X64284947Y-124429723D01*
X64261573Y-124495567D01*
X64248819Y-124510523D01*
X59615890Y-129143451D01*
X59615887Y-129143454D01*
X59569114Y-129213457D01*
X59554169Y-129235823D01*
X59539225Y-129258188D01*
X59539221Y-129258195D01*
X59486421Y-129385667D01*
X59486418Y-129385677D01*
X59459500Y-129521004D01*
X59459500Y-134967288D01*
X59439815Y-135034327D01*
X59406624Y-135068863D01*
X59288594Y-135151508D01*
X59121505Y-135318597D01*
X58991575Y-135504158D01*
X58936998Y-135547783D01*
X58867500Y-135554977D01*
X58805145Y-135523454D01*
X58788425Y-135504158D01*
X58658494Y-135318597D01*
X58491402Y-135151506D01*
X58491395Y-135151501D01*
X58297834Y-135015967D01*
X58297830Y-135015965D01*
X58294225Y-135014284D01*
X58083663Y-134916097D01*
X58083659Y-134916096D01*
X58083655Y-134916094D01*
X57855413Y-134854938D01*
X57855403Y-134854936D01*
X57620001Y-134834341D01*
X57619999Y-134834341D01*
X57384596Y-134854936D01*
X57384586Y-134854938D01*
X57156344Y-134916094D01*
X57156335Y-134916098D01*
X56942171Y-135015964D01*
X56942169Y-135015965D01*
X56748597Y-135151505D01*
X56581505Y-135318597D01*
X56451575Y-135504158D01*
X56396998Y-135547783D01*
X56327500Y-135554977D01*
X56265145Y-135523454D01*
X56248425Y-135504158D01*
X56118494Y-135318597D01*
X55951402Y-135151506D01*
X55951395Y-135151501D01*
X55757834Y-135015967D01*
X55757830Y-135015965D01*
X55754225Y-135014284D01*
X55543663Y-134916097D01*
X55543659Y-134916096D01*
X55543655Y-134916094D01*
X55315413Y-134854938D01*
X55315403Y-134854936D01*
X55080001Y-134834341D01*
X55079999Y-134834341D01*
X54844596Y-134854936D01*
X54844586Y-134854938D01*
X54616344Y-134916094D01*
X54616335Y-134916098D01*
X54402171Y-135015964D01*
X54402169Y-135015965D01*
X54208600Y-135151503D01*
X54086673Y-135273430D01*
X54025350Y-135306914D01*
X53955658Y-135301930D01*
X53899725Y-135260058D01*
X53882810Y-135229081D01*
X53833797Y-135097671D01*
X53833793Y-135097664D01*
X53747547Y-134982455D01*
X53747544Y-134982452D01*
X53632335Y-134896206D01*
X53632328Y-134896202D01*
X53497482Y-134845908D01*
X53497483Y-134845908D01*
X53437883Y-134839501D01*
X53437881Y-134839500D01*
X53437873Y-134839500D01*
X53437864Y-134839500D01*
X51642129Y-134839500D01*
X51642123Y-134839501D01*
X51582516Y-134845908D01*
X51447671Y-134896202D01*
X51447664Y-134896206D01*
X51332455Y-134982452D01*
X51332452Y-134982455D01*
X51246206Y-135097664D01*
X51246202Y-135097671D01*
X51195908Y-135232517D01*
X51189501Y-135292116D01*
X51189500Y-135292135D01*
X51189500Y-137087870D01*
X51189501Y-137087876D01*
X51195908Y-137147483D01*
X51246202Y-137282328D01*
X51246206Y-137282335D01*
X51332452Y-137397544D01*
X51332455Y-137397547D01*
X51447664Y-137483793D01*
X51447671Y-137483797D01*
X51579081Y-137532810D01*
X51635015Y-137574681D01*
X51659432Y-137640145D01*
X51644580Y-137708418D01*
X51623430Y-137736673D01*
X51501503Y-137858600D01*
X51365965Y-138052169D01*
X51365964Y-138052171D01*
X51266098Y-138266335D01*
X51266094Y-138266344D01*
X51204938Y-138494586D01*
X51204936Y-138494596D01*
X51184341Y-138729999D01*
X51184341Y-138730000D01*
X51204936Y-138965403D01*
X51204938Y-138965413D01*
X51266094Y-139193655D01*
X51266097Y-139193664D01*
X51270701Y-139203537D01*
X51326453Y-139323097D01*
X51336945Y-139392172D01*
X51308426Y-139455956D01*
X51249949Y-139494196D01*
X51214071Y-139499500D01*
X51006962Y-139499500D01*
X50993078Y-139498720D01*
X50980553Y-139497308D01*
X50902735Y-139488540D01*
X50875666Y-139482362D01*
X50796462Y-139454648D01*
X50771444Y-139442600D01*
X50700395Y-139397957D01*
X50678686Y-139380644D01*
X50619355Y-139321313D01*
X50602042Y-139299604D01*
X50557399Y-139228555D01*
X50545351Y-139203537D01*
X50544824Y-139202032D01*
X50517636Y-139124331D01*
X50511459Y-139097263D01*
X50501280Y-139006922D01*
X50500500Y-138993038D01*
X50500500Y-120898996D01*
X51049499Y-120898996D01*
X51076418Y-121034322D01*
X51076421Y-121034332D01*
X51129222Y-121161807D01*
X51205887Y-121276545D01*
X51205888Y-121276546D01*
X52598972Y-122669628D01*
X52632457Y-122730951D01*
X52634819Y-122768116D01*
X52614532Y-122999998D01*
X52614532Y-123000001D01*
X52634364Y-123226686D01*
X52634366Y-123226697D01*
X52693258Y-123446488D01*
X52693261Y-123446497D01*
X52789431Y-123652732D01*
X52789432Y-123652734D01*
X52919954Y-123839141D01*
X53080858Y-124000045D01*
X53080861Y-124000047D01*
X53267266Y-124130568D01*
X53473504Y-124226739D01*
X53473509Y-124226740D01*
X53473511Y-124226741D01*
X53526415Y-124240916D01*
X53693308Y-124285635D01*
X53849660Y-124299314D01*
X53919998Y-124305468D01*
X53920000Y-124305468D01*
X53920002Y-124305468D01*
X53990340Y-124299314D01*
X54146692Y-124285635D01*
X54366496Y-124226739D01*
X54572734Y-124130568D01*
X54759139Y-124000047D01*
X54920047Y-123839139D01*
X55050568Y-123652734D01*
X55146739Y-123446496D01*
X55205635Y-123226692D01*
X55225468Y-123000000D01*
X55205635Y-122773308D01*
X55146739Y-122553504D01*
X55050568Y-122347266D01*
X54920047Y-122160861D01*
X54920045Y-122160858D01*
X54759141Y-121999954D01*
X54572734Y-121869432D01*
X54572732Y-121869431D01*
X54366497Y-121773261D01*
X54366488Y-121773258D01*
X54146697Y-121714366D01*
X54146693Y-121714365D01*
X54146692Y-121714365D01*
X54146691Y-121714364D01*
X54146686Y-121714364D01*
X53920002Y-121694532D01*
X53919998Y-121694532D01*
X53688116Y-121714819D01*
X53619616Y-121701052D01*
X53589628Y-121678972D01*
X52486819Y-120576162D01*
X52453334Y-120514839D01*
X52450500Y-120488481D01*
X52450500Y-118480442D01*
X52470185Y-118413403D01*
X52522989Y-118367648D01*
X52592147Y-118357704D01*
X52655703Y-118386729D01*
X52690947Y-118441570D01*
X52691879Y-118441231D01*
X52693381Y-118445358D01*
X52693477Y-118445507D01*
X52693616Y-118446003D01*
X52693734Y-118446326D01*
X52789865Y-118652482D01*
X52920342Y-118838820D01*
X53081179Y-118999657D01*
X53267517Y-119130134D01*
X53473673Y-119226265D01*
X53473682Y-119226269D01*
X53669999Y-119278872D01*
X53670000Y-119278871D01*
X53670000Y-118315686D01*
X53674394Y-118320080D01*
X53765606Y-118372741D01*
X53867339Y-118400000D01*
X53972661Y-118400000D01*
X54074394Y-118372741D01*
X54165606Y-118320080D01*
X54170000Y-118315686D01*
X54170000Y-119278872D01*
X54366317Y-119226269D01*
X54366326Y-119226265D01*
X54572482Y-119130134D01*
X54758820Y-118999657D01*
X54919657Y-118838820D01*
X55050134Y-118652482D01*
X55146265Y-118446326D01*
X55146269Y-118446317D01*
X55198872Y-118250000D01*
X54235686Y-118250000D01*
X54240080Y-118245606D01*
X54292741Y-118154394D01*
X54320000Y-118052661D01*
X54320000Y-117947339D01*
X54292741Y-117845606D01*
X54240080Y-117754394D01*
X54235686Y-117750000D01*
X55198872Y-117750000D01*
X55198872Y-117749999D01*
X55146269Y-117553682D01*
X55146265Y-117553673D01*
X55050134Y-117347517D01*
X54919657Y-117161179D01*
X54758820Y-117000342D01*
X54572482Y-116869865D01*
X54366328Y-116773734D01*
X54170000Y-116721127D01*
X54170000Y-117684314D01*
X54165606Y-117679920D01*
X54074394Y-117627259D01*
X53972661Y-117600000D01*
X53867339Y-117600000D01*
X53765606Y-117627259D01*
X53674394Y-117679920D01*
X53670000Y-117684314D01*
X53670000Y-116721127D01*
X53473671Y-116773734D01*
X53267517Y-116869865D01*
X53081179Y-117000342D01*
X52920342Y-117161179D01*
X52789865Y-117347517D01*
X52693734Y-117553673D01*
X52691879Y-117558769D01*
X52690290Y-117558190D01*
X52657904Y-117611316D01*
X52595055Y-117641841D01*
X52525680Y-117633542D01*
X52471805Y-117589053D01*
X52450535Y-117522500D01*
X52450500Y-117519557D01*
X52450500Y-113230442D01*
X52470185Y-113163403D01*
X52522989Y-113117648D01*
X52592147Y-113107704D01*
X52655703Y-113136729D01*
X52690947Y-113191570D01*
X52691879Y-113191231D01*
X52693381Y-113195358D01*
X52693477Y-113195507D01*
X52693616Y-113196003D01*
X52693734Y-113196326D01*
X52789865Y-113402482D01*
X52920342Y-113588820D01*
X53081179Y-113749657D01*
X53267517Y-113880134D01*
X53473673Y-113976265D01*
X53473682Y-113976269D01*
X53669999Y-114028872D01*
X53670000Y-114028871D01*
X53670000Y-113065686D01*
X53674394Y-113070080D01*
X53765606Y-113122741D01*
X53867339Y-113150000D01*
X53972661Y-113150000D01*
X54074394Y-113122741D01*
X54165606Y-113070080D01*
X54170000Y-113065686D01*
X54170000Y-114028872D01*
X54366317Y-113976269D01*
X54366326Y-113976265D01*
X54572482Y-113880134D01*
X54758820Y-113749657D01*
X54919657Y-113588820D01*
X55050134Y-113402482D01*
X55146265Y-113196326D01*
X55146269Y-113196317D01*
X55198872Y-113000000D01*
X54235686Y-113000000D01*
X54240080Y-112995606D01*
X54292741Y-112904394D01*
X54320000Y-112802661D01*
X54320000Y-112697339D01*
X54292741Y-112595606D01*
X54240080Y-112504394D01*
X54235686Y-112500000D01*
X55198872Y-112500000D01*
X55198872Y-112499999D01*
X55146269Y-112303682D01*
X55146265Y-112303673D01*
X55050134Y-112097517D01*
X54919657Y-111911179D01*
X54758820Y-111750342D01*
X54572482Y-111619865D01*
X54366328Y-111523734D01*
X54170000Y-111471127D01*
X54170000Y-112434314D01*
X54165606Y-112429920D01*
X54074394Y-112377259D01*
X53972661Y-112350000D01*
X53867339Y-112350000D01*
X53765606Y-112377259D01*
X53674394Y-112429920D01*
X53670000Y-112434314D01*
X53670000Y-111471127D01*
X53473671Y-111523734D01*
X53267517Y-111619865D01*
X53081179Y-111750342D01*
X52920342Y-111911179D01*
X52789865Y-112097517D01*
X52693734Y-112303673D01*
X52691879Y-112308769D01*
X52690290Y-112308190D01*
X52657904Y-112361316D01*
X52595055Y-112391841D01*
X52525680Y-112383542D01*
X52471805Y-112339053D01*
X52450535Y-112272500D01*
X52450500Y-112269557D01*
X52450500Y-110011517D01*
X52470185Y-109944478D01*
X52486814Y-109923840D01*
X53589629Y-108821025D01*
X53650950Y-108787542D01*
X53688116Y-108785180D01*
X53693303Y-108785633D01*
X53693308Y-108785635D01*
X53896015Y-108803369D01*
X53919999Y-108805468D01*
X53920000Y-108805468D01*
X53920002Y-108805468D01*
X53976673Y-108800509D01*
X54146692Y-108785635D01*
X54366496Y-108726739D01*
X54572734Y-108630568D01*
X54759139Y-108500047D01*
X54920047Y-108339139D01*
X55050568Y-108152734D01*
X55146739Y-107946496D01*
X55205635Y-107726692D01*
X55225468Y-107500000D01*
X55225468Y-107499998D01*
X62774532Y-107499998D01*
X62774532Y-107500001D01*
X62794364Y-107726686D01*
X62794366Y-107726697D01*
X62853258Y-107946488D01*
X62853261Y-107946497D01*
X62949431Y-108152732D01*
X62949432Y-108152734D01*
X63079954Y-108339141D01*
X63240857Y-108500044D01*
X63240860Y-108500046D01*
X63240861Y-108500047D01*
X63326623Y-108560097D01*
X63370248Y-108614673D01*
X63379500Y-108661672D01*
X63379500Y-111588326D01*
X63359815Y-111655365D01*
X63326624Y-111689901D01*
X63240863Y-111749951D01*
X63079951Y-111910862D01*
X62949432Y-112097265D01*
X62949431Y-112097267D01*
X62853261Y-112303502D01*
X62853258Y-112303511D01*
X62794366Y-112523302D01*
X62794364Y-112523313D01*
X62774532Y-112749998D01*
X62774532Y-112750001D01*
X62794364Y-112976686D01*
X62794366Y-112976697D01*
X62853258Y-113196488D01*
X62853261Y-113196497D01*
X62949431Y-113402732D01*
X62949432Y-113402734D01*
X63079954Y-113589141D01*
X63240858Y-113750045D01*
X63240861Y-113750047D01*
X63427266Y-113880568D01*
X63633504Y-113976739D01*
X63853308Y-114035635D01*
X64015230Y-114049801D01*
X64079998Y-114055468D01*
X64080000Y-114055468D01*
X64080002Y-114055468D01*
X64136673Y-114050509D01*
X64306692Y-114035635D01*
X64526496Y-113976739D01*
X64732734Y-113880568D01*
X64919139Y-113750047D01*
X65080047Y-113589139D01*
X65210568Y-113402734D01*
X65306739Y-113196496D01*
X65365635Y-112976692D01*
X65385468Y-112750000D01*
X65365635Y-112523308D01*
X65306739Y-112303504D01*
X65210568Y-112097266D01*
X65080047Y-111910861D01*
X64919139Y-111749953D01*
X64833376Y-111689901D01*
X64789751Y-111635324D01*
X64780500Y-111588326D01*
X64780500Y-108661672D01*
X64800185Y-108594633D01*
X64833375Y-108560098D01*
X64919139Y-108500047D01*
X65080047Y-108339139D01*
X65210568Y-108152734D01*
X65306739Y-107946496D01*
X65365635Y-107726692D01*
X65385468Y-107500000D01*
X65385412Y-107499365D01*
X65365635Y-107273313D01*
X65365635Y-107273308D01*
X65306739Y-107053504D01*
X65210568Y-106847266D01*
X65093319Y-106679815D01*
X65080045Y-106660858D01*
X64919141Y-106499954D01*
X64732734Y-106369432D01*
X64732732Y-106369431D01*
X64526497Y-106273261D01*
X64526488Y-106273258D01*
X64306697Y-106214366D01*
X64306693Y-106214365D01*
X64306692Y-106214365D01*
X64306691Y-106214364D01*
X64306686Y-106214364D01*
X64080002Y-106194532D01*
X64079998Y-106194532D01*
X63853313Y-106214364D01*
X63853302Y-106214366D01*
X63633511Y-106273258D01*
X63633502Y-106273261D01*
X63427267Y-106369431D01*
X63427265Y-106369432D01*
X63240858Y-106499954D01*
X63079954Y-106660858D01*
X62949432Y-106847265D01*
X62949431Y-106847267D01*
X62853261Y-107053502D01*
X62853258Y-107053511D01*
X62794366Y-107273302D01*
X62794364Y-107273313D01*
X62774532Y-107499998D01*
X55225468Y-107499998D01*
X55225412Y-107499365D01*
X55205635Y-107273313D01*
X55205635Y-107273308D01*
X55146739Y-107053504D01*
X55050568Y-106847266D01*
X54933319Y-106679815D01*
X54920048Y-106660862D01*
X54905809Y-106646623D01*
X54759139Y-106499953D01*
X54753374Y-106495916D01*
X54709751Y-106441339D01*
X54700500Y-106394343D01*
X54700500Y-101988975D01*
X54720185Y-101921936D01*
X54770699Y-101877255D01*
X54902767Y-101813655D01*
X54902767Y-101813654D01*
X54902775Y-101813651D01*
X55125741Y-101661635D01*
X55323561Y-101478085D01*
X55491815Y-101267102D01*
X55626743Y-101033398D01*
X55725334Y-100782195D01*
X55785383Y-100519103D01*
X55805549Y-100250000D01*
X55796260Y-100126050D01*
X55785383Y-99980898D01*
X55725335Y-99717811D01*
X55725334Y-99717805D01*
X55626743Y-99466602D01*
X55491815Y-99232898D01*
X55323561Y-99021915D01*
X55323560Y-99021914D01*
X55323557Y-99021910D01*
X55125741Y-98838365D01*
X54902775Y-98686349D01*
X54902769Y-98686346D01*
X54902768Y-98686345D01*
X54902767Y-98686344D01*
X54659643Y-98569263D01*
X54659645Y-98569263D01*
X54401773Y-98489720D01*
X54401767Y-98489718D01*
X54134936Y-98449500D01*
X54134929Y-98449500D01*
X53865071Y-98449500D01*
X53865063Y-98449500D01*
X53598232Y-98489718D01*
X53598226Y-98489720D01*
X53340358Y-98569262D01*
X53097230Y-98686346D01*
X52874258Y-98838365D01*
X52676442Y-99021910D01*
X52508185Y-99232898D01*
X52373258Y-99466599D01*
X52373256Y-99466603D01*
X52274666Y-99717804D01*
X52274664Y-99717811D01*
X52214616Y-99980898D01*
X52194451Y-100249995D01*
X52194451Y-100250004D01*
X52214616Y-100519101D01*
X52225303Y-100565923D01*
X52274666Y-100782195D01*
X52373257Y-101033398D01*
X52508185Y-101267102D01*
X52637493Y-101429249D01*
X52676442Y-101478089D01*
X52807317Y-101599522D01*
X52874259Y-101661635D01*
X53097226Y-101813651D01*
X53097231Y-101813653D01*
X53097232Y-101813654D01*
X53097233Y-101813655D01*
X53229301Y-101877255D01*
X53281161Y-101924077D01*
X53299500Y-101988975D01*
X53299500Y-106282310D01*
X53279815Y-106349349D01*
X53246623Y-106383885D01*
X53080859Y-106499953D01*
X52919954Y-106660858D01*
X52789432Y-106847265D01*
X52789431Y-106847267D01*
X52693261Y-107053502D01*
X52693258Y-107053511D01*
X52634366Y-107273302D01*
X52634364Y-107273313D01*
X52614532Y-107499998D01*
X52614532Y-107500001D01*
X52634819Y-107731882D01*
X52621052Y-107800382D01*
X52598972Y-107830370D01*
X51205883Y-109223459D01*
X51182197Y-109258911D01*
X51182195Y-109258914D01*
X51129228Y-109338183D01*
X51129221Y-109338195D01*
X51076421Y-109465667D01*
X51076418Y-109465677D01*
X51049500Y-109601004D01*
X51049500Y-109601007D01*
X51049500Y-120761006D01*
X51049500Y-120898994D01*
X51049500Y-120898996D01*
X51049499Y-120898996D01*
X50500500Y-120898996D01*
X50500500Y-51006961D01*
X50501280Y-50993077D01*
X50511459Y-50902731D01*
X50517635Y-50875670D01*
X50545353Y-50796456D01*
X50557396Y-50771450D01*
X50602046Y-50700389D01*
X50619351Y-50678690D01*
X50678690Y-50619351D01*
X50700389Y-50602046D01*
X50771450Y-50557396D01*
X50796456Y-50545353D01*
X50875670Y-50517635D01*
X50902733Y-50511459D01*
X50965419Y-50504396D01*
X50993079Y-50501280D01*
X51006962Y-50500500D01*
X51065500Y-50500500D01*
X51132539Y-50520185D01*
G37*
G04 #@! TD.AperFunction*
G04 #@! TA.AperFunction,Conductor*
G36*
X92442539Y-50520185D02*
G01*
X92488294Y-50572989D01*
X92499500Y-50624500D01*
X92499500Y-139375500D01*
X92479815Y-139442539D01*
X92427011Y-139488294D01*
X92375500Y-139499500D01*
X91965929Y-139499500D01*
X91898890Y-139479815D01*
X91853135Y-139427011D01*
X91843191Y-139357853D01*
X91853545Y-139323099D01*
X91913903Y-139193663D01*
X91975063Y-138965408D01*
X91995659Y-138730000D01*
X91975063Y-138494592D01*
X91913903Y-138266337D01*
X91814035Y-138052171D01*
X91808425Y-138044158D01*
X91678494Y-137858597D01*
X91511402Y-137691506D01*
X91511396Y-137691501D01*
X91325842Y-137561575D01*
X91282217Y-137506998D01*
X91275023Y-137437500D01*
X91306546Y-137375145D01*
X91325842Y-137358425D01*
X91348026Y-137342891D01*
X91511401Y-137228495D01*
X91678495Y-137061401D01*
X91814035Y-136867830D01*
X91913903Y-136653663D01*
X91975063Y-136425408D01*
X91995659Y-136190000D01*
X91975063Y-135954592D01*
X91913903Y-135726337D01*
X91814035Y-135512171D01*
X91808425Y-135504158D01*
X91678494Y-135318597D01*
X91511402Y-135151506D01*
X91511395Y-135151501D01*
X91317834Y-135015967D01*
X91317830Y-135015965D01*
X91314225Y-135014284D01*
X91103663Y-134916097D01*
X91103659Y-134916096D01*
X91103655Y-134916094D01*
X90875413Y-134854938D01*
X90875403Y-134854936D01*
X90640001Y-134834341D01*
X90639999Y-134834341D01*
X90404596Y-134854936D01*
X90404586Y-134854938D01*
X90176344Y-134916094D01*
X90176335Y-134916098D01*
X89962171Y-135015964D01*
X89962169Y-135015965D01*
X89768597Y-135151505D01*
X89601505Y-135318597D01*
X89471575Y-135504158D01*
X89416998Y-135547783D01*
X89347500Y-135554977D01*
X89285145Y-135523454D01*
X89268425Y-135504158D01*
X89138494Y-135318597D01*
X88971402Y-135151506D01*
X88971395Y-135151501D01*
X88777834Y-135015967D01*
X88777830Y-135015965D01*
X88774225Y-135014284D01*
X88563663Y-134916097D01*
X88563659Y-134916096D01*
X88563655Y-134916094D01*
X88335413Y-134854938D01*
X88335403Y-134854936D01*
X88100001Y-134834341D01*
X88099999Y-134834341D01*
X87864596Y-134854936D01*
X87864586Y-134854938D01*
X87636344Y-134916094D01*
X87636335Y-134916098D01*
X87422171Y-135015964D01*
X87422169Y-135015965D01*
X87228597Y-135151505D01*
X87061505Y-135318597D01*
X86931575Y-135504158D01*
X86876998Y-135547783D01*
X86807500Y-135554977D01*
X86745145Y-135523454D01*
X86728425Y-135504158D01*
X86598494Y-135318597D01*
X86431402Y-135151506D01*
X86431395Y-135151501D01*
X86237834Y-135015967D01*
X86237830Y-135015965D01*
X86234225Y-135014284D01*
X86023663Y-134916097D01*
X86023659Y-134916096D01*
X86023655Y-134916094D01*
X85795413Y-134854938D01*
X85795403Y-134854936D01*
X85560001Y-134834341D01*
X85559999Y-134834341D01*
X85324596Y-134854936D01*
X85324586Y-134854938D01*
X85096344Y-134916094D01*
X85096335Y-134916098D01*
X84882171Y-135015964D01*
X84882169Y-135015965D01*
X84688597Y-135151505D01*
X84521505Y-135318597D01*
X84391575Y-135504158D01*
X84336998Y-135547783D01*
X84267500Y-135554977D01*
X84205145Y-135523454D01*
X84188425Y-135504158D01*
X84058494Y-135318597D01*
X83891402Y-135151506D01*
X83891395Y-135151501D01*
X83697834Y-135015967D01*
X83697830Y-135015965D01*
X83694225Y-135014284D01*
X83483663Y-134916097D01*
X83483659Y-134916096D01*
X83483655Y-134916094D01*
X83255413Y-134854938D01*
X83255403Y-134854936D01*
X83020001Y-134834341D01*
X83019999Y-134834341D01*
X82784596Y-134854936D01*
X82784586Y-134854938D01*
X82556344Y-134916094D01*
X82556335Y-134916098D01*
X82342171Y-135015964D01*
X82342169Y-135015965D01*
X82148597Y-135151505D01*
X81981505Y-135318597D01*
X81851575Y-135504158D01*
X81796998Y-135547783D01*
X81727500Y-135554977D01*
X81665145Y-135523454D01*
X81648425Y-135504158D01*
X81518494Y-135318597D01*
X81351402Y-135151506D01*
X81351395Y-135151501D01*
X81157834Y-135015967D01*
X81157830Y-135015965D01*
X81154225Y-135014284D01*
X80943663Y-134916097D01*
X80943659Y-134916096D01*
X80943655Y-134916094D01*
X80715413Y-134854938D01*
X80715403Y-134854936D01*
X80480001Y-134834341D01*
X80479999Y-134834341D01*
X80244596Y-134854936D01*
X80244586Y-134854938D01*
X80016344Y-134916094D01*
X80016335Y-134916098D01*
X79802171Y-135015964D01*
X79802169Y-135015965D01*
X79608597Y-135151505D01*
X79441505Y-135318597D01*
X79311575Y-135504158D01*
X79256998Y-135547783D01*
X79187500Y-135554977D01*
X79125145Y-135523454D01*
X79108425Y-135504158D01*
X78978494Y-135318597D01*
X78811402Y-135151506D01*
X78811395Y-135151501D01*
X78617834Y-135015967D01*
X78617830Y-135015965D01*
X78614225Y-135014284D01*
X78403663Y-134916097D01*
X78403659Y-134916096D01*
X78403655Y-134916094D01*
X78175413Y-134854938D01*
X78175403Y-134854936D01*
X77940001Y-134834341D01*
X77939999Y-134834341D01*
X77704596Y-134854936D01*
X77704586Y-134854938D01*
X77476344Y-134916094D01*
X77476335Y-134916098D01*
X77262171Y-135015964D01*
X77262169Y-135015965D01*
X77068597Y-135151505D01*
X76901505Y-135318597D01*
X76771575Y-135504158D01*
X76716998Y-135547783D01*
X76647500Y-135554977D01*
X76585145Y-135523454D01*
X76568425Y-135504158D01*
X76438494Y-135318597D01*
X76271402Y-135151506D01*
X76271395Y-135151501D01*
X76077834Y-135015967D01*
X76077830Y-135015965D01*
X76074225Y-135014284D01*
X75863663Y-134916097D01*
X75863659Y-134916096D01*
X75863655Y-134916094D01*
X75635413Y-134854938D01*
X75635403Y-134854936D01*
X75400001Y-134834341D01*
X75399999Y-134834341D01*
X75164596Y-134854936D01*
X75164586Y-134854938D01*
X74936344Y-134916094D01*
X74936335Y-134916098D01*
X74722171Y-135015964D01*
X74722169Y-135015965D01*
X74528597Y-135151505D01*
X74361505Y-135318597D01*
X74231575Y-135504158D01*
X74176998Y-135547783D01*
X74107500Y-135554977D01*
X74045145Y-135523454D01*
X74028425Y-135504158D01*
X73898494Y-135318597D01*
X73731402Y-135151506D01*
X73731395Y-135151501D01*
X73537834Y-135015967D01*
X73537830Y-135015965D01*
X73534225Y-135014284D01*
X73323663Y-134916097D01*
X73323659Y-134916096D01*
X73323655Y-134916094D01*
X73095413Y-134854938D01*
X73095403Y-134854936D01*
X72946802Y-134841935D01*
X72881733Y-134816482D01*
X72840755Y-134759891D01*
X72836877Y-134690129D01*
X72869927Y-134630728D01*
X77394114Y-130106543D01*
X77470775Y-129991811D01*
X77523580Y-129864328D01*
X77550500Y-129728994D01*
X77550500Y-129591006D01*
X77550500Y-127491518D01*
X77570185Y-127424479D01*
X77586814Y-127403842D01*
X79550661Y-125439994D01*
X85135057Y-125439994D01*
X85135057Y-125440005D01*
X85154807Y-125753942D01*
X85154808Y-125753949D01*
X85213755Y-126062958D01*
X85310963Y-126362132D01*
X85310965Y-126362137D01*
X85444900Y-126646761D01*
X85444903Y-126646767D01*
X85613452Y-126912359D01*
X85704286Y-127022158D01*
X86345747Y-126380697D01*
X86419588Y-126482330D01*
X86597670Y-126660412D01*
X86699300Y-126734251D01*
X86054972Y-127378579D01*
X86297780Y-127554990D01*
X86297790Y-127554996D01*
X86573447Y-127706540D01*
X86573455Y-127706544D01*
X86865926Y-127822340D01*
X87170620Y-127900573D01*
X87170629Y-127900575D01*
X87482701Y-127939999D01*
X87482715Y-127940000D01*
X87797285Y-127940000D01*
X87797298Y-127939999D01*
X88109370Y-127900575D01*
X88109379Y-127900573D01*
X88414073Y-127822340D01*
X88706544Y-127706544D01*
X88706552Y-127706540D01*
X88982203Y-127555000D01*
X88982214Y-127554993D01*
X89225025Y-127378579D01*
X89225026Y-127378579D01*
X88580698Y-126734251D01*
X88682330Y-126660412D01*
X88860412Y-126482330D01*
X88934252Y-126380698D01*
X89575712Y-127022158D01*
X89666544Y-126912364D01*
X89835096Y-126646767D01*
X89835099Y-126646761D01*
X89969034Y-126362137D01*
X89969036Y-126362132D01*
X90066244Y-126062958D01*
X90125191Y-125753949D01*
X90125192Y-125753942D01*
X90144943Y-125440005D01*
X90144943Y-125439994D01*
X90125192Y-125126057D01*
X90125191Y-125126050D01*
X90066244Y-124817041D01*
X89969036Y-124517867D01*
X89969034Y-124517862D01*
X89835099Y-124233238D01*
X89835096Y-124233232D01*
X89666544Y-123967635D01*
X89575712Y-123857839D01*
X88934251Y-124499300D01*
X88860412Y-124397670D01*
X88682330Y-124219588D01*
X88580697Y-124145747D01*
X89225026Y-123501419D01*
X88982219Y-123325009D01*
X88982209Y-123325003D01*
X88706552Y-123173459D01*
X88706544Y-123173455D01*
X88414073Y-123057659D01*
X88109379Y-122979426D01*
X88109370Y-122979424D01*
X87797298Y-122940000D01*
X87482701Y-122940000D01*
X87170629Y-122979424D01*
X87170620Y-122979426D01*
X86865926Y-123057659D01*
X86573455Y-123173455D01*
X86573447Y-123173459D01*
X86297790Y-123325003D01*
X86297772Y-123325014D01*
X86054973Y-123501417D01*
X86054972Y-123501419D01*
X86699301Y-124145748D01*
X86597670Y-124219588D01*
X86419588Y-124397670D01*
X86345748Y-124499301D01*
X85704286Y-123857839D01*
X85613460Y-123967628D01*
X85613457Y-123967632D01*
X85444903Y-124233232D01*
X85444900Y-124233238D01*
X85310965Y-124517862D01*
X85310963Y-124517867D01*
X85213755Y-124817041D01*
X85154808Y-125126050D01*
X85154807Y-125126057D01*
X85135057Y-125439994D01*
X79550661Y-125439994D01*
X81449290Y-123541365D01*
X81496013Y-123512007D01*
X81599522Y-123475789D01*
X81752262Y-123379816D01*
X81879816Y-123252262D01*
X81975789Y-123099522D01*
X82035368Y-122929255D01*
X82035369Y-122929249D01*
X82055565Y-122750003D01*
X82055565Y-122749996D01*
X82035369Y-122570750D01*
X82035368Y-122570745D01*
X81975788Y-122400476D01*
X81879815Y-122247737D01*
X81752262Y-122120184D01*
X81599523Y-122024211D01*
X81429254Y-121964631D01*
X81429249Y-121964630D01*
X81250004Y-121944435D01*
X81249996Y-121944435D01*
X81070750Y-121964630D01*
X81070745Y-121964631D01*
X80900476Y-122024211D01*
X80747737Y-122120184D01*
X80620184Y-122247737D01*
X80524212Y-122400475D01*
X80524211Y-122400476D01*
X80487992Y-122503984D01*
X80458632Y-122550709D01*
X78498523Y-124510818D01*
X78437200Y-124544303D01*
X78367508Y-124539319D01*
X78311575Y-124497447D01*
X78287158Y-124431983D01*
X78287622Y-124409254D01*
X78305565Y-124250003D01*
X78305565Y-124249996D01*
X78285369Y-124070750D01*
X78285368Y-124070745D01*
X78225788Y-123900476D01*
X78129815Y-123747737D01*
X78002262Y-123620184D01*
X77849523Y-123524211D01*
X77679254Y-123464631D01*
X77679249Y-123464630D01*
X77500004Y-123444435D01*
X77499996Y-123444435D01*
X77320750Y-123464630D01*
X77320745Y-123464631D01*
X77150476Y-123524211D01*
X76997737Y-123620184D01*
X76870184Y-123747737D01*
X76774212Y-123900475D01*
X76774211Y-123900476D01*
X76737992Y-124003984D01*
X76708632Y-124050709D01*
X67235887Y-133523454D01*
X67159222Y-133638192D01*
X67106421Y-133765667D01*
X67106418Y-133765677D01*
X67079500Y-133901004D01*
X67079500Y-134967288D01*
X67059815Y-135034327D01*
X67026624Y-135068863D01*
X66908594Y-135151508D01*
X66741505Y-135318597D01*
X66611575Y-135504158D01*
X66556998Y-135547783D01*
X66487500Y-135554977D01*
X66425145Y-135523454D01*
X66408425Y-135504158D01*
X66278494Y-135318597D01*
X66111402Y-135151506D01*
X66111395Y-135151501D01*
X65917834Y-135015967D01*
X65917830Y-135015965D01*
X65914225Y-135014284D01*
X65703663Y-134916097D01*
X65703659Y-134916096D01*
X65703655Y-134916094D01*
X65475413Y-134854938D01*
X65475403Y-134854936D01*
X65240001Y-134834341D01*
X65239999Y-134834341D01*
X65004596Y-134854936D01*
X65004586Y-134854938D01*
X64776344Y-134916094D01*
X64776335Y-134916098D01*
X64562171Y-135015964D01*
X64562169Y-135015965D01*
X64368597Y-135151505D01*
X64201505Y-135318597D01*
X64071575Y-135504158D01*
X64016998Y-135547783D01*
X63947500Y-135554977D01*
X63885145Y-135523454D01*
X63868425Y-135504158D01*
X63738494Y-135318597D01*
X63571404Y-135151508D01*
X63571402Y-135151506D01*
X63571401Y-135151505D01*
X63571396Y-135151501D01*
X63571393Y-135151499D01*
X63453376Y-135068861D01*
X63409751Y-135014284D01*
X63400500Y-134967287D01*
X63400500Y-130641518D01*
X63420185Y-130574479D01*
X63436814Y-130553842D01*
X76449290Y-117541365D01*
X76496013Y-117512007D01*
X76599522Y-117475789D01*
X76752262Y-117379816D01*
X76879816Y-117252262D01*
X76975789Y-117099522D01*
X77035368Y-116929255D01*
X77042060Y-116869865D01*
X77055565Y-116750003D01*
X77055565Y-116749996D01*
X77035369Y-116570750D01*
X77033818Y-116563953D01*
X77036400Y-116563363D01*
X77033453Y-116505682D01*
X77068179Y-116445053D01*
X77130171Y-116412823D01*
X77154058Y-116410500D01*
X83638327Y-116410500D01*
X83705366Y-116430185D01*
X83739902Y-116463377D01*
X83799954Y-116549141D01*
X83960858Y-116710045D01*
X83960861Y-116710047D01*
X84147266Y-116840568D01*
X84353504Y-116936739D01*
X84353506Y-116936739D01*
X84358598Y-116938593D01*
X84358030Y-116940152D01*
X84411247Y-116972592D01*
X84441775Y-117035440D01*
X84433478Y-117104815D01*
X84388991Y-117158692D01*
X84322439Y-117179965D01*
X84319491Y-117180000D01*
X83952155Y-117180000D01*
X83892627Y-117186401D01*
X83892620Y-117186403D01*
X83757913Y-117236645D01*
X83757906Y-117236649D01*
X83642812Y-117322809D01*
X83642809Y-117322812D01*
X83556649Y-117437906D01*
X83556645Y-117437913D01*
X83506403Y-117572620D01*
X83506401Y-117572627D01*
X83500000Y-117632155D01*
X83500000Y-118230000D01*
X84366988Y-118230000D01*
X84334075Y-118287007D01*
X84300000Y-118414174D01*
X84300000Y-118545826D01*
X84334075Y-118672993D01*
X84366988Y-118730000D01*
X83500000Y-118730000D01*
X83500000Y-119327844D01*
X83506401Y-119387372D01*
X83506403Y-119387379D01*
X83556645Y-119522086D01*
X83556649Y-119522093D01*
X83642809Y-119637187D01*
X83642812Y-119637190D01*
X83757906Y-119723350D01*
X83757913Y-119723354D01*
X83892620Y-119773596D01*
X83892627Y-119773598D01*
X83952155Y-119779999D01*
X83952172Y-119780000D01*
X84550000Y-119780000D01*
X84550000Y-118913012D01*
X84607007Y-118945925D01*
X84734174Y-118980000D01*
X84865826Y-118980000D01*
X84992993Y-118945925D01*
X85050000Y-118913012D01*
X85050000Y-119780000D01*
X85647828Y-119780000D01*
X85647844Y-119779999D01*
X85707372Y-119773598D01*
X85707379Y-119773596D01*
X85842086Y-119723354D01*
X85842093Y-119723350D01*
X85957187Y-119637190D01*
X85957190Y-119637187D01*
X86043350Y-119522093D01*
X86043354Y-119522086D01*
X86093596Y-119387379D01*
X86093598Y-119387372D01*
X86099999Y-119327844D01*
X86100000Y-119327827D01*
X86100000Y-118730000D01*
X85233012Y-118730000D01*
X85265925Y-118672993D01*
X85300000Y-118545826D01*
X85300000Y-118414174D01*
X85265925Y-118287007D01*
X85233012Y-118230000D01*
X86100000Y-118230000D01*
X86100000Y-117632172D01*
X86099999Y-117632155D01*
X86093598Y-117572627D01*
X86093596Y-117572620D01*
X86043354Y-117437913D01*
X86043350Y-117437906D01*
X85957190Y-117322812D01*
X85957187Y-117322809D01*
X85842093Y-117236649D01*
X85842086Y-117236645D01*
X85707379Y-117186403D01*
X85707372Y-117186401D01*
X85647844Y-117180000D01*
X85280509Y-117180000D01*
X85213470Y-117160315D01*
X85167715Y-117107511D01*
X85157771Y-117038353D01*
X85186796Y-116974797D01*
X85241729Y-116939493D01*
X85241402Y-116938593D01*
X85245389Y-116937141D01*
X85245574Y-116937023D01*
X85246190Y-116936849D01*
X85246489Y-116936740D01*
X85246496Y-116936739D01*
X85452734Y-116840568D01*
X85639139Y-116710047D01*
X85800047Y-116549139D01*
X85930568Y-116362734D01*
X86026739Y-116156496D01*
X86085635Y-115936692D01*
X86105468Y-115710000D01*
X86101197Y-115661188D01*
X86085635Y-115483313D01*
X86085635Y-115483308D01*
X86026739Y-115263504D01*
X85930568Y-115057266D01*
X85800047Y-114870861D01*
X85800045Y-114870858D01*
X85639141Y-114709954D01*
X85452734Y-114579432D01*
X85452732Y-114579431D01*
X85246497Y-114483261D01*
X85246488Y-114483258D01*
X85123966Y-114450429D01*
X85102862Y-114444774D01*
X85043202Y-114408410D01*
X85012673Y-114345563D01*
X85020968Y-114276188D01*
X85065453Y-114222310D01*
X85102862Y-114205225D01*
X85246496Y-114166739D01*
X85452734Y-114070568D01*
X85639139Y-113940047D01*
X85800047Y-113779139D01*
X85930568Y-113592734D01*
X86026739Y-113386496D01*
X86085635Y-113166692D01*
X86105468Y-112940000D01*
X86101197Y-112891188D01*
X86085635Y-112713313D01*
X86085635Y-112713308D01*
X86026739Y-112493504D01*
X85930568Y-112287266D01*
X85800047Y-112100861D01*
X85800045Y-112100858D01*
X85639141Y-111939954D01*
X85452734Y-111809432D01*
X85452732Y-111809431D01*
X85246497Y-111713261D01*
X85246488Y-111713258D01*
X85123966Y-111680429D01*
X85102862Y-111674774D01*
X85043202Y-111638410D01*
X85012673Y-111575563D01*
X85020968Y-111506188D01*
X85065453Y-111452310D01*
X85102862Y-111435225D01*
X85246496Y-111396739D01*
X85452734Y-111300568D01*
X85639139Y-111170047D01*
X85800047Y-111009139D01*
X85930568Y-110822734D01*
X86026739Y-110616496D01*
X86085635Y-110396692D01*
X86105468Y-110170000D01*
X86101197Y-110121188D01*
X86091622Y-110011738D01*
X86085635Y-109943308D01*
X86026739Y-109723504D01*
X86026736Y-109723497D01*
X85998015Y-109661904D01*
X85987523Y-109592827D01*
X86016043Y-109529043D01*
X86074520Y-109490804D01*
X86110397Y-109485500D01*
X86478327Y-109485500D01*
X86545366Y-109505185D01*
X86579902Y-109538377D01*
X86639954Y-109624141D01*
X86800858Y-109785045D01*
X86800861Y-109785047D01*
X86987266Y-109915568D01*
X87193504Y-110011739D01*
X87193509Y-110011740D01*
X87193511Y-110011741D01*
X87337136Y-110050225D01*
X87396797Y-110086590D01*
X87427326Y-110149437D01*
X87419031Y-110218812D01*
X87374546Y-110272690D01*
X87337136Y-110289775D01*
X87193511Y-110328258D01*
X87193502Y-110328261D01*
X86987267Y-110424431D01*
X86987265Y-110424432D01*
X86800858Y-110554954D01*
X86639954Y-110715858D01*
X86509432Y-110902265D01*
X86509431Y-110902267D01*
X86413261Y-111108502D01*
X86413258Y-111108511D01*
X86354366Y-111328302D01*
X86354364Y-111328313D01*
X86334532Y-111554998D01*
X86334532Y-111555001D01*
X86354364Y-111781686D01*
X86354366Y-111781697D01*
X86413258Y-112001488D01*
X86413261Y-112001497D01*
X86509431Y-112207732D01*
X86509432Y-112207734D01*
X86639954Y-112394141D01*
X86800858Y-112555045D01*
X86800861Y-112555047D01*
X86987266Y-112685568D01*
X87193504Y-112781739D01*
X87193509Y-112781740D01*
X87193511Y-112781741D01*
X87337136Y-112820225D01*
X87396797Y-112856590D01*
X87427326Y-112919437D01*
X87419031Y-112988812D01*
X87374546Y-113042690D01*
X87337136Y-113059775D01*
X87193511Y-113098258D01*
X87193502Y-113098261D01*
X86987267Y-113194431D01*
X86987265Y-113194432D01*
X86800858Y-113324954D01*
X86639954Y-113485858D01*
X86509432Y-113672265D01*
X86509431Y-113672267D01*
X86413261Y-113878502D01*
X86413258Y-113878511D01*
X86354366Y-114098302D01*
X86354364Y-114098313D01*
X86334532Y-114324998D01*
X86334532Y-114325001D01*
X86354364Y-114551686D01*
X86354366Y-114551697D01*
X86413258Y-114771488D01*
X86413261Y-114771497D01*
X86509431Y-114977732D01*
X86509432Y-114977734D01*
X86639954Y-115164141D01*
X86800858Y-115325045D01*
X86800861Y-115325047D01*
X86987266Y-115455568D01*
X87193504Y-115551739D01*
X87193509Y-115551740D01*
X87193511Y-115551741D01*
X87337136Y-115590225D01*
X87396797Y-115626590D01*
X87427326Y-115689437D01*
X87419031Y-115758812D01*
X87374546Y-115812690D01*
X87337136Y-115829775D01*
X87193511Y-115868258D01*
X87193502Y-115868261D01*
X86987267Y-115964431D01*
X86987265Y-115964432D01*
X86800858Y-116094954D01*
X86639954Y-116255858D01*
X86509432Y-116442265D01*
X86509431Y-116442267D01*
X86413261Y-116648502D01*
X86413258Y-116648511D01*
X86354366Y-116868302D01*
X86354364Y-116868313D01*
X86334532Y-117094998D01*
X86334532Y-117095001D01*
X86354364Y-117321686D01*
X86354366Y-117321697D01*
X86413258Y-117541488D01*
X86413261Y-117541497D01*
X86509431Y-117747732D01*
X86509432Y-117747734D01*
X86639954Y-117934141D01*
X86800858Y-118095045D01*
X86800861Y-118095047D01*
X86987266Y-118225568D01*
X87193504Y-118321739D01*
X87413308Y-118380635D01*
X87575230Y-118394801D01*
X87639998Y-118400468D01*
X87640000Y-118400468D01*
X87640002Y-118400468D01*
X87696673Y-118395509D01*
X87866692Y-118380635D01*
X88086496Y-118321739D01*
X88292734Y-118225568D01*
X88479139Y-118095047D01*
X88640047Y-117934139D01*
X88770568Y-117747734D01*
X88866739Y-117541496D01*
X88925635Y-117321692D01*
X88945468Y-117095000D01*
X88925635Y-116868308D01*
X88866739Y-116648504D01*
X88770568Y-116442266D01*
X88640047Y-116255861D01*
X88640045Y-116255858D01*
X88479141Y-116094954D01*
X88292734Y-115964432D01*
X88292732Y-115964431D01*
X88086497Y-115868261D01*
X88086488Y-115868258D01*
X87963966Y-115835429D01*
X87942862Y-115829774D01*
X87883202Y-115793410D01*
X87852673Y-115730563D01*
X87860968Y-115661188D01*
X87905453Y-115607310D01*
X87942862Y-115590225D01*
X88086496Y-115551739D01*
X88292734Y-115455568D01*
X88479139Y-115325047D01*
X88640047Y-115164139D01*
X88770568Y-114977734D01*
X88866739Y-114771496D01*
X88925635Y-114551692D01*
X88945468Y-114325000D01*
X88941197Y-114276188D01*
X88925635Y-114098313D01*
X88925635Y-114098308D01*
X88866739Y-113878504D01*
X88770568Y-113672266D01*
X88640047Y-113485861D01*
X88640045Y-113485858D01*
X88479141Y-113324954D01*
X88292734Y-113194432D01*
X88292732Y-113194431D01*
X88086497Y-113098261D01*
X88086488Y-113098258D01*
X87963966Y-113065429D01*
X87942862Y-113059774D01*
X87883202Y-113023410D01*
X87852673Y-112960563D01*
X87860968Y-112891188D01*
X87905453Y-112837310D01*
X87942862Y-112820225D01*
X88086496Y-112781739D01*
X88292734Y-112685568D01*
X88479139Y-112555047D01*
X88640047Y-112394139D01*
X88770568Y-112207734D01*
X88866739Y-112001496D01*
X88925635Y-111781692D01*
X88945468Y-111555000D01*
X88941197Y-111506188D01*
X88925635Y-111328313D01*
X88925635Y-111328308D01*
X88866739Y-111108504D01*
X88770568Y-110902266D01*
X88640047Y-110715861D01*
X88640045Y-110715858D01*
X88479141Y-110554954D01*
X88292734Y-110424432D01*
X88292732Y-110424431D01*
X88086497Y-110328261D01*
X88086488Y-110328258D01*
X87963966Y-110295429D01*
X87942862Y-110289774D01*
X87883202Y-110253410D01*
X87852673Y-110190563D01*
X87860968Y-110121188D01*
X87905453Y-110067310D01*
X87942862Y-110050225D01*
X88086496Y-110011739D01*
X88292734Y-109915568D01*
X88479139Y-109785047D01*
X88640047Y-109624139D01*
X88770568Y-109437734D01*
X88866739Y-109231496D01*
X88925635Y-109011692D01*
X88945246Y-108787542D01*
X88945468Y-108785001D01*
X88945468Y-108784998D01*
X88930566Y-108614673D01*
X88925635Y-108558308D01*
X88866739Y-108338504D01*
X88770568Y-108132266D01*
X88640047Y-107945861D01*
X88640045Y-107945858D01*
X88479141Y-107784954D01*
X88292734Y-107654432D01*
X88292732Y-107654431D01*
X88086497Y-107558261D01*
X88086488Y-107558258D01*
X87866697Y-107499366D01*
X87866693Y-107499365D01*
X87866692Y-107499365D01*
X87866691Y-107499364D01*
X87866686Y-107499364D01*
X87640002Y-107479532D01*
X87639998Y-107479532D01*
X87413313Y-107499364D01*
X87413302Y-107499366D01*
X87193511Y-107558258D01*
X87193502Y-107558261D01*
X86987267Y-107654431D01*
X86987265Y-107654432D01*
X86800858Y-107784954D01*
X86639954Y-107945858D01*
X86579902Y-108031623D01*
X86525325Y-108075248D01*
X86478327Y-108084500D01*
X86110397Y-108084500D01*
X86043358Y-108064815D01*
X85997603Y-108012011D01*
X85987659Y-107942853D01*
X85998015Y-107908096D01*
X86026736Y-107846502D01*
X86026739Y-107846496D01*
X86085635Y-107626692D01*
X86105468Y-107400000D01*
X86085635Y-107173308D01*
X86026739Y-106953504D01*
X85930568Y-106747266D01*
X85800047Y-106560861D01*
X85800045Y-106560858D01*
X85639141Y-106399954D01*
X85452734Y-106269432D01*
X85452732Y-106269431D01*
X85246497Y-106173261D01*
X85246488Y-106173258D01*
X85026697Y-106114366D01*
X85026693Y-106114365D01*
X85026692Y-106114365D01*
X85026691Y-106114364D01*
X85026686Y-106114364D01*
X84800002Y-106094532D01*
X84799998Y-106094532D01*
X84573313Y-106114364D01*
X84573302Y-106114366D01*
X84353511Y-106173258D01*
X84353502Y-106173261D01*
X84147267Y-106269431D01*
X84147265Y-106269432D01*
X83960858Y-106399954D01*
X83799954Y-106560858D01*
X83739902Y-106646623D01*
X83685325Y-106690248D01*
X83638327Y-106699500D01*
X82741519Y-106699500D01*
X82674480Y-106679815D01*
X82653838Y-106663181D01*
X68571367Y-92580710D01*
X68542006Y-92533983D01*
X68505788Y-92430476D01*
X68499506Y-92420478D01*
X68480500Y-92354507D01*
X68480500Y-55032711D01*
X68500185Y-54965672D01*
X68533377Y-54931136D01*
X68651401Y-54848495D01*
X68818495Y-54681401D01*
X68948425Y-54495842D01*
X69003002Y-54452217D01*
X69072500Y-54445023D01*
X69134855Y-54476546D01*
X69151575Y-54495842D01*
X69281501Y-54681396D01*
X69281506Y-54681402D01*
X69448597Y-54848494D01*
X69566623Y-54931136D01*
X69610248Y-54985713D01*
X69619500Y-55032711D01*
X69619500Y-91251006D01*
X69619500Y-91388994D01*
X69619500Y-91388996D01*
X69619499Y-91388996D01*
X69646418Y-91524322D01*
X69646421Y-91524332D01*
X69699222Y-91651807D01*
X69775887Y-91766545D01*
X69775888Y-91766546D01*
X75455886Y-97446543D01*
X79458630Y-101449287D01*
X79487990Y-101496013D01*
X79524209Y-101599519D01*
X79524211Y-101599522D01*
X79620184Y-101752262D01*
X79747738Y-101879816D01*
X79900478Y-101975789D01*
X80032993Y-102022158D01*
X80070745Y-102035368D01*
X80070750Y-102035369D01*
X80249996Y-102055565D01*
X80250000Y-102055565D01*
X80250004Y-102055565D01*
X80429249Y-102035369D01*
X80429252Y-102035368D01*
X80429255Y-102035368D01*
X80599522Y-101975789D01*
X80752262Y-101879816D01*
X80879816Y-101752262D01*
X80975789Y-101599522D01*
X81035368Y-101429255D01*
X81035369Y-101429249D01*
X81055565Y-101250003D01*
X81055565Y-101249996D01*
X81035369Y-101070750D01*
X81035368Y-101070745D01*
X80975788Y-100900476D01*
X80901462Y-100782188D01*
X80879816Y-100747738D01*
X80752262Y-100620184D01*
X80599522Y-100524211D01*
X80599519Y-100524209D01*
X80496013Y-100487990D01*
X80449287Y-100458630D01*
X80430651Y-100439994D01*
X85135057Y-100439994D01*
X85135057Y-100440005D01*
X85154807Y-100753942D01*
X85154808Y-100753949D01*
X85213755Y-101062958D01*
X85310963Y-101362132D01*
X85310965Y-101362137D01*
X85444900Y-101646761D01*
X85444903Y-101646767D01*
X85613452Y-101912359D01*
X85704286Y-102022158D01*
X86345747Y-101380697D01*
X86419588Y-101482330D01*
X86597670Y-101660412D01*
X86699300Y-101734251D01*
X86054972Y-102378579D01*
X86297780Y-102554990D01*
X86297790Y-102554996D01*
X86573447Y-102706540D01*
X86573455Y-102706544D01*
X86865926Y-102822340D01*
X87170620Y-102900573D01*
X87170629Y-102900575D01*
X87482701Y-102939999D01*
X87482715Y-102940000D01*
X87797285Y-102940000D01*
X87797298Y-102939999D01*
X88109370Y-102900575D01*
X88109379Y-102900573D01*
X88414073Y-102822340D01*
X88706544Y-102706544D01*
X88706552Y-102706540D01*
X88982203Y-102555000D01*
X88982214Y-102554993D01*
X89225025Y-102378579D01*
X89225026Y-102378579D01*
X88580698Y-101734251D01*
X88682330Y-101660412D01*
X88860412Y-101482330D01*
X88934252Y-101380698D01*
X89575712Y-102022158D01*
X89666544Y-101912364D01*
X89835096Y-101646767D01*
X89835099Y-101646761D01*
X89969034Y-101362137D01*
X89969036Y-101362132D01*
X90066244Y-101062958D01*
X90125191Y-100753949D01*
X90125192Y-100753942D01*
X90144943Y-100440005D01*
X90144943Y-100439994D01*
X90125192Y-100126057D01*
X90125191Y-100126050D01*
X90066244Y-99817041D01*
X89969036Y-99517867D01*
X89969034Y-99517862D01*
X89835099Y-99233238D01*
X89835096Y-99233232D01*
X89666544Y-98967635D01*
X89575712Y-98857839D01*
X88934251Y-99499300D01*
X88860412Y-99397670D01*
X88682330Y-99219588D01*
X88580697Y-99145747D01*
X89225026Y-98501419D01*
X88982219Y-98325009D01*
X88982209Y-98325003D01*
X88706552Y-98173459D01*
X88706544Y-98173455D01*
X88414073Y-98057659D01*
X88109379Y-97979426D01*
X88109370Y-97979424D01*
X87797298Y-97940000D01*
X87482701Y-97940000D01*
X87170629Y-97979424D01*
X87170620Y-97979426D01*
X86865926Y-98057659D01*
X86573455Y-98173455D01*
X86573447Y-98173459D01*
X86297790Y-98325003D01*
X86297772Y-98325014D01*
X86054973Y-98501417D01*
X86054972Y-98501419D01*
X86699301Y-99145748D01*
X86597670Y-99219588D01*
X86419588Y-99397670D01*
X86345748Y-99499301D01*
X85704286Y-98857839D01*
X85613460Y-98967628D01*
X85613457Y-98967632D01*
X85444903Y-99233232D01*
X85444900Y-99233238D01*
X85310965Y-99517862D01*
X85310963Y-99517867D01*
X85213755Y-99817041D01*
X85154808Y-100126050D01*
X85154807Y-100126057D01*
X85135057Y-100439994D01*
X80430651Y-100439994D01*
X71056819Y-91066162D01*
X71023334Y-91004839D01*
X71020500Y-90978481D01*
X71020500Y-77999998D01*
X74614532Y-77999998D01*
X74614532Y-78000001D01*
X74634364Y-78226686D01*
X74634366Y-78226697D01*
X74693258Y-78446488D01*
X74693261Y-78446497D01*
X74789431Y-78652732D01*
X74789432Y-78652734D01*
X74919954Y-78839141D01*
X75080857Y-79000044D01*
X75080860Y-79000046D01*
X75080861Y-79000047D01*
X75166623Y-79060097D01*
X75210248Y-79114673D01*
X75219500Y-79161672D01*
X75219500Y-81838326D01*
X75199815Y-81905365D01*
X75166624Y-81939901D01*
X75080863Y-81999951D01*
X74919951Y-82160862D01*
X74789432Y-82347265D01*
X74789431Y-82347267D01*
X74693261Y-82553502D01*
X74693258Y-82553511D01*
X74634366Y-82773302D01*
X74634364Y-82773313D01*
X74614532Y-82999998D01*
X74614532Y-83000001D01*
X74634364Y-83226686D01*
X74634366Y-83226697D01*
X74693258Y-83446488D01*
X74693261Y-83446497D01*
X74789431Y-83652732D01*
X74789432Y-83652734D01*
X74919954Y-83839141D01*
X75080858Y-84000045D01*
X75080861Y-84000047D01*
X75267266Y-84130568D01*
X75473504Y-84226739D01*
X75693308Y-84285635D01*
X75855230Y-84299801D01*
X75919998Y-84305468D01*
X75920000Y-84305468D01*
X75920002Y-84305468D01*
X75976673Y-84300509D01*
X76146692Y-84285635D01*
X76366496Y-84226739D01*
X76572734Y-84130568D01*
X76759139Y-84000047D01*
X76920047Y-83839139D01*
X77050568Y-83652734D01*
X77146739Y-83446496D01*
X77205635Y-83226692D01*
X77225468Y-83000000D01*
X77205635Y-82773308D01*
X77146739Y-82553504D01*
X77050568Y-82347266D01*
X76920047Y-82160861D01*
X76759139Y-81999953D01*
X76673376Y-81939901D01*
X76629751Y-81885324D01*
X76620500Y-81838326D01*
X76620500Y-79161672D01*
X76640185Y-79094633D01*
X76673375Y-79060098D01*
X76759139Y-79000047D01*
X76920047Y-78839139D01*
X77050568Y-78652734D01*
X77146739Y-78446496D01*
X77205635Y-78226692D01*
X77225468Y-78000000D01*
X77205635Y-77773308D01*
X77146739Y-77553504D01*
X77050568Y-77347266D01*
X76944150Y-77195284D01*
X76920045Y-77160858D01*
X76759141Y-76999954D01*
X76572734Y-76869432D01*
X76572732Y-76869431D01*
X76366497Y-76773261D01*
X76366488Y-76773258D01*
X76146697Y-76714366D01*
X76146693Y-76714365D01*
X76146692Y-76714365D01*
X76146691Y-76714364D01*
X76146686Y-76714364D01*
X75920002Y-76694532D01*
X75919998Y-76694532D01*
X75693313Y-76714364D01*
X75693302Y-76714366D01*
X75473511Y-76773258D01*
X75473502Y-76773261D01*
X75267267Y-76869431D01*
X75267265Y-76869432D01*
X75080858Y-76999954D01*
X74919954Y-77160858D01*
X74789432Y-77347265D01*
X74789431Y-77347267D01*
X74693261Y-77553502D01*
X74693258Y-77553511D01*
X74634366Y-77773302D01*
X74634364Y-77773313D01*
X74614532Y-77999998D01*
X71020500Y-77999998D01*
X71020500Y-68249998D01*
X74614532Y-68249998D01*
X74614532Y-68250001D01*
X74634364Y-68476686D01*
X74634366Y-68476697D01*
X74693258Y-68696488D01*
X74693261Y-68696497D01*
X74789431Y-68902732D01*
X74789432Y-68902734D01*
X74919954Y-69089141D01*
X75080857Y-69250044D01*
X75080860Y-69250046D01*
X75080861Y-69250047D01*
X75166623Y-69310097D01*
X75210248Y-69364673D01*
X75219500Y-69411672D01*
X75219500Y-71838326D01*
X75199815Y-71905365D01*
X75166624Y-71939901D01*
X75080863Y-71999951D01*
X74919951Y-72160862D01*
X74789432Y-72347265D01*
X74789431Y-72347267D01*
X74693261Y-72553502D01*
X74693258Y-72553511D01*
X74634366Y-72773302D01*
X74634364Y-72773313D01*
X74614532Y-72999998D01*
X74614532Y-73000001D01*
X74634364Y-73226686D01*
X74634366Y-73226697D01*
X74693258Y-73446488D01*
X74693261Y-73446497D01*
X74789431Y-73652732D01*
X74789432Y-73652734D01*
X74919954Y-73839141D01*
X75080858Y-74000045D01*
X75080861Y-74000047D01*
X75267266Y-74130568D01*
X75473504Y-74226739D01*
X75693308Y-74285635D01*
X75855230Y-74299801D01*
X75919998Y-74305468D01*
X75920000Y-74305468D01*
X75920002Y-74305468D01*
X75976673Y-74300509D01*
X76146692Y-74285635D01*
X76366496Y-74226739D01*
X76572734Y-74130568D01*
X76759139Y-74000047D01*
X76920047Y-73839139D01*
X77050568Y-73652734D01*
X77146739Y-73446496D01*
X77205635Y-73226692D01*
X77225468Y-73000000D01*
X77225468Y-72999998D01*
X84774532Y-72999998D01*
X84774532Y-73000001D01*
X84794364Y-73226686D01*
X84794366Y-73226697D01*
X84853258Y-73446488D01*
X84853261Y-73446497D01*
X84949431Y-73652732D01*
X84949432Y-73652734D01*
X85079954Y-73839141D01*
X85240858Y-74000045D01*
X85240861Y-74000047D01*
X85427266Y-74130568D01*
X85633504Y-74226739D01*
X85853308Y-74285635D01*
X86015230Y-74299801D01*
X86079998Y-74305468D01*
X86080000Y-74305468D01*
X86080001Y-74305468D01*
X86098304Y-74303866D01*
X86306692Y-74285635D01*
X86306697Y-74285633D01*
X86311881Y-74285180D01*
X86380381Y-74298946D01*
X86410370Y-74321027D01*
X87263181Y-75173838D01*
X87296666Y-75235161D01*
X87299500Y-75261519D01*
X87299500Y-77082490D01*
X87279815Y-77149529D01*
X87227011Y-77195284D01*
X87157853Y-77205228D01*
X87094297Y-77176203D01*
X87080511Y-77162197D01*
X87079655Y-77161177D01*
X86918820Y-77000342D01*
X86732482Y-76869865D01*
X86526328Y-76773734D01*
X86330000Y-76721127D01*
X86330000Y-77684314D01*
X86325606Y-77679920D01*
X86234394Y-77627259D01*
X86132661Y-77600000D01*
X86027339Y-77600000D01*
X85925606Y-77627259D01*
X85834394Y-77679920D01*
X85830000Y-77684314D01*
X85830000Y-76721127D01*
X85633671Y-76773734D01*
X85427517Y-76869865D01*
X85241179Y-77000342D01*
X85080342Y-77161179D01*
X84949865Y-77347517D01*
X84853734Y-77553673D01*
X84853730Y-77553682D01*
X84801127Y-77749999D01*
X84801128Y-77750000D01*
X85764314Y-77750000D01*
X85759920Y-77754394D01*
X85707259Y-77845606D01*
X85680000Y-77947339D01*
X85680000Y-78052661D01*
X85707259Y-78154394D01*
X85759920Y-78245606D01*
X85764314Y-78250000D01*
X84801128Y-78250000D01*
X84853730Y-78446317D01*
X84853734Y-78446326D01*
X84949865Y-78652482D01*
X85080342Y-78838820D01*
X85241179Y-78999657D01*
X85427517Y-79130134D01*
X85633673Y-79226265D01*
X85633682Y-79226269D01*
X85829999Y-79278872D01*
X85830000Y-79278871D01*
X85830000Y-78315686D01*
X85834394Y-78320080D01*
X85925606Y-78372741D01*
X86027339Y-78400000D01*
X86132661Y-78400000D01*
X86234394Y-78372741D01*
X86325606Y-78320080D01*
X86330000Y-78315686D01*
X86330000Y-79278872D01*
X86526317Y-79226269D01*
X86526326Y-79226265D01*
X86732482Y-79130134D01*
X86918820Y-78999657D01*
X87079654Y-78838823D01*
X87080504Y-78837811D01*
X87080991Y-78837486D01*
X87083490Y-78834988D01*
X87083991Y-78835489D01*
X87138672Y-78799104D01*
X87208533Y-78797990D01*
X87267906Y-78834822D01*
X87297941Y-78897906D01*
X87299500Y-78917509D01*
X87299500Y-80738480D01*
X87279815Y-80805519D01*
X87263181Y-80826161D01*
X86410369Y-81678972D01*
X86349046Y-81712457D01*
X86311881Y-81714819D01*
X86306680Y-81714364D01*
X86287171Y-81712657D01*
X86080002Y-81694532D01*
X86079998Y-81694532D01*
X85853313Y-81714364D01*
X85853302Y-81714366D01*
X85633511Y-81773258D01*
X85633502Y-81773261D01*
X85427267Y-81869431D01*
X85427265Y-81869432D01*
X85240858Y-81999954D01*
X85079954Y-82160858D01*
X84949432Y-82347265D01*
X84949431Y-82347267D01*
X84853261Y-82553502D01*
X84853258Y-82553511D01*
X84794366Y-82773302D01*
X84794364Y-82773313D01*
X84774532Y-82999998D01*
X84774532Y-83000001D01*
X84794364Y-83226686D01*
X84794366Y-83226697D01*
X84853258Y-83446488D01*
X84853261Y-83446497D01*
X84949431Y-83652732D01*
X84949432Y-83652734D01*
X85079954Y-83839141D01*
X85240858Y-84000045D01*
X85240861Y-84000047D01*
X85427266Y-84130568D01*
X85633504Y-84226739D01*
X85853308Y-84285635D01*
X86015230Y-84299801D01*
X86079998Y-84305468D01*
X86080000Y-84305468D01*
X86080002Y-84305468D01*
X86136673Y-84300509D01*
X86306692Y-84285635D01*
X86526496Y-84226739D01*
X86732734Y-84130568D01*
X86919139Y-84000047D01*
X87080047Y-83839139D01*
X87210568Y-83652734D01*
X87306739Y-83446496D01*
X87365635Y-83226692D01*
X87385468Y-83000000D01*
X87365635Y-82773308D01*
X87365633Y-82773303D01*
X87365180Y-82768117D01*
X87378946Y-82699617D01*
X87401024Y-82669631D01*
X88544114Y-81526543D01*
X88620775Y-81411811D01*
X88673580Y-81284328D01*
X88700500Y-81148994D01*
X88700500Y-81011006D01*
X88700500Y-74851007D01*
X88700500Y-74851004D01*
X88673581Y-74715677D01*
X88673580Y-74715676D01*
X88673580Y-74715672D01*
X88673578Y-74715667D01*
X88620777Y-74588192D01*
X88544112Y-74473454D01*
X88544111Y-74473453D01*
X87401027Y-73330370D01*
X87367542Y-73269047D01*
X87365180Y-73231881D01*
X87365633Y-73226697D01*
X87365635Y-73226692D01*
X87385468Y-73000000D01*
X87365635Y-72773308D01*
X87306739Y-72553504D01*
X87210568Y-72347266D01*
X87080047Y-72160861D01*
X87080045Y-72160858D01*
X86919141Y-71999954D01*
X86732734Y-71869432D01*
X86732732Y-71869431D01*
X86526497Y-71773261D01*
X86526488Y-71773258D01*
X86306697Y-71714366D01*
X86306693Y-71714365D01*
X86306692Y-71714365D01*
X86306691Y-71714364D01*
X86306686Y-71714364D01*
X86080002Y-71694532D01*
X86079998Y-71694532D01*
X85853313Y-71714364D01*
X85853302Y-71714366D01*
X85633511Y-71773258D01*
X85633502Y-71773261D01*
X85427267Y-71869431D01*
X85427265Y-71869432D01*
X85240858Y-71999954D01*
X85079954Y-72160858D01*
X84949432Y-72347265D01*
X84949431Y-72347267D01*
X84853261Y-72553502D01*
X84853258Y-72553511D01*
X84794366Y-72773302D01*
X84794364Y-72773313D01*
X84774532Y-72999998D01*
X77225468Y-72999998D01*
X77205635Y-72773308D01*
X77146739Y-72553504D01*
X77050568Y-72347266D01*
X76920047Y-72160861D01*
X76759139Y-71999953D01*
X76673376Y-71939901D01*
X76629751Y-71885324D01*
X76620500Y-71838326D01*
X76620500Y-69411672D01*
X76640185Y-69344633D01*
X76673375Y-69310098D01*
X76759139Y-69250047D01*
X76920047Y-69089139D01*
X77050568Y-68902734D01*
X77146739Y-68696496D01*
X77205635Y-68476692D01*
X77225468Y-68250000D01*
X77205635Y-68023308D01*
X77199389Y-67999999D01*
X84801127Y-67999999D01*
X84801128Y-68000000D01*
X85764314Y-68000000D01*
X85759920Y-68004394D01*
X85707259Y-68095606D01*
X85680000Y-68197339D01*
X85680000Y-68302661D01*
X85707259Y-68404394D01*
X85759920Y-68495606D01*
X85764314Y-68500000D01*
X84801128Y-68500000D01*
X84853730Y-68696317D01*
X84853734Y-68696326D01*
X84949865Y-68902482D01*
X85080342Y-69088820D01*
X85241179Y-69249657D01*
X85427517Y-69380134D01*
X85633673Y-69476265D01*
X85633682Y-69476269D01*
X85829999Y-69528872D01*
X85830000Y-69528871D01*
X85830000Y-68565686D01*
X85834394Y-68570080D01*
X85925606Y-68622741D01*
X86027339Y-68650000D01*
X86132661Y-68650000D01*
X86234394Y-68622741D01*
X86325606Y-68570080D01*
X86330000Y-68565686D01*
X86330000Y-69528872D01*
X86526317Y-69476269D01*
X86526326Y-69476265D01*
X86732482Y-69380134D01*
X86918820Y-69249657D01*
X87079657Y-69088820D01*
X87210134Y-68902482D01*
X87306265Y-68696326D01*
X87306269Y-68696317D01*
X87358872Y-68500000D01*
X86395686Y-68500000D01*
X86400080Y-68495606D01*
X86452741Y-68404394D01*
X86480000Y-68302661D01*
X86480000Y-68197339D01*
X86452741Y-68095606D01*
X86400080Y-68004394D01*
X86395686Y-68000000D01*
X87358872Y-68000000D01*
X87358872Y-67999999D01*
X87306269Y-67803682D01*
X87306265Y-67803673D01*
X87210134Y-67597517D01*
X87079657Y-67411179D01*
X86918820Y-67250342D01*
X86732482Y-67119865D01*
X86526328Y-67023734D01*
X86330000Y-66971127D01*
X86330000Y-67934314D01*
X86325606Y-67929920D01*
X86234394Y-67877259D01*
X86132661Y-67850000D01*
X86027339Y-67850000D01*
X85925606Y-67877259D01*
X85834394Y-67929920D01*
X85830000Y-67934314D01*
X85830000Y-66971127D01*
X85633671Y-67023734D01*
X85427517Y-67119865D01*
X85241179Y-67250342D01*
X85080342Y-67411179D01*
X84949865Y-67597517D01*
X84853734Y-67803673D01*
X84853730Y-67803682D01*
X84801127Y-67999999D01*
X77199389Y-67999999D01*
X77146739Y-67803504D01*
X77050568Y-67597266D01*
X76920047Y-67410861D01*
X76920045Y-67410858D01*
X76759141Y-67249954D01*
X76572734Y-67119432D01*
X76572732Y-67119431D01*
X76366497Y-67023261D01*
X76366488Y-67023258D01*
X76146697Y-66964366D01*
X76146693Y-66964365D01*
X76146692Y-66964365D01*
X76146691Y-66964364D01*
X76146686Y-66964364D01*
X75920002Y-66944532D01*
X75919998Y-66944532D01*
X75693313Y-66964364D01*
X75693302Y-66964366D01*
X75473511Y-67023258D01*
X75473502Y-67023261D01*
X75267267Y-67119431D01*
X75267265Y-67119432D01*
X75080858Y-67249954D01*
X74919954Y-67410858D01*
X74789432Y-67597265D01*
X74789431Y-67597267D01*
X74693261Y-67803502D01*
X74693258Y-67803511D01*
X74634366Y-68023302D01*
X74634364Y-68023313D01*
X74614532Y-68249998D01*
X71020500Y-68249998D01*
X71020500Y-55032711D01*
X71040185Y-54965672D01*
X71073377Y-54931136D01*
X71191401Y-54848495D01*
X71358495Y-54681401D01*
X71488425Y-54495842D01*
X71543002Y-54452217D01*
X71612500Y-54445023D01*
X71674855Y-54476546D01*
X71691575Y-54495842D01*
X71821500Y-54681395D01*
X71821505Y-54681401D01*
X71988599Y-54848495D01*
X72085384Y-54916265D01*
X72182165Y-54984032D01*
X72182167Y-54984033D01*
X72182170Y-54984035D01*
X72396337Y-55083903D01*
X72624592Y-55145063D01*
X72812918Y-55161539D01*
X72859999Y-55165659D01*
X72860000Y-55165659D01*
X72860001Y-55165659D01*
X72899234Y-55162226D01*
X73095408Y-55145063D01*
X73323663Y-55083903D01*
X73537830Y-54984035D01*
X73731401Y-54848495D01*
X73898495Y-54681401D01*
X74028425Y-54495842D01*
X74083002Y-54452217D01*
X74152500Y-54445023D01*
X74214855Y-54476546D01*
X74231575Y-54495842D01*
X74361500Y-54681395D01*
X74361505Y-54681401D01*
X74528599Y-54848495D01*
X74625384Y-54916265D01*
X74722165Y-54984032D01*
X74722167Y-54984033D01*
X74722170Y-54984035D01*
X74936337Y-55083903D01*
X75164592Y-55145063D01*
X75352918Y-55161539D01*
X75399999Y-55165659D01*
X75400000Y-55165659D01*
X75400001Y-55165659D01*
X75439234Y-55162226D01*
X75635408Y-55145063D01*
X75863663Y-55083903D01*
X76077830Y-54984035D01*
X76271401Y-54848495D01*
X76438495Y-54681401D01*
X76568425Y-54495842D01*
X76623002Y-54452217D01*
X76692500Y-54445023D01*
X76754855Y-54476546D01*
X76771575Y-54495842D01*
X76901500Y-54681395D01*
X76901505Y-54681401D01*
X77068599Y-54848495D01*
X77165384Y-54916265D01*
X77262165Y-54984032D01*
X77262167Y-54984033D01*
X77262170Y-54984035D01*
X77476337Y-55083903D01*
X77704592Y-55145063D01*
X77892918Y-55161539D01*
X77939999Y-55165659D01*
X77940000Y-55165659D01*
X77940001Y-55165659D01*
X77979234Y-55162226D01*
X78175408Y-55145063D01*
X78403663Y-55083903D01*
X78617830Y-54984035D01*
X78811401Y-54848495D01*
X78978495Y-54681401D01*
X79108425Y-54495842D01*
X79163002Y-54452217D01*
X79232500Y-54445023D01*
X79294855Y-54476546D01*
X79311575Y-54495842D01*
X79441500Y-54681395D01*
X79441505Y-54681401D01*
X79608599Y-54848495D01*
X79705384Y-54916265D01*
X79802165Y-54984032D01*
X79802167Y-54984033D01*
X79802170Y-54984035D01*
X80016337Y-55083903D01*
X80244592Y-55145063D01*
X80432918Y-55161539D01*
X80479999Y-55165659D01*
X80480000Y-55165659D01*
X80480001Y-55165659D01*
X80519234Y-55162226D01*
X80715408Y-55145063D01*
X80943663Y-55083903D01*
X81157830Y-54984035D01*
X81351401Y-54848495D01*
X81518495Y-54681401D01*
X81648425Y-54495842D01*
X81703002Y-54452217D01*
X81772500Y-54445023D01*
X81834855Y-54476546D01*
X81851575Y-54495842D01*
X81981500Y-54681395D01*
X81981505Y-54681401D01*
X82148599Y-54848495D01*
X82245384Y-54916265D01*
X82342165Y-54984032D01*
X82342167Y-54984033D01*
X82342170Y-54984035D01*
X82556337Y-55083903D01*
X82784592Y-55145063D01*
X82972918Y-55161539D01*
X83019999Y-55165659D01*
X83020000Y-55165659D01*
X83020001Y-55165659D01*
X83059234Y-55162226D01*
X83255408Y-55145063D01*
X83483663Y-55083903D01*
X83697830Y-54984035D01*
X83891401Y-54848495D01*
X84058495Y-54681401D01*
X84188425Y-54495842D01*
X84243002Y-54452217D01*
X84312500Y-54445023D01*
X84374855Y-54476546D01*
X84391575Y-54495842D01*
X84521500Y-54681395D01*
X84521505Y-54681401D01*
X84688599Y-54848495D01*
X84785384Y-54916265D01*
X84882165Y-54984032D01*
X84882167Y-54984033D01*
X84882170Y-54984035D01*
X85096337Y-55083903D01*
X85324592Y-55145063D01*
X85512918Y-55161539D01*
X85559999Y-55165659D01*
X85560000Y-55165659D01*
X85560001Y-55165659D01*
X85599234Y-55162226D01*
X85795408Y-55145063D01*
X86023663Y-55083903D01*
X86237830Y-54984035D01*
X86431401Y-54848495D01*
X86598495Y-54681401D01*
X86728425Y-54495842D01*
X86783002Y-54452217D01*
X86852500Y-54445023D01*
X86914855Y-54476546D01*
X86931575Y-54495842D01*
X87061500Y-54681395D01*
X87061505Y-54681401D01*
X87228599Y-54848495D01*
X87325384Y-54916265D01*
X87422165Y-54984032D01*
X87422167Y-54984033D01*
X87422170Y-54984035D01*
X87636337Y-55083903D01*
X87864592Y-55145063D01*
X88052918Y-55161539D01*
X88099999Y-55165659D01*
X88100000Y-55165659D01*
X88100001Y-55165659D01*
X88139234Y-55162226D01*
X88335408Y-55145063D01*
X88563663Y-55083903D01*
X88777830Y-54984035D01*
X88971401Y-54848495D01*
X89138495Y-54681401D01*
X89268730Y-54495405D01*
X89323307Y-54451781D01*
X89392805Y-54444587D01*
X89455160Y-54476110D01*
X89471879Y-54495405D01*
X89601890Y-54681078D01*
X89768917Y-54848105D01*
X89962421Y-54983600D01*
X90176507Y-55083429D01*
X90176516Y-55083433D01*
X90390000Y-55140634D01*
X90390000Y-54243012D01*
X90447007Y-54275925D01*
X90574174Y-54310000D01*
X90705826Y-54310000D01*
X90832993Y-54275925D01*
X90890000Y-54243012D01*
X90890000Y-55140633D01*
X91103483Y-55083433D01*
X91103492Y-55083429D01*
X91317578Y-54983600D01*
X91511082Y-54848105D01*
X91678105Y-54681082D01*
X91813600Y-54487578D01*
X91913429Y-54273492D01*
X91913432Y-54273486D01*
X91970636Y-54060000D01*
X91073012Y-54060000D01*
X91105925Y-54002993D01*
X91140000Y-53875826D01*
X91140000Y-53744174D01*
X91105925Y-53617007D01*
X91073012Y-53560000D01*
X91970636Y-53560000D01*
X91970635Y-53559999D01*
X91913432Y-53346513D01*
X91913429Y-53346507D01*
X91813600Y-53132422D01*
X91813599Y-53132420D01*
X91678113Y-52938926D01*
X91678108Y-52938920D01*
X91511078Y-52771890D01*
X91325405Y-52641879D01*
X91281780Y-52587302D01*
X91274588Y-52517804D01*
X91306110Y-52455449D01*
X91325406Y-52438730D01*
X91325842Y-52438425D01*
X91511401Y-52308495D01*
X91678495Y-52141401D01*
X91814035Y-51947830D01*
X91913903Y-51733663D01*
X91975063Y-51505408D01*
X91995659Y-51270000D01*
X91975063Y-51034592D01*
X91913903Y-50806337D01*
X91853546Y-50676903D01*
X91843055Y-50607828D01*
X91871574Y-50544044D01*
X91930051Y-50505804D01*
X91965929Y-50500500D01*
X92375500Y-50500500D01*
X92442539Y-50520185D01*
G37*
G04 #@! TD.AperFunction*
M02*
