G04 #@! TF.GenerationSoftware,KiCad,Pcbnew,8.0.7*
G04 #@! TF.CreationDate,2024-12-31T17:31:26-05:00*
G04 #@! TF.ProjectId,LauCameraTrigger_MimasA7,4c617543-616d-4657-9261-547269676765,rev?*
G04 #@! TF.SameCoordinates,Original*
G04 #@! TF.FileFunction,Legend,Bot*
G04 #@! TF.FilePolarity,Positive*
%FSLAX46Y46*%
G04 Gerber Fmt 4.6, Leading zero omitted, Abs format (unit mm)*
G04 Created by KiCad (PCBNEW 8.0.7) date 2024-12-31 17:31:26*
%MOMM*%
%LPD*%
G01*
G04 APERTURE LIST*
%ADD10C,0.150000*%
%ADD11C,0.120000*%
G04 APERTURE END LIST*
D10*
X49664819Y-137126666D02*
X50379104Y-137126666D01*
X50379104Y-137126666D02*
X50521961Y-137079047D01*
X50521961Y-137079047D02*
X50617200Y-136983809D01*
X50617200Y-136983809D02*
X50664819Y-136840952D01*
X50664819Y-136840952D02*
X50664819Y-136745714D01*
X49664819Y-138079047D02*
X49664819Y-137602857D01*
X49664819Y-137602857D02*
X50141009Y-137555238D01*
X50141009Y-137555238D02*
X50093390Y-137602857D01*
X50093390Y-137602857D02*
X50045771Y-137698095D01*
X50045771Y-137698095D02*
X50045771Y-137936190D01*
X50045771Y-137936190D02*
X50093390Y-138031428D01*
X50093390Y-138031428D02*
X50141009Y-138079047D01*
X50141009Y-138079047D02*
X50236247Y-138126666D01*
X50236247Y-138126666D02*
X50474342Y-138126666D01*
X50474342Y-138126666D02*
X50569580Y-138079047D01*
X50569580Y-138079047D02*
X50617200Y-138031428D01*
X50617200Y-138031428D02*
X50664819Y-137936190D01*
X50664819Y-137936190D02*
X50664819Y-137698095D01*
X50664819Y-137698095D02*
X50617200Y-137602857D01*
X50617200Y-137602857D02*
X50569580Y-137555238D01*
X49664819Y-52206666D02*
X50379104Y-52206666D01*
X50379104Y-52206666D02*
X50521961Y-52159047D01*
X50521961Y-52159047D02*
X50617200Y-52063809D01*
X50617200Y-52063809D02*
X50664819Y-51920952D01*
X50664819Y-51920952D02*
X50664819Y-51825714D01*
X49998152Y-53111428D02*
X50664819Y-53111428D01*
X49617200Y-52873333D02*
X50331485Y-52635238D01*
X50331485Y-52635238D02*
X50331485Y-53254285D01*
D11*
X51210000Y-136190000D02*
X51210000Y-134860000D01*
X51210000Y-134860000D02*
X52540000Y-134860000D01*
X91970000Y-134860000D02*
X53810000Y-134860000D01*
X53810000Y-137460000D02*
X53810000Y-134860000D01*
X91970000Y-140060000D02*
X91970000Y-134860000D01*
X51210000Y-140060000D02*
X51210000Y-137460000D01*
X51210000Y-137460000D02*
X53810000Y-137460000D01*
X91970000Y-140060000D02*
X51210000Y-140060000D01*
X51210000Y-51270000D02*
X51210000Y-49940000D01*
X51210000Y-49940000D02*
X52540000Y-49940000D01*
X91970000Y-49940000D02*
X53810000Y-49940000D01*
X53810000Y-52540000D02*
X53810000Y-49940000D01*
X91970000Y-55140000D02*
X91970000Y-49940000D01*
X51210000Y-55140000D02*
X51210000Y-52540000D01*
X51210000Y-52540000D02*
X53810000Y-52540000D01*
X91970000Y-55140000D02*
X51210000Y-55140000D01*
M02*
