M48
INCH,TZ
T1C0.0118
T2C0.0315
T3C0.0394
T4C0.0512
T5C0.1260
%
G90
G05
T1
X26685Y-36528
X29921Y-41437
X30020Y-45965
X30512Y-48917
X31594Y-39862
X31988Y-48327
T2
X21228Y-42323
X21228Y-44390
X21228Y-46457
X21228Y-48425
X25228Y-42323
X25228Y-44390
X25228Y-46457
X25228Y-48425
X29890Y-26870
X29890Y-28740
X29890Y-30709
X29890Y-32677
X33890Y-26870
X33890Y-28740
X33890Y-30709
X33890Y-32677
T3
X20685Y-20185
X20685Y-21185
X20685Y-53618
X20685Y-54618
X21685Y-20185
X21685Y-21185
X21685Y-53618
X21685Y-54618
X22685Y-20185
X22685Y-21185
X22685Y-53618
X22685Y-54618
X23685Y-20185
X23685Y-21185
X23685Y-53618
X23685Y-54618
X24685Y-20185
X24685Y-21185
X24685Y-53618
X24685Y-54618
X25685Y-20185
X25685Y-21185
X25685Y-53618
X25685Y-54618
X26685Y-20185
X26685Y-21185
X26685Y-53618
X26685Y-54618
X27685Y-20185
X27685Y-21185
X27685Y-53618
X27685Y-54618
X28685Y-20185
X28685Y-21185
X28685Y-53618
X28685Y-54618
X29685Y-20185
X29685Y-21185
X29685Y-53618
X29685Y-54618
X30685Y-20185
X30685Y-21185
X30685Y-53618
X30685Y-54618
X31685Y-20185
X31685Y-21185
X31685Y-53618
X31685Y-54618
X32685Y-20185
X32685Y-21185
X32685Y-53618
X32685Y-54618
X33386Y-42283
X33386Y-43374
X33386Y-44465
X33386Y-45555
X33386Y-46646
X33685Y-20185
X33685Y-21185
X33685Y-53618
X33685Y-54618
X34504Y-42829
X34504Y-43919
X34504Y-45010
X34504Y-46100
X34685Y-20185
X34685Y-21185
X34685Y-53618
X34685Y-54618
X35685Y-20185
X35685Y-21185
X35685Y-53618
X35685Y-54618
T4
X20866Y-39370
T5
X34504Y-39543
X34504Y-49386
M30
