G04 #@! TF.GenerationSoftware,KiCad,Pcbnew,8.0.7*
G04 #@! TF.CreationDate,2025-01-01T11:42:11-05:00*
G04 #@! TF.ProjectId,LauCameraTrigger_MimasA7,4c617543-616d-4657-9261-547269676765,rev?*
G04 #@! TF.SameCoordinates,Original*
G04 #@! TF.FileFunction,Soldermask,Bot*
G04 #@! TF.FilePolarity,Negative*
%FSLAX46Y46*%
G04 Gerber Fmt 4.6, Leading zero omitted, Abs format (unit mm)*
G04 Created by KiCad (PCBNEW 8.0.7) date 2025-01-01 11:42:11*
%MOMM*%
%LPD*%
G01*
G04 APERTURE LIST*
%ADD10C,2.600000*%
%ADD11C,1.600000*%
%ADD12O,1.600000X1.600000*%
%ADD13R,1.700000X1.700000*%
%ADD14O,1.700000X1.700000*%
%ADD15R,1.600000X1.600000*%
%ADD16C,4.000000*%
G04 APERTURE END LIST*
D10*
X53000000Y-100000000D03*
D11*
X53920000Y-123000000D03*
D12*
X64080000Y-123000000D03*
X64080000Y-107500000D03*
D11*
X53920000Y-107500000D03*
X86080000Y-73000000D03*
D12*
X75920000Y-73000000D03*
D11*
X86080000Y-83000000D03*
D12*
X75920000Y-83000000D03*
D11*
X64080000Y-112750000D03*
D12*
X53920000Y-112750000D03*
D11*
X75920000Y-68250000D03*
D12*
X86080000Y-68250000D03*
D11*
X75920000Y-78000000D03*
D12*
X86080000Y-78000000D03*
D11*
X64080000Y-118000000D03*
D12*
X53920000Y-118000000D03*
D13*
X52540000Y-136190000D03*
D14*
X52540000Y-138730000D03*
X55080000Y-136190000D03*
X55080000Y-138730000D03*
X57620000Y-136190000D03*
X57620000Y-138730000D03*
X60160000Y-136190000D03*
X60160000Y-138730000D03*
X62700000Y-136190000D03*
X62700000Y-138730000D03*
X65240000Y-136190000D03*
X65240000Y-138730000D03*
X67780000Y-136190000D03*
X67780000Y-138730000D03*
X70320000Y-136190000D03*
X70320000Y-138730000D03*
X72860000Y-136190000D03*
X72860000Y-138730000D03*
X75400000Y-136190000D03*
X75400000Y-138730000D03*
X77940000Y-136190000D03*
X77940000Y-138730000D03*
X80480000Y-136190000D03*
X80480000Y-138730000D03*
X83020000Y-136190000D03*
X83020000Y-138730000D03*
X85560000Y-136190000D03*
X85560000Y-138730000D03*
X88100000Y-136190000D03*
X88100000Y-138730000D03*
X90640000Y-136190000D03*
X90640000Y-138730000D03*
D13*
X52540000Y-51270000D03*
D14*
X52540000Y-53810000D03*
X55080000Y-51270000D03*
X55080000Y-53810000D03*
X57620000Y-51270000D03*
X57620000Y-53810000D03*
X60160000Y-51270000D03*
X60160000Y-53810000D03*
X62700000Y-51270000D03*
X62700000Y-53810000D03*
X65240000Y-51270000D03*
X65240000Y-53810000D03*
X67780000Y-51270000D03*
X67780000Y-53810000D03*
X70320000Y-51270000D03*
X70320000Y-53810000D03*
X72860000Y-51270000D03*
X72860000Y-53810000D03*
X75400000Y-51270000D03*
X75400000Y-53810000D03*
X77940000Y-51270000D03*
X77940000Y-53810000D03*
X80480000Y-51270000D03*
X80480000Y-53810000D03*
X83020000Y-51270000D03*
X83020000Y-53810000D03*
X85560000Y-51270000D03*
X85560000Y-53810000D03*
X88100000Y-51270000D03*
X88100000Y-53810000D03*
X90640000Y-51270000D03*
X90640000Y-53810000D03*
D11*
X87640000Y-108785000D03*
X87640000Y-111555000D03*
X87640000Y-114325000D03*
X87640000Y-117095000D03*
X84800000Y-107400000D03*
X84800000Y-110170000D03*
X84800000Y-112940000D03*
X84800000Y-115710000D03*
D15*
X84800000Y-118480000D03*
D16*
X87640000Y-100440000D03*
X87640000Y-125440000D03*
M02*
