G04 #@! TF.GenerationSoftware,KiCad,Pcbnew,8.0.0*
G04 #@! TF.CreationDate,2024-05-03T13:59:33-04:00*
G04 #@! TF.ProjectId,hdmi_trigger_interface,68646d69-5f74-4726-9967-6765725f696e,rev?*
G04 #@! TF.SameCoordinates,Original*
G04 #@! TF.FileFunction,Soldermask,Bot*
G04 #@! TF.FilePolarity,Negative*
%FSLAX46Y46*%
G04 Gerber Fmt 4.6, Leading zero omitted, Abs format (unit mm)*
G04 Created by KiCad (PCBNEW 8.0.0) date 2024-05-03 13:59:33*
%MOMM*%
%LPD*%
G01*
G04 APERTURE LIST*
G04 Aperture macros list*
%AMRoundRect*
0 Rectangle with rounded corners*
0 $1 Rounding radius*
0 $2 $3 $4 $5 $6 $7 $8 $9 X,Y pos of 4 corners*
0 Add a 4 corners polygon primitive as box body*
4,1,4,$2,$3,$4,$5,$6,$7,$8,$9,$2,$3,0*
0 Add four circle primitives for the rounded corners*
1,1,$1+$1,$2,$3*
1,1,$1+$1,$4,$5*
1,1,$1+$1,$6,$7*
1,1,$1+$1,$8,$9*
0 Add four rect primitives between the rounded corners*
20,1,$1+$1,$2,$3,$4,$5,0*
20,1,$1+$1,$4,$5,$6,$7,0*
20,1,$1+$1,$6,$7,$8,$9,0*
20,1,$1+$1,$8,$9,$2,$3,0*%
G04 Aperture macros list end*
%ADD10C,0.609600*%
%ADD11C,1.498600*%
%ADD12C,3.810000*%
%ADD13C,1.600000*%
%ADD14O,1.600000X1.600000*%
%ADD15R,1.700000X1.700000*%
%ADD16O,1.700000X1.700000*%
%ADD17C,3.200000*%
%ADD18C,1.711200*%
%ADD19RoundRect,0.101600X-0.754000X-0.754000X0.754000X-0.754000X0.754000X0.754000X-0.754000X0.754000X0*%
G04 APERTURE END LIST*
D10*
X198952025Y-30536600D02*
G75*
G02*
X194372975Y-30536600I-2289525J0D01*
G01*
X194372975Y-30536600D02*
G75*
G02*
X198952025Y-30536600I2289525J0D01*
G01*
X198952025Y-86416600D02*
G75*
G02*
X194372975Y-86416600I-2289525J0D01*
G01*
X194372975Y-86416600D02*
G75*
G02*
X198952025Y-86416600I2289525J0D01*
G01*
X270072025Y-30536600D02*
G75*
G02*
X265492975Y-30536600I-2289525J0D01*
G01*
X265492975Y-30536600D02*
G75*
G02*
X270072025Y-30536600I2289525J0D01*
G01*
X270072025Y-86416600D02*
G75*
G02*
X265492975Y-86416600I-2289525J0D01*
G01*
X265492975Y-86416600D02*
G75*
G02*
X270072025Y-86416600I2289525J0D01*
G01*
D11*
X205774801Y-57220001D03*
X203234801Y-58610001D03*
X205774801Y-60000000D03*
X203234801Y-61390000D03*
X205774801Y-62780000D03*
X203234801Y-64170000D03*
X205774801Y-65560000D03*
X203234801Y-66949999D03*
X205774801Y-68339999D03*
D12*
X204504801Y-50285001D03*
X204504801Y-75274999D03*
D13*
X231340000Y-65000000D03*
D14*
X241500000Y-65000000D03*
D15*
X218000000Y-38880000D03*
D16*
X218000000Y-41420000D03*
X218000000Y-43960000D03*
X218000000Y-46500000D03*
X218000000Y-49040000D03*
X218000000Y-51580000D03*
X218000000Y-54120000D03*
D13*
X217340000Y-72000000D03*
D14*
X227500000Y-72000000D03*
D13*
X217340000Y-68500000D03*
D14*
X227500000Y-68500000D03*
D13*
X217340000Y-65000000D03*
D14*
X227500000Y-65000000D03*
D13*
X217340000Y-61500000D03*
D14*
X227500000Y-61500000D03*
D13*
X231340000Y-72000000D03*
D14*
X241500000Y-72000000D03*
D13*
X231340000Y-68500000D03*
D14*
X241500000Y-68500000D03*
D13*
X231340000Y-61500000D03*
D14*
X241500000Y-61500000D03*
D13*
X253840000Y-77000000D03*
D14*
X264000000Y-77000000D03*
D13*
X253920000Y-73500000D03*
D14*
X264080000Y-73500000D03*
D13*
X253840000Y-70000000D03*
D14*
X264000000Y-70000000D03*
D13*
X253920000Y-66500000D03*
D14*
X264080000Y-66500000D03*
D13*
X253840000Y-63000000D03*
D14*
X264000000Y-63000000D03*
D13*
X253920000Y-59500000D03*
D14*
X264080000Y-59500000D03*
D13*
X253840000Y-56000000D03*
D14*
X264000000Y-56000000D03*
D13*
X253840000Y-52500000D03*
D14*
X264000000Y-52500000D03*
D17*
X196662500Y-30536600D03*
X196662500Y-86416600D03*
X267782500Y-30536600D03*
X267782500Y-86416600D03*
D18*
X242382500Y-33076600D03*
X242382500Y-30536600D03*
X239842500Y-33076600D03*
X239842500Y-30536600D03*
X237302500Y-33076600D03*
X237302500Y-30536600D03*
X234762500Y-33076600D03*
X234762500Y-30536600D03*
X232222500Y-33076600D03*
X232222500Y-30536600D03*
X229682500Y-33076600D03*
X229682500Y-30536600D03*
X227142500Y-33076600D03*
X227142500Y-30536600D03*
X224602500Y-33076600D03*
X224602500Y-30536600D03*
X222062500Y-33076600D03*
X222062500Y-30536600D03*
X219522500Y-33076600D03*
X219522500Y-30536600D03*
X216982500Y-33076600D03*
X216982500Y-30536600D03*
X214442500Y-33076600D03*
X214442500Y-30536600D03*
X211902500Y-33076600D03*
X211902500Y-30536600D03*
X209362500Y-33076600D03*
X209362500Y-30536600D03*
X206822500Y-33076600D03*
X206822500Y-30536600D03*
X209362500Y-86416600D03*
X209362500Y-83876600D03*
X211902500Y-86416600D03*
X211902500Y-83876600D03*
X214442500Y-86416600D03*
X214442500Y-83876600D03*
X216982500Y-86416600D03*
X216982500Y-83876600D03*
X219522500Y-86416600D03*
X219522500Y-83876600D03*
X222062500Y-86416600D03*
X222062500Y-83876600D03*
X224602500Y-86416600D03*
X224602500Y-83876600D03*
X227142500Y-86416600D03*
X227142500Y-83876600D03*
X229682500Y-86416600D03*
X229682500Y-83876600D03*
X232222500Y-86416600D03*
X232222500Y-83876600D03*
X234762500Y-86416600D03*
X234762500Y-83876600D03*
X237302500Y-86416600D03*
X237302500Y-83876600D03*
X239842500Y-86416600D03*
X239842500Y-83876600D03*
X242382500Y-86416600D03*
X242382500Y-83876600D03*
X244922500Y-86416600D03*
X244922500Y-83876600D03*
X247462500Y-86416600D03*
X247462500Y-83876600D03*
X250002500Y-86416600D03*
X250002500Y-83876600D03*
X252542500Y-86416600D03*
X252542500Y-83876600D03*
X255082500Y-86416600D03*
X255082500Y-83876600D03*
X262702500Y-33076600D03*
X262702500Y-30536600D03*
X260162500Y-33076600D03*
X260162500Y-30536600D03*
X257622500Y-33076600D03*
X257622500Y-30536600D03*
X255082500Y-33076600D03*
X255082500Y-30536600D03*
X252542500Y-33076600D03*
X252542500Y-30536600D03*
X250002500Y-33076600D03*
X250002500Y-30536600D03*
X247462500Y-33076600D03*
X247462500Y-30536600D03*
X244922500Y-33076600D03*
X244922500Y-30536600D03*
X206822500Y-86416600D03*
D19*
X201742500Y-30536600D03*
D18*
X204282500Y-30536600D03*
D19*
X201742500Y-83876600D03*
D18*
X204282500Y-83876600D03*
X262702500Y-86416600D03*
X201742500Y-33076600D03*
X201742500Y-86416600D03*
X262702500Y-83876600D03*
X206822500Y-83876600D03*
X260162500Y-86416600D03*
X260162500Y-83876600D03*
X257622500Y-86416600D03*
X257622500Y-83876600D03*
X204282500Y-33076600D03*
X204282500Y-86416600D03*
M02*
