M48
; DRILL file {KiCad 8.0.0} date 2024-05-03T13:59:05-0400
; FORMAT={-:-/ absolute / inch / decimal}
; #@! TF.CreationDate,2024-05-03T13:59:05-04:00
; #@! TF.GenerationSoftware,Kicad,Pcbnew,8.0.0
; #@! TF.FileFunction,MixedPlating,1,4
FMAT,2
INCH
; #@! TA.AperFunction,Plated,PTH,ViaDrill
T1C0.0130
; #@! TA.AperFunction,Plated,PTH,ComponentDrill
T2C0.0315
; #@! TA.AperFunction,Plated,PTH,ComponentDrill
T3C0.0390
; #@! TA.AperFunction,Plated,PTH,ComponentDrill
T4C0.0394
; #@! TA.AperFunction,Plated,PTH,ComponentDrill
T5C0.1300
; #@! TA.AperFunction,NonPlated,NPTH,ComponentDrill
T6C0.1260
%
G90
G05
T1
X9.4094Y-2.5984
X9.6063Y-2.3778
T2
X8.5567Y-2.4213
X8.5567Y-2.5591
X8.5567Y-2.6969
X8.5567Y-2.8346
X8.9567Y-2.4213
X8.9567Y-2.5591
X8.9567Y-2.6969
X8.9567Y-2.8346
X9.1079Y-2.4213
X9.1079Y-2.5591
X9.1079Y-2.6969
X9.1079Y-2.8346
X9.5079Y-2.4213
X9.5079Y-2.5591
X9.5079Y-2.6969
X9.5079Y-2.8346
X9.9937Y-2.0669
X9.9937Y-2.2047
X9.9937Y-2.4803
X9.9937Y-2.7559
X9.9937Y-3.0315
X9.9969Y-2.3425
X9.9969Y-2.6181
X9.9969Y-2.8937
X10.3937Y-2.0669
X10.3937Y-2.2047
X10.3937Y-2.4803
X10.3937Y-2.7559
X10.3937Y-3.0315
X10.3969Y-2.3425
X10.3969Y-2.6181
X10.3969Y-2.8937
T3
X8.0014Y-2.3075
X8.0014Y-2.4169
X8.0014Y-2.5264
X8.0014Y-2.6358
X8.1014Y-2.2528
X8.1014Y-2.3622
X8.1014Y-2.4717
X8.1014Y-2.5811
X8.1014Y-2.6906
T4
X7.9426Y-1.2022
X7.9426Y-1.3022
X7.9426Y-3.3022
X7.9426Y-3.4022
X8.0426Y-1.2022
X8.0426Y-1.3022
X8.0426Y-3.3022
X8.0426Y-3.4022
X8.1426Y-1.2022
X8.1426Y-1.3022
X8.1426Y-3.3022
X8.1426Y-3.4022
X8.2426Y-1.2022
X8.2426Y-1.3022
X8.2426Y-3.3022
X8.2426Y-3.4022
X8.3426Y-1.2022
X8.3426Y-1.3022
X8.3426Y-3.3022
X8.3426Y-3.4022
X8.4426Y-1.2022
X8.4426Y-1.3022
X8.4426Y-3.3022
X8.4426Y-3.4022
X8.5426Y-1.2022
X8.5426Y-1.3022
X8.5426Y-3.3022
X8.5426Y-3.4022
X8.5827Y-1.5307
X8.5827Y-1.6307
X8.5827Y-1.7307
X8.5827Y-1.8307
X8.5827Y-1.9307
X8.5827Y-2.0307
X8.5827Y-2.1307
X8.6426Y-1.2022
X8.6426Y-1.3022
X8.6426Y-3.3022
X8.6426Y-3.4022
X8.7426Y-1.2022
X8.7426Y-1.3022
X8.7426Y-3.3022
X8.7426Y-3.4022
X8.8426Y-1.2022
X8.8426Y-1.3022
X8.8426Y-3.3022
X8.8426Y-3.4022
X8.9426Y-1.2022
X8.9426Y-1.3022
X8.9426Y-3.3022
X8.9426Y-3.4022
X9.0426Y-1.2022
X9.0426Y-1.3022
X9.0426Y-3.3022
X9.0426Y-3.4022
X9.1426Y-1.2022
X9.1426Y-1.3022
X9.1426Y-3.3022
X9.1426Y-3.4022
X9.2426Y-1.2022
X9.2426Y-1.3022
X9.2426Y-3.3022
X9.2426Y-3.4022
X9.3426Y-1.2022
X9.3426Y-1.3022
X9.3426Y-3.3022
X9.3426Y-3.4022
X9.4426Y-1.2022
X9.4426Y-1.3022
X9.4426Y-3.3022
X9.4426Y-3.4022
X9.5426Y-1.2022
X9.5426Y-1.3022
X9.5426Y-3.3022
X9.5426Y-3.4022
X9.6426Y-1.2022
X9.6426Y-1.3022
X9.6426Y-3.3022
X9.6426Y-3.4022
X9.7426Y-1.2022
X9.7426Y-1.3022
X9.7426Y-3.3022
X9.7426Y-3.4022
X9.8426Y-1.2022
X9.8426Y-1.3022
X9.8426Y-3.3022
X9.8426Y-3.4022
X9.9426Y-1.2022
X9.9426Y-1.3022
X9.9426Y-3.3022
X9.9426Y-3.4022
X10.0426Y-1.2022
X10.0426Y-1.3022
X10.0426Y-3.3022
X10.0426Y-3.4022
X10.1426Y-1.2022
X10.1426Y-1.3022
X10.1426Y-3.3022
X10.1426Y-3.4022
X10.2426Y-1.2022
X10.2426Y-1.3022
X10.2426Y-3.3022
X10.2426Y-3.4022
X10.3426Y-1.2022
X10.3426Y-1.3022
X10.3426Y-3.3022
X10.3426Y-3.4022
T5
X8.0514Y-1.9797
X8.0514Y-2.9636
T6
X7.7426Y-1.2022
X7.7426Y-3.4022
X10.5426Y-1.2022
X10.5426Y-3.4022
M30
