G04 #@! TF.GenerationSoftware,KiCad,Pcbnew,8.0.0*
G04 #@! TF.CreationDate,2024-05-03T13:59:33-04:00*
G04 #@! TF.ProjectId,hdmi_trigger_interface,68646d69-5f74-4726-9967-6765725f696e,rev?*
G04 #@! TF.SameCoordinates,Original*
G04 #@! TF.FileFunction,Soldermask,Top*
G04 #@! TF.FilePolarity,Negative*
%FSLAX46Y46*%
G04 Gerber Fmt 4.6, Leading zero omitted, Abs format (unit mm)*
G04 Created by KiCad (PCBNEW 8.0.0) date 2024-05-03 13:59:33*
%MOMM*%
%LPD*%
G01*
G04 APERTURE LIST*
G04 Aperture macros list*
%AMRoundRect*
0 Rectangle with rounded corners*
0 $1 Rounding radius*
0 $2 $3 $4 $5 $6 $7 $8 $9 X,Y pos of 4 corners*
0 Add a 4 corners polygon primitive as box body*
4,1,4,$2,$3,$4,$5,$6,$7,$8,$9,$2,$3,0*
0 Add four circle primitives for the rounded corners*
1,1,$1+$1,$2,$3*
1,1,$1+$1,$4,$5*
1,1,$1+$1,$6,$7*
1,1,$1+$1,$8,$9*
0 Add four rect primitives between the rounded corners*
20,1,$1+$1,$2,$3,$4,$5,0*
20,1,$1+$1,$4,$5,$6,$7,0*
20,1,$1+$1,$6,$7,$8,$9,0*
20,1,$1+$1,$8,$9,$2,$3,0*%
G04 Aperture macros list end*
%ADD10C,0.146304*%
%ADD11C,0.609600*%
%ADD12C,1.498600*%
%ADD13C,3.810000*%
%ADD14C,1.600000*%
%ADD15O,1.600000X1.600000*%
%ADD16R,1.700000X1.700000*%
%ADD17O,1.700000X1.700000*%
%ADD18C,3.200000*%
%ADD19C,1.711200*%
%ADD20RoundRect,0.101600X-0.754000X-0.754000X0.754000X-0.754000X0.754000X0.754000X-0.754000X0.754000X0*%
G04 APERTURE END LIST*
D10*
X201335796Y-35547425D02*
X201113631Y-35230046D01*
X200954941Y-35547425D02*
X200954941Y-34880929D01*
X200954941Y-34880929D02*
X201208844Y-34880929D01*
X201208844Y-34880929D02*
X201272320Y-34912667D01*
X201272320Y-34912667D02*
X201304058Y-34944405D01*
X201304058Y-34944405D02*
X201335796Y-35007881D01*
X201335796Y-35007881D02*
X201335796Y-35103095D01*
X201335796Y-35103095D02*
X201304058Y-35166571D01*
X201304058Y-35166571D02*
X201272320Y-35198308D01*
X201272320Y-35198308D02*
X201208844Y-35230046D01*
X201208844Y-35230046D02*
X200954941Y-35230046D01*
X201589699Y-35356998D02*
X201907078Y-35356998D01*
X201526223Y-35547425D02*
X201748389Y-34880929D01*
X201748389Y-34880929D02*
X201970554Y-35547425D01*
X202129243Y-34880929D02*
X202287933Y-35547425D01*
X202287933Y-35547425D02*
X202414884Y-35071357D01*
X202414884Y-35071357D02*
X202541836Y-35547425D01*
X202541836Y-35547425D02*
X202700526Y-34880929D01*
X259779058Y-28734925D02*
X259398203Y-28734925D01*
X259588631Y-28734925D02*
X259588631Y-28068429D01*
X259588631Y-28068429D02*
X259525155Y-28163643D01*
X259525155Y-28163643D02*
X259461679Y-28227119D01*
X259461679Y-28227119D02*
X259398203Y-28258857D01*
X260032961Y-28131905D02*
X260064699Y-28100167D01*
X260064699Y-28100167D02*
X260128175Y-28068429D01*
X260128175Y-28068429D02*
X260286864Y-28068429D01*
X260286864Y-28068429D02*
X260350340Y-28100167D01*
X260350340Y-28100167D02*
X260382078Y-28131905D01*
X260382078Y-28131905D02*
X260413816Y-28195381D01*
X260413816Y-28195381D02*
X260413816Y-28258857D01*
X260413816Y-28258857D02*
X260382078Y-28354071D01*
X260382078Y-28354071D02*
X260001223Y-28734925D01*
X260001223Y-28734925D02*
X260413816Y-28734925D01*
X260635981Y-28068429D02*
X261080312Y-28068429D01*
X261080312Y-28068429D02*
X260794671Y-28734925D01*
X234374179Y-82074925D02*
X234501131Y-82074925D01*
X234501131Y-82074925D02*
X234564606Y-82043188D01*
X234564606Y-82043188D02*
X234596344Y-82011450D01*
X234596344Y-82011450D02*
X234659820Y-81916236D01*
X234659820Y-81916236D02*
X234691558Y-81789284D01*
X234691558Y-81789284D02*
X234691558Y-81535381D01*
X234691558Y-81535381D02*
X234659820Y-81471905D01*
X234659820Y-81471905D02*
X234628082Y-81440167D01*
X234628082Y-81440167D02*
X234564606Y-81408429D01*
X234564606Y-81408429D02*
X234437655Y-81408429D01*
X234437655Y-81408429D02*
X234374179Y-81440167D01*
X234374179Y-81440167D02*
X234342441Y-81471905D01*
X234342441Y-81471905D02*
X234310703Y-81535381D01*
X234310703Y-81535381D02*
X234310703Y-81694071D01*
X234310703Y-81694071D02*
X234342441Y-81757546D01*
X234342441Y-81757546D02*
X234374179Y-81789284D01*
X234374179Y-81789284D02*
X234437655Y-81821022D01*
X234437655Y-81821022D02*
X234564606Y-81821022D01*
X234564606Y-81821022D02*
X234628082Y-81789284D01*
X234628082Y-81789284D02*
X234659820Y-81757546D01*
X234659820Y-81757546D02*
X234691558Y-81694071D01*
X235072413Y-81694071D02*
X235008937Y-81662333D01*
X235008937Y-81662333D02*
X234977199Y-81630595D01*
X234977199Y-81630595D02*
X234945461Y-81567119D01*
X234945461Y-81567119D02*
X234945461Y-81535381D01*
X234945461Y-81535381D02*
X234977199Y-81471905D01*
X234977199Y-81471905D02*
X235008937Y-81440167D01*
X235008937Y-81440167D02*
X235072413Y-81408429D01*
X235072413Y-81408429D02*
X235199364Y-81408429D01*
X235199364Y-81408429D02*
X235262840Y-81440167D01*
X235262840Y-81440167D02*
X235294578Y-81471905D01*
X235294578Y-81471905D02*
X235326316Y-81535381D01*
X235326316Y-81535381D02*
X235326316Y-81567119D01*
X235326316Y-81567119D02*
X235294578Y-81630595D01*
X235294578Y-81630595D02*
X235262840Y-81662333D01*
X235262840Y-81662333D02*
X235199364Y-81694071D01*
X235199364Y-81694071D02*
X235072413Y-81694071D01*
X235072413Y-81694071D02*
X235008937Y-81725808D01*
X235008937Y-81725808D02*
X234977199Y-81757546D01*
X234977199Y-81757546D02*
X234945461Y-81821022D01*
X234945461Y-81821022D02*
X234945461Y-81947974D01*
X234945461Y-81947974D02*
X234977199Y-82011450D01*
X234977199Y-82011450D02*
X235008937Y-82043188D01*
X235008937Y-82043188D02*
X235072413Y-82074925D01*
X235072413Y-82074925D02*
X235199364Y-82074925D01*
X235199364Y-82074925D02*
X235262840Y-82043188D01*
X235262840Y-82043188D02*
X235294578Y-82011450D01*
X235294578Y-82011450D02*
X235326316Y-81947974D01*
X235326316Y-81947974D02*
X235326316Y-81821022D01*
X235326316Y-81821022D02*
X235294578Y-81757546D01*
X235294578Y-81757546D02*
X235262840Y-81725808D01*
X235262840Y-81725808D02*
X235199364Y-81694071D01*
X259334727Y-81408429D02*
X259715582Y-81408429D01*
X259525155Y-82074925D02*
X259525155Y-81408429D01*
X259937747Y-82074925D02*
X259937747Y-81408429D01*
X259937747Y-81408429D02*
X260096437Y-81408429D01*
X260096437Y-81408429D02*
X260191650Y-81440167D01*
X260191650Y-81440167D02*
X260255126Y-81503643D01*
X260255126Y-81503643D02*
X260286864Y-81567119D01*
X260286864Y-81567119D02*
X260318602Y-81694071D01*
X260318602Y-81694071D02*
X260318602Y-81789284D01*
X260318602Y-81789284D02*
X260286864Y-81916236D01*
X260286864Y-81916236D02*
X260255126Y-81979712D01*
X260255126Y-81979712D02*
X260191650Y-82043188D01*
X260191650Y-82043188D02*
X260096437Y-82074925D01*
X260096437Y-82074925D02*
X259937747Y-82074925D01*
X260604243Y-82074925D02*
X260604243Y-81408429D01*
X249551558Y-82074925D02*
X249170703Y-82074925D01*
X249361131Y-82074925D02*
X249361131Y-81408429D01*
X249361131Y-81408429D02*
X249297655Y-81503643D01*
X249297655Y-81503643D02*
X249234179Y-81567119D01*
X249234179Y-81567119D02*
X249170703Y-81598857D01*
X250186316Y-82074925D02*
X249805461Y-82074925D01*
X249995889Y-82074925D02*
X249995889Y-81408429D01*
X249995889Y-81408429D02*
X249932413Y-81503643D01*
X249932413Y-81503643D02*
X249868937Y-81567119D01*
X249868937Y-81567119D02*
X249805461Y-81598857D01*
X250408481Y-81408429D02*
X250852812Y-81408429D01*
X250852812Y-81408429D02*
X250567171Y-82074925D01*
X224190703Y-34924405D02*
X224222441Y-34892667D01*
X224222441Y-34892667D02*
X224285917Y-34860929D01*
X224285917Y-34860929D02*
X224444606Y-34860929D01*
X224444606Y-34860929D02*
X224508082Y-34892667D01*
X224508082Y-34892667D02*
X224539820Y-34924405D01*
X224539820Y-34924405D02*
X224571558Y-34987881D01*
X224571558Y-34987881D02*
X224571558Y-35051357D01*
X224571558Y-35051357D02*
X224539820Y-35146571D01*
X224539820Y-35146571D02*
X224158965Y-35527425D01*
X224158965Y-35527425D02*
X224571558Y-35527425D01*
X225206316Y-35527425D02*
X224825461Y-35527425D01*
X225015889Y-35527425D02*
X225015889Y-34860929D01*
X225015889Y-34860929D02*
X224952413Y-34956143D01*
X224952413Y-34956143D02*
X224888937Y-35019619D01*
X224888937Y-35019619D02*
X224825461Y-35051357D01*
X249591558Y-28734925D02*
X249210703Y-28734925D01*
X249401131Y-28734925D02*
X249401131Y-28068429D01*
X249401131Y-28068429D02*
X249337655Y-28163643D01*
X249337655Y-28163643D02*
X249274179Y-28227119D01*
X249274179Y-28227119D02*
X249210703Y-28258857D01*
X250162840Y-28290595D02*
X250162840Y-28734925D01*
X250004151Y-28036692D02*
X249845461Y-28512760D01*
X249845461Y-28512760D02*
X250258054Y-28512760D01*
X250638909Y-28068429D02*
X250702384Y-28068429D01*
X250702384Y-28068429D02*
X250765860Y-28100167D01*
X250765860Y-28100167D02*
X250797598Y-28131905D01*
X250797598Y-28131905D02*
X250829336Y-28195381D01*
X250829336Y-28195381D02*
X250861074Y-28322333D01*
X250861074Y-28322333D02*
X250861074Y-28481022D01*
X250861074Y-28481022D02*
X250829336Y-28607974D01*
X250829336Y-28607974D02*
X250797598Y-28671450D01*
X250797598Y-28671450D02*
X250765860Y-28703188D01*
X250765860Y-28703188D02*
X250702384Y-28734925D01*
X250702384Y-28734925D02*
X250638909Y-28734925D01*
X250638909Y-28734925D02*
X250575433Y-28703188D01*
X250575433Y-28703188D02*
X250543695Y-28671450D01*
X250543695Y-28671450D02*
X250511957Y-28607974D01*
X250511957Y-28607974D02*
X250480219Y-28481022D01*
X250480219Y-28481022D02*
X250480219Y-28322333D01*
X250480219Y-28322333D02*
X250511957Y-28195381D01*
X250511957Y-28195381D02*
X250543695Y-28131905D01*
X250543695Y-28131905D02*
X250575433Y-28100167D01*
X250575433Y-28100167D02*
X250638909Y-28068429D01*
X201304058Y-28100167D02*
X201240582Y-28068429D01*
X201240582Y-28068429D02*
X201145368Y-28068429D01*
X201145368Y-28068429D02*
X201050155Y-28100167D01*
X201050155Y-28100167D02*
X200986679Y-28163643D01*
X200986679Y-28163643D02*
X200954941Y-28227119D01*
X200954941Y-28227119D02*
X200923203Y-28354071D01*
X200923203Y-28354071D02*
X200923203Y-28449284D01*
X200923203Y-28449284D02*
X200954941Y-28576236D01*
X200954941Y-28576236D02*
X200986679Y-28639712D01*
X200986679Y-28639712D02*
X201050155Y-28703188D01*
X201050155Y-28703188D02*
X201145368Y-28734925D01*
X201145368Y-28734925D02*
X201208844Y-28734925D01*
X201208844Y-28734925D02*
X201304058Y-28703188D01*
X201304058Y-28703188D02*
X201335796Y-28671450D01*
X201335796Y-28671450D02*
X201335796Y-28449284D01*
X201335796Y-28449284D02*
X201208844Y-28449284D01*
X201621437Y-28734925D02*
X201621437Y-28068429D01*
X201621437Y-28068429D02*
X202002292Y-28734925D01*
X202002292Y-28734925D02*
X202002292Y-28068429D01*
X202319671Y-28734925D02*
X202319671Y-28068429D01*
X202319671Y-28068429D02*
X202478361Y-28068429D01*
X202478361Y-28068429D02*
X202573574Y-28100167D01*
X202573574Y-28100167D02*
X202637050Y-28163643D01*
X202637050Y-28163643D02*
X202668788Y-28227119D01*
X202668788Y-28227119D02*
X202700526Y-28354071D01*
X202700526Y-28354071D02*
X202700526Y-28449284D01*
X202700526Y-28449284D02*
X202668788Y-28576236D01*
X202668788Y-28576236D02*
X202637050Y-28639712D01*
X202637050Y-28639712D02*
X202573574Y-28703188D01*
X202573574Y-28703188D02*
X202478361Y-28734925D01*
X202478361Y-28734925D02*
X202319671Y-28734925D01*
X201330558Y-81440167D02*
X201267082Y-81408429D01*
X201267082Y-81408429D02*
X201171868Y-81408429D01*
X201171868Y-81408429D02*
X201076655Y-81440167D01*
X201076655Y-81440167D02*
X201013179Y-81503643D01*
X201013179Y-81503643D02*
X200981441Y-81567119D01*
X200981441Y-81567119D02*
X200949703Y-81694071D01*
X200949703Y-81694071D02*
X200949703Y-81789284D01*
X200949703Y-81789284D02*
X200981441Y-81916236D01*
X200981441Y-81916236D02*
X201013179Y-81979712D01*
X201013179Y-81979712D02*
X201076655Y-82043188D01*
X201076655Y-82043188D02*
X201171868Y-82074925D01*
X201171868Y-82074925D02*
X201235344Y-82074925D01*
X201235344Y-82074925D02*
X201330558Y-82043188D01*
X201330558Y-82043188D02*
X201362296Y-82011450D01*
X201362296Y-82011450D02*
X201362296Y-81789284D01*
X201362296Y-81789284D02*
X201235344Y-81789284D01*
X201647937Y-82074925D02*
X201647937Y-81408429D01*
X201647937Y-81408429D02*
X202028792Y-82074925D01*
X202028792Y-82074925D02*
X202028792Y-81408429D01*
X202346171Y-82074925D02*
X202346171Y-81408429D01*
X202346171Y-81408429D02*
X202504861Y-81408429D01*
X202504861Y-81408429D02*
X202600074Y-81440167D01*
X202600074Y-81440167D02*
X202663550Y-81503643D01*
X202663550Y-81503643D02*
X202695288Y-81567119D01*
X202695288Y-81567119D02*
X202727026Y-81694071D01*
X202727026Y-81694071D02*
X202727026Y-81789284D01*
X202727026Y-81789284D02*
X202695288Y-81916236D01*
X202695288Y-81916236D02*
X202663550Y-81979712D01*
X202663550Y-81979712D02*
X202600074Y-82043188D01*
X202600074Y-82043188D02*
X202504861Y-82074925D01*
X202504861Y-82074925D02*
X202346171Y-82074925D01*
X213958965Y-81408429D02*
X214403296Y-81408429D01*
X214403296Y-81408429D02*
X214117655Y-82074925D01*
X214974578Y-81408429D02*
X214657199Y-81408429D01*
X214657199Y-81408429D02*
X214625461Y-81725808D01*
X214625461Y-81725808D02*
X214657199Y-81694071D01*
X214657199Y-81694071D02*
X214720675Y-81662333D01*
X214720675Y-81662333D02*
X214879364Y-81662333D01*
X214879364Y-81662333D02*
X214942840Y-81694071D01*
X214942840Y-81694071D02*
X214974578Y-81725808D01*
X214974578Y-81725808D02*
X215006316Y-81789284D01*
X215006316Y-81789284D02*
X215006316Y-81947974D01*
X215006316Y-81947974D02*
X214974578Y-82011450D01*
X214974578Y-82011450D02*
X214942840Y-82043188D01*
X214942840Y-82043188D02*
X214879364Y-82074925D01*
X214879364Y-82074925D02*
X214720675Y-82074925D01*
X214720675Y-82074925D02*
X214657199Y-82043188D01*
X214657199Y-82043188D02*
X214625461Y-82011450D01*
X219197655Y-88486571D02*
X219134179Y-88454833D01*
X219134179Y-88454833D02*
X219102441Y-88423095D01*
X219102441Y-88423095D02*
X219070703Y-88359619D01*
X219070703Y-88359619D02*
X219070703Y-88327881D01*
X219070703Y-88327881D02*
X219102441Y-88264405D01*
X219102441Y-88264405D02*
X219134179Y-88232667D01*
X219134179Y-88232667D02*
X219197655Y-88200929D01*
X219197655Y-88200929D02*
X219324606Y-88200929D01*
X219324606Y-88200929D02*
X219388082Y-88232667D01*
X219388082Y-88232667D02*
X219419820Y-88264405D01*
X219419820Y-88264405D02*
X219451558Y-88327881D01*
X219451558Y-88327881D02*
X219451558Y-88359619D01*
X219451558Y-88359619D02*
X219419820Y-88423095D01*
X219419820Y-88423095D02*
X219388082Y-88454833D01*
X219388082Y-88454833D02*
X219324606Y-88486571D01*
X219324606Y-88486571D02*
X219197655Y-88486571D01*
X219197655Y-88486571D02*
X219134179Y-88518308D01*
X219134179Y-88518308D02*
X219102441Y-88550046D01*
X219102441Y-88550046D02*
X219070703Y-88613522D01*
X219070703Y-88613522D02*
X219070703Y-88740474D01*
X219070703Y-88740474D02*
X219102441Y-88803950D01*
X219102441Y-88803950D02*
X219134179Y-88835688D01*
X219134179Y-88835688D02*
X219197655Y-88867425D01*
X219197655Y-88867425D02*
X219324606Y-88867425D01*
X219324606Y-88867425D02*
X219388082Y-88835688D01*
X219388082Y-88835688D02*
X219419820Y-88803950D01*
X219419820Y-88803950D02*
X219451558Y-88740474D01*
X219451558Y-88740474D02*
X219451558Y-88613522D01*
X219451558Y-88613522D02*
X219419820Y-88550046D01*
X219419820Y-88550046D02*
X219388082Y-88518308D01*
X219388082Y-88518308D02*
X219324606Y-88486571D01*
X219864151Y-88200929D02*
X219927626Y-88200929D01*
X219927626Y-88200929D02*
X219991102Y-88232667D01*
X219991102Y-88232667D02*
X220022840Y-88264405D01*
X220022840Y-88264405D02*
X220054578Y-88327881D01*
X220054578Y-88327881D02*
X220086316Y-88454833D01*
X220086316Y-88454833D02*
X220086316Y-88613522D01*
X220086316Y-88613522D02*
X220054578Y-88740474D01*
X220054578Y-88740474D02*
X220022840Y-88803950D01*
X220022840Y-88803950D02*
X219991102Y-88835688D01*
X219991102Y-88835688D02*
X219927626Y-88867425D01*
X219927626Y-88867425D02*
X219864151Y-88867425D01*
X219864151Y-88867425D02*
X219800675Y-88835688D01*
X219800675Y-88835688D02*
X219768937Y-88803950D01*
X219768937Y-88803950D02*
X219737199Y-88740474D01*
X219737199Y-88740474D02*
X219705461Y-88613522D01*
X219705461Y-88613522D02*
X219705461Y-88454833D01*
X219705461Y-88454833D02*
X219737199Y-88327881D01*
X219737199Y-88327881D02*
X219768937Y-88264405D01*
X219768937Y-88264405D02*
X219800675Y-88232667D01*
X219800675Y-88232667D02*
X219864151Y-88200929D01*
X247011558Y-82074925D02*
X246630703Y-82074925D01*
X246821131Y-82074925D02*
X246821131Y-81408429D01*
X246821131Y-81408429D02*
X246757655Y-81503643D01*
X246757655Y-81503643D02*
X246694179Y-81567119D01*
X246694179Y-81567119D02*
X246630703Y-81598857D01*
X247646316Y-82074925D02*
X247265461Y-82074925D01*
X247455889Y-82074925D02*
X247455889Y-81408429D01*
X247455889Y-81408429D02*
X247392413Y-81503643D01*
X247392413Y-81503643D02*
X247328937Y-81567119D01*
X247328937Y-81567119D02*
X247265461Y-81598857D01*
X248249336Y-81408429D02*
X247931957Y-81408429D01*
X247931957Y-81408429D02*
X247900219Y-81725808D01*
X247900219Y-81725808D02*
X247931957Y-81694071D01*
X247931957Y-81694071D02*
X247995433Y-81662333D01*
X247995433Y-81662333D02*
X248154122Y-81662333D01*
X248154122Y-81662333D02*
X248217598Y-81694071D01*
X248217598Y-81694071D02*
X248249336Y-81725808D01*
X248249336Y-81725808D02*
X248281074Y-81789284D01*
X248281074Y-81789284D02*
X248281074Y-81947974D01*
X248281074Y-81947974D02*
X248249336Y-82011450D01*
X248249336Y-82011450D02*
X248217598Y-82043188D01*
X248217598Y-82043188D02*
X248154122Y-82074925D01*
X248154122Y-82074925D02*
X247995433Y-82074925D01*
X247995433Y-82074925D02*
X247931957Y-82043188D01*
X247931957Y-82043188D02*
X247900219Y-82011450D01*
X247051558Y-28734925D02*
X246670703Y-28734925D01*
X246861131Y-28734925D02*
X246861131Y-28068429D01*
X246861131Y-28068429D02*
X246797655Y-28163643D01*
X246797655Y-28163643D02*
X246734179Y-28227119D01*
X246734179Y-28227119D02*
X246670703Y-28258857D01*
X247622840Y-28290595D02*
X247622840Y-28734925D01*
X247464151Y-28036692D02*
X247305461Y-28512760D01*
X247305461Y-28512760D02*
X247718054Y-28512760D01*
X247940219Y-28131905D02*
X247971957Y-28100167D01*
X247971957Y-28100167D02*
X248035433Y-28068429D01*
X248035433Y-28068429D02*
X248194122Y-28068429D01*
X248194122Y-28068429D02*
X248257598Y-28100167D01*
X248257598Y-28100167D02*
X248289336Y-28131905D01*
X248289336Y-28131905D02*
X248321074Y-28195381D01*
X248321074Y-28195381D02*
X248321074Y-28258857D01*
X248321074Y-28258857D02*
X248289336Y-28354071D01*
X248289336Y-28354071D02*
X247908481Y-28734925D01*
X247908481Y-28734925D02*
X248321074Y-28734925D01*
X221650703Y-34924405D02*
X221682441Y-34892667D01*
X221682441Y-34892667D02*
X221745917Y-34860929D01*
X221745917Y-34860929D02*
X221904606Y-34860929D01*
X221904606Y-34860929D02*
X221968082Y-34892667D01*
X221968082Y-34892667D02*
X221999820Y-34924405D01*
X221999820Y-34924405D02*
X222031558Y-34987881D01*
X222031558Y-34987881D02*
X222031558Y-35051357D01*
X222031558Y-35051357D02*
X221999820Y-35146571D01*
X221999820Y-35146571D02*
X221618965Y-35527425D01*
X221618965Y-35527425D02*
X222031558Y-35527425D01*
X222253723Y-34860929D02*
X222666316Y-34860929D01*
X222666316Y-34860929D02*
X222444151Y-35114833D01*
X222444151Y-35114833D02*
X222539364Y-35114833D01*
X222539364Y-35114833D02*
X222602840Y-35146571D01*
X222602840Y-35146571D02*
X222634578Y-35178308D01*
X222634578Y-35178308D02*
X222666316Y-35241784D01*
X222666316Y-35241784D02*
X222666316Y-35400474D01*
X222666316Y-35400474D02*
X222634578Y-35463950D01*
X222634578Y-35463950D02*
X222602840Y-35495688D01*
X222602840Y-35495688D02*
X222539364Y-35527425D01*
X222539364Y-35527425D02*
X222348937Y-35527425D01*
X222348937Y-35527425D02*
X222285461Y-35495688D01*
X222285461Y-35495688D02*
X222253723Y-35463950D01*
X254631558Y-88867425D02*
X254250703Y-88867425D01*
X254441131Y-88867425D02*
X254441131Y-88200929D01*
X254441131Y-88200929D02*
X254377655Y-88296143D01*
X254377655Y-88296143D02*
X254314179Y-88359619D01*
X254314179Y-88359619D02*
X254250703Y-88391357D01*
X254885461Y-88264405D02*
X254917199Y-88232667D01*
X254917199Y-88232667D02*
X254980675Y-88200929D01*
X254980675Y-88200929D02*
X255139364Y-88200929D01*
X255139364Y-88200929D02*
X255202840Y-88232667D01*
X255202840Y-88232667D02*
X255234578Y-88264405D01*
X255234578Y-88264405D02*
X255266316Y-88327881D01*
X255266316Y-88327881D02*
X255266316Y-88391357D01*
X255266316Y-88391357D02*
X255234578Y-88486571D01*
X255234578Y-88486571D02*
X254853723Y-88867425D01*
X254853723Y-88867425D02*
X255266316Y-88867425D01*
X255678909Y-88200929D02*
X255742384Y-88200929D01*
X255742384Y-88200929D02*
X255805860Y-88232667D01*
X255805860Y-88232667D02*
X255837598Y-88264405D01*
X255837598Y-88264405D02*
X255869336Y-88327881D01*
X255869336Y-88327881D02*
X255901074Y-88454833D01*
X255901074Y-88454833D02*
X255901074Y-88613522D01*
X255901074Y-88613522D02*
X255869336Y-88740474D01*
X255869336Y-88740474D02*
X255837598Y-88803950D01*
X255837598Y-88803950D02*
X255805860Y-88835688D01*
X255805860Y-88835688D02*
X255742384Y-88867425D01*
X255742384Y-88867425D02*
X255678909Y-88867425D01*
X255678909Y-88867425D02*
X255615433Y-88835688D01*
X255615433Y-88835688D02*
X255583695Y-88803950D01*
X255583695Y-88803950D02*
X255551957Y-88740474D01*
X255551957Y-88740474D02*
X255520219Y-88613522D01*
X255520219Y-88613522D02*
X255520219Y-88454833D01*
X255520219Y-88454833D02*
X255551957Y-88327881D01*
X255551957Y-88327881D02*
X255583695Y-88264405D01*
X255583695Y-88264405D02*
X255615433Y-88232667D01*
X255615433Y-88232667D02*
X255678909Y-88200929D01*
X224277655Y-81694071D02*
X224214179Y-81662333D01*
X224214179Y-81662333D02*
X224182441Y-81630595D01*
X224182441Y-81630595D02*
X224150703Y-81567119D01*
X224150703Y-81567119D02*
X224150703Y-81535381D01*
X224150703Y-81535381D02*
X224182441Y-81471905D01*
X224182441Y-81471905D02*
X224214179Y-81440167D01*
X224214179Y-81440167D02*
X224277655Y-81408429D01*
X224277655Y-81408429D02*
X224404606Y-81408429D01*
X224404606Y-81408429D02*
X224468082Y-81440167D01*
X224468082Y-81440167D02*
X224499820Y-81471905D01*
X224499820Y-81471905D02*
X224531558Y-81535381D01*
X224531558Y-81535381D02*
X224531558Y-81567119D01*
X224531558Y-81567119D02*
X224499820Y-81630595D01*
X224499820Y-81630595D02*
X224468082Y-81662333D01*
X224468082Y-81662333D02*
X224404606Y-81694071D01*
X224404606Y-81694071D02*
X224277655Y-81694071D01*
X224277655Y-81694071D02*
X224214179Y-81725808D01*
X224214179Y-81725808D02*
X224182441Y-81757546D01*
X224182441Y-81757546D02*
X224150703Y-81821022D01*
X224150703Y-81821022D02*
X224150703Y-81947974D01*
X224150703Y-81947974D02*
X224182441Y-82011450D01*
X224182441Y-82011450D02*
X224214179Y-82043188D01*
X224214179Y-82043188D02*
X224277655Y-82074925D01*
X224277655Y-82074925D02*
X224404606Y-82074925D01*
X224404606Y-82074925D02*
X224468082Y-82043188D01*
X224468082Y-82043188D02*
X224499820Y-82011450D01*
X224499820Y-82011450D02*
X224531558Y-81947974D01*
X224531558Y-81947974D02*
X224531558Y-81821022D01*
X224531558Y-81821022D02*
X224499820Y-81757546D01*
X224499820Y-81757546D02*
X224468082Y-81725808D01*
X224468082Y-81725808D02*
X224404606Y-81694071D01*
X225134578Y-81408429D02*
X224817199Y-81408429D01*
X224817199Y-81408429D02*
X224785461Y-81725808D01*
X224785461Y-81725808D02*
X224817199Y-81694071D01*
X224817199Y-81694071D02*
X224880675Y-81662333D01*
X224880675Y-81662333D02*
X225039364Y-81662333D01*
X225039364Y-81662333D02*
X225102840Y-81694071D01*
X225102840Y-81694071D02*
X225134578Y-81725808D01*
X225134578Y-81725808D02*
X225166316Y-81789284D01*
X225166316Y-81789284D02*
X225166316Y-81947974D01*
X225166316Y-81947974D02*
X225134578Y-82011450D01*
X225134578Y-82011450D02*
X225102840Y-82043188D01*
X225102840Y-82043188D02*
X225039364Y-82074925D01*
X225039364Y-82074925D02*
X224880675Y-82074925D01*
X224880675Y-82074925D02*
X224817199Y-82043188D01*
X224817199Y-82043188D02*
X224785461Y-82011450D01*
X211768082Y-88200929D02*
X211641131Y-88200929D01*
X211641131Y-88200929D02*
X211577655Y-88232667D01*
X211577655Y-88232667D02*
X211545917Y-88264405D01*
X211545917Y-88264405D02*
X211482441Y-88359619D01*
X211482441Y-88359619D02*
X211450703Y-88486571D01*
X211450703Y-88486571D02*
X211450703Y-88740474D01*
X211450703Y-88740474D02*
X211482441Y-88803950D01*
X211482441Y-88803950D02*
X211514179Y-88835688D01*
X211514179Y-88835688D02*
X211577655Y-88867425D01*
X211577655Y-88867425D02*
X211704606Y-88867425D01*
X211704606Y-88867425D02*
X211768082Y-88835688D01*
X211768082Y-88835688D02*
X211799820Y-88803950D01*
X211799820Y-88803950D02*
X211831558Y-88740474D01*
X211831558Y-88740474D02*
X211831558Y-88581784D01*
X211831558Y-88581784D02*
X211799820Y-88518308D01*
X211799820Y-88518308D02*
X211768082Y-88486571D01*
X211768082Y-88486571D02*
X211704606Y-88454833D01*
X211704606Y-88454833D02*
X211577655Y-88454833D01*
X211577655Y-88454833D02*
X211514179Y-88486571D01*
X211514179Y-88486571D02*
X211482441Y-88518308D01*
X211482441Y-88518308D02*
X211450703Y-88581784D01*
X212402840Y-88200929D02*
X212275889Y-88200929D01*
X212275889Y-88200929D02*
X212212413Y-88232667D01*
X212212413Y-88232667D02*
X212180675Y-88264405D01*
X212180675Y-88264405D02*
X212117199Y-88359619D01*
X212117199Y-88359619D02*
X212085461Y-88486571D01*
X212085461Y-88486571D02*
X212085461Y-88740474D01*
X212085461Y-88740474D02*
X212117199Y-88803950D01*
X212117199Y-88803950D02*
X212148937Y-88835688D01*
X212148937Y-88835688D02*
X212212413Y-88867425D01*
X212212413Y-88867425D02*
X212339364Y-88867425D01*
X212339364Y-88867425D02*
X212402840Y-88835688D01*
X212402840Y-88835688D02*
X212434578Y-88803950D01*
X212434578Y-88803950D02*
X212466316Y-88740474D01*
X212466316Y-88740474D02*
X212466316Y-88581784D01*
X212466316Y-88581784D02*
X212434578Y-88518308D01*
X212434578Y-88518308D02*
X212402840Y-88486571D01*
X212402840Y-88486571D02*
X212339364Y-88454833D01*
X212339364Y-88454833D02*
X212212413Y-88454833D01*
X212212413Y-88454833D02*
X212148937Y-88486571D01*
X212148937Y-88486571D02*
X212117199Y-88518308D01*
X212117199Y-88518308D02*
X212085461Y-88581784D01*
X219110703Y-34924405D02*
X219142441Y-34892667D01*
X219142441Y-34892667D02*
X219205917Y-34860929D01*
X219205917Y-34860929D02*
X219364606Y-34860929D01*
X219364606Y-34860929D02*
X219428082Y-34892667D01*
X219428082Y-34892667D02*
X219459820Y-34924405D01*
X219459820Y-34924405D02*
X219491558Y-34987881D01*
X219491558Y-34987881D02*
X219491558Y-35051357D01*
X219491558Y-35051357D02*
X219459820Y-35146571D01*
X219459820Y-35146571D02*
X219078965Y-35527425D01*
X219078965Y-35527425D02*
X219491558Y-35527425D01*
X220062840Y-34860929D02*
X219935889Y-34860929D01*
X219935889Y-34860929D02*
X219872413Y-34892667D01*
X219872413Y-34892667D02*
X219840675Y-34924405D01*
X219840675Y-34924405D02*
X219777199Y-35019619D01*
X219777199Y-35019619D02*
X219745461Y-35146571D01*
X219745461Y-35146571D02*
X219745461Y-35400474D01*
X219745461Y-35400474D02*
X219777199Y-35463950D01*
X219777199Y-35463950D02*
X219808937Y-35495688D01*
X219808937Y-35495688D02*
X219872413Y-35527425D01*
X219872413Y-35527425D02*
X219999364Y-35527425D01*
X219999364Y-35527425D02*
X220062840Y-35495688D01*
X220062840Y-35495688D02*
X220094578Y-35463950D01*
X220094578Y-35463950D02*
X220126316Y-35400474D01*
X220126316Y-35400474D02*
X220126316Y-35241784D01*
X220126316Y-35241784D02*
X220094578Y-35178308D01*
X220094578Y-35178308D02*
X220062840Y-35146571D01*
X220062840Y-35146571D02*
X219999364Y-35114833D01*
X219999364Y-35114833D02*
X219872413Y-35114833D01*
X219872413Y-35114833D02*
X219808937Y-35146571D01*
X219808937Y-35146571D02*
X219777199Y-35178308D01*
X219777199Y-35178308D02*
X219745461Y-35241784D01*
X236851558Y-82074925D02*
X236470703Y-82074925D01*
X236661131Y-82074925D02*
X236661131Y-81408429D01*
X236661131Y-81408429D02*
X236597655Y-81503643D01*
X236597655Y-81503643D02*
X236534179Y-81567119D01*
X236534179Y-81567119D02*
X236470703Y-81598857D01*
X237264151Y-81408429D02*
X237327626Y-81408429D01*
X237327626Y-81408429D02*
X237391102Y-81440167D01*
X237391102Y-81440167D02*
X237422840Y-81471905D01*
X237422840Y-81471905D02*
X237454578Y-81535381D01*
X237454578Y-81535381D02*
X237486316Y-81662333D01*
X237486316Y-81662333D02*
X237486316Y-81821022D01*
X237486316Y-81821022D02*
X237454578Y-81947974D01*
X237454578Y-81947974D02*
X237422840Y-82011450D01*
X237422840Y-82011450D02*
X237391102Y-82043188D01*
X237391102Y-82043188D02*
X237327626Y-82074925D01*
X237327626Y-82074925D02*
X237264151Y-82074925D01*
X237264151Y-82074925D02*
X237200675Y-82043188D01*
X237200675Y-82043188D02*
X237168937Y-82011450D01*
X237168937Y-82011450D02*
X237137199Y-81947974D01*
X237137199Y-81947974D02*
X237105461Y-81821022D01*
X237105461Y-81821022D02*
X237105461Y-81662333D01*
X237105461Y-81662333D02*
X237137199Y-81535381D01*
X237137199Y-81535381D02*
X237168937Y-81471905D01*
X237168937Y-81471905D02*
X237200675Y-81440167D01*
X237200675Y-81440167D02*
X237264151Y-81408429D01*
X237898909Y-81408429D02*
X237962384Y-81408429D01*
X237962384Y-81408429D02*
X238025860Y-81440167D01*
X238025860Y-81440167D02*
X238057598Y-81471905D01*
X238057598Y-81471905D02*
X238089336Y-81535381D01*
X238089336Y-81535381D02*
X238121074Y-81662333D01*
X238121074Y-81662333D02*
X238121074Y-81821022D01*
X238121074Y-81821022D02*
X238089336Y-81947974D01*
X238089336Y-81947974D02*
X238057598Y-82011450D01*
X238057598Y-82011450D02*
X238025860Y-82043188D01*
X238025860Y-82043188D02*
X237962384Y-82074925D01*
X237962384Y-82074925D02*
X237898909Y-82074925D01*
X237898909Y-82074925D02*
X237835433Y-82043188D01*
X237835433Y-82043188D02*
X237803695Y-82011450D01*
X237803695Y-82011450D02*
X237771957Y-81947974D01*
X237771957Y-81947974D02*
X237740219Y-81821022D01*
X237740219Y-81821022D02*
X237740219Y-81662333D01*
X237740219Y-81662333D02*
X237771957Y-81535381D01*
X237771957Y-81535381D02*
X237803695Y-81471905D01*
X237803695Y-81471905D02*
X237835433Y-81440167D01*
X237835433Y-81440167D02*
X237898909Y-81408429D01*
X256794727Y-81408429D02*
X257175582Y-81408429D01*
X256985155Y-82074925D02*
X256985155Y-81408429D01*
X257397747Y-82074925D02*
X257397747Y-81408429D01*
X257397747Y-81408429D02*
X257619912Y-81884498D01*
X257619912Y-81884498D02*
X257842078Y-81408429D01*
X257842078Y-81408429D02*
X257842078Y-82074925D01*
X258127719Y-82043188D02*
X258222933Y-82074925D01*
X258222933Y-82074925D02*
X258381622Y-82074925D01*
X258381622Y-82074925D02*
X258445098Y-82043188D01*
X258445098Y-82043188D02*
X258476836Y-82011450D01*
X258476836Y-82011450D02*
X258508574Y-81947974D01*
X258508574Y-81947974D02*
X258508574Y-81884498D01*
X258508574Y-81884498D02*
X258476836Y-81821022D01*
X258476836Y-81821022D02*
X258445098Y-81789284D01*
X258445098Y-81789284D02*
X258381622Y-81757546D01*
X258381622Y-81757546D02*
X258254671Y-81725808D01*
X258254671Y-81725808D02*
X258191195Y-81694071D01*
X258191195Y-81694071D02*
X258159457Y-81662333D01*
X258159457Y-81662333D02*
X258127719Y-81598857D01*
X258127719Y-81598857D02*
X258127719Y-81535381D01*
X258127719Y-81535381D02*
X258159457Y-81471905D01*
X258159457Y-81471905D02*
X258191195Y-81440167D01*
X258191195Y-81440167D02*
X258254671Y-81408429D01*
X258254671Y-81408429D02*
X258413360Y-81408429D01*
X258413360Y-81408429D02*
X258508574Y-81440167D01*
X232191558Y-35527425D02*
X231810703Y-35527425D01*
X232001131Y-35527425D02*
X232001131Y-34860929D01*
X232001131Y-34860929D02*
X231937655Y-34956143D01*
X231937655Y-34956143D02*
X231874179Y-35019619D01*
X231874179Y-35019619D02*
X231810703Y-35051357D01*
X232826316Y-35527425D02*
X232445461Y-35527425D01*
X232635889Y-35527425D02*
X232635889Y-34860929D01*
X232635889Y-34860929D02*
X232572413Y-34956143D01*
X232572413Y-34956143D02*
X232508937Y-35019619D01*
X232508937Y-35019619D02*
X232445461Y-35051357D01*
X206759820Y-28068429D02*
X206442441Y-28068429D01*
X206442441Y-28068429D02*
X206410703Y-28385808D01*
X206410703Y-28385808D02*
X206442441Y-28354071D01*
X206442441Y-28354071D02*
X206505917Y-28322333D01*
X206505917Y-28322333D02*
X206664606Y-28322333D01*
X206664606Y-28322333D02*
X206728082Y-28354071D01*
X206728082Y-28354071D02*
X206759820Y-28385808D01*
X206759820Y-28385808D02*
X206791558Y-28449284D01*
X206791558Y-28449284D02*
X206791558Y-28607974D01*
X206791558Y-28607974D02*
X206759820Y-28671450D01*
X206759820Y-28671450D02*
X206728082Y-28703188D01*
X206728082Y-28703188D02*
X206664606Y-28734925D01*
X206664606Y-28734925D02*
X206505917Y-28734925D01*
X206505917Y-28734925D02*
X206442441Y-28703188D01*
X206442441Y-28703188D02*
X206410703Y-28671450D01*
X207426316Y-28734925D02*
X207045461Y-28734925D01*
X207235889Y-28734925D02*
X207235889Y-28068429D01*
X207235889Y-28068429D02*
X207172413Y-28163643D01*
X207172413Y-28163643D02*
X207108937Y-28227119D01*
X207108937Y-28227119D02*
X207045461Y-28258857D01*
X262319058Y-88232667D02*
X262255582Y-88200929D01*
X262255582Y-88200929D02*
X262160368Y-88200929D01*
X262160368Y-88200929D02*
X262065155Y-88232667D01*
X262065155Y-88232667D02*
X262001679Y-88296143D01*
X262001679Y-88296143D02*
X261969941Y-88359619D01*
X261969941Y-88359619D02*
X261938203Y-88486571D01*
X261938203Y-88486571D02*
X261938203Y-88581784D01*
X261938203Y-88581784D02*
X261969941Y-88708736D01*
X261969941Y-88708736D02*
X262001679Y-88772212D01*
X262001679Y-88772212D02*
X262065155Y-88835688D01*
X262065155Y-88835688D02*
X262160368Y-88867425D01*
X262160368Y-88867425D02*
X262223844Y-88867425D01*
X262223844Y-88867425D02*
X262319058Y-88835688D01*
X262319058Y-88835688D02*
X262350796Y-88803950D01*
X262350796Y-88803950D02*
X262350796Y-88581784D01*
X262350796Y-88581784D02*
X262223844Y-88581784D01*
X262636437Y-88867425D02*
X262636437Y-88200929D01*
X262636437Y-88200929D02*
X263017292Y-88867425D01*
X263017292Y-88867425D02*
X263017292Y-88200929D01*
X263334671Y-88867425D02*
X263334671Y-88200929D01*
X263334671Y-88200929D02*
X263493361Y-88200929D01*
X263493361Y-88200929D02*
X263588574Y-88232667D01*
X263588574Y-88232667D02*
X263652050Y-88296143D01*
X263652050Y-88296143D02*
X263683788Y-88359619D01*
X263683788Y-88359619D02*
X263715526Y-88486571D01*
X263715526Y-88486571D02*
X263715526Y-88581784D01*
X263715526Y-88581784D02*
X263683788Y-88708736D01*
X263683788Y-88708736D02*
X263652050Y-88772212D01*
X263652050Y-88772212D02*
X263588574Y-88835688D01*
X263588574Y-88835688D02*
X263493361Y-88867425D01*
X263493361Y-88867425D02*
X263334671Y-88867425D01*
X221650703Y-28131905D02*
X221682441Y-28100167D01*
X221682441Y-28100167D02*
X221745917Y-28068429D01*
X221745917Y-28068429D02*
X221904606Y-28068429D01*
X221904606Y-28068429D02*
X221968082Y-28100167D01*
X221968082Y-28100167D02*
X221999820Y-28131905D01*
X221999820Y-28131905D02*
X222031558Y-28195381D01*
X222031558Y-28195381D02*
X222031558Y-28258857D01*
X222031558Y-28258857D02*
X221999820Y-28354071D01*
X221999820Y-28354071D02*
X221618965Y-28734925D01*
X221618965Y-28734925D02*
X222031558Y-28734925D01*
X222602840Y-28290595D02*
X222602840Y-28734925D01*
X222444151Y-28036692D02*
X222285461Y-28512760D01*
X222285461Y-28512760D02*
X222698054Y-28512760D01*
X213998965Y-34860929D02*
X214411558Y-34860929D01*
X214411558Y-34860929D02*
X214189393Y-35114833D01*
X214189393Y-35114833D02*
X214284606Y-35114833D01*
X214284606Y-35114833D02*
X214348082Y-35146571D01*
X214348082Y-35146571D02*
X214379820Y-35178308D01*
X214379820Y-35178308D02*
X214411558Y-35241784D01*
X214411558Y-35241784D02*
X214411558Y-35400474D01*
X214411558Y-35400474D02*
X214379820Y-35463950D01*
X214379820Y-35463950D02*
X214348082Y-35495688D01*
X214348082Y-35495688D02*
X214284606Y-35527425D01*
X214284606Y-35527425D02*
X214094179Y-35527425D01*
X214094179Y-35527425D02*
X214030703Y-35495688D01*
X214030703Y-35495688D02*
X213998965Y-35463950D01*
X214665461Y-34924405D02*
X214697199Y-34892667D01*
X214697199Y-34892667D02*
X214760675Y-34860929D01*
X214760675Y-34860929D02*
X214919364Y-34860929D01*
X214919364Y-34860929D02*
X214982840Y-34892667D01*
X214982840Y-34892667D02*
X215014578Y-34924405D01*
X215014578Y-34924405D02*
X215046316Y-34987881D01*
X215046316Y-34987881D02*
X215046316Y-35051357D01*
X215046316Y-35051357D02*
X215014578Y-35146571D01*
X215014578Y-35146571D02*
X214633723Y-35527425D01*
X214633723Y-35527425D02*
X215046316Y-35527425D01*
X232191558Y-28734925D02*
X231810703Y-28734925D01*
X232001131Y-28734925D02*
X232001131Y-28068429D01*
X232001131Y-28068429D02*
X231937655Y-28163643D01*
X231937655Y-28163643D02*
X231874179Y-28227119D01*
X231874179Y-28227119D02*
X231810703Y-28258857D01*
X232445461Y-28131905D02*
X232477199Y-28100167D01*
X232477199Y-28100167D02*
X232540675Y-28068429D01*
X232540675Y-28068429D02*
X232699364Y-28068429D01*
X232699364Y-28068429D02*
X232762840Y-28100167D01*
X232762840Y-28100167D02*
X232794578Y-28131905D01*
X232794578Y-28131905D02*
X232826316Y-28195381D01*
X232826316Y-28195381D02*
X232826316Y-28258857D01*
X232826316Y-28258857D02*
X232794578Y-28354071D01*
X232794578Y-28354071D02*
X232413723Y-28734925D01*
X232413723Y-28734925D02*
X232826316Y-28734925D01*
X252091558Y-82074925D02*
X251710703Y-82074925D01*
X251901131Y-82074925D02*
X251901131Y-81408429D01*
X251901131Y-81408429D02*
X251837655Y-81503643D01*
X251837655Y-81503643D02*
X251774179Y-81567119D01*
X251774179Y-81567119D02*
X251710703Y-81598857D01*
X252726316Y-82074925D02*
X252345461Y-82074925D01*
X252535889Y-82074925D02*
X252535889Y-81408429D01*
X252535889Y-81408429D02*
X252472413Y-81503643D01*
X252472413Y-81503643D02*
X252408937Y-81567119D01*
X252408937Y-81567119D02*
X252345461Y-81598857D01*
X253043695Y-82074925D02*
X253170647Y-82074925D01*
X253170647Y-82074925D02*
X253234122Y-82043188D01*
X253234122Y-82043188D02*
X253265860Y-82011450D01*
X253265860Y-82011450D02*
X253329336Y-81916236D01*
X253329336Y-81916236D02*
X253361074Y-81789284D01*
X253361074Y-81789284D02*
X253361074Y-81535381D01*
X253361074Y-81535381D02*
X253329336Y-81471905D01*
X253329336Y-81471905D02*
X253297598Y-81440167D01*
X253297598Y-81440167D02*
X253234122Y-81408429D01*
X253234122Y-81408429D02*
X253107171Y-81408429D01*
X253107171Y-81408429D02*
X253043695Y-81440167D01*
X253043695Y-81440167D02*
X253011957Y-81471905D01*
X253011957Y-81471905D02*
X252980219Y-81535381D01*
X252980219Y-81535381D02*
X252980219Y-81694071D01*
X252980219Y-81694071D02*
X253011957Y-81757546D01*
X253011957Y-81757546D02*
X253043695Y-81789284D01*
X253043695Y-81789284D02*
X253107171Y-81821022D01*
X253107171Y-81821022D02*
X253234122Y-81821022D01*
X253234122Y-81821022D02*
X253297598Y-81789284D01*
X253297598Y-81789284D02*
X253329336Y-81757546D01*
X253329336Y-81757546D02*
X253361074Y-81694071D01*
X229651558Y-28734925D02*
X229270703Y-28734925D01*
X229461131Y-28734925D02*
X229461131Y-28068429D01*
X229461131Y-28068429D02*
X229397655Y-28163643D01*
X229397655Y-28163643D02*
X229334179Y-28227119D01*
X229334179Y-28227119D02*
X229270703Y-28258857D01*
X230254578Y-28068429D02*
X229937199Y-28068429D01*
X229937199Y-28068429D02*
X229905461Y-28385808D01*
X229905461Y-28385808D02*
X229937199Y-28354071D01*
X229937199Y-28354071D02*
X230000675Y-28322333D01*
X230000675Y-28322333D02*
X230159364Y-28322333D01*
X230159364Y-28322333D02*
X230222840Y-28354071D01*
X230222840Y-28354071D02*
X230254578Y-28385808D01*
X230254578Y-28385808D02*
X230286316Y-28449284D01*
X230286316Y-28449284D02*
X230286316Y-28607974D01*
X230286316Y-28607974D02*
X230254578Y-28671450D01*
X230254578Y-28671450D02*
X230222840Y-28703188D01*
X230222840Y-28703188D02*
X230159364Y-28734925D01*
X230159364Y-28734925D02*
X230000675Y-28734925D01*
X230000675Y-28734925D02*
X229937199Y-28703188D01*
X229937199Y-28703188D02*
X229905461Y-28671450D01*
X244471558Y-88867425D02*
X244090703Y-88867425D01*
X244281131Y-88867425D02*
X244281131Y-88200929D01*
X244281131Y-88200929D02*
X244217655Y-88296143D01*
X244217655Y-88296143D02*
X244154179Y-88359619D01*
X244154179Y-88359619D02*
X244090703Y-88391357D01*
X245106316Y-88867425D02*
X244725461Y-88867425D01*
X244915889Y-88867425D02*
X244915889Y-88200929D01*
X244915889Y-88200929D02*
X244852413Y-88296143D01*
X244852413Y-88296143D02*
X244788937Y-88359619D01*
X244788937Y-88359619D02*
X244725461Y-88391357D01*
X245741074Y-88867425D02*
X245360219Y-88867425D01*
X245550647Y-88867425D02*
X245550647Y-88200929D01*
X245550647Y-88200929D02*
X245487171Y-88296143D01*
X245487171Y-88296143D02*
X245423695Y-88359619D01*
X245423695Y-88359619D02*
X245360219Y-88391357D01*
X227111558Y-35527425D02*
X226730703Y-35527425D01*
X226921131Y-35527425D02*
X226921131Y-34860929D01*
X226921131Y-34860929D02*
X226857655Y-34956143D01*
X226857655Y-34956143D02*
X226794179Y-35019619D01*
X226794179Y-35019619D02*
X226730703Y-35051357D01*
X227682840Y-34860929D02*
X227555889Y-34860929D01*
X227555889Y-34860929D02*
X227492413Y-34892667D01*
X227492413Y-34892667D02*
X227460675Y-34924405D01*
X227460675Y-34924405D02*
X227397199Y-35019619D01*
X227397199Y-35019619D02*
X227365461Y-35146571D01*
X227365461Y-35146571D02*
X227365461Y-35400474D01*
X227365461Y-35400474D02*
X227397199Y-35463950D01*
X227397199Y-35463950D02*
X227428937Y-35495688D01*
X227428937Y-35495688D02*
X227492413Y-35527425D01*
X227492413Y-35527425D02*
X227619364Y-35527425D01*
X227619364Y-35527425D02*
X227682840Y-35495688D01*
X227682840Y-35495688D02*
X227714578Y-35463950D01*
X227714578Y-35463950D02*
X227746316Y-35400474D01*
X227746316Y-35400474D02*
X227746316Y-35241784D01*
X227746316Y-35241784D02*
X227714578Y-35178308D01*
X227714578Y-35178308D02*
X227682840Y-35146571D01*
X227682840Y-35146571D02*
X227619364Y-35114833D01*
X227619364Y-35114833D02*
X227492413Y-35114833D01*
X227492413Y-35114833D02*
X227428937Y-35146571D01*
X227428937Y-35146571D02*
X227397199Y-35178308D01*
X227397199Y-35178308D02*
X227365461Y-35241784D01*
X211458965Y-34860929D02*
X211871558Y-34860929D01*
X211871558Y-34860929D02*
X211649393Y-35114833D01*
X211649393Y-35114833D02*
X211744606Y-35114833D01*
X211744606Y-35114833D02*
X211808082Y-35146571D01*
X211808082Y-35146571D02*
X211839820Y-35178308D01*
X211839820Y-35178308D02*
X211871558Y-35241784D01*
X211871558Y-35241784D02*
X211871558Y-35400474D01*
X211871558Y-35400474D02*
X211839820Y-35463950D01*
X211839820Y-35463950D02*
X211808082Y-35495688D01*
X211808082Y-35495688D02*
X211744606Y-35527425D01*
X211744606Y-35527425D02*
X211554179Y-35527425D01*
X211554179Y-35527425D02*
X211490703Y-35495688D01*
X211490703Y-35495688D02*
X211458965Y-35463950D01*
X212442840Y-35083095D02*
X212442840Y-35527425D01*
X212284151Y-34829192D02*
X212125461Y-35305260D01*
X212125461Y-35305260D02*
X212538054Y-35305260D01*
X209259820Y-88200929D02*
X208942441Y-88200929D01*
X208942441Y-88200929D02*
X208910703Y-88518308D01*
X208910703Y-88518308D02*
X208942441Y-88486571D01*
X208942441Y-88486571D02*
X209005917Y-88454833D01*
X209005917Y-88454833D02*
X209164606Y-88454833D01*
X209164606Y-88454833D02*
X209228082Y-88486571D01*
X209228082Y-88486571D02*
X209259820Y-88518308D01*
X209259820Y-88518308D02*
X209291558Y-88581784D01*
X209291558Y-88581784D02*
X209291558Y-88740474D01*
X209291558Y-88740474D02*
X209259820Y-88803950D01*
X209259820Y-88803950D02*
X209228082Y-88835688D01*
X209228082Y-88835688D02*
X209164606Y-88867425D01*
X209164606Y-88867425D02*
X209005917Y-88867425D01*
X209005917Y-88867425D02*
X208942441Y-88835688D01*
X208942441Y-88835688D02*
X208910703Y-88803950D01*
X209513723Y-88200929D02*
X209958054Y-88200929D01*
X209958054Y-88200929D02*
X209672413Y-88867425D01*
X244511558Y-28734925D02*
X244130703Y-28734925D01*
X244321131Y-28734925D02*
X244321131Y-28068429D01*
X244321131Y-28068429D02*
X244257655Y-28163643D01*
X244257655Y-28163643D02*
X244194179Y-28227119D01*
X244194179Y-28227119D02*
X244130703Y-28258857D01*
X245082840Y-28290595D02*
X245082840Y-28734925D01*
X244924151Y-28036692D02*
X244765461Y-28512760D01*
X244765461Y-28512760D02*
X245178054Y-28512760D01*
X245717598Y-28290595D02*
X245717598Y-28734925D01*
X245558909Y-28036692D02*
X245400219Y-28512760D01*
X245400219Y-28512760D02*
X245812812Y-28512760D01*
X262319058Y-28734925D02*
X261938203Y-28734925D01*
X262128631Y-28734925D02*
X262128631Y-28068429D01*
X262128631Y-28068429D02*
X262065155Y-28163643D01*
X262065155Y-28163643D02*
X262001679Y-28227119D01*
X262001679Y-28227119D02*
X261938203Y-28258857D01*
X262572961Y-28131905D02*
X262604699Y-28100167D01*
X262604699Y-28100167D02*
X262668175Y-28068429D01*
X262668175Y-28068429D02*
X262826864Y-28068429D01*
X262826864Y-28068429D02*
X262890340Y-28100167D01*
X262890340Y-28100167D02*
X262922078Y-28131905D01*
X262922078Y-28131905D02*
X262953816Y-28195381D01*
X262953816Y-28195381D02*
X262953816Y-28258857D01*
X262953816Y-28258857D02*
X262922078Y-28354071D01*
X262922078Y-28354071D02*
X262541223Y-28734925D01*
X262541223Y-28734925D02*
X262953816Y-28734925D01*
X263525098Y-28290595D02*
X263525098Y-28734925D01*
X263366409Y-28036692D02*
X263207719Y-28512760D01*
X263207719Y-28512760D02*
X263620312Y-28512760D01*
X240065582Y-28068429D02*
X239938631Y-28068429D01*
X239938631Y-28068429D02*
X239875155Y-28100167D01*
X239875155Y-28100167D02*
X239843417Y-28131905D01*
X239843417Y-28131905D02*
X239779941Y-28227119D01*
X239779941Y-28227119D02*
X239748203Y-28354071D01*
X239748203Y-28354071D02*
X239748203Y-28607974D01*
X239748203Y-28607974D02*
X239779941Y-28671450D01*
X239779941Y-28671450D02*
X239811679Y-28703188D01*
X239811679Y-28703188D02*
X239875155Y-28734925D01*
X239875155Y-28734925D02*
X240002106Y-28734925D01*
X240002106Y-28734925D02*
X240065582Y-28703188D01*
X240065582Y-28703188D02*
X240097320Y-28671450D01*
X240097320Y-28671450D02*
X240129058Y-28607974D01*
X240129058Y-28607974D02*
X240129058Y-28449284D01*
X240129058Y-28449284D02*
X240097320Y-28385808D01*
X240097320Y-28385808D02*
X240065582Y-28354071D01*
X240065582Y-28354071D02*
X240002106Y-28322333D01*
X240002106Y-28322333D02*
X239875155Y-28322333D01*
X239875155Y-28322333D02*
X239811679Y-28354071D01*
X239811679Y-28354071D02*
X239779941Y-28385808D01*
X239779941Y-28385808D02*
X239748203Y-28449284D01*
X229294179Y-88867425D02*
X229421131Y-88867425D01*
X229421131Y-88867425D02*
X229484606Y-88835688D01*
X229484606Y-88835688D02*
X229516344Y-88803950D01*
X229516344Y-88803950D02*
X229579820Y-88708736D01*
X229579820Y-88708736D02*
X229611558Y-88581784D01*
X229611558Y-88581784D02*
X229611558Y-88327881D01*
X229611558Y-88327881D02*
X229579820Y-88264405D01*
X229579820Y-88264405D02*
X229548082Y-88232667D01*
X229548082Y-88232667D02*
X229484606Y-88200929D01*
X229484606Y-88200929D02*
X229357655Y-88200929D01*
X229357655Y-88200929D02*
X229294179Y-88232667D01*
X229294179Y-88232667D02*
X229262441Y-88264405D01*
X229262441Y-88264405D02*
X229230703Y-88327881D01*
X229230703Y-88327881D02*
X229230703Y-88486571D01*
X229230703Y-88486571D02*
X229262441Y-88550046D01*
X229262441Y-88550046D02*
X229294179Y-88581784D01*
X229294179Y-88581784D02*
X229357655Y-88613522D01*
X229357655Y-88613522D02*
X229484606Y-88613522D01*
X229484606Y-88613522D02*
X229548082Y-88581784D01*
X229548082Y-88581784D02*
X229579820Y-88550046D01*
X229579820Y-88550046D02*
X229611558Y-88486571D01*
X229865461Y-88264405D02*
X229897199Y-88232667D01*
X229897199Y-88232667D02*
X229960675Y-88200929D01*
X229960675Y-88200929D02*
X230119364Y-88200929D01*
X230119364Y-88200929D02*
X230182840Y-88232667D01*
X230182840Y-88232667D02*
X230214578Y-88264405D01*
X230214578Y-88264405D02*
X230246316Y-88327881D01*
X230246316Y-88327881D02*
X230246316Y-88391357D01*
X230246316Y-88391357D02*
X230214578Y-88486571D01*
X230214578Y-88486571D02*
X229833723Y-88867425D01*
X229833723Y-88867425D02*
X230246316Y-88867425D01*
X203838808Y-81440167D02*
X203775332Y-81408429D01*
X203775332Y-81408429D02*
X203680118Y-81408429D01*
X203680118Y-81408429D02*
X203584905Y-81440167D01*
X203584905Y-81440167D02*
X203521429Y-81503643D01*
X203521429Y-81503643D02*
X203489691Y-81567119D01*
X203489691Y-81567119D02*
X203457953Y-81694071D01*
X203457953Y-81694071D02*
X203457953Y-81789284D01*
X203457953Y-81789284D02*
X203489691Y-81916236D01*
X203489691Y-81916236D02*
X203521429Y-81979712D01*
X203521429Y-81979712D02*
X203584905Y-82043188D01*
X203584905Y-82043188D02*
X203680118Y-82074925D01*
X203680118Y-82074925D02*
X203743594Y-82074925D01*
X203743594Y-82074925D02*
X203838808Y-82043188D01*
X203838808Y-82043188D02*
X203870546Y-82011450D01*
X203870546Y-82011450D02*
X203870546Y-81789284D01*
X203870546Y-81789284D02*
X203743594Y-81789284D01*
X204156187Y-82074925D02*
X204156187Y-81408429D01*
X204156187Y-81408429D02*
X204537042Y-82074925D01*
X204537042Y-82074925D02*
X204537042Y-81408429D01*
X204854421Y-82074925D02*
X204854421Y-81408429D01*
X204854421Y-81408429D02*
X205013111Y-81408429D01*
X205013111Y-81408429D02*
X205108324Y-81440167D01*
X205108324Y-81440167D02*
X205171800Y-81503643D01*
X205171800Y-81503643D02*
X205203538Y-81567119D01*
X205203538Y-81567119D02*
X205235276Y-81694071D01*
X205235276Y-81694071D02*
X205235276Y-81789284D01*
X205235276Y-81789284D02*
X205203538Y-81916236D01*
X205203538Y-81916236D02*
X205171800Y-81979712D01*
X205171800Y-81979712D02*
X205108324Y-82043188D01*
X205108324Y-82043188D02*
X205013111Y-82074925D01*
X205013111Y-82074925D02*
X204854421Y-82074925D01*
X211768082Y-81408429D02*
X211641131Y-81408429D01*
X211641131Y-81408429D02*
X211577655Y-81440167D01*
X211577655Y-81440167D02*
X211545917Y-81471905D01*
X211545917Y-81471905D02*
X211482441Y-81567119D01*
X211482441Y-81567119D02*
X211450703Y-81694071D01*
X211450703Y-81694071D02*
X211450703Y-81947974D01*
X211450703Y-81947974D02*
X211482441Y-82011450D01*
X211482441Y-82011450D02*
X211514179Y-82043188D01*
X211514179Y-82043188D02*
X211577655Y-82074925D01*
X211577655Y-82074925D02*
X211704606Y-82074925D01*
X211704606Y-82074925D02*
X211768082Y-82043188D01*
X211768082Y-82043188D02*
X211799820Y-82011450D01*
X211799820Y-82011450D02*
X211831558Y-81947974D01*
X211831558Y-81947974D02*
X211831558Y-81789284D01*
X211831558Y-81789284D02*
X211799820Y-81725808D01*
X211799820Y-81725808D02*
X211768082Y-81694071D01*
X211768082Y-81694071D02*
X211704606Y-81662333D01*
X211704606Y-81662333D02*
X211577655Y-81662333D01*
X211577655Y-81662333D02*
X211514179Y-81694071D01*
X211514179Y-81694071D02*
X211482441Y-81725808D01*
X211482441Y-81725808D02*
X211450703Y-81789284D01*
X212053723Y-81408429D02*
X212498054Y-81408429D01*
X212498054Y-81408429D02*
X212212413Y-82074925D01*
X219110703Y-28131905D02*
X219142441Y-28100167D01*
X219142441Y-28100167D02*
X219205917Y-28068429D01*
X219205917Y-28068429D02*
X219364606Y-28068429D01*
X219364606Y-28068429D02*
X219428082Y-28100167D01*
X219428082Y-28100167D02*
X219459820Y-28131905D01*
X219459820Y-28131905D02*
X219491558Y-28195381D01*
X219491558Y-28195381D02*
X219491558Y-28258857D01*
X219491558Y-28258857D02*
X219459820Y-28354071D01*
X219459820Y-28354071D02*
X219078965Y-28734925D01*
X219078965Y-28734925D02*
X219491558Y-28734925D01*
X219713723Y-28068429D02*
X220158054Y-28068429D01*
X220158054Y-28068429D02*
X219872413Y-28734925D01*
X254631558Y-82074925D02*
X254250703Y-82074925D01*
X254441131Y-82074925D02*
X254441131Y-81408429D01*
X254441131Y-81408429D02*
X254377655Y-81503643D01*
X254377655Y-81503643D02*
X254314179Y-81567119D01*
X254314179Y-81567119D02*
X254250703Y-81598857D01*
X254885461Y-81471905D02*
X254917199Y-81440167D01*
X254917199Y-81440167D02*
X254980675Y-81408429D01*
X254980675Y-81408429D02*
X255139364Y-81408429D01*
X255139364Y-81408429D02*
X255202840Y-81440167D01*
X255202840Y-81440167D02*
X255234578Y-81471905D01*
X255234578Y-81471905D02*
X255266316Y-81535381D01*
X255266316Y-81535381D02*
X255266316Y-81598857D01*
X255266316Y-81598857D02*
X255234578Y-81694071D01*
X255234578Y-81694071D02*
X254853723Y-82074925D01*
X254853723Y-82074925D02*
X255266316Y-82074925D01*
X255901074Y-82074925D02*
X255520219Y-82074925D01*
X255710647Y-82074925D02*
X255710647Y-81408429D01*
X255710647Y-81408429D02*
X255647171Y-81503643D01*
X255647171Y-81503643D02*
X255583695Y-81567119D01*
X255583695Y-81567119D02*
X255520219Y-81598857D01*
X239391558Y-88867425D02*
X239010703Y-88867425D01*
X239201131Y-88867425D02*
X239201131Y-88200929D01*
X239201131Y-88200929D02*
X239137655Y-88296143D01*
X239137655Y-88296143D02*
X239074179Y-88359619D01*
X239074179Y-88359619D02*
X239010703Y-88391357D01*
X239804151Y-88200929D02*
X239867626Y-88200929D01*
X239867626Y-88200929D02*
X239931102Y-88232667D01*
X239931102Y-88232667D02*
X239962840Y-88264405D01*
X239962840Y-88264405D02*
X239994578Y-88327881D01*
X239994578Y-88327881D02*
X240026316Y-88454833D01*
X240026316Y-88454833D02*
X240026316Y-88613522D01*
X240026316Y-88613522D02*
X239994578Y-88740474D01*
X239994578Y-88740474D02*
X239962840Y-88803950D01*
X239962840Y-88803950D02*
X239931102Y-88835688D01*
X239931102Y-88835688D02*
X239867626Y-88867425D01*
X239867626Y-88867425D02*
X239804151Y-88867425D01*
X239804151Y-88867425D02*
X239740675Y-88835688D01*
X239740675Y-88835688D02*
X239708937Y-88803950D01*
X239708937Y-88803950D02*
X239677199Y-88740474D01*
X239677199Y-88740474D02*
X239645461Y-88613522D01*
X239645461Y-88613522D02*
X239645461Y-88454833D01*
X239645461Y-88454833D02*
X239677199Y-88327881D01*
X239677199Y-88327881D02*
X239708937Y-88264405D01*
X239708937Y-88264405D02*
X239740675Y-88232667D01*
X239740675Y-88232667D02*
X239804151Y-88200929D01*
X240661074Y-88867425D02*
X240280219Y-88867425D01*
X240470647Y-88867425D02*
X240470647Y-88200929D01*
X240470647Y-88200929D02*
X240407171Y-88296143D01*
X240407171Y-88296143D02*
X240343695Y-88359619D01*
X240343695Y-88359619D02*
X240280219Y-88391357D01*
X252131558Y-28734925D02*
X251750703Y-28734925D01*
X251941131Y-28734925D02*
X251941131Y-28068429D01*
X251941131Y-28068429D02*
X251877655Y-28163643D01*
X251877655Y-28163643D02*
X251814179Y-28227119D01*
X251814179Y-28227119D02*
X251750703Y-28258857D01*
X252353723Y-28068429D02*
X252766316Y-28068429D01*
X252766316Y-28068429D02*
X252544151Y-28322333D01*
X252544151Y-28322333D02*
X252639364Y-28322333D01*
X252639364Y-28322333D02*
X252702840Y-28354071D01*
X252702840Y-28354071D02*
X252734578Y-28385808D01*
X252734578Y-28385808D02*
X252766316Y-28449284D01*
X252766316Y-28449284D02*
X252766316Y-28607974D01*
X252766316Y-28607974D02*
X252734578Y-28671450D01*
X252734578Y-28671450D02*
X252702840Y-28703188D01*
X252702840Y-28703188D02*
X252639364Y-28734925D01*
X252639364Y-28734925D02*
X252448937Y-28734925D01*
X252448937Y-28734925D02*
X252385461Y-28703188D01*
X252385461Y-28703188D02*
X252353723Y-28671450D01*
X253147171Y-28354071D02*
X253083695Y-28322333D01*
X253083695Y-28322333D02*
X253051957Y-28290595D01*
X253051957Y-28290595D02*
X253020219Y-28227119D01*
X253020219Y-28227119D02*
X253020219Y-28195381D01*
X253020219Y-28195381D02*
X253051957Y-28131905D01*
X253051957Y-28131905D02*
X253083695Y-28100167D01*
X253083695Y-28100167D02*
X253147171Y-28068429D01*
X253147171Y-28068429D02*
X253274122Y-28068429D01*
X253274122Y-28068429D02*
X253337598Y-28100167D01*
X253337598Y-28100167D02*
X253369336Y-28131905D01*
X253369336Y-28131905D02*
X253401074Y-28195381D01*
X253401074Y-28195381D02*
X253401074Y-28227119D01*
X253401074Y-28227119D02*
X253369336Y-28290595D01*
X253369336Y-28290595D02*
X253337598Y-28322333D01*
X253337598Y-28322333D02*
X253274122Y-28354071D01*
X253274122Y-28354071D02*
X253147171Y-28354071D01*
X253147171Y-28354071D02*
X253083695Y-28385808D01*
X253083695Y-28385808D02*
X253051957Y-28417546D01*
X253051957Y-28417546D02*
X253020219Y-28481022D01*
X253020219Y-28481022D02*
X253020219Y-28607974D01*
X253020219Y-28607974D02*
X253051957Y-28671450D01*
X253051957Y-28671450D02*
X253083695Y-28703188D01*
X253083695Y-28703188D02*
X253147171Y-28734925D01*
X253147171Y-28734925D02*
X253274122Y-28734925D01*
X253274122Y-28734925D02*
X253337598Y-28703188D01*
X253337598Y-28703188D02*
X253369336Y-28671450D01*
X253369336Y-28671450D02*
X253401074Y-28607974D01*
X253401074Y-28607974D02*
X253401074Y-28481022D01*
X253401074Y-28481022D02*
X253369336Y-28417546D01*
X253369336Y-28417546D02*
X253337598Y-28385808D01*
X253337598Y-28385808D02*
X253274122Y-28354071D01*
X239391558Y-82074925D02*
X239010703Y-82074925D01*
X239201131Y-82074925D02*
X239201131Y-81408429D01*
X239201131Y-81408429D02*
X239137655Y-81503643D01*
X239137655Y-81503643D02*
X239074179Y-81567119D01*
X239074179Y-81567119D02*
X239010703Y-81598857D01*
X239804151Y-81408429D02*
X239867626Y-81408429D01*
X239867626Y-81408429D02*
X239931102Y-81440167D01*
X239931102Y-81440167D02*
X239962840Y-81471905D01*
X239962840Y-81471905D02*
X239994578Y-81535381D01*
X239994578Y-81535381D02*
X240026316Y-81662333D01*
X240026316Y-81662333D02*
X240026316Y-81821022D01*
X240026316Y-81821022D02*
X239994578Y-81947974D01*
X239994578Y-81947974D02*
X239962840Y-82011450D01*
X239962840Y-82011450D02*
X239931102Y-82043188D01*
X239931102Y-82043188D02*
X239867626Y-82074925D01*
X239867626Y-82074925D02*
X239804151Y-82074925D01*
X239804151Y-82074925D02*
X239740675Y-82043188D01*
X239740675Y-82043188D02*
X239708937Y-82011450D01*
X239708937Y-82011450D02*
X239677199Y-81947974D01*
X239677199Y-81947974D02*
X239645461Y-81821022D01*
X239645461Y-81821022D02*
X239645461Y-81662333D01*
X239645461Y-81662333D02*
X239677199Y-81535381D01*
X239677199Y-81535381D02*
X239708937Y-81471905D01*
X239708937Y-81471905D02*
X239740675Y-81440167D01*
X239740675Y-81440167D02*
X239804151Y-81408429D01*
X240280219Y-81471905D02*
X240311957Y-81440167D01*
X240311957Y-81440167D02*
X240375433Y-81408429D01*
X240375433Y-81408429D02*
X240534122Y-81408429D01*
X240534122Y-81408429D02*
X240597598Y-81440167D01*
X240597598Y-81440167D02*
X240629336Y-81471905D01*
X240629336Y-81471905D02*
X240661074Y-81535381D01*
X240661074Y-81535381D02*
X240661074Y-81598857D01*
X240661074Y-81598857D02*
X240629336Y-81694071D01*
X240629336Y-81694071D02*
X240248481Y-82074925D01*
X240248481Y-82074925D02*
X240661074Y-82074925D01*
X247011558Y-88867425D02*
X246630703Y-88867425D01*
X246821131Y-88867425D02*
X246821131Y-88200929D01*
X246821131Y-88200929D02*
X246757655Y-88296143D01*
X246757655Y-88296143D02*
X246694179Y-88359619D01*
X246694179Y-88359619D02*
X246630703Y-88391357D01*
X247646316Y-88867425D02*
X247265461Y-88867425D01*
X247455889Y-88867425D02*
X247455889Y-88200929D01*
X247455889Y-88200929D02*
X247392413Y-88296143D01*
X247392413Y-88296143D02*
X247328937Y-88359619D01*
X247328937Y-88359619D02*
X247265461Y-88391357D01*
X248217598Y-88423095D02*
X248217598Y-88867425D01*
X248058909Y-88169192D02*
X247900219Y-88645260D01*
X247900219Y-88645260D02*
X248312812Y-88645260D01*
X244471558Y-82074925D02*
X244090703Y-82074925D01*
X244281131Y-82074925D02*
X244281131Y-81408429D01*
X244281131Y-81408429D02*
X244217655Y-81503643D01*
X244217655Y-81503643D02*
X244154179Y-81567119D01*
X244154179Y-81567119D02*
X244090703Y-81598857D01*
X245106316Y-82074925D02*
X244725461Y-82074925D01*
X244915889Y-82074925D02*
X244915889Y-81408429D01*
X244915889Y-81408429D02*
X244852413Y-81503643D01*
X244852413Y-81503643D02*
X244788937Y-81567119D01*
X244788937Y-81567119D02*
X244725461Y-81598857D01*
X245360219Y-81471905D02*
X245391957Y-81440167D01*
X245391957Y-81440167D02*
X245455433Y-81408429D01*
X245455433Y-81408429D02*
X245614122Y-81408429D01*
X245614122Y-81408429D02*
X245677598Y-81440167D01*
X245677598Y-81440167D02*
X245709336Y-81471905D01*
X245709336Y-81471905D02*
X245741074Y-81535381D01*
X245741074Y-81535381D02*
X245741074Y-81598857D01*
X245741074Y-81598857D02*
X245709336Y-81694071D01*
X245709336Y-81694071D02*
X245328481Y-82074925D01*
X245328481Y-82074925D02*
X245741074Y-82074925D01*
X216538965Y-28068429D02*
X216951558Y-28068429D01*
X216951558Y-28068429D02*
X216729393Y-28322333D01*
X216729393Y-28322333D02*
X216824606Y-28322333D01*
X216824606Y-28322333D02*
X216888082Y-28354071D01*
X216888082Y-28354071D02*
X216919820Y-28385808D01*
X216919820Y-28385808D02*
X216951558Y-28449284D01*
X216951558Y-28449284D02*
X216951558Y-28607974D01*
X216951558Y-28607974D02*
X216919820Y-28671450D01*
X216919820Y-28671450D02*
X216888082Y-28703188D01*
X216888082Y-28703188D02*
X216824606Y-28734925D01*
X216824606Y-28734925D02*
X216634179Y-28734925D01*
X216634179Y-28734925D02*
X216570703Y-28703188D01*
X216570703Y-28703188D02*
X216538965Y-28671450D01*
X217364151Y-28068429D02*
X217427626Y-28068429D01*
X217427626Y-28068429D02*
X217491102Y-28100167D01*
X217491102Y-28100167D02*
X217522840Y-28131905D01*
X217522840Y-28131905D02*
X217554578Y-28195381D01*
X217554578Y-28195381D02*
X217586316Y-28322333D01*
X217586316Y-28322333D02*
X217586316Y-28481022D01*
X217586316Y-28481022D02*
X217554578Y-28607974D01*
X217554578Y-28607974D02*
X217522840Y-28671450D01*
X217522840Y-28671450D02*
X217491102Y-28703188D01*
X217491102Y-28703188D02*
X217427626Y-28734925D01*
X217427626Y-28734925D02*
X217364151Y-28734925D01*
X217364151Y-28734925D02*
X217300675Y-28703188D01*
X217300675Y-28703188D02*
X217268937Y-28671450D01*
X217268937Y-28671450D02*
X217237199Y-28607974D01*
X217237199Y-28607974D02*
X217205461Y-28481022D01*
X217205461Y-28481022D02*
X217205461Y-28322333D01*
X217205461Y-28322333D02*
X217237199Y-28195381D01*
X217237199Y-28195381D02*
X217268937Y-28131905D01*
X217268937Y-28131905D02*
X217300675Y-28100167D01*
X217300675Y-28100167D02*
X217364151Y-28068429D01*
X219197655Y-81694071D02*
X219134179Y-81662333D01*
X219134179Y-81662333D02*
X219102441Y-81630595D01*
X219102441Y-81630595D02*
X219070703Y-81567119D01*
X219070703Y-81567119D02*
X219070703Y-81535381D01*
X219070703Y-81535381D02*
X219102441Y-81471905D01*
X219102441Y-81471905D02*
X219134179Y-81440167D01*
X219134179Y-81440167D02*
X219197655Y-81408429D01*
X219197655Y-81408429D02*
X219324606Y-81408429D01*
X219324606Y-81408429D02*
X219388082Y-81440167D01*
X219388082Y-81440167D02*
X219419820Y-81471905D01*
X219419820Y-81471905D02*
X219451558Y-81535381D01*
X219451558Y-81535381D02*
X219451558Y-81567119D01*
X219451558Y-81567119D02*
X219419820Y-81630595D01*
X219419820Y-81630595D02*
X219388082Y-81662333D01*
X219388082Y-81662333D02*
X219324606Y-81694071D01*
X219324606Y-81694071D02*
X219197655Y-81694071D01*
X219197655Y-81694071D02*
X219134179Y-81725808D01*
X219134179Y-81725808D02*
X219102441Y-81757546D01*
X219102441Y-81757546D02*
X219070703Y-81821022D01*
X219070703Y-81821022D02*
X219070703Y-81947974D01*
X219070703Y-81947974D02*
X219102441Y-82011450D01*
X219102441Y-82011450D02*
X219134179Y-82043188D01*
X219134179Y-82043188D02*
X219197655Y-82074925D01*
X219197655Y-82074925D02*
X219324606Y-82074925D01*
X219324606Y-82074925D02*
X219388082Y-82043188D01*
X219388082Y-82043188D02*
X219419820Y-82011450D01*
X219419820Y-82011450D02*
X219451558Y-81947974D01*
X219451558Y-81947974D02*
X219451558Y-81821022D01*
X219451558Y-81821022D02*
X219419820Y-81757546D01*
X219419820Y-81757546D02*
X219388082Y-81725808D01*
X219388082Y-81725808D02*
X219324606Y-81694071D01*
X220086316Y-82074925D02*
X219705461Y-82074925D01*
X219895889Y-82074925D02*
X219895889Y-81408429D01*
X219895889Y-81408429D02*
X219832413Y-81503643D01*
X219832413Y-81503643D02*
X219768937Y-81567119D01*
X219768937Y-81567119D02*
X219705461Y-81598857D01*
X242288203Y-28131905D02*
X242319941Y-28100167D01*
X242319941Y-28100167D02*
X242383417Y-28068429D01*
X242383417Y-28068429D02*
X242542106Y-28068429D01*
X242542106Y-28068429D02*
X242605582Y-28100167D01*
X242605582Y-28100167D02*
X242637320Y-28131905D01*
X242637320Y-28131905D02*
X242669058Y-28195381D01*
X242669058Y-28195381D02*
X242669058Y-28258857D01*
X242669058Y-28258857D02*
X242637320Y-28354071D01*
X242637320Y-28354071D02*
X242256465Y-28734925D01*
X242256465Y-28734925D02*
X242669058Y-28734925D01*
X213958965Y-88200929D02*
X214403296Y-88200929D01*
X214403296Y-88200929D02*
X214117655Y-88867425D01*
X214942840Y-88423095D02*
X214942840Y-88867425D01*
X214784151Y-88169192D02*
X214625461Y-88645260D01*
X214625461Y-88645260D02*
X215038054Y-88645260D01*
X209268082Y-35083095D02*
X209268082Y-35527425D01*
X209109393Y-34829192D02*
X208950703Y-35305260D01*
X208950703Y-35305260D02*
X209363296Y-35305260D01*
X209744151Y-34860929D02*
X209807626Y-34860929D01*
X209807626Y-34860929D02*
X209871102Y-34892667D01*
X209871102Y-34892667D02*
X209902840Y-34924405D01*
X209902840Y-34924405D02*
X209934578Y-34987881D01*
X209934578Y-34987881D02*
X209966316Y-35114833D01*
X209966316Y-35114833D02*
X209966316Y-35273522D01*
X209966316Y-35273522D02*
X209934578Y-35400474D01*
X209934578Y-35400474D02*
X209902840Y-35463950D01*
X209902840Y-35463950D02*
X209871102Y-35495688D01*
X209871102Y-35495688D02*
X209807626Y-35527425D01*
X209807626Y-35527425D02*
X209744151Y-35527425D01*
X209744151Y-35527425D02*
X209680675Y-35495688D01*
X209680675Y-35495688D02*
X209648937Y-35463950D01*
X209648937Y-35463950D02*
X209617199Y-35400474D01*
X209617199Y-35400474D02*
X209585461Y-35273522D01*
X209585461Y-35273522D02*
X209585461Y-35114833D01*
X209585461Y-35114833D02*
X209617199Y-34987881D01*
X209617199Y-34987881D02*
X209648937Y-34924405D01*
X209648937Y-34924405D02*
X209680675Y-34892667D01*
X209680675Y-34892667D02*
X209744151Y-34860929D01*
X224277655Y-88486571D02*
X224214179Y-88454833D01*
X224214179Y-88454833D02*
X224182441Y-88423095D01*
X224182441Y-88423095D02*
X224150703Y-88359619D01*
X224150703Y-88359619D02*
X224150703Y-88327881D01*
X224150703Y-88327881D02*
X224182441Y-88264405D01*
X224182441Y-88264405D02*
X224214179Y-88232667D01*
X224214179Y-88232667D02*
X224277655Y-88200929D01*
X224277655Y-88200929D02*
X224404606Y-88200929D01*
X224404606Y-88200929D02*
X224468082Y-88232667D01*
X224468082Y-88232667D02*
X224499820Y-88264405D01*
X224499820Y-88264405D02*
X224531558Y-88327881D01*
X224531558Y-88327881D02*
X224531558Y-88359619D01*
X224531558Y-88359619D02*
X224499820Y-88423095D01*
X224499820Y-88423095D02*
X224468082Y-88454833D01*
X224468082Y-88454833D02*
X224404606Y-88486571D01*
X224404606Y-88486571D02*
X224277655Y-88486571D01*
X224277655Y-88486571D02*
X224214179Y-88518308D01*
X224214179Y-88518308D02*
X224182441Y-88550046D01*
X224182441Y-88550046D02*
X224150703Y-88613522D01*
X224150703Y-88613522D02*
X224150703Y-88740474D01*
X224150703Y-88740474D02*
X224182441Y-88803950D01*
X224182441Y-88803950D02*
X224214179Y-88835688D01*
X224214179Y-88835688D02*
X224277655Y-88867425D01*
X224277655Y-88867425D02*
X224404606Y-88867425D01*
X224404606Y-88867425D02*
X224468082Y-88835688D01*
X224468082Y-88835688D02*
X224499820Y-88803950D01*
X224499820Y-88803950D02*
X224531558Y-88740474D01*
X224531558Y-88740474D02*
X224531558Y-88613522D01*
X224531558Y-88613522D02*
X224499820Y-88550046D01*
X224499820Y-88550046D02*
X224468082Y-88518308D01*
X224468082Y-88518308D02*
X224404606Y-88486571D01*
X225102840Y-88423095D02*
X225102840Y-88867425D01*
X224944151Y-88169192D02*
X224785461Y-88645260D01*
X224785461Y-88645260D02*
X225198054Y-88645260D01*
X231834179Y-88867425D02*
X231961131Y-88867425D01*
X231961131Y-88867425D02*
X232024606Y-88835688D01*
X232024606Y-88835688D02*
X232056344Y-88803950D01*
X232056344Y-88803950D02*
X232119820Y-88708736D01*
X232119820Y-88708736D02*
X232151558Y-88581784D01*
X232151558Y-88581784D02*
X232151558Y-88327881D01*
X232151558Y-88327881D02*
X232119820Y-88264405D01*
X232119820Y-88264405D02*
X232088082Y-88232667D01*
X232088082Y-88232667D02*
X232024606Y-88200929D01*
X232024606Y-88200929D02*
X231897655Y-88200929D01*
X231897655Y-88200929D02*
X231834179Y-88232667D01*
X231834179Y-88232667D02*
X231802441Y-88264405D01*
X231802441Y-88264405D02*
X231770703Y-88327881D01*
X231770703Y-88327881D02*
X231770703Y-88486571D01*
X231770703Y-88486571D02*
X231802441Y-88550046D01*
X231802441Y-88550046D02*
X231834179Y-88581784D01*
X231834179Y-88581784D02*
X231897655Y-88613522D01*
X231897655Y-88613522D02*
X232024606Y-88613522D01*
X232024606Y-88613522D02*
X232088082Y-88581784D01*
X232088082Y-88581784D02*
X232119820Y-88550046D01*
X232119820Y-88550046D02*
X232151558Y-88486571D01*
X232722840Y-88423095D02*
X232722840Y-88867425D01*
X232564151Y-88169192D02*
X232405461Y-88645260D01*
X232405461Y-88645260D02*
X232818054Y-88645260D01*
X252091558Y-88867425D02*
X251710703Y-88867425D01*
X251901131Y-88867425D02*
X251901131Y-88200929D01*
X251901131Y-88200929D02*
X251837655Y-88296143D01*
X251837655Y-88296143D02*
X251774179Y-88359619D01*
X251774179Y-88359619D02*
X251710703Y-88391357D01*
X252726316Y-88867425D02*
X252345461Y-88867425D01*
X252535889Y-88867425D02*
X252535889Y-88200929D01*
X252535889Y-88200929D02*
X252472413Y-88296143D01*
X252472413Y-88296143D02*
X252408937Y-88359619D01*
X252408937Y-88359619D02*
X252345461Y-88391357D01*
X253107171Y-88486571D02*
X253043695Y-88454833D01*
X253043695Y-88454833D02*
X253011957Y-88423095D01*
X253011957Y-88423095D02*
X252980219Y-88359619D01*
X252980219Y-88359619D02*
X252980219Y-88327881D01*
X252980219Y-88327881D02*
X253011957Y-88264405D01*
X253011957Y-88264405D02*
X253043695Y-88232667D01*
X253043695Y-88232667D02*
X253107171Y-88200929D01*
X253107171Y-88200929D02*
X253234122Y-88200929D01*
X253234122Y-88200929D02*
X253297598Y-88232667D01*
X253297598Y-88232667D02*
X253329336Y-88264405D01*
X253329336Y-88264405D02*
X253361074Y-88327881D01*
X253361074Y-88327881D02*
X253361074Y-88359619D01*
X253361074Y-88359619D02*
X253329336Y-88423095D01*
X253329336Y-88423095D02*
X253297598Y-88454833D01*
X253297598Y-88454833D02*
X253234122Y-88486571D01*
X253234122Y-88486571D02*
X253107171Y-88486571D01*
X253107171Y-88486571D02*
X253043695Y-88518308D01*
X253043695Y-88518308D02*
X253011957Y-88550046D01*
X253011957Y-88550046D02*
X252980219Y-88613522D01*
X252980219Y-88613522D02*
X252980219Y-88740474D01*
X252980219Y-88740474D02*
X253011957Y-88803950D01*
X253011957Y-88803950D02*
X253043695Y-88835688D01*
X253043695Y-88835688D02*
X253107171Y-88867425D01*
X253107171Y-88867425D02*
X253234122Y-88867425D01*
X253234122Y-88867425D02*
X253297598Y-88835688D01*
X253297598Y-88835688D02*
X253329336Y-88803950D01*
X253329336Y-88803950D02*
X253361074Y-88740474D01*
X253361074Y-88740474D02*
X253361074Y-88613522D01*
X253361074Y-88613522D02*
X253329336Y-88550046D01*
X253329336Y-88550046D02*
X253297598Y-88518308D01*
X253297598Y-88518308D02*
X253234122Y-88486571D01*
X241931558Y-88867425D02*
X241550703Y-88867425D01*
X241741131Y-88867425D02*
X241741131Y-88200929D01*
X241741131Y-88200929D02*
X241677655Y-88296143D01*
X241677655Y-88296143D02*
X241614179Y-88359619D01*
X241614179Y-88359619D02*
X241550703Y-88391357D01*
X242344151Y-88200929D02*
X242407626Y-88200929D01*
X242407626Y-88200929D02*
X242471102Y-88232667D01*
X242471102Y-88232667D02*
X242502840Y-88264405D01*
X242502840Y-88264405D02*
X242534578Y-88327881D01*
X242534578Y-88327881D02*
X242566316Y-88454833D01*
X242566316Y-88454833D02*
X242566316Y-88613522D01*
X242566316Y-88613522D02*
X242534578Y-88740474D01*
X242534578Y-88740474D02*
X242502840Y-88803950D01*
X242502840Y-88803950D02*
X242471102Y-88835688D01*
X242471102Y-88835688D02*
X242407626Y-88867425D01*
X242407626Y-88867425D02*
X242344151Y-88867425D01*
X242344151Y-88867425D02*
X242280675Y-88835688D01*
X242280675Y-88835688D02*
X242248937Y-88803950D01*
X242248937Y-88803950D02*
X242217199Y-88740474D01*
X242217199Y-88740474D02*
X242185461Y-88613522D01*
X242185461Y-88613522D02*
X242185461Y-88454833D01*
X242185461Y-88454833D02*
X242217199Y-88327881D01*
X242217199Y-88327881D02*
X242248937Y-88264405D01*
X242248937Y-88264405D02*
X242280675Y-88232667D01*
X242280675Y-88232667D02*
X242344151Y-88200929D01*
X243137598Y-88423095D02*
X243137598Y-88867425D01*
X242978909Y-88169192D02*
X242820219Y-88645260D01*
X242820219Y-88645260D02*
X243232812Y-88645260D01*
X209259820Y-81408429D02*
X208942441Y-81408429D01*
X208942441Y-81408429D02*
X208910703Y-81725808D01*
X208910703Y-81725808D02*
X208942441Y-81694071D01*
X208942441Y-81694071D02*
X209005917Y-81662333D01*
X209005917Y-81662333D02*
X209164606Y-81662333D01*
X209164606Y-81662333D02*
X209228082Y-81694071D01*
X209228082Y-81694071D02*
X209259820Y-81725808D01*
X209259820Y-81725808D02*
X209291558Y-81789284D01*
X209291558Y-81789284D02*
X209291558Y-81947974D01*
X209291558Y-81947974D02*
X209259820Y-82011450D01*
X209259820Y-82011450D02*
X209228082Y-82043188D01*
X209228082Y-82043188D02*
X209164606Y-82074925D01*
X209164606Y-82074925D02*
X209005917Y-82074925D01*
X209005917Y-82074925D02*
X208942441Y-82043188D01*
X208942441Y-82043188D02*
X208910703Y-82011450D01*
X209672413Y-81694071D02*
X209608937Y-81662333D01*
X209608937Y-81662333D02*
X209577199Y-81630595D01*
X209577199Y-81630595D02*
X209545461Y-81567119D01*
X209545461Y-81567119D02*
X209545461Y-81535381D01*
X209545461Y-81535381D02*
X209577199Y-81471905D01*
X209577199Y-81471905D02*
X209608937Y-81440167D01*
X209608937Y-81440167D02*
X209672413Y-81408429D01*
X209672413Y-81408429D02*
X209799364Y-81408429D01*
X209799364Y-81408429D02*
X209862840Y-81440167D01*
X209862840Y-81440167D02*
X209894578Y-81471905D01*
X209894578Y-81471905D02*
X209926316Y-81535381D01*
X209926316Y-81535381D02*
X209926316Y-81567119D01*
X209926316Y-81567119D02*
X209894578Y-81630595D01*
X209894578Y-81630595D02*
X209862840Y-81662333D01*
X209862840Y-81662333D02*
X209799364Y-81694071D01*
X209799364Y-81694071D02*
X209672413Y-81694071D01*
X209672413Y-81694071D02*
X209608937Y-81725808D01*
X209608937Y-81725808D02*
X209577199Y-81757546D01*
X209577199Y-81757546D02*
X209545461Y-81821022D01*
X209545461Y-81821022D02*
X209545461Y-81947974D01*
X209545461Y-81947974D02*
X209577199Y-82011450D01*
X209577199Y-82011450D02*
X209608937Y-82043188D01*
X209608937Y-82043188D02*
X209672413Y-82074925D01*
X209672413Y-82074925D02*
X209799364Y-82074925D01*
X209799364Y-82074925D02*
X209862840Y-82043188D01*
X209862840Y-82043188D02*
X209894578Y-82011450D01*
X209894578Y-82011450D02*
X209926316Y-81947974D01*
X209926316Y-81947974D02*
X209926316Y-81821022D01*
X209926316Y-81821022D02*
X209894578Y-81757546D01*
X209894578Y-81757546D02*
X209862840Y-81725808D01*
X209862840Y-81725808D02*
X209799364Y-81694071D01*
X234374179Y-88867425D02*
X234501131Y-88867425D01*
X234501131Y-88867425D02*
X234564606Y-88835688D01*
X234564606Y-88835688D02*
X234596344Y-88803950D01*
X234596344Y-88803950D02*
X234659820Y-88708736D01*
X234659820Y-88708736D02*
X234691558Y-88581784D01*
X234691558Y-88581784D02*
X234691558Y-88327881D01*
X234691558Y-88327881D02*
X234659820Y-88264405D01*
X234659820Y-88264405D02*
X234628082Y-88232667D01*
X234628082Y-88232667D02*
X234564606Y-88200929D01*
X234564606Y-88200929D02*
X234437655Y-88200929D01*
X234437655Y-88200929D02*
X234374179Y-88232667D01*
X234374179Y-88232667D02*
X234342441Y-88264405D01*
X234342441Y-88264405D02*
X234310703Y-88327881D01*
X234310703Y-88327881D02*
X234310703Y-88486571D01*
X234310703Y-88486571D02*
X234342441Y-88550046D01*
X234342441Y-88550046D02*
X234374179Y-88581784D01*
X234374179Y-88581784D02*
X234437655Y-88613522D01*
X234437655Y-88613522D02*
X234564606Y-88613522D01*
X234564606Y-88613522D02*
X234628082Y-88581784D01*
X234628082Y-88581784D02*
X234659820Y-88550046D01*
X234659820Y-88550046D02*
X234691558Y-88486571D01*
X234913723Y-88200929D02*
X235358054Y-88200929D01*
X235358054Y-88200929D02*
X235072413Y-88867425D01*
X262350796Y-82074925D02*
X262128631Y-81757546D01*
X261969941Y-82074925D02*
X261969941Y-81408429D01*
X261969941Y-81408429D02*
X262223844Y-81408429D01*
X262223844Y-81408429D02*
X262287320Y-81440167D01*
X262287320Y-81440167D02*
X262319058Y-81471905D01*
X262319058Y-81471905D02*
X262350796Y-81535381D01*
X262350796Y-81535381D02*
X262350796Y-81630595D01*
X262350796Y-81630595D02*
X262319058Y-81694071D01*
X262319058Y-81694071D02*
X262287320Y-81725808D01*
X262287320Y-81725808D02*
X262223844Y-81757546D01*
X262223844Y-81757546D02*
X261969941Y-81757546D01*
X262604699Y-82043188D02*
X262699913Y-82074925D01*
X262699913Y-82074925D02*
X262858602Y-82074925D01*
X262858602Y-82074925D02*
X262922078Y-82043188D01*
X262922078Y-82043188D02*
X262953816Y-82011450D01*
X262953816Y-82011450D02*
X262985554Y-81947974D01*
X262985554Y-81947974D02*
X262985554Y-81884498D01*
X262985554Y-81884498D02*
X262953816Y-81821022D01*
X262953816Y-81821022D02*
X262922078Y-81789284D01*
X262922078Y-81789284D02*
X262858602Y-81757546D01*
X262858602Y-81757546D02*
X262731651Y-81725808D01*
X262731651Y-81725808D02*
X262668175Y-81694071D01*
X262668175Y-81694071D02*
X262636437Y-81662333D01*
X262636437Y-81662333D02*
X262604699Y-81598857D01*
X262604699Y-81598857D02*
X262604699Y-81535381D01*
X262604699Y-81535381D02*
X262636437Y-81471905D01*
X262636437Y-81471905D02*
X262668175Y-81440167D01*
X262668175Y-81440167D02*
X262731651Y-81408429D01*
X262731651Y-81408429D02*
X262890340Y-81408429D01*
X262890340Y-81408429D02*
X262985554Y-81440167D01*
X263175981Y-81408429D02*
X263556836Y-81408429D01*
X263366409Y-82074925D02*
X263366409Y-81408429D01*
X205692441Y-88867425D02*
X205692441Y-88200929D01*
X205692441Y-88200929D02*
X205851131Y-88200929D01*
X205851131Y-88200929D02*
X205946344Y-88232667D01*
X205946344Y-88232667D02*
X206009820Y-88296143D01*
X206009820Y-88296143D02*
X206041558Y-88359619D01*
X206041558Y-88359619D02*
X206073296Y-88486571D01*
X206073296Y-88486571D02*
X206073296Y-88581784D01*
X206073296Y-88581784D02*
X206041558Y-88708736D01*
X206041558Y-88708736D02*
X206009820Y-88772212D01*
X206009820Y-88772212D02*
X205946344Y-88835688D01*
X205946344Y-88835688D02*
X205851131Y-88867425D01*
X205851131Y-88867425D02*
X205692441Y-88867425D01*
X206485889Y-88200929D02*
X206612840Y-88200929D01*
X206612840Y-88200929D02*
X206676316Y-88232667D01*
X206676316Y-88232667D02*
X206739792Y-88296143D01*
X206739792Y-88296143D02*
X206771530Y-88423095D01*
X206771530Y-88423095D02*
X206771530Y-88645260D01*
X206771530Y-88645260D02*
X206739792Y-88772212D01*
X206739792Y-88772212D02*
X206676316Y-88835688D01*
X206676316Y-88835688D02*
X206612840Y-88867425D01*
X206612840Y-88867425D02*
X206485889Y-88867425D01*
X206485889Y-88867425D02*
X206422413Y-88835688D01*
X206422413Y-88835688D02*
X206358937Y-88772212D01*
X206358937Y-88772212D02*
X206327199Y-88645260D01*
X206327199Y-88645260D02*
X206327199Y-88423095D01*
X206327199Y-88423095D02*
X206358937Y-88296143D01*
X206358937Y-88296143D02*
X206422413Y-88232667D01*
X206422413Y-88232667D02*
X206485889Y-88200929D01*
X207057171Y-88867425D02*
X207057171Y-88200929D01*
X207057171Y-88200929D02*
X207438026Y-88867425D01*
X207438026Y-88867425D02*
X207438026Y-88200929D01*
X207755405Y-88518308D02*
X207977570Y-88518308D01*
X208072784Y-88867425D02*
X207755405Y-88867425D01*
X207755405Y-88867425D02*
X207755405Y-88200929D01*
X207755405Y-88200929D02*
X208072784Y-88200929D01*
X206759820Y-34860929D02*
X206442441Y-34860929D01*
X206442441Y-34860929D02*
X206410703Y-35178308D01*
X206410703Y-35178308D02*
X206442441Y-35146571D01*
X206442441Y-35146571D02*
X206505917Y-35114833D01*
X206505917Y-35114833D02*
X206664606Y-35114833D01*
X206664606Y-35114833D02*
X206728082Y-35146571D01*
X206728082Y-35146571D02*
X206759820Y-35178308D01*
X206759820Y-35178308D02*
X206791558Y-35241784D01*
X206791558Y-35241784D02*
X206791558Y-35400474D01*
X206791558Y-35400474D02*
X206759820Y-35463950D01*
X206759820Y-35463950D02*
X206728082Y-35495688D01*
X206728082Y-35495688D02*
X206664606Y-35527425D01*
X206664606Y-35527425D02*
X206505917Y-35527425D01*
X206505917Y-35527425D02*
X206442441Y-35495688D01*
X206442441Y-35495688D02*
X206410703Y-35463950D01*
X207204151Y-34860929D02*
X207267626Y-34860929D01*
X207267626Y-34860929D02*
X207331102Y-34892667D01*
X207331102Y-34892667D02*
X207362840Y-34924405D01*
X207362840Y-34924405D02*
X207394578Y-34987881D01*
X207394578Y-34987881D02*
X207426316Y-35114833D01*
X207426316Y-35114833D02*
X207426316Y-35273522D01*
X207426316Y-35273522D02*
X207394578Y-35400474D01*
X207394578Y-35400474D02*
X207362840Y-35463950D01*
X207362840Y-35463950D02*
X207331102Y-35495688D01*
X207331102Y-35495688D02*
X207267626Y-35527425D01*
X207267626Y-35527425D02*
X207204151Y-35527425D01*
X207204151Y-35527425D02*
X207140675Y-35495688D01*
X207140675Y-35495688D02*
X207108937Y-35463950D01*
X207108937Y-35463950D02*
X207077199Y-35400474D01*
X207077199Y-35400474D02*
X207045461Y-35273522D01*
X207045461Y-35273522D02*
X207045461Y-35114833D01*
X207045461Y-35114833D02*
X207077199Y-34987881D01*
X207077199Y-34987881D02*
X207108937Y-34924405D01*
X207108937Y-34924405D02*
X207140675Y-34892667D01*
X207140675Y-34892667D02*
X207204151Y-34860929D01*
X229651558Y-35527425D02*
X229270703Y-35527425D01*
X229461131Y-35527425D02*
X229461131Y-34860929D01*
X229461131Y-34860929D02*
X229397655Y-34956143D01*
X229397655Y-34956143D02*
X229334179Y-35019619D01*
X229334179Y-35019619D02*
X229270703Y-35051357D01*
X230222840Y-35083095D02*
X230222840Y-35527425D01*
X230064151Y-34829192D02*
X229905461Y-35305260D01*
X229905461Y-35305260D02*
X230318054Y-35305260D01*
X237335155Y-28354071D02*
X237271679Y-28322333D01*
X237271679Y-28322333D02*
X237239941Y-28290595D01*
X237239941Y-28290595D02*
X237208203Y-28227119D01*
X237208203Y-28227119D02*
X237208203Y-28195381D01*
X237208203Y-28195381D02*
X237239941Y-28131905D01*
X237239941Y-28131905D02*
X237271679Y-28100167D01*
X237271679Y-28100167D02*
X237335155Y-28068429D01*
X237335155Y-28068429D02*
X237462106Y-28068429D01*
X237462106Y-28068429D02*
X237525582Y-28100167D01*
X237525582Y-28100167D02*
X237557320Y-28131905D01*
X237557320Y-28131905D02*
X237589058Y-28195381D01*
X237589058Y-28195381D02*
X237589058Y-28227119D01*
X237589058Y-28227119D02*
X237557320Y-28290595D01*
X237557320Y-28290595D02*
X237525582Y-28322333D01*
X237525582Y-28322333D02*
X237462106Y-28354071D01*
X237462106Y-28354071D02*
X237335155Y-28354071D01*
X237335155Y-28354071D02*
X237271679Y-28385808D01*
X237271679Y-28385808D02*
X237239941Y-28417546D01*
X237239941Y-28417546D02*
X237208203Y-28481022D01*
X237208203Y-28481022D02*
X237208203Y-28607974D01*
X237208203Y-28607974D02*
X237239941Y-28671450D01*
X237239941Y-28671450D02*
X237271679Y-28703188D01*
X237271679Y-28703188D02*
X237335155Y-28734925D01*
X237335155Y-28734925D02*
X237462106Y-28734925D01*
X237462106Y-28734925D02*
X237525582Y-28703188D01*
X237525582Y-28703188D02*
X237557320Y-28671450D01*
X237557320Y-28671450D02*
X237589058Y-28607974D01*
X237589058Y-28607974D02*
X237589058Y-28481022D01*
X237589058Y-28481022D02*
X237557320Y-28417546D01*
X237557320Y-28417546D02*
X237525582Y-28385808D01*
X237525582Y-28385808D02*
X237462106Y-28354071D01*
X216570703Y-34924405D02*
X216602441Y-34892667D01*
X216602441Y-34892667D02*
X216665917Y-34860929D01*
X216665917Y-34860929D02*
X216824606Y-34860929D01*
X216824606Y-34860929D02*
X216888082Y-34892667D01*
X216888082Y-34892667D02*
X216919820Y-34924405D01*
X216919820Y-34924405D02*
X216951558Y-34987881D01*
X216951558Y-34987881D02*
X216951558Y-35051357D01*
X216951558Y-35051357D02*
X216919820Y-35146571D01*
X216919820Y-35146571D02*
X216538965Y-35527425D01*
X216538965Y-35527425D02*
X216951558Y-35527425D01*
X217268937Y-35527425D02*
X217395889Y-35527425D01*
X217395889Y-35527425D02*
X217459364Y-35495688D01*
X217459364Y-35495688D02*
X217491102Y-35463950D01*
X217491102Y-35463950D02*
X217554578Y-35368736D01*
X217554578Y-35368736D02*
X217586316Y-35241784D01*
X217586316Y-35241784D02*
X217586316Y-34987881D01*
X217586316Y-34987881D02*
X217554578Y-34924405D01*
X217554578Y-34924405D02*
X217522840Y-34892667D01*
X217522840Y-34892667D02*
X217459364Y-34860929D01*
X217459364Y-34860929D02*
X217332413Y-34860929D01*
X217332413Y-34860929D02*
X217268937Y-34892667D01*
X217268937Y-34892667D02*
X217237199Y-34924405D01*
X217237199Y-34924405D02*
X217205461Y-34987881D01*
X217205461Y-34987881D02*
X217205461Y-35146571D01*
X217205461Y-35146571D02*
X217237199Y-35210046D01*
X217237199Y-35210046D02*
X217268937Y-35241784D01*
X217268937Y-35241784D02*
X217332413Y-35273522D01*
X217332413Y-35273522D02*
X217459364Y-35273522D01*
X217459364Y-35273522D02*
X217522840Y-35241784D01*
X217522840Y-35241784D02*
X217554578Y-35210046D01*
X217554578Y-35210046D02*
X217586316Y-35146571D01*
X206035703Y-82043188D02*
X206130917Y-82074925D01*
X206130917Y-82074925D02*
X206289606Y-82074925D01*
X206289606Y-82074925D02*
X206353082Y-82043188D01*
X206353082Y-82043188D02*
X206384820Y-82011450D01*
X206384820Y-82011450D02*
X206416558Y-81947974D01*
X206416558Y-81947974D02*
X206416558Y-81884498D01*
X206416558Y-81884498D02*
X206384820Y-81821022D01*
X206384820Y-81821022D02*
X206353082Y-81789284D01*
X206353082Y-81789284D02*
X206289606Y-81757546D01*
X206289606Y-81757546D02*
X206162655Y-81725808D01*
X206162655Y-81725808D02*
X206099179Y-81694071D01*
X206099179Y-81694071D02*
X206067441Y-81662333D01*
X206067441Y-81662333D02*
X206035703Y-81598857D01*
X206035703Y-81598857D02*
X206035703Y-81535381D01*
X206035703Y-81535381D02*
X206067441Y-81471905D01*
X206067441Y-81471905D02*
X206099179Y-81440167D01*
X206099179Y-81440167D02*
X206162655Y-81408429D01*
X206162655Y-81408429D02*
X206321344Y-81408429D01*
X206321344Y-81408429D02*
X206416558Y-81440167D01*
X206702199Y-81408429D02*
X206702199Y-81947974D01*
X206702199Y-81947974D02*
X206733937Y-82011450D01*
X206733937Y-82011450D02*
X206765675Y-82043188D01*
X206765675Y-82043188D02*
X206829151Y-82074925D01*
X206829151Y-82074925D02*
X206956102Y-82074925D01*
X206956102Y-82074925D02*
X207019578Y-82043188D01*
X207019578Y-82043188D02*
X207051316Y-82011450D01*
X207051316Y-82011450D02*
X207083054Y-81947974D01*
X207083054Y-81947974D02*
X207083054Y-81408429D01*
X207368695Y-82043188D02*
X207463909Y-82074925D01*
X207463909Y-82074925D02*
X207622598Y-82074925D01*
X207622598Y-82074925D02*
X207686074Y-82043188D01*
X207686074Y-82043188D02*
X207717812Y-82011450D01*
X207717812Y-82011450D02*
X207749550Y-81947974D01*
X207749550Y-81947974D02*
X207749550Y-81884498D01*
X207749550Y-81884498D02*
X207717812Y-81821022D01*
X207717812Y-81821022D02*
X207686074Y-81789284D01*
X207686074Y-81789284D02*
X207622598Y-81757546D01*
X207622598Y-81757546D02*
X207495647Y-81725808D01*
X207495647Y-81725808D02*
X207432171Y-81694071D01*
X207432171Y-81694071D02*
X207400433Y-81662333D01*
X207400433Y-81662333D02*
X207368695Y-81598857D01*
X207368695Y-81598857D02*
X207368695Y-81535381D01*
X207368695Y-81535381D02*
X207400433Y-81471905D01*
X207400433Y-81471905D02*
X207432171Y-81440167D01*
X207432171Y-81440167D02*
X207495647Y-81408429D01*
X207495647Y-81408429D02*
X207654336Y-81408429D01*
X207654336Y-81408429D02*
X207749550Y-81440167D01*
X226817655Y-88486571D02*
X226754179Y-88454833D01*
X226754179Y-88454833D02*
X226722441Y-88423095D01*
X226722441Y-88423095D02*
X226690703Y-88359619D01*
X226690703Y-88359619D02*
X226690703Y-88327881D01*
X226690703Y-88327881D02*
X226722441Y-88264405D01*
X226722441Y-88264405D02*
X226754179Y-88232667D01*
X226754179Y-88232667D02*
X226817655Y-88200929D01*
X226817655Y-88200929D02*
X226944606Y-88200929D01*
X226944606Y-88200929D02*
X227008082Y-88232667D01*
X227008082Y-88232667D02*
X227039820Y-88264405D01*
X227039820Y-88264405D02*
X227071558Y-88327881D01*
X227071558Y-88327881D02*
X227071558Y-88359619D01*
X227071558Y-88359619D02*
X227039820Y-88423095D01*
X227039820Y-88423095D02*
X227008082Y-88454833D01*
X227008082Y-88454833D02*
X226944606Y-88486571D01*
X226944606Y-88486571D02*
X226817655Y-88486571D01*
X226817655Y-88486571D02*
X226754179Y-88518308D01*
X226754179Y-88518308D02*
X226722441Y-88550046D01*
X226722441Y-88550046D02*
X226690703Y-88613522D01*
X226690703Y-88613522D02*
X226690703Y-88740474D01*
X226690703Y-88740474D02*
X226722441Y-88803950D01*
X226722441Y-88803950D02*
X226754179Y-88835688D01*
X226754179Y-88835688D02*
X226817655Y-88867425D01*
X226817655Y-88867425D02*
X226944606Y-88867425D01*
X226944606Y-88867425D02*
X227008082Y-88835688D01*
X227008082Y-88835688D02*
X227039820Y-88803950D01*
X227039820Y-88803950D02*
X227071558Y-88740474D01*
X227071558Y-88740474D02*
X227071558Y-88613522D01*
X227071558Y-88613522D02*
X227039820Y-88550046D01*
X227039820Y-88550046D02*
X227008082Y-88518308D01*
X227008082Y-88518308D02*
X226944606Y-88486571D01*
X227293723Y-88200929D02*
X227738054Y-88200929D01*
X227738054Y-88200929D02*
X227452413Y-88867425D01*
X224190703Y-28131905D02*
X224222441Y-28100167D01*
X224222441Y-28100167D02*
X224285917Y-28068429D01*
X224285917Y-28068429D02*
X224444606Y-28068429D01*
X224444606Y-28068429D02*
X224508082Y-28100167D01*
X224508082Y-28100167D02*
X224539820Y-28131905D01*
X224539820Y-28131905D02*
X224571558Y-28195381D01*
X224571558Y-28195381D02*
X224571558Y-28258857D01*
X224571558Y-28258857D02*
X224539820Y-28354071D01*
X224539820Y-28354071D02*
X224158965Y-28734925D01*
X224158965Y-28734925D02*
X224571558Y-28734925D01*
X224825461Y-28131905D02*
X224857199Y-28100167D01*
X224857199Y-28100167D02*
X224920675Y-28068429D01*
X224920675Y-28068429D02*
X225079364Y-28068429D01*
X225079364Y-28068429D02*
X225142840Y-28100167D01*
X225142840Y-28100167D02*
X225174578Y-28131905D01*
X225174578Y-28131905D02*
X225206316Y-28195381D01*
X225206316Y-28195381D02*
X225206316Y-28258857D01*
X225206316Y-28258857D02*
X225174578Y-28354071D01*
X225174578Y-28354071D02*
X224793723Y-28734925D01*
X224793723Y-28734925D02*
X225206316Y-28734925D01*
X257239058Y-28734925D02*
X256858203Y-28734925D01*
X257048631Y-28734925D02*
X257048631Y-28068429D01*
X257048631Y-28068429D02*
X256985155Y-28163643D01*
X256985155Y-28163643D02*
X256921679Y-28227119D01*
X256921679Y-28227119D02*
X256858203Y-28258857D01*
X257461223Y-28068429D02*
X257873816Y-28068429D01*
X257873816Y-28068429D02*
X257651651Y-28322333D01*
X257651651Y-28322333D02*
X257746864Y-28322333D01*
X257746864Y-28322333D02*
X257810340Y-28354071D01*
X257810340Y-28354071D02*
X257842078Y-28385808D01*
X257842078Y-28385808D02*
X257873816Y-28449284D01*
X257873816Y-28449284D02*
X257873816Y-28607974D01*
X257873816Y-28607974D02*
X257842078Y-28671450D01*
X257842078Y-28671450D02*
X257810340Y-28703188D01*
X257810340Y-28703188D02*
X257746864Y-28734925D01*
X257746864Y-28734925D02*
X257556437Y-28734925D01*
X257556437Y-28734925D02*
X257492961Y-28703188D01*
X257492961Y-28703188D02*
X257461223Y-28671450D01*
X258127719Y-28131905D02*
X258159457Y-28100167D01*
X258159457Y-28100167D02*
X258222933Y-28068429D01*
X258222933Y-28068429D02*
X258381622Y-28068429D01*
X258381622Y-28068429D02*
X258445098Y-28100167D01*
X258445098Y-28100167D02*
X258476836Y-28131905D01*
X258476836Y-28131905D02*
X258508574Y-28195381D01*
X258508574Y-28195381D02*
X258508574Y-28258857D01*
X258508574Y-28258857D02*
X258476836Y-28354071D01*
X258476836Y-28354071D02*
X258095981Y-28734925D01*
X258095981Y-28734925D02*
X258508574Y-28734925D01*
X213998965Y-28068429D02*
X214411558Y-28068429D01*
X214411558Y-28068429D02*
X214189393Y-28322333D01*
X214189393Y-28322333D02*
X214284606Y-28322333D01*
X214284606Y-28322333D02*
X214348082Y-28354071D01*
X214348082Y-28354071D02*
X214379820Y-28385808D01*
X214379820Y-28385808D02*
X214411558Y-28449284D01*
X214411558Y-28449284D02*
X214411558Y-28607974D01*
X214411558Y-28607974D02*
X214379820Y-28671450D01*
X214379820Y-28671450D02*
X214348082Y-28703188D01*
X214348082Y-28703188D02*
X214284606Y-28734925D01*
X214284606Y-28734925D02*
X214094179Y-28734925D01*
X214094179Y-28734925D02*
X214030703Y-28703188D01*
X214030703Y-28703188D02*
X213998965Y-28671450D01*
X214633723Y-28068429D02*
X215046316Y-28068429D01*
X215046316Y-28068429D02*
X214824151Y-28322333D01*
X214824151Y-28322333D02*
X214919364Y-28322333D01*
X214919364Y-28322333D02*
X214982840Y-28354071D01*
X214982840Y-28354071D02*
X215014578Y-28385808D01*
X215014578Y-28385808D02*
X215046316Y-28449284D01*
X215046316Y-28449284D02*
X215046316Y-28607974D01*
X215046316Y-28607974D02*
X215014578Y-28671450D01*
X215014578Y-28671450D02*
X214982840Y-28703188D01*
X214982840Y-28703188D02*
X214919364Y-28734925D01*
X214919364Y-28734925D02*
X214728937Y-28734925D01*
X214728937Y-28734925D02*
X214665461Y-28703188D01*
X214665461Y-28703188D02*
X214633723Y-28671450D01*
X227111558Y-28734925D02*
X226730703Y-28734925D01*
X226921131Y-28734925D02*
X226921131Y-28068429D01*
X226921131Y-28068429D02*
X226857655Y-28163643D01*
X226857655Y-28163643D02*
X226794179Y-28227119D01*
X226794179Y-28227119D02*
X226730703Y-28258857D01*
X227333723Y-28068429D02*
X227778054Y-28068429D01*
X227778054Y-28068429D02*
X227492413Y-28734925D01*
X249551558Y-88867425D02*
X249170703Y-88867425D01*
X249361131Y-88867425D02*
X249361131Y-88200929D01*
X249361131Y-88200929D02*
X249297655Y-88296143D01*
X249297655Y-88296143D02*
X249234179Y-88359619D01*
X249234179Y-88359619D02*
X249170703Y-88391357D01*
X250186316Y-88867425D02*
X249805461Y-88867425D01*
X249995889Y-88867425D02*
X249995889Y-88200929D01*
X249995889Y-88200929D02*
X249932413Y-88296143D01*
X249932413Y-88296143D02*
X249868937Y-88359619D01*
X249868937Y-88359619D02*
X249805461Y-88391357D01*
X250757598Y-88200929D02*
X250630647Y-88200929D01*
X250630647Y-88200929D02*
X250567171Y-88232667D01*
X250567171Y-88232667D02*
X250535433Y-88264405D01*
X250535433Y-88264405D02*
X250471957Y-88359619D01*
X250471957Y-88359619D02*
X250440219Y-88486571D01*
X250440219Y-88486571D02*
X250440219Y-88740474D01*
X250440219Y-88740474D02*
X250471957Y-88803950D01*
X250471957Y-88803950D02*
X250503695Y-88835688D01*
X250503695Y-88835688D02*
X250567171Y-88867425D01*
X250567171Y-88867425D02*
X250694122Y-88867425D01*
X250694122Y-88867425D02*
X250757598Y-88835688D01*
X250757598Y-88835688D02*
X250789336Y-88803950D01*
X250789336Y-88803950D02*
X250821074Y-88740474D01*
X250821074Y-88740474D02*
X250821074Y-88581784D01*
X250821074Y-88581784D02*
X250789336Y-88518308D01*
X250789336Y-88518308D02*
X250757598Y-88486571D01*
X250757598Y-88486571D02*
X250694122Y-88454833D01*
X250694122Y-88454833D02*
X250567171Y-88454833D01*
X250567171Y-88454833D02*
X250503695Y-88486571D01*
X250503695Y-88486571D02*
X250471957Y-88518308D01*
X250471957Y-88518308D02*
X250440219Y-88581784D01*
X229294179Y-82074925D02*
X229421131Y-82074925D01*
X229421131Y-82074925D02*
X229484606Y-82043188D01*
X229484606Y-82043188D02*
X229516344Y-82011450D01*
X229516344Y-82011450D02*
X229579820Y-81916236D01*
X229579820Y-81916236D02*
X229611558Y-81789284D01*
X229611558Y-81789284D02*
X229611558Y-81535381D01*
X229611558Y-81535381D02*
X229579820Y-81471905D01*
X229579820Y-81471905D02*
X229548082Y-81440167D01*
X229548082Y-81440167D02*
X229484606Y-81408429D01*
X229484606Y-81408429D02*
X229357655Y-81408429D01*
X229357655Y-81408429D02*
X229294179Y-81440167D01*
X229294179Y-81440167D02*
X229262441Y-81471905D01*
X229262441Y-81471905D02*
X229230703Y-81535381D01*
X229230703Y-81535381D02*
X229230703Y-81694071D01*
X229230703Y-81694071D02*
X229262441Y-81757546D01*
X229262441Y-81757546D02*
X229294179Y-81789284D01*
X229294179Y-81789284D02*
X229357655Y-81821022D01*
X229357655Y-81821022D02*
X229484606Y-81821022D01*
X229484606Y-81821022D02*
X229548082Y-81789284D01*
X229548082Y-81789284D02*
X229579820Y-81757546D01*
X229579820Y-81757546D02*
X229611558Y-81694071D01*
X229833723Y-81408429D02*
X230246316Y-81408429D01*
X230246316Y-81408429D02*
X230024151Y-81662333D01*
X230024151Y-81662333D02*
X230119364Y-81662333D01*
X230119364Y-81662333D02*
X230182840Y-81694071D01*
X230182840Y-81694071D02*
X230214578Y-81725808D01*
X230214578Y-81725808D02*
X230246316Y-81789284D01*
X230246316Y-81789284D02*
X230246316Y-81947974D01*
X230246316Y-81947974D02*
X230214578Y-82011450D01*
X230214578Y-82011450D02*
X230182840Y-82043188D01*
X230182840Y-82043188D02*
X230119364Y-82074925D01*
X230119364Y-82074925D02*
X229928937Y-82074925D01*
X229928937Y-82074925D02*
X229865461Y-82043188D01*
X229865461Y-82043188D02*
X229833723Y-82011450D01*
X209268082Y-28290595D02*
X209268082Y-28734925D01*
X209109393Y-28036692D02*
X208950703Y-28512760D01*
X208950703Y-28512760D02*
X209363296Y-28512760D01*
X209966316Y-28734925D02*
X209585461Y-28734925D01*
X209775889Y-28734925D02*
X209775889Y-28068429D01*
X209775889Y-28068429D02*
X209712413Y-28163643D01*
X209712413Y-28163643D02*
X209648937Y-28227119D01*
X209648937Y-28227119D02*
X209585461Y-28258857D01*
X256794727Y-88200929D02*
X257175582Y-88200929D01*
X256985155Y-88867425D02*
X256985155Y-88200929D01*
X257397747Y-88867425D02*
X257397747Y-88200929D01*
X257397747Y-88200929D02*
X257556437Y-88200929D01*
X257556437Y-88200929D02*
X257651650Y-88232667D01*
X257651650Y-88232667D02*
X257715126Y-88296143D01*
X257715126Y-88296143D02*
X257746864Y-88359619D01*
X257746864Y-88359619D02*
X257778602Y-88486571D01*
X257778602Y-88486571D02*
X257778602Y-88581784D01*
X257778602Y-88581784D02*
X257746864Y-88708736D01*
X257746864Y-88708736D02*
X257715126Y-88772212D01*
X257715126Y-88772212D02*
X257651650Y-88835688D01*
X257651650Y-88835688D02*
X257556437Y-88867425D01*
X257556437Y-88867425D02*
X257397747Y-88867425D01*
X258191195Y-88200929D02*
X258318146Y-88200929D01*
X258318146Y-88200929D02*
X258381622Y-88232667D01*
X258381622Y-88232667D02*
X258445098Y-88296143D01*
X258445098Y-88296143D02*
X258476836Y-88423095D01*
X258476836Y-88423095D02*
X258476836Y-88645260D01*
X258476836Y-88645260D02*
X258445098Y-88772212D01*
X258445098Y-88772212D02*
X258381622Y-88835688D01*
X258381622Y-88835688D02*
X258318146Y-88867425D01*
X258318146Y-88867425D02*
X258191195Y-88867425D01*
X258191195Y-88867425D02*
X258127719Y-88835688D01*
X258127719Y-88835688D02*
X258064243Y-88772212D01*
X258064243Y-88772212D02*
X258032505Y-88645260D01*
X258032505Y-88645260D02*
X258032505Y-88423095D01*
X258032505Y-88423095D02*
X258064243Y-88296143D01*
X258064243Y-88296143D02*
X258127719Y-88232667D01*
X258127719Y-88232667D02*
X258191195Y-88200929D01*
X216498965Y-88200929D02*
X216943296Y-88200929D01*
X216943296Y-88200929D02*
X216657655Y-88867425D01*
X217292413Y-88486571D02*
X217228937Y-88454833D01*
X217228937Y-88454833D02*
X217197199Y-88423095D01*
X217197199Y-88423095D02*
X217165461Y-88359619D01*
X217165461Y-88359619D02*
X217165461Y-88327881D01*
X217165461Y-88327881D02*
X217197199Y-88264405D01*
X217197199Y-88264405D02*
X217228937Y-88232667D01*
X217228937Y-88232667D02*
X217292413Y-88200929D01*
X217292413Y-88200929D02*
X217419364Y-88200929D01*
X217419364Y-88200929D02*
X217482840Y-88232667D01*
X217482840Y-88232667D02*
X217514578Y-88264405D01*
X217514578Y-88264405D02*
X217546316Y-88327881D01*
X217546316Y-88327881D02*
X217546316Y-88359619D01*
X217546316Y-88359619D02*
X217514578Y-88423095D01*
X217514578Y-88423095D02*
X217482840Y-88454833D01*
X217482840Y-88454833D02*
X217419364Y-88486571D01*
X217419364Y-88486571D02*
X217292413Y-88486571D01*
X217292413Y-88486571D02*
X217228937Y-88518308D01*
X217228937Y-88518308D02*
X217197199Y-88550046D01*
X217197199Y-88550046D02*
X217165461Y-88613522D01*
X217165461Y-88613522D02*
X217165461Y-88740474D01*
X217165461Y-88740474D02*
X217197199Y-88803950D01*
X217197199Y-88803950D02*
X217228937Y-88835688D01*
X217228937Y-88835688D02*
X217292413Y-88867425D01*
X217292413Y-88867425D02*
X217419364Y-88867425D01*
X217419364Y-88867425D02*
X217482840Y-88835688D01*
X217482840Y-88835688D02*
X217514578Y-88803950D01*
X217514578Y-88803950D02*
X217546316Y-88740474D01*
X217546316Y-88740474D02*
X217546316Y-88613522D01*
X217546316Y-88613522D02*
X217514578Y-88550046D01*
X217514578Y-88550046D02*
X217482840Y-88518308D01*
X217482840Y-88518308D02*
X217419364Y-88486571D01*
X221737655Y-81694071D02*
X221674179Y-81662333D01*
X221674179Y-81662333D02*
X221642441Y-81630595D01*
X221642441Y-81630595D02*
X221610703Y-81567119D01*
X221610703Y-81567119D02*
X221610703Y-81535381D01*
X221610703Y-81535381D02*
X221642441Y-81471905D01*
X221642441Y-81471905D02*
X221674179Y-81440167D01*
X221674179Y-81440167D02*
X221737655Y-81408429D01*
X221737655Y-81408429D02*
X221864606Y-81408429D01*
X221864606Y-81408429D02*
X221928082Y-81440167D01*
X221928082Y-81440167D02*
X221959820Y-81471905D01*
X221959820Y-81471905D02*
X221991558Y-81535381D01*
X221991558Y-81535381D02*
X221991558Y-81567119D01*
X221991558Y-81567119D02*
X221959820Y-81630595D01*
X221959820Y-81630595D02*
X221928082Y-81662333D01*
X221928082Y-81662333D02*
X221864606Y-81694071D01*
X221864606Y-81694071D02*
X221737655Y-81694071D01*
X221737655Y-81694071D02*
X221674179Y-81725808D01*
X221674179Y-81725808D02*
X221642441Y-81757546D01*
X221642441Y-81757546D02*
X221610703Y-81821022D01*
X221610703Y-81821022D02*
X221610703Y-81947974D01*
X221610703Y-81947974D02*
X221642441Y-82011450D01*
X221642441Y-82011450D02*
X221674179Y-82043188D01*
X221674179Y-82043188D02*
X221737655Y-82074925D01*
X221737655Y-82074925D02*
X221864606Y-82074925D01*
X221864606Y-82074925D02*
X221928082Y-82043188D01*
X221928082Y-82043188D02*
X221959820Y-82011450D01*
X221959820Y-82011450D02*
X221991558Y-81947974D01*
X221991558Y-81947974D02*
X221991558Y-81821022D01*
X221991558Y-81821022D02*
X221959820Y-81757546D01*
X221959820Y-81757546D02*
X221928082Y-81725808D01*
X221928082Y-81725808D02*
X221864606Y-81694071D01*
X222213723Y-81408429D02*
X222626316Y-81408429D01*
X222626316Y-81408429D02*
X222404151Y-81662333D01*
X222404151Y-81662333D02*
X222499364Y-81662333D01*
X222499364Y-81662333D02*
X222562840Y-81694071D01*
X222562840Y-81694071D02*
X222594578Y-81725808D01*
X222594578Y-81725808D02*
X222626316Y-81789284D01*
X222626316Y-81789284D02*
X222626316Y-81947974D01*
X222626316Y-81947974D02*
X222594578Y-82011450D01*
X222594578Y-82011450D02*
X222562840Y-82043188D01*
X222562840Y-82043188D02*
X222499364Y-82074925D01*
X222499364Y-82074925D02*
X222308937Y-82074925D01*
X222308937Y-82074925D02*
X222245461Y-82043188D01*
X222245461Y-82043188D02*
X222213723Y-82011450D01*
X259334727Y-88200929D02*
X259715582Y-88200929D01*
X259525155Y-88867425D02*
X259525155Y-88200929D01*
X260318602Y-88803950D02*
X260286864Y-88835688D01*
X260286864Y-88835688D02*
X260191650Y-88867425D01*
X260191650Y-88867425D02*
X260128174Y-88867425D01*
X260128174Y-88867425D02*
X260032961Y-88835688D01*
X260032961Y-88835688D02*
X259969485Y-88772212D01*
X259969485Y-88772212D02*
X259937747Y-88708736D01*
X259937747Y-88708736D02*
X259906009Y-88581784D01*
X259906009Y-88581784D02*
X259906009Y-88486571D01*
X259906009Y-88486571D02*
X259937747Y-88359619D01*
X259937747Y-88359619D02*
X259969485Y-88296143D01*
X259969485Y-88296143D02*
X260032961Y-88232667D01*
X260032961Y-88232667D02*
X260128174Y-88200929D01*
X260128174Y-88200929D02*
X260191650Y-88200929D01*
X260191650Y-88200929D02*
X260286864Y-88232667D01*
X260286864Y-88232667D02*
X260318602Y-88264405D01*
X260604243Y-88867425D02*
X260604243Y-88200929D01*
X260985098Y-88867425D02*
X260699457Y-88486571D01*
X260985098Y-88200929D02*
X260604243Y-88581784D01*
X203584941Y-35273522D02*
X204092748Y-35273522D01*
X203838844Y-35527425D02*
X203838844Y-35019619D01*
X204314913Y-34860929D02*
X204537079Y-35527425D01*
X204537079Y-35527425D02*
X204759244Y-34860929D01*
X211458965Y-28068429D02*
X211871558Y-28068429D01*
X211871558Y-28068429D02*
X211649393Y-28322333D01*
X211649393Y-28322333D02*
X211744606Y-28322333D01*
X211744606Y-28322333D02*
X211808082Y-28354071D01*
X211808082Y-28354071D02*
X211839820Y-28385808D01*
X211839820Y-28385808D02*
X211871558Y-28449284D01*
X211871558Y-28449284D02*
X211871558Y-28607974D01*
X211871558Y-28607974D02*
X211839820Y-28671450D01*
X211839820Y-28671450D02*
X211808082Y-28703188D01*
X211808082Y-28703188D02*
X211744606Y-28734925D01*
X211744606Y-28734925D02*
X211554179Y-28734925D01*
X211554179Y-28734925D02*
X211490703Y-28703188D01*
X211490703Y-28703188D02*
X211458965Y-28671450D01*
X212474578Y-28068429D02*
X212157199Y-28068429D01*
X212157199Y-28068429D02*
X212125461Y-28385808D01*
X212125461Y-28385808D02*
X212157199Y-28354071D01*
X212157199Y-28354071D02*
X212220675Y-28322333D01*
X212220675Y-28322333D02*
X212379364Y-28322333D01*
X212379364Y-28322333D02*
X212442840Y-28354071D01*
X212442840Y-28354071D02*
X212474578Y-28385808D01*
X212474578Y-28385808D02*
X212506316Y-28449284D01*
X212506316Y-28449284D02*
X212506316Y-28607974D01*
X212506316Y-28607974D02*
X212474578Y-28671450D01*
X212474578Y-28671450D02*
X212442840Y-28703188D01*
X212442840Y-28703188D02*
X212379364Y-28734925D01*
X212379364Y-28734925D02*
X212220675Y-28734925D01*
X212220675Y-28734925D02*
X212157199Y-28703188D01*
X212157199Y-28703188D02*
X212125461Y-28671450D01*
X203834941Y-88613522D02*
X204342748Y-88613522D01*
X204088844Y-88867425D02*
X204088844Y-88359619D01*
X204564913Y-88200929D02*
X204787079Y-88867425D01*
X204787079Y-88867425D02*
X205009244Y-88200929D01*
X241931558Y-82074925D02*
X241550703Y-82074925D01*
X241741131Y-82074925D02*
X241741131Y-81408429D01*
X241741131Y-81408429D02*
X241677655Y-81503643D01*
X241677655Y-81503643D02*
X241614179Y-81567119D01*
X241614179Y-81567119D02*
X241550703Y-81598857D01*
X242344151Y-81408429D02*
X242407626Y-81408429D01*
X242407626Y-81408429D02*
X242471102Y-81440167D01*
X242471102Y-81440167D02*
X242502840Y-81471905D01*
X242502840Y-81471905D02*
X242534578Y-81535381D01*
X242534578Y-81535381D02*
X242566316Y-81662333D01*
X242566316Y-81662333D02*
X242566316Y-81821022D01*
X242566316Y-81821022D02*
X242534578Y-81947974D01*
X242534578Y-81947974D02*
X242502840Y-82011450D01*
X242502840Y-82011450D02*
X242471102Y-82043188D01*
X242471102Y-82043188D02*
X242407626Y-82074925D01*
X242407626Y-82074925D02*
X242344151Y-82074925D01*
X242344151Y-82074925D02*
X242280675Y-82043188D01*
X242280675Y-82043188D02*
X242248937Y-82011450D01*
X242248937Y-82011450D02*
X242217199Y-81947974D01*
X242217199Y-81947974D02*
X242185461Y-81821022D01*
X242185461Y-81821022D02*
X242185461Y-81662333D01*
X242185461Y-81662333D02*
X242217199Y-81535381D01*
X242217199Y-81535381D02*
X242248937Y-81471905D01*
X242248937Y-81471905D02*
X242280675Y-81440167D01*
X242280675Y-81440167D02*
X242344151Y-81408429D01*
X243169336Y-81408429D02*
X242851957Y-81408429D01*
X242851957Y-81408429D02*
X242820219Y-81725808D01*
X242820219Y-81725808D02*
X242851957Y-81694071D01*
X242851957Y-81694071D02*
X242915433Y-81662333D01*
X242915433Y-81662333D02*
X243074122Y-81662333D01*
X243074122Y-81662333D02*
X243137598Y-81694071D01*
X243137598Y-81694071D02*
X243169336Y-81725808D01*
X243169336Y-81725808D02*
X243201074Y-81789284D01*
X243201074Y-81789284D02*
X243201074Y-81947974D01*
X243201074Y-81947974D02*
X243169336Y-82011450D01*
X243169336Y-82011450D02*
X243137598Y-82043188D01*
X243137598Y-82043188D02*
X243074122Y-82074925D01*
X243074122Y-82074925D02*
X242915433Y-82074925D01*
X242915433Y-82074925D02*
X242851957Y-82043188D01*
X242851957Y-82043188D02*
X242820219Y-82011450D01*
X234731558Y-28734925D02*
X234350703Y-28734925D01*
X234541131Y-28734925D02*
X234541131Y-28068429D01*
X234541131Y-28068429D02*
X234477655Y-28163643D01*
X234477655Y-28163643D02*
X234414179Y-28227119D01*
X234414179Y-28227119D02*
X234350703Y-28258857D01*
X235144151Y-28068429D02*
X235207626Y-28068429D01*
X235207626Y-28068429D02*
X235271102Y-28100167D01*
X235271102Y-28100167D02*
X235302840Y-28131905D01*
X235302840Y-28131905D02*
X235334578Y-28195381D01*
X235334578Y-28195381D02*
X235366316Y-28322333D01*
X235366316Y-28322333D02*
X235366316Y-28481022D01*
X235366316Y-28481022D02*
X235334578Y-28607974D01*
X235334578Y-28607974D02*
X235302840Y-28671450D01*
X235302840Y-28671450D02*
X235271102Y-28703188D01*
X235271102Y-28703188D02*
X235207626Y-28734925D01*
X235207626Y-28734925D02*
X235144151Y-28734925D01*
X235144151Y-28734925D02*
X235080675Y-28703188D01*
X235080675Y-28703188D02*
X235048937Y-28671450D01*
X235048937Y-28671450D02*
X235017199Y-28607974D01*
X235017199Y-28607974D02*
X234985461Y-28481022D01*
X234985461Y-28481022D02*
X234985461Y-28322333D01*
X234985461Y-28322333D02*
X235017199Y-28195381D01*
X235017199Y-28195381D02*
X235048937Y-28131905D01*
X235048937Y-28131905D02*
X235080675Y-28100167D01*
X235080675Y-28100167D02*
X235144151Y-28068429D01*
X221737655Y-88486571D02*
X221674179Y-88454833D01*
X221674179Y-88454833D02*
X221642441Y-88423095D01*
X221642441Y-88423095D02*
X221610703Y-88359619D01*
X221610703Y-88359619D02*
X221610703Y-88327881D01*
X221610703Y-88327881D02*
X221642441Y-88264405D01*
X221642441Y-88264405D02*
X221674179Y-88232667D01*
X221674179Y-88232667D02*
X221737655Y-88200929D01*
X221737655Y-88200929D02*
X221864606Y-88200929D01*
X221864606Y-88200929D02*
X221928082Y-88232667D01*
X221928082Y-88232667D02*
X221959820Y-88264405D01*
X221959820Y-88264405D02*
X221991558Y-88327881D01*
X221991558Y-88327881D02*
X221991558Y-88359619D01*
X221991558Y-88359619D02*
X221959820Y-88423095D01*
X221959820Y-88423095D02*
X221928082Y-88454833D01*
X221928082Y-88454833D02*
X221864606Y-88486571D01*
X221864606Y-88486571D02*
X221737655Y-88486571D01*
X221737655Y-88486571D02*
X221674179Y-88518308D01*
X221674179Y-88518308D02*
X221642441Y-88550046D01*
X221642441Y-88550046D02*
X221610703Y-88613522D01*
X221610703Y-88613522D02*
X221610703Y-88740474D01*
X221610703Y-88740474D02*
X221642441Y-88803950D01*
X221642441Y-88803950D02*
X221674179Y-88835688D01*
X221674179Y-88835688D02*
X221737655Y-88867425D01*
X221737655Y-88867425D02*
X221864606Y-88867425D01*
X221864606Y-88867425D02*
X221928082Y-88835688D01*
X221928082Y-88835688D02*
X221959820Y-88803950D01*
X221959820Y-88803950D02*
X221991558Y-88740474D01*
X221991558Y-88740474D02*
X221991558Y-88613522D01*
X221991558Y-88613522D02*
X221959820Y-88550046D01*
X221959820Y-88550046D02*
X221928082Y-88518308D01*
X221928082Y-88518308D02*
X221864606Y-88486571D01*
X222245461Y-88264405D02*
X222277199Y-88232667D01*
X222277199Y-88232667D02*
X222340675Y-88200929D01*
X222340675Y-88200929D02*
X222499364Y-88200929D01*
X222499364Y-88200929D02*
X222562840Y-88232667D01*
X222562840Y-88232667D02*
X222594578Y-88264405D01*
X222594578Y-88264405D02*
X222626316Y-88327881D01*
X222626316Y-88327881D02*
X222626316Y-88391357D01*
X222626316Y-88391357D02*
X222594578Y-88486571D01*
X222594578Y-88486571D02*
X222213723Y-88867425D01*
X222213723Y-88867425D02*
X222626316Y-88867425D01*
X226817655Y-81694071D02*
X226754179Y-81662333D01*
X226754179Y-81662333D02*
X226722441Y-81630595D01*
X226722441Y-81630595D02*
X226690703Y-81567119D01*
X226690703Y-81567119D02*
X226690703Y-81535381D01*
X226690703Y-81535381D02*
X226722441Y-81471905D01*
X226722441Y-81471905D02*
X226754179Y-81440167D01*
X226754179Y-81440167D02*
X226817655Y-81408429D01*
X226817655Y-81408429D02*
X226944606Y-81408429D01*
X226944606Y-81408429D02*
X227008082Y-81440167D01*
X227008082Y-81440167D02*
X227039820Y-81471905D01*
X227039820Y-81471905D02*
X227071558Y-81535381D01*
X227071558Y-81535381D02*
X227071558Y-81567119D01*
X227071558Y-81567119D02*
X227039820Y-81630595D01*
X227039820Y-81630595D02*
X227008082Y-81662333D01*
X227008082Y-81662333D02*
X226944606Y-81694071D01*
X226944606Y-81694071D02*
X226817655Y-81694071D01*
X226817655Y-81694071D02*
X226754179Y-81725808D01*
X226754179Y-81725808D02*
X226722441Y-81757546D01*
X226722441Y-81757546D02*
X226690703Y-81821022D01*
X226690703Y-81821022D02*
X226690703Y-81947974D01*
X226690703Y-81947974D02*
X226722441Y-82011450D01*
X226722441Y-82011450D02*
X226754179Y-82043188D01*
X226754179Y-82043188D02*
X226817655Y-82074925D01*
X226817655Y-82074925D02*
X226944606Y-82074925D01*
X226944606Y-82074925D02*
X227008082Y-82043188D01*
X227008082Y-82043188D02*
X227039820Y-82011450D01*
X227039820Y-82011450D02*
X227071558Y-81947974D01*
X227071558Y-81947974D02*
X227071558Y-81821022D01*
X227071558Y-81821022D02*
X227039820Y-81757546D01*
X227039820Y-81757546D02*
X227008082Y-81725808D01*
X227008082Y-81725808D02*
X226944606Y-81694071D01*
X227452413Y-81694071D02*
X227388937Y-81662333D01*
X227388937Y-81662333D02*
X227357199Y-81630595D01*
X227357199Y-81630595D02*
X227325461Y-81567119D01*
X227325461Y-81567119D02*
X227325461Y-81535381D01*
X227325461Y-81535381D02*
X227357199Y-81471905D01*
X227357199Y-81471905D02*
X227388937Y-81440167D01*
X227388937Y-81440167D02*
X227452413Y-81408429D01*
X227452413Y-81408429D02*
X227579364Y-81408429D01*
X227579364Y-81408429D02*
X227642840Y-81440167D01*
X227642840Y-81440167D02*
X227674578Y-81471905D01*
X227674578Y-81471905D02*
X227706316Y-81535381D01*
X227706316Y-81535381D02*
X227706316Y-81567119D01*
X227706316Y-81567119D02*
X227674578Y-81630595D01*
X227674578Y-81630595D02*
X227642840Y-81662333D01*
X227642840Y-81662333D02*
X227579364Y-81694071D01*
X227579364Y-81694071D02*
X227452413Y-81694071D01*
X227452413Y-81694071D02*
X227388937Y-81725808D01*
X227388937Y-81725808D02*
X227357199Y-81757546D01*
X227357199Y-81757546D02*
X227325461Y-81821022D01*
X227325461Y-81821022D02*
X227325461Y-81947974D01*
X227325461Y-81947974D02*
X227357199Y-82011450D01*
X227357199Y-82011450D02*
X227388937Y-82043188D01*
X227388937Y-82043188D02*
X227452413Y-82074925D01*
X227452413Y-82074925D02*
X227579364Y-82074925D01*
X227579364Y-82074925D02*
X227642840Y-82043188D01*
X227642840Y-82043188D02*
X227674578Y-82011450D01*
X227674578Y-82011450D02*
X227706316Y-81947974D01*
X227706316Y-81947974D02*
X227706316Y-81821022D01*
X227706316Y-81821022D02*
X227674578Y-81757546D01*
X227674578Y-81757546D02*
X227642840Y-81725808D01*
X227642840Y-81725808D02*
X227579364Y-81694071D01*
X236851679Y-88867425D02*
X236978631Y-88867425D01*
X236978631Y-88867425D02*
X237042106Y-88835688D01*
X237042106Y-88835688D02*
X237073844Y-88803950D01*
X237073844Y-88803950D02*
X237137320Y-88708736D01*
X237137320Y-88708736D02*
X237169058Y-88581784D01*
X237169058Y-88581784D02*
X237169058Y-88327881D01*
X237169058Y-88327881D02*
X237137320Y-88264405D01*
X237137320Y-88264405D02*
X237105582Y-88232667D01*
X237105582Y-88232667D02*
X237042106Y-88200929D01*
X237042106Y-88200929D02*
X236915155Y-88200929D01*
X236915155Y-88200929D02*
X236851679Y-88232667D01*
X236851679Y-88232667D02*
X236819941Y-88264405D01*
X236819941Y-88264405D02*
X236788203Y-88327881D01*
X236788203Y-88327881D02*
X236788203Y-88486571D01*
X236788203Y-88486571D02*
X236819941Y-88550046D01*
X236819941Y-88550046D02*
X236851679Y-88581784D01*
X236851679Y-88581784D02*
X236915155Y-88613522D01*
X236915155Y-88613522D02*
X237042106Y-88613522D01*
X237042106Y-88613522D02*
X237105582Y-88581784D01*
X237105582Y-88581784D02*
X237137320Y-88550046D01*
X237137320Y-88550046D02*
X237169058Y-88486571D01*
X237486437Y-88867425D02*
X237613389Y-88867425D01*
X237613389Y-88867425D02*
X237676864Y-88835688D01*
X237676864Y-88835688D02*
X237708602Y-88803950D01*
X237708602Y-88803950D02*
X237772078Y-88708736D01*
X237772078Y-88708736D02*
X237803816Y-88581784D01*
X237803816Y-88581784D02*
X237803816Y-88327881D01*
X237803816Y-88327881D02*
X237772078Y-88264405D01*
X237772078Y-88264405D02*
X237740340Y-88232667D01*
X237740340Y-88232667D02*
X237676864Y-88200929D01*
X237676864Y-88200929D02*
X237549913Y-88200929D01*
X237549913Y-88200929D02*
X237486437Y-88232667D01*
X237486437Y-88232667D02*
X237454699Y-88264405D01*
X237454699Y-88264405D02*
X237422961Y-88327881D01*
X237422961Y-88327881D02*
X237422961Y-88486571D01*
X237422961Y-88486571D02*
X237454699Y-88550046D01*
X237454699Y-88550046D02*
X237486437Y-88581784D01*
X237486437Y-88581784D02*
X237549913Y-88613522D01*
X237549913Y-88613522D02*
X237676864Y-88613522D01*
X237676864Y-88613522D02*
X237740340Y-88581784D01*
X237740340Y-88581784D02*
X237772078Y-88550046D01*
X237772078Y-88550046D02*
X237803816Y-88486571D01*
X216498965Y-81408429D02*
X216943296Y-81408429D01*
X216943296Y-81408429D02*
X216657655Y-82074925D01*
X217228937Y-82074925D02*
X217355889Y-82074925D01*
X217355889Y-82074925D02*
X217419364Y-82043188D01*
X217419364Y-82043188D02*
X217451102Y-82011450D01*
X217451102Y-82011450D02*
X217514578Y-81916236D01*
X217514578Y-81916236D02*
X217546316Y-81789284D01*
X217546316Y-81789284D02*
X217546316Y-81535381D01*
X217546316Y-81535381D02*
X217514578Y-81471905D01*
X217514578Y-81471905D02*
X217482840Y-81440167D01*
X217482840Y-81440167D02*
X217419364Y-81408429D01*
X217419364Y-81408429D02*
X217292413Y-81408429D01*
X217292413Y-81408429D02*
X217228937Y-81440167D01*
X217228937Y-81440167D02*
X217197199Y-81471905D01*
X217197199Y-81471905D02*
X217165461Y-81535381D01*
X217165461Y-81535381D02*
X217165461Y-81694071D01*
X217165461Y-81694071D02*
X217197199Y-81757546D01*
X217197199Y-81757546D02*
X217228937Y-81789284D01*
X217228937Y-81789284D02*
X217292413Y-81821022D01*
X217292413Y-81821022D02*
X217419364Y-81821022D01*
X217419364Y-81821022D02*
X217482840Y-81789284D01*
X217482840Y-81789284D02*
X217514578Y-81757546D01*
X217514578Y-81757546D02*
X217546316Y-81694071D01*
X231834179Y-82074925D02*
X231961131Y-82074925D01*
X231961131Y-82074925D02*
X232024606Y-82043188D01*
X232024606Y-82043188D02*
X232056344Y-82011450D01*
X232056344Y-82011450D02*
X232119820Y-81916236D01*
X232119820Y-81916236D02*
X232151558Y-81789284D01*
X232151558Y-81789284D02*
X232151558Y-81535381D01*
X232151558Y-81535381D02*
X232119820Y-81471905D01*
X232119820Y-81471905D02*
X232088082Y-81440167D01*
X232088082Y-81440167D02*
X232024606Y-81408429D01*
X232024606Y-81408429D02*
X231897655Y-81408429D01*
X231897655Y-81408429D02*
X231834179Y-81440167D01*
X231834179Y-81440167D02*
X231802441Y-81471905D01*
X231802441Y-81471905D02*
X231770703Y-81535381D01*
X231770703Y-81535381D02*
X231770703Y-81694071D01*
X231770703Y-81694071D02*
X231802441Y-81757546D01*
X231802441Y-81757546D02*
X231834179Y-81789284D01*
X231834179Y-81789284D02*
X231897655Y-81821022D01*
X231897655Y-81821022D02*
X232024606Y-81821022D01*
X232024606Y-81821022D02*
X232088082Y-81789284D01*
X232088082Y-81789284D02*
X232119820Y-81757546D01*
X232119820Y-81757546D02*
X232151558Y-81694071D01*
X232754578Y-81408429D02*
X232437199Y-81408429D01*
X232437199Y-81408429D02*
X232405461Y-81725808D01*
X232405461Y-81725808D02*
X232437199Y-81694071D01*
X232437199Y-81694071D02*
X232500675Y-81662333D01*
X232500675Y-81662333D02*
X232659364Y-81662333D01*
X232659364Y-81662333D02*
X232722840Y-81694071D01*
X232722840Y-81694071D02*
X232754578Y-81725808D01*
X232754578Y-81725808D02*
X232786316Y-81789284D01*
X232786316Y-81789284D02*
X232786316Y-81947974D01*
X232786316Y-81947974D02*
X232754578Y-82011450D01*
X232754578Y-82011450D02*
X232722840Y-82043188D01*
X232722840Y-82043188D02*
X232659364Y-82074925D01*
X232659364Y-82074925D02*
X232500675Y-82074925D01*
X232500675Y-82074925D02*
X232437199Y-82043188D01*
X232437199Y-82043188D02*
X232405461Y-82011450D01*
X254699058Y-28734925D02*
X254318203Y-28734925D01*
X254508631Y-28734925D02*
X254508631Y-28068429D01*
X254508631Y-28068429D02*
X254445155Y-28163643D01*
X254445155Y-28163643D02*
X254381679Y-28227119D01*
X254381679Y-28227119D02*
X254318203Y-28258857D01*
X254921223Y-28068429D02*
X255333816Y-28068429D01*
X255333816Y-28068429D02*
X255111651Y-28322333D01*
X255111651Y-28322333D02*
X255206864Y-28322333D01*
X255206864Y-28322333D02*
X255270340Y-28354071D01*
X255270340Y-28354071D02*
X255302078Y-28385808D01*
X255302078Y-28385808D02*
X255333816Y-28449284D01*
X255333816Y-28449284D02*
X255333816Y-28607974D01*
X255333816Y-28607974D02*
X255302078Y-28671450D01*
X255302078Y-28671450D02*
X255270340Y-28703188D01*
X255270340Y-28703188D02*
X255206864Y-28734925D01*
X255206864Y-28734925D02*
X255016437Y-28734925D01*
X255016437Y-28734925D02*
X254952961Y-28703188D01*
X254952961Y-28703188D02*
X254921223Y-28671450D01*
X255905098Y-28290595D02*
X255905098Y-28734925D01*
X255746409Y-28036692D02*
X255587719Y-28512760D01*
X255587719Y-28512760D02*
X256000312Y-28512760D01*
X203866558Y-28100167D02*
X203803082Y-28068429D01*
X203803082Y-28068429D02*
X203707868Y-28068429D01*
X203707868Y-28068429D02*
X203612655Y-28100167D01*
X203612655Y-28100167D02*
X203549179Y-28163643D01*
X203549179Y-28163643D02*
X203517441Y-28227119D01*
X203517441Y-28227119D02*
X203485703Y-28354071D01*
X203485703Y-28354071D02*
X203485703Y-28449284D01*
X203485703Y-28449284D02*
X203517441Y-28576236D01*
X203517441Y-28576236D02*
X203549179Y-28639712D01*
X203549179Y-28639712D02*
X203612655Y-28703188D01*
X203612655Y-28703188D02*
X203707868Y-28734925D01*
X203707868Y-28734925D02*
X203771344Y-28734925D01*
X203771344Y-28734925D02*
X203866558Y-28703188D01*
X203866558Y-28703188D02*
X203898296Y-28671450D01*
X203898296Y-28671450D02*
X203898296Y-28449284D01*
X203898296Y-28449284D02*
X203771344Y-28449284D01*
X204183937Y-28734925D02*
X204183937Y-28068429D01*
X204183937Y-28068429D02*
X204564792Y-28734925D01*
X204564792Y-28734925D02*
X204564792Y-28068429D01*
X204882171Y-28734925D02*
X204882171Y-28068429D01*
X204882171Y-28068429D02*
X205040861Y-28068429D01*
X205040861Y-28068429D02*
X205136074Y-28100167D01*
X205136074Y-28100167D02*
X205199550Y-28163643D01*
X205199550Y-28163643D02*
X205231288Y-28227119D01*
X205231288Y-28227119D02*
X205263026Y-28354071D01*
X205263026Y-28354071D02*
X205263026Y-28449284D01*
X205263026Y-28449284D02*
X205231288Y-28576236D01*
X205231288Y-28576236D02*
X205199550Y-28639712D01*
X205199550Y-28639712D02*
X205136074Y-28703188D01*
X205136074Y-28703188D02*
X205040861Y-28734925D01*
X205040861Y-28734925D02*
X204882171Y-28734925D01*
X201358296Y-88867425D02*
X201136131Y-88550046D01*
X200977441Y-88867425D02*
X200977441Y-88200929D01*
X200977441Y-88200929D02*
X201231344Y-88200929D01*
X201231344Y-88200929D02*
X201294820Y-88232667D01*
X201294820Y-88232667D02*
X201326558Y-88264405D01*
X201326558Y-88264405D02*
X201358296Y-88327881D01*
X201358296Y-88327881D02*
X201358296Y-88423095D01*
X201358296Y-88423095D02*
X201326558Y-88486571D01*
X201326558Y-88486571D02*
X201294820Y-88518308D01*
X201294820Y-88518308D02*
X201231344Y-88550046D01*
X201231344Y-88550046D02*
X200977441Y-88550046D01*
X201612199Y-88676998D02*
X201929578Y-88676998D01*
X201548723Y-88867425D02*
X201770889Y-88200929D01*
X201770889Y-88200929D02*
X201993054Y-88867425D01*
X202151743Y-88200929D02*
X202310433Y-88867425D01*
X202310433Y-88867425D02*
X202437384Y-88391357D01*
X202437384Y-88391357D02*
X202564336Y-88867425D01*
X202564336Y-88867425D02*
X202723026Y-88200929D01*
D11*
X198952025Y-30536600D02*
G75*
G02*
X194372975Y-30536600I-2289525J0D01*
G01*
X194372975Y-30536600D02*
G75*
G02*
X198952025Y-30536600I2289525J0D01*
G01*
X198952025Y-86416600D02*
G75*
G02*
X194372975Y-86416600I-2289525J0D01*
G01*
X194372975Y-86416600D02*
G75*
G02*
X198952025Y-86416600I2289525J0D01*
G01*
X270072025Y-30536600D02*
G75*
G02*
X265492975Y-30536600I-2289525J0D01*
G01*
X265492975Y-30536600D02*
G75*
G02*
X270072025Y-30536600I2289525J0D01*
G01*
X270072025Y-86416600D02*
G75*
G02*
X265492975Y-86416600I-2289525J0D01*
G01*
X265492975Y-86416600D02*
G75*
G02*
X270072025Y-86416600I2289525J0D01*
G01*
D12*
X205774801Y-57220001D03*
X203234801Y-58610001D03*
X205774801Y-60000000D03*
X203234801Y-61390000D03*
X205774801Y-62780000D03*
X203234801Y-64170000D03*
X205774801Y-65560000D03*
X203234801Y-66949999D03*
X205774801Y-68339999D03*
D13*
X204504801Y-50285001D03*
X204504801Y-75274999D03*
D14*
X231340000Y-65000000D03*
D15*
X241500000Y-65000000D03*
D16*
X218000000Y-38880000D03*
D17*
X218000000Y-41420000D03*
X218000000Y-43960000D03*
X218000000Y-46500000D03*
X218000000Y-49040000D03*
X218000000Y-51580000D03*
X218000000Y-54120000D03*
D14*
X217340000Y-72000000D03*
D15*
X227500000Y-72000000D03*
D14*
X217340000Y-68500000D03*
D15*
X227500000Y-68500000D03*
D14*
X217340000Y-65000000D03*
D15*
X227500000Y-65000000D03*
D14*
X217340000Y-61500000D03*
D15*
X227500000Y-61500000D03*
D14*
X231340000Y-72000000D03*
D15*
X241500000Y-72000000D03*
D14*
X231340000Y-68500000D03*
D15*
X241500000Y-68500000D03*
D14*
X231340000Y-61500000D03*
D15*
X241500000Y-61500000D03*
D14*
X253840000Y-77000000D03*
D15*
X264000000Y-77000000D03*
D14*
X253920000Y-73500000D03*
D15*
X264080000Y-73500000D03*
D14*
X253840000Y-70000000D03*
D15*
X264000000Y-70000000D03*
D14*
X253920000Y-66500000D03*
D15*
X264080000Y-66500000D03*
D14*
X253840000Y-63000000D03*
D15*
X264000000Y-63000000D03*
D14*
X253920000Y-59500000D03*
D15*
X264080000Y-59500000D03*
D14*
X253840000Y-56000000D03*
D15*
X264000000Y-56000000D03*
D14*
X253840000Y-52500000D03*
D15*
X264000000Y-52500000D03*
D18*
X196662500Y-30536600D03*
X196662500Y-86416600D03*
X267782500Y-30536600D03*
X267782500Y-86416600D03*
D19*
X242382500Y-33076600D03*
X242382500Y-30536600D03*
X239842500Y-33076600D03*
X239842500Y-30536600D03*
X237302500Y-33076600D03*
X237302500Y-30536600D03*
X234762500Y-33076600D03*
X234762500Y-30536600D03*
X232222500Y-33076600D03*
X232222500Y-30536600D03*
X229682500Y-33076600D03*
X229682500Y-30536600D03*
X227142500Y-33076600D03*
X227142500Y-30536600D03*
X224602500Y-33076600D03*
X224602500Y-30536600D03*
X222062500Y-33076600D03*
X222062500Y-30536600D03*
X219522500Y-33076600D03*
X219522500Y-30536600D03*
X216982500Y-33076600D03*
X216982500Y-30536600D03*
X214442500Y-33076600D03*
X214442500Y-30536600D03*
X211902500Y-33076600D03*
X211902500Y-30536600D03*
X209362500Y-33076600D03*
X209362500Y-30536600D03*
X206822500Y-33076600D03*
X206822500Y-30536600D03*
X209362500Y-86416600D03*
X209362500Y-83876600D03*
X211902500Y-86416600D03*
X211902500Y-83876600D03*
X214442500Y-86416600D03*
X214442500Y-83876600D03*
X216982500Y-86416600D03*
X216982500Y-83876600D03*
X219522500Y-86416600D03*
X219522500Y-83876600D03*
X222062500Y-86416600D03*
X222062500Y-83876600D03*
X224602500Y-86416600D03*
X224602500Y-83876600D03*
X227142500Y-86416600D03*
X227142500Y-83876600D03*
X229682500Y-86416600D03*
X229682500Y-83876600D03*
X232222500Y-86416600D03*
X232222500Y-83876600D03*
X234762500Y-86416600D03*
X234762500Y-83876600D03*
X237302500Y-86416600D03*
X237302500Y-83876600D03*
X239842500Y-86416600D03*
X239842500Y-83876600D03*
X242382500Y-86416600D03*
X242382500Y-83876600D03*
X244922500Y-86416600D03*
X244922500Y-83876600D03*
X247462500Y-86416600D03*
X247462500Y-83876600D03*
X250002500Y-86416600D03*
X250002500Y-83876600D03*
X252542500Y-86416600D03*
X252542500Y-83876600D03*
X255082500Y-86416600D03*
X255082500Y-83876600D03*
X262702500Y-33076600D03*
X262702500Y-30536600D03*
X260162500Y-33076600D03*
X260162500Y-30536600D03*
X257622500Y-33076600D03*
X257622500Y-30536600D03*
X255082500Y-33076600D03*
X255082500Y-30536600D03*
X252542500Y-33076600D03*
X252542500Y-30536600D03*
X250002500Y-33076600D03*
X250002500Y-30536600D03*
X247462500Y-33076600D03*
X247462500Y-30536600D03*
X244922500Y-33076600D03*
X244922500Y-30536600D03*
X206822500Y-86416600D03*
D20*
X201742500Y-30536600D03*
D19*
X204282500Y-30536600D03*
D20*
X201742500Y-83876600D03*
D19*
X204282500Y-83876600D03*
X262702500Y-86416600D03*
X201742500Y-33076600D03*
X201742500Y-86416600D03*
X262702500Y-83876600D03*
X206822500Y-83876600D03*
X260162500Y-86416600D03*
X260162500Y-83876600D03*
X257622500Y-86416600D03*
X257622500Y-83876600D03*
X204282500Y-33076600D03*
X204282500Y-86416600D03*
M02*
